<?xml version="1.0" encoding="UTF-8"?>
<svg version="1.1" xmlns="http://www.w3.org/2000/svg" width="159" height="84">
<path d="M0 0 C52.47 0 104.94 0 159 0 C159 27.72 159 55.44 159 84 C106.53 84 54.06 84 0 84 C0 56.28 0 28.56 0 0 Z " fill="#D0EBFC" transform="translate(0,0)"/>
<path d="M0 0 C2.74185001 2.0164022 5.32343274 4.11998123 7.5 6.75 C7.5 7.41 7.5 8.07 7.5 8.75 C8.08007812 8.64300781 8.66015625 8.53601562 9.2578125 8.42578125 C14.60696576 7.60487159 17.87316627 7.52197647 22.5 10.75 C26.5 14.96052632 26.5 14.96052632 26.5 18.75 C27.386875 18.646875 28.27375 18.54375 29.1875 18.4375 C32.5 18.75 32.5 18.75 35.375 20.5625 C38.10472009 24.65708013 37.79493894 27.33627459 37.3828125 32.12890625 C37.52325844 35.27021382 38.41981833 36.45964454 40.5 38.75 C41.36625 38.42 42.2325 38.09 43.125 37.75 C46.45718275 36.76268659 49.05159538 36.58579026 52.5 36.75 C52.5 37.41 52.5 38.07 52.5 38.75 C51.22125 39.059375 49.9425 39.36875 48.625 39.6875 C46.39898325 40.22605244 44.55260001 40.7237 42.5 41.75 C41.88202749 43.93146145 41.88202749 43.93146145 41.5 46.5 C40.84275614 50.1513548 39.99244282 53.33870212 38.5 56.75 C38.5 57.41 38.5 58.07 38.5 58.75 C40.81 59.41 43.12 60.07 45.5 60.75 C45.5 61.08 45.5 61.41 45.5 61.75 C42.125 61.5 42.125 61.5 38.5 60.75 C37.0625 58.6875 37.0625 58.6875 36.5 56.75 C35.654375 57.059375 34.80875 57.36875 33.9375 57.6875 C30.5 58.75 30.5 58.75 26.75 59.125 C23.40393163 59.37660292 23.40393163 59.37660292 22.0625 61.8125 C21.7840625 62.7715625 21.7840625 62.7715625 21.5 63.75 C31.05026061 68.05698027 39.09238646 68.96837952 49.1640625 65.66796875 C53.11805104 64.11414382 56.30716429 62.37659415 58.875 58.875 C59.73115201 55.96408317 59.87744626 53.76957005 59.5 50.75 C58.06338689 48.22993156 58.06338689 48.22993156 55.5 46.75 C51.91571853 46.24968794 51.91571853 46.24968794 48.5 46.75 C46.31668311 48.51136355 46.31668311 48.51136355 46.3046875 50.6953125 C46.32789062 51.41460937 46.35109375 52.13390625 46.375 52.875 C46.41625 54.15375 46.4575 55.4325 46.5 56.75 C45.84 56.42 45.18 56.09 44.5 55.75 C44.02331606 48.59974093 44.02331606 48.59974093 45.9375 45.1875 C49.88170834 42.97489532 53.23512477 43.56835567 57.5 44.75 C60.0625 46.1875 60.0625 46.1875 61.5 48.75 C62.33855002 53.00953728 62.44030193 56.87294446 60.46484375 60.81640625 C56.79535178 65.54892653 52.32404406 68.43862584 46.5 69.75 C37.23170429 70.85578644 28.46519908 71.04956713 20.4453125 65.74609375 C18.52111585 64.52103684 18.52111585 64.52103684 16.2421875 65.09765625 C15.66726562 65.31292969 15.09234375 65.52820313 14.5 65.75 C18.76041226 69.51354036 23.01848911 73.24881962 27.5 76.75 C23.3812577 76.21150719 21.08047756 74.98564667 17.875 72.375 C17.11960937 71.76914063 16.36421875 71.16328125 15.5859375 70.5390625 C13.5 68.75 13.5 68.75 11.99609375 67.109375 C9.11079793 64.48774851 5.29944393 63.98623486 1.5 63.75 C-0.53273074 64.68166826 -2.53384339 65.6849985 -4.5 66.75 C-8.89242196 67.37637033 -12.34581567 67.4478789 -16.1875 65.125 C-16.950625 64.67125 -17.71375 64.2175 -18.5 63.75 C-20.51391949 64.37335603 -22.51132287 65.05028027 -24.5 65.75 C-29.112437 66.40277102 -33.59654148 66.92135909 -37.68359375 64.40625 C-38.36550781 63.8596875 -39.04742187 63.313125 -39.75 62.75 C-43.9468261 59.4773847 -46.86456385 59.50196372 -52.125 59.75 C-60.16671311 60.09683417 -60.16671311 60.09683417 -63.8125 57.0625 C-67.78706122 52.69048266 -68.99253786 48.71328773 -68.8125 42.73828125 C-68.2756095 39.32231542 -66.72760278 37.32932954 -64.5 34.75 C-63.46875 34.193125 -62.4375 33.63625 -61.375 33.0625 C-57.45917403 29.91281389 -57.74917985 27.38269218 -57.11328125 22.578125 C-55.93107466 17.12642074 -52.61113811 13.32612366 -48.21875 10.046875 C-44.88387671 8.45610211 -42.49142105 8.41610214 -38.8125 8.5 C-37.10513672 8.52320313 -37.10513672 8.52320313 -35.36328125 8.546875 C-32.5 8.75 -32.5 8.75 -30.5 9.75 C-30.335 9.04875 -30.17 8.3475 -30 7.625 C-27.6699315 3.15903538 -23.40952411 -0.25621193 -18.6015625 -1.8984375 C-12.19458676 -2.97023642 -5.69767308 -3.49143125 0 0 Z " fill="#B2DBF1" transform="translate(77.5,7.25)"/>
<path d="M0 0 C16.17 0 32.34 0 49 0 C49 27.72 49 55.44 49 84 C40.29625 84.144375 31.5925 84.28875 22.625 84.4375 C19.89686035 84.50122803 17.1687207 84.56495605 14.35791016 84.63061523 C12.1683187 84.65108092 9.97870039 84.66891339 7.7890625 84.68359375 C6.67426514 84.71940552 5.55946777 84.75521729 4.41088867 84.79211426 C-3.90416988 84.79853728 -8.82687069 82.55356807 -15 77 C-17.625 74.0625 -17.625 74.0625 -19 72 C-14.58694572 70.71382188 -14.58694572 70.71382188 -11.95703125 71.99609375 C-10.89548828 72.70958984 -10.89548828 72.70958984 -9.8125 73.4375 C-1.77330067 77.74033982 8.60270235 77.59317822 17.2421875 75.04296875 C21.74107294 72.94037392 25.77384591 70.55349701 28 66 C28.46353657 62.60254963 28.63556309 59.37821824 28 56 C26.20934918 53.75516078 24.42816171 52.61877447 22 51 C22.66 51 23.32 51 24 51 C22.54226087 33.56467275 19.15388894 17.68169806 6 5 C4.05415278 3.54283587 2.06992176 2.28138014 0 1 C0 0.67 0 0.34 0 0 Z " fill="#CFEAFB" transform="translate(110,0)"/>
<path d="M0 0 C1.35706938 -0.00472623 2.71413295 -0.01152887 4.07118225 -0.02029419 C6.905048 -0.0305683 9.73736098 -0.01577386 12.57104492 0.01708984 C16.18081795 0.05694201 19.7869437 0.03401492 23.3965826 -0.0079174 C26.19632296 -0.0333729 28.99521713 -0.02509018 31.79498482 -0.00702286 C33.76511665 -0.00016494 35.73528307 -0.02120858 37.70530701 -0.04293823 C46.19785715 0.1113188 51.02168692 1.79763933 56.97265625 7.9296875 C68.71335372 20.86688917 72.44580695 34.92254828 71.97265625 51.9296875 C70.08546875 52.084375 70.08546875 52.084375 68.16015625 52.2421875 C65.41560551 52.57736272 64.21936246 52.74465785 61.97265625 54.4296875 C60.88020622 55.76789994 60.88020622 55.76789994 60.97265625 56.9296875 C61.32328125 56.4346875 61.67390625 55.9396875 62.03515625 55.4296875 C63.97265625 53.9296875 63.97265625 53.9296875 67.34765625 53.4296875 C70.97265625 53.9296875 70.97265625 53.9296875 73.91015625 56.0546875 C75.97265625 58.9296875 75.97265625 58.9296875 76.53515625 61.8671875 C75.78667266 65.94226482 74.75488459 67.8162415 71.97265625 70.9296875 C64.01661626 75.92066031 55.68625838 78.46365594 46.33984375 76.328125 C42.44407992 75.20369171 39.37007467 74.19463311 35.97265625 71.9296875 C37.84765625 68.0546875 37.84765625 68.0546875 38.97265625 66.9296875 C41.06187017 66.42559544 43.17046648 66.00060734 45.28515625 65.6171875 C46.43628906 65.39417969 47.58742188 65.17117187 48.7734375 64.94140625 C51.97265625 64.9296875 51.97265625 64.9296875 54.390625 66.88671875 C54.91269531 67.56089844 55.43476562 68.23507813 55.97265625 68.9296875 C54.34765625 67.2421875 54.34765625 67.2421875 52.97265625 64.9296875 C53.66015625 62.8046875 53.66015625 62.8046875 54.97265625 59.9296875 C55.26232843 58.22444749 55.53149538 56.51565496 55.78515625 54.8046875 C56.6652494 50.22001619 56.6652494 50.22001619 59.22265625 47.8046875 C62.29004785 46.82869926 64.77241959 46.70641517 67.97265625 46.9296875 C67.97265625 46.2696875 67.97265625 45.6096875 67.97265625 44.9296875 C66.73515625 45.2390625 65.49765625 45.5484375 64.22265625 45.8671875 C62.80598958 46.22135417 61.38932292 46.57552083 59.97265625 46.9296875 C58.85117188 47.21005859 58.85117188 47.21005859 57.70703125 47.49609375 C57.1346875 47.63917969 56.56234375 47.78226563 55.97265625 47.9296875 C53.97265625 46.1171875 53.97265625 46.1171875 51.97265625 42.9296875 C51.84765625 40.2890625 51.84765625 40.2890625 51.97265625 37.3671875 C52.18355154 33.09290964 52.18355154 33.09290964 50.34765625 29.3046875 C47.9816235 27.7276313 47.9816235 27.7276313 44.91015625 27.5546875 C43.45609375 27.2453125 43.45609375 27.2453125 41.97265625 26.9296875 C40.34765625 24.0546875 40.34765625 24.0546875 38.97265625 20.9296875 C35.90478253 17.50782835 32.45495291 17.41804691 28.09375 17.04296875 C26.38873105 16.95190881 24.68010509 16.9296875 22.97265625 16.9296875 C21.578125 15.50390625 21.578125 15.50390625 20.16015625 13.6171875 C16.63931022 9.38531904 13.83746042 7.21337104 8.171875 6.65234375 C0.38875286 6.41002986 -4.40270848 7.43271653 -10.83984375 11.8671875 C-13.34556534 13.99282824 -13.34556534 13.99282824 -15.02734375 17.9296875 C-19.31734375 17.2696875 -23.60734375 16.6096875 -28.02734375 15.9296875 C-24.12109375 10.36328125 -24.12109375 10.36328125 -22.02734375 7.9296875 C-21.54510849 7.35673447 -21.06287323 6.78378143 -20.56602478 6.19346619 C-14.40718047 -0.18846882 -8.53183819 -0.09395937 0 0 Z " fill="#FCFDFD" transform="translate(62.02734375,-0.9296875)"/>
<path d="M0 0 C2.74185001 2.0164022 5.32343274 4.11998123 7.5 6.75 C7.5 7.41 7.5 8.07 7.5 8.75 C8.08007812 8.64300781 8.66015625 8.53601562 9.2578125 8.42578125 C14.60696576 7.60487159 17.87316627 7.52197647 22.5 10.75 C26.5 14.96052632 26.5 14.96052632 26.5 18.75 C27.386875 18.646875 28.27375 18.54375 29.1875 18.4375 C32.5 18.75 32.5 18.75 35.375 20.5625 C38.10472009 24.65708013 37.79493894 27.33627459 37.3828125 32.12890625 C37.52325844 35.27021382 38.41981833 36.45964454 40.5 38.75 C41.36625 38.42 42.2325 38.09 43.125 37.75 C46.45718275 36.76268659 49.05159538 36.58579026 52.5 36.75 C52.5 37.41 52.5 38.07 52.5 38.75 C51.22125 39.059375 49.9425 39.36875 48.625 39.6875 C46.39898325 40.22605244 44.55260001 40.7237 42.5 41.75 C41.88202749 43.93146145 41.88202749 43.93146145 41.5 46.5 C40.84275614 50.1513548 39.99244282 53.33870212 38.5 56.75 C38.5 57.41 38.5 58.07 38.5 58.75 C40.81 59.41 43.12 60.07 45.5 60.75 C45.5 61.08 45.5 61.41 45.5 61.75 C42.125 61.5 42.125 61.5 38.5 60.75 C37.0625 58.6875 37.0625 58.6875 36.5 56.75 C35.654375 57.059375 34.80875 57.36875 33.9375 57.6875 C30.5 58.75 30.5 58.75 26.75 59.125 C23.40393163 59.37660292 23.40393163 59.37660292 22.0625 61.8125 C21.7840625 62.7715625 21.7840625 62.7715625 21.5 63.75 C31.05026061 68.05698027 39.09238646 68.96837952 49.1640625 65.66796875 C53.11805104 64.11414382 56.30716429 62.37659415 58.875 58.875 C59.73115201 55.96408317 59.87744626 53.76957005 59.5 50.75 C58.06338689 48.22993156 58.06338689 48.22993156 55.5 46.75 C51.91571853 46.24968794 51.91571853 46.24968794 48.5 46.75 C46.31668311 48.51136355 46.31668311 48.51136355 46.3046875 50.6953125 C46.32789062 51.41460937 46.35109375 52.13390625 46.375 52.875 C46.41625 54.15375 46.4575 55.4325 46.5 56.75 C45.84 56.42 45.18 56.09 44.5 55.75 C44.02331606 48.59974093 44.02331606 48.59974093 45.9375 45.1875 C49.88170834 42.97489532 53.23512477 43.56835567 57.5 44.75 C60.0625 46.1875 60.0625 46.1875 61.5 48.75 C62.33855002 53.00953728 62.44030193 56.87294446 60.46484375 60.81640625 C56.79535178 65.54892653 52.32404406 68.43862584 46.5 69.75 C37.23170429 70.85578644 28.46519908 71.04956713 20.4453125 65.74609375 C18.52111585 64.52103684 18.52111585 64.52103684 16.2421875 65.09765625 C15.66726562 65.31292969 15.09234375 65.52820313 14.5 65.75 C18.76041226 69.51354036 23.01848911 73.24881962 27.5 76.75 C18.46469237 75.49773807 11.82235914 67.68237278 6.5 60.75 C2.88979893 55.71730122 0.28221908 50.69073028 -1.5 44.75 C-1.0703125 42.515625 -1.0703125 42.515625 -0.5 40.75 C2.04712163 43.11243607 3.88564283 45.67885858 5.8125 48.5625 C8.76975497 52.7995754 11.42541207 56.54234567 15.5 59.75 C18.80184928 59.78593158 18.80184928 59.78593158 21.5 58.75 C18.53 56.11 15.56 53.47 12.5 50.75 C12.995 49.76 12.995 49.76 13.5 48.75 C14.36625 49.575 15.2325 50.4 16.125 51.25 C18.50243173 53.21907287 19.40440546 53.73439273 22.5625 54.25 C25.97787726 53.66865919 27.80450398 52.93553732 30.5 50.75 C33.72883266 45.96242054 34.03256641 42.34194732 33.5 36.75 C32.1490712 33.8245356 32.1490712 33.8245356 30.5 31.75 C31.015625 31.37875 31.53125 31.0075 32.0625 30.625 C33.79607998 28.74679734 33.79607998 28.74679734 33.5625 25.75 C32.75257824 22.46282132 32.75257824 22.46282132 29.4375 20.875 C28.468125 20.50375 27.49875 20.1325 26.5 19.75 C26.5 21.73 26.5 23.71 26.5 25.75 C25.84 26.08 25.18 26.41 24.5 26.75 C24.47421875 26.14671875 24.4484375 25.5434375 24.421875 24.921875 C24.09668017 19.64464661 24.09668017 19.64464661 21.4375 15.1875 C20.798125 14.713125 20.15875 14.23875 19.5 13.75 C19.01789063 14.3275 18.53578125 14.905 18.0390625 15.5 C17.09160156 16.61375 17.09160156 16.61375 16.125 17.75 C15.49851562 18.4925 14.87203125 19.235 14.2265625 20 C13.37191406 20.86625 13.37191406 20.86625 12.5 21.75 C11.84 21.75 11.18 21.75 10.5 21.75 C10.28085938 21.03714844 10.06171875 20.32429688 9.8359375 19.58984375 C7.21488522 11.67341348 4.51822919 6.100285 -2.8125 1.8125 C-10.81289404 -0.49269828 -15.99852495 0.48493462 -23.3359375 4.36328125 C-25.38634645 5.67717146 -26.96680852 6.85990165 -28.5 8.75 C-28.27242269 10.91299211 -28.27242269 10.91299211 -27.5 12.75 C-28.28375 12.585 -29.0675 12.42 -29.875 12.25 C-38.59093271 11.04611708 -38.59093271 11.04611708 -46.875 13.375 C-51.78214246 17.81479556 -54.10428963 21.80320223 -54.6171875 28.359375 C-54.41782478 32.42637456 -53.0603552 36.02101554 -51.5 39.75 C-55.375 36 -55.375 36 -56.5 33.75 C-59.51488424 34.64631694 -61.21802222 35.42912874 -63.3125 37.8125 C-65.47616216 43.16471692 -65.26838511 47.77415257 -63.1875 53.125 C-59.24166146 56.97907486 -54.80953808 57.70640114 -49.5 58.75 C-49.5 59.08 -49.5 59.41 -49.5 59.75 C-57.8224235 60.65424722 -57.8224235 60.65424722 -61.65234375 58.58984375 C-66.57584087 54.51989159 -68.266651 51.20016449 -68.875 44.8125 C-68.74485602 40.49334682 -67.34834139 38.0480795 -64.5 34.75 C-63.46875 34.193125 -62.4375 33.63625 -61.375 33.0625 C-57.45917403 29.91281389 -57.74917985 27.38269218 -57.11328125 22.578125 C-55.93107466 17.12642074 -52.61113811 13.32612366 -48.21875 10.046875 C-44.88387671 8.45610211 -42.49142105 8.41610214 -38.8125 8.5 C-37.10513672 8.52320313 -37.10513672 8.52320313 -35.36328125 8.546875 C-32.5 8.75 -32.5 8.75 -30.5 9.75 C-30.335 9.04875 -30.17 8.3475 -30 7.625 C-27.6699315 3.15903538 -23.40952411 -0.25621193 -18.6015625 -1.8984375 C-12.19458676 -2.97023642 -5.69767308 -3.49143125 0 0 Z " fill="#6BB2CE" transform="translate(77.5,7.25)"/>
<path d="M0 0 C3.15111067 0.60252006 5.0237563 1.63788005 7.5625 3.5625 C12.54091234 6.7821835 17.23462736 6.72509288 23 6 C24.11375 5.608125 25.2275 5.21625 26.375 4.8125 C27.24125 4.544375 28.1075 4.27625 29 4 C30.67063747 4.99335201 32.33675599 5.99431758 34 7 C38.50396323 7.66973431 41.96887124 7.55852808 46 5.375 C49.72172815 3.66920793 51.66444183 3.82879419 55.55859375 4.86328125 C59.60972932 6.74948997 62.56754012 9.7093347 65.73828125 12.80859375 C67.73746426 14.74562599 69.76113965 16.35812987 72 18 C64.16786041 18.18584613 56.33624266 18.32774759 48.50244808 18.41449738 C44.86419925 18.45614774 41.22746498 18.51257608 37.59008789 18.60351562 C34.07565651 18.69082547 30.56267575 18.73835044 27.04724312 18.75901794 C25.06217144 18.78086667 23.07767911 18.84326199 21.0934906 18.90637207 C12.25258937 18.91074819 12.25258937 18.91074819 8.66165161 16.29980469 C6.8573997 14.28094369 5.4068222 12.30937316 4 10 C3.5727916 9.35027222 3.14558319 8.70054443 2.70542908 8.03112793 C0.94551939 5.1922653 0 3.38267303 0 0 Z " fill="#FCFDFE" transform="translate(30,66)"/>
<path d="M0 0 C0.28875 0.61875 0.5775 1.2375 0.875 1.875 C1.93720042 4.13325765 1.93720042 4.13325765 4 6 C8.13997567 6.1971417 11.07703567 6.30765478 15 5 C15.30292969 5.54269531 15.60585938 6.08539063 15.91796875 6.64453125 C19.31256703 12.54358385 19.31256703 12.54358385 25 16 C31.63673536 16.78740928 37.24932184 15.45584918 43 12 C45.9649465 9.21256647 48.52947208 6.22962868 51 3 C51.66 3.33 52.32 3.66 53 4 C53.203125 5.9609375 53.203125 5.9609375 53.25 8.375 C53.42403205 10.80424867 53.42403205 10.80424867 54 13 C58.35913266 16.48730613 63.59192455 16.65147958 69 17 C69.33 16.34 69.66 15.68 70 15 C71.65 17.97 73.3 20.94 75 24 C72 24 69 24 66 24 C65.278125 24.33 64.55625 24.66 63.8125 25 C59.85941456 26.40554149 56.15494998 26.53930795 52 26 C51.113125 25.46375 50.22625 24.9275 49.3125 24.375 C48.549375 23.92125 47.78625 23.4675 47 23 C44.98608051 23.62335603 42.98867713 24.30028027 41 25 C34.91798136 25.86075225 30.47084553 25.78396292 25.4375 22.0625 C24.71691406 21.51078125 23.99632813 20.9590625 23.25390625 20.390625 C20.00562183 18.38648418 17.10123346 18.37343086 13.359375 18.1875 C8.34450573 17.78896734 5.02889263 16.10803821 1.5625 12.375 C-0.42492292 8.0821665 -0.37170491 4.64631139 0 0 Z " fill="#8EC7E4" transform="translate(12,48)"/>
<path d="M0 0 C2.54712163 2.36243607 4.38564283 4.92885858 6.3125 7.8125 C9.26975497 12.0495754 11.92541207 15.79234567 16 19 C19.30184928 19.03593158 19.30184928 19.03593158 22 18 C17.545 14.04 17.545 14.04 13 10 C13.33 9.34 13.66 8.68 14 8 C14.64001953 8.6496875 14.64001953 8.6496875 15.29296875 9.3125 C20.83789757 14.25148814 25.1382219 14.55931214 32.4375 14.2109375 C33.283125 14.14132813 34.12875 14.07171875 35 14 C35.0825 12.989375 35.165 11.97875 35.25 10.9375 C35.84006068 6.62213084 37.68916002 3.65261803 40 0 C40.99 0.33 41.98 0.66 43 1 C42.04971873 6.20632825 41.13200627 11.12684282 39 16 C39 16.66 39 17.32 39 18 C41.31 18.66 43.62 19.32 46 20 C46 20.33 46 20.66 46 21 C42.625 20.75 42.625 20.75 39 20 C37.5625 17.9375 37.5625 17.9375 37 16 C36.154375 16.309375 35.30875 16.61875 34.4375 16.9375 C31 18 31 18 27.25 18.375 C23.90393163 18.62660292 23.90393163 18.62660292 22.5625 21.0625 C22.376875 21.701875 22.19125 22.34125 22 23 C31.55026061 27.30698027 39.59238646 28.21837952 49.6640625 24.91796875 C53.61805104 23.36414382 56.80716429 21.62659415 59.375 18.125 C60.23115201 15.21408317 60.37744626 13.01957005 60 10 C58.56338689 7.47993156 58.56338689 7.47993156 56 6 C52.41571853 5.49968794 52.41571853 5.49968794 49 6 C46.81668311 7.76136355 46.81668311 7.76136355 46.8046875 9.9453125 C46.82789063 10.66460937 46.85109375 11.38390625 46.875 12.125 C46.91625 13.40375 46.9575 14.6825 47 16 C46.34 15.67 45.68 15.34 45 15 C44.52331606 7.84974093 44.52331606 7.84974093 46.4375 4.4375 C50.38170834 2.22489532 53.73512477 2.81835567 58 4 C60.5625 5.4375 60.5625 5.4375 62 8 C62.83855002 12.25953728 62.94030193 16.12294446 60.96484375 20.06640625 C57.29535178 24.79892653 52.82404406 27.68862584 47 29 C37.73170429 30.10578644 28.96519908 30.29956713 20.9453125 24.99609375 C19.02111585 23.77103684 19.02111585 23.77103684 16.7421875 24.34765625 C16.16726562 24.56292969 15.59234375 24.77820313 15 25 C19.26041226 28.76354036 23.51848911 32.49881962 28 36 C18.96469237 34.74773807 12.32235914 26.93237278 7 20 C3.38979893 14.96730122 0.78221908 9.94073028 -1 4 C-0.5703125 1.765625 -0.5703125 1.765625 0 0 Z " fill="#487E9C" transform="translate(77,48)"/>
<path d="M0 0 C4.67484668 0.11427403 8.70723797 0.29904613 12.5 3.25 C15.02023532 6.02225885 15.78977719 7.32110087 16 11 C16.886875 10.896875 17.77375 10.79375 18.6875 10.6875 C22 11 22 11 24.875 12.8125 C27.60472009 16.90708013 27.29493894 19.58627459 26.8828125 24.37890625 C27.02325844 27.52021382 27.91981833 28.70964454 30 31 C30.86625 30.67 31.7325 30.34 32.625 30 C35.95718275 29.01268659 38.55159538 28.83579026 42 29 C42 29.66 42 30.32 42 31 C33.57142857 33.28571429 33.57142857 33.28571429 29 33 C27.99052845 35.40720139 27.06007535 37.80121134 26.3046875 40.30078125 C26.05976562 41.10902344 25.81484375 41.91726562 25.5625 42.75 C25.22412109 43.91789062 25.22412109 43.91789062 24.87890625 45.109375 C24.58886719 45.73328125 24.29882812 46.3571875 24 47 C20.98509443 48.00496852 18.95818308 48.10335303 15.8125 48.0625 C14.91144531 48.05347656 14.01039062 48.04445312 13.08203125 48.03515625 C12.39496094 48.02355469 11.70789063 48.01195312 11 48 C13.18275416 46.90630577 15.36818074 45.82039964 17.5625 44.75 C20.73381484 42.47315858 21.6843982 40.66983661 23 37 C23.5836683 32.92231738 23.37436041 29.74872082 21.5 26 C21.005 25.34 20.51 24.68 20 24 C20.515625 23.62875 21.03125 23.2575 21.5625 22.875 C23.29607998 20.99679734 23.29607998 20.99679734 23.0625 18 C22.25257824 14.71282132 22.25257824 14.71282132 18.9375 13.125 C17.968125 12.75375 16.99875 12.3825 16 12 C16 13.98 16 15.96 16 18 C15.34 18.33 14.68 18.66 14 19 C13.96132812 18.09507813 13.96132812 18.09507813 13.921875 17.171875 C13.59668017 11.89464661 13.59668017 11.89464661 10.9375 7.4375 C10.298125 6.963125 9.65875 6.48875 9 6 C8.50628906 6.5775 8.01257813 7.155 7.50390625 7.75 C6.86324219 8.4925 6.22257812 9.235 5.5625 10 C4.92441406 10.7425 4.28632812 11.485 3.62890625 12.25 C2.82259766 13.11625 2.82259766 13.11625 2 14 C1.67 14 1.34 14 1 14 C0.63794536 12.04310963 0.28558579 10.08442332 -0.0625 8.125 C-0.25972656 7.03445312 -0.45695312 5.94390625 -0.66015625 4.8203125 C-1 2 -1 2 0 0 Z " fill="#79B4CE" transform="translate(88,15)"/>
<path d="M0 0 C0.28875 0.61875 0.5775 1.2375 0.875 1.875 C1.93720042 4.13325765 1.93720042 4.13325765 4 6 C8.13997567 6.1971417 11.07703567 6.30765478 15 5 C15.86646667 6.43011973 16.71781829 7.86940619 17.5625 9.3125 C18.03816406 10.11300781 18.51382812 10.91351563 19.00390625 11.73828125 C20 14 20 14 19 17 C19.66 17.33 20.32 17.66 21 18 C15.21481095 19.53291761 10.46033473 18.21273965 5 16 C2.22631087 13.29235109 0.08116268 10.79856501 -0.09765625 6.8359375 C-0.08605469 6.02382813 -0.07445312 5.21171875 -0.0625 4.375 C-0.05347656 3.55773438 -0.04445313 2.74046875 -0.03515625 1.8984375 C-0.02355469 1.27195313 -0.01195312 0.64546875 0 0 Z " fill="#8FC7E4" transform="translate(12,48)"/>
<path d="M0 0 C0.92489001 1.21354995 1.79049878 2.47260707 2.625 3.75 C5.84321068 8.24274956 8.93962489 9.90605168 14 12 C12 13 12 13 9.6875 13.375 C6.91138668 13.86756773 6.91138668 13.86756773 4.5 15.5625 C1.64001195 17.20699313 0.23427559 17.68090012 -3 17 C-4.6875 14.625 -4.6875 14.625 -6 12 C-6.66 11.34 -7.32 10.68 -8 10 C-8.625 7.875 -8.625 7.875 -9 6 C-7.8803014 4.99406757 -6.7540588 3.9954151 -5.625 3 C-4.68527344 2.1646875 -4.68527344 2.1646875 -3.7265625 1.3125 C-2 0 -2 0 0 0 Z " fill="#8CC6E3" transform="translate(57,10)"/>
<path d="M0 0 C3.55038751 1.70768079 6.79398379 3.74198184 10.09765625 5.87890625 C14.18004862 8.28475145 18.37475127 8.6406891 23 8 C26.95224869 5.87186609 29.95482907 3.27941485 33 0 C32.67 0.78375 32.34 1.5675 32 2.375 C30.88133489 4.84332497 30.88133489 4.84332497 31 7 C34.91225493 8.95612746 39.72464907 8.37069517 44 8 C46.97984167 6.66829691 46.97984167 6.66829691 49 5 C49.66 5 50.32 5 51 5 C51.33 3.68 51.66 2.36 52 1 C54.475 5.455 54.475 5.455 57 10 C54 10 51 10 48 10 C47.278125 10.33 46.55625 10.66 45.8125 11 C41.85941456 12.40554149 38.15494998 12.53930795 34 12 C33.113125 11.46375 32.22625 10.9275 31.3125 10.375 C30.549375 9.92125 29.78625 9.4675 29 9 C26.98608051 9.62335603 24.98867713 10.30028027 23 11 C15.47911429 12.06438663 10.72431174 10.96123478 4.58203125 6.5078125 C4.05996094 6.01023437 3.53789063 5.51265625 3 5 C3 4.34 3 3.68 3 3 C2.34 3 1.68 3 1 3 C0.67 2.01 0.34 1.02 0 0 Z " fill="#6DB2CD" transform="translate(30,62)"/>
<path d="M0 0 C2.1875 0.9375 2.1875 0.9375 4.1875 3.9375 C3.8633631 7.25990324 3.57973697 8.54526303 1.1875 10.9375 C-1.70869822 11.30880746 -3.19138771 11.40333421 -5.5625 9.625 C-6.8125 7.9375 -6.8125 7.9375 -7.8125 4.9375 C-9.20931568 6.10733444 -9.20931568 6.10733444 -8.9375 9.375 C-9.0651281 12.77855584 -9.0651281 12.77855584 -7.8125 14.9375 C-8.72 14.545625 -9.6275 14.15375 -10.5625 13.75 C-11.635 13.481875 -12.7075 13.21375 -13.8125 12.9375 C-16.00288423 14.30918238 -16.00288423 14.30918238 -17.8125 15.9375 C-18.8025 15.6075 -19.7925 15.2775 -20.8125 14.9375 C-19.4925 13.9475 -18.1725 12.9575 -16.8125 11.9375 C-17.1425 9.6275 -17.4725 7.3175 -17.8125 4.9375 C-20.2875 3.9475 -20.2875 3.9475 -22.8125 2.9375 C-22.8125 2.6075 -22.8125 2.2775 -22.8125 1.9375 C-20.5 1.75 -20.5 1.75 -17.8125 1.9375 C-17.3175 2.453125 -16.8225 2.96875 -16.3125 3.5 C-15.8175 3.974375 -15.3225 4.44875 -14.8125 4.9375 C-11.3858168 4.84231436 -9.14396831 3.57909001 -6.3125 1.8125 C-2.8125 -0.0625 -2.8125 -0.0625 0 0 Z " fill="#A3AECD" transform="translate(89.8125,32.0625)"/>
<path d="M0 0 C1.25734846 0.63140759 2.5068281 1.27861889 3.75 1.9375 C10.42410086 5.02216846 17.76574477 5.3253946 25 6 C24.67 6.99 24.34 7.98 24 9 C22.43759968 9.02730408 20.8750573 9.04653226 19.3125 9.0625 C18.44238281 9.07410156 17.57226562 9.08570312 16.67578125 9.09765625 C14 9 14 9 9 8 C14.94 9.485 14.94 9.485 21 11 C21 11.33 21 11.66 21 12 C12.40106849 12.84911079 6.88809172 12.37297337 0.03515625 6.890625 C-2.25664935 4.76157718 -4.26202987 2.6069552 -6 0 C-3.45325478 -1.27337261 -2.66026727 -0.86212365 0 0 Z " fill="#F6F8FA" transform="translate(97,72)"/>
<path d="M0 0 C4.79285919 4.41447557 6.67107549 7.22763626 7.4375 13.6875 C7.23263794 20.4607519 3.71886359 26.75290366 -1.125 31.375 C-9.40149903 37.6537234 -18.85571095 39.08597553 -29 38 C-32.14889553 37.3075958 -35.14112725 36.51270451 -38 35 C-38.33 34.34 -38.66 33.68 -39 33 C-38.01 33.33 -37.02 33.66 -36 34 C-25.29251326 36.58194716 -15.06179638 36.26706372 -5.43359375 30.71484375 C-0.77793878 27.43421368 2.5589162 23.63332757 4 18 C4.61044587 12.1353593 4.07316251 8.16291302 1 3 C0.505 1.515 0.505 1.515 0 0 Z " fill="#5086A3" transform="translate(142,45)"/>
<path d="M0 0 C3.875 1.75 3.875 1.75 5 4 C5.42222151 7.71554927 5.13020872 9.72873183 3.5 13.125 C0.41725665 16.67015485 -2.7136269 18.23135091 -7 20 C-5.52404517 15.51695963 -3.96771452 11.06783525 -2.375 6.625 C-2.03082031 5.66400391 -2.03082031 5.66400391 -1.6796875 4.68359375 C-1.12037724 3.12218595 -0.56027192 1.56106299 0 0 Z " fill="#C9E5F6" transform="translate(133,54)"/>
<path d="M0 0 C2 3 2 3 1.75 5.5625 C1 8 1 8 -1 10 C-4.625 9.625 -4.625 9.625 -8 9 C-9.32561852 2.61292897 -9.32561852 2.61292897 -7.9375 0 C-4.99948754 -1.51639353 -3.09843192 -0.92293717 0 0 Z " fill="#B4B2D2" transform="translate(67,34)"/>
<path d="M0 0 C2.909259 1.939506 4.70739133 3.29429674 6.0625 6.5625 C5.96891622 11.70960789 4.39037725 16.44431348 2 21 C-1.01490557 22.00496852 -3.04181692 22.10335303 -6.1875 22.0625 C-7.53908203 22.04896484 -7.53908203 22.04896484 -8.91796875 22.03515625 C-9.60503906 22.02355469 -10.29210937 22.01195313 -11 22 C-8.81724584 20.90630577 -6.63181926 19.82039964 -4.4375 18.75 C-1.26618516 16.47315858 -0.3156018 14.66983661 1 11 C1.40327341 7.12857526 1.24139157 3.7241747 0 0 Z " fill="#8EC6E3" transform="translate(110,41)"/>
<path d="M0 0 C0.99 0.99 1.98 1.98 3 3 C2.67 3.99 2.34 4.98 2 6 C4.6675489 12.38807762 8.48235685 17.81799756 13 23 C13 23.66 13 24.32 13 25 C13.56460938 25.2578125 14.12921875 25.515625 14.7109375 25.78125 C17.24936904 27.13276986 19.3685305 28.7189739 21.625 30.5 C22.78902344 31.41265625 22.78902344 31.41265625 23.9765625 32.34375 C26 34 26 34 28 36 C18.96469237 34.74773807 12.32235914 26.93237278 7 20 C3.38979893 14.96730122 0.78221908 9.94073028 -1 4 C-0.5703125 1.765625 -0.5703125 1.765625 0 0 Z " fill="#417A99" transform="translate(77,48)"/>
<path d="M0 0 C0.66 0 1.32 0 2 0 C2.5775 0.639375 3.155 1.27875 3.75 1.9375 C6.48382274 4.44350418 8.36785602 4.66980509 12 5 C11.59007812 5.54269531 11.18015625 6.08539063 10.7578125 6.64453125 C10.21898437 7.35996094 9.68015625 8.07539062 9.125 8.8125 C8.59132813 9.52019531 8.05765625 10.22789063 7.5078125 10.95703125 C6.29185219 12.60456297 5.13583859 14.29624211 4 16 C-0.59225513 5.62642369 -0.59225513 5.62642369 0 0 Z " fill="#8EC7E4" transform="translate(22,32)"/>
<path d="M0 0 C0.99 0.33 1.98 0.66 3 1 C2.04971873 6.20632825 1.13200627 11.12684282 -1 16 C-1 16.66 -1 17.32 -1 18 C1.31 18.66 3.62 19.32 6 20 C6 20.33 6 20.66 6 21 C-0.32491289 20.52264808 -0.32491289 20.52264808 -2.9375 18.5 C-4.57546498 14.64596476 -4.65648168 11.11855878 -4 7 C-2.89940813 4.3890721 -1.60723318 2.36062374 0 0 Z " fill="#3F7A9A" transform="translate(117,48)"/>
<path d="M0 0 C0.49886719 0.433125 0.99773437 0.86625 1.51171875 1.3125 C8.21590833 6.5121587 13.7057411 6.69225654 22 6 C22.33 4.68 22.66 3.36 23 2 C23 3.98 23 5.96 23 8 C20.03158455 9.34927975 17.71080902 10.03044116 14.4375 10.375 C10.5937722 11.0738596 9.40741799 12.0148017 7 15 C6.01 14.01 5.02 13.02 4 12 C5.65 11.34 7.3 10.68 9 10 C8.3503125 9.44570312 7.700625 8.89140625 7.03125 8.3203125 C6.1959375 7.59585938 5.360625 6.87140625 4.5 6.125 C3.6646875 5.40570313 2.829375 4.68640625 1.96875 3.9453125 C1.3190625 3.30335937 0.669375 2.66140625 0 2 C0 1.34 0 0.68 0 0 Z " fill="#6AB0CC" transform="translate(90,56)"/>
<path d="M0 0 C4.62 0 9.24 0 14 0 C14 4.62 14 9.24 14 14 C13.34 13.01 12.68 12.02 12 11 C11.46375 10.319375 10.9275 9.63875 10.375 8.9375 C9 7 9 7 9 5 C6.06279492 3.47700477 3.0831351 2.19899698 0 1 C0 0.67 0 0.34 0 0 Z " fill="#000000" transform="translate(145,0)"/>
<path d="M0 0 C4.62 0 9.24 0 14 0 C13.01 0.66 12.02 1.32 11 2 C10.319375 2.53625 9.63875 3.0725 8.9375 3.625 C7 5 7 5 5 5 C3.47700477 7.93720508 2.19899698 10.9168649 1 14 C0.67 14 0.34 14 0 14 C0 9.38 0 4.76 0 0 Z " fill="#000000" transform="translate(0,0)"/>
<path d="M0 0 C7.75 -0.125 7.75 -0.125 10 1 C8.5682479 6.01113235 6.01554307 7.94469549 2 11 C1.34 7.37 0.68 3.74 0 0 Z " fill="#8EC7E4" transform="translate(87,18)"/>
<path d="M0 0 C2.92312013 2.63080812 4.82765954 5.74148931 7 9 C10.0335345 12.8891468 13.03831808 16.05703629 17 19 C15.35 19.66 13.7 20.32 12 21 C10.55748209 18.96172522 9.12096285 16.91962918 7.6875 14.875 C7.28337891 14.30523437 6.87925781 13.73546875 6.46289062 13.1484375 C0 3.90072409 0 3.90072409 0 0 Z " fill="#88BFDA" transform="translate(78,52)"/>
<path d="M0 0 C2.3125 -0.1875 2.3125 -0.1875 5 0 C6.5625 1.375 6.5625 1.375 8 3 C10.09989652 4.17574711 10.09989652 4.17574711 12 5 C11.67 6.98 11.34 8.96 11 11 C10.38125 11.12375 9.7625 11.2475 9.125 11.375 C6.80879168 11.87197356 6.80879168 11.87197356 5 14 C4.01 13.67 3.02 13.34 2 13 C3.32 12.01 4.64 11.02 6 10 C5.67 7.69 5.34 5.38 5 3 C2.525 2.01 2.525 2.01 0 1 C0 0.67 0 0.34 0 0 Z " fill="#4A9DB9" transform="translate(67,34)"/>
<path d="M0 0 C4.25018379 -0.41668469 6.35342568 -0.44022082 9.9375 2 C12.70834355 6.03031789 12.40691598 8.19839142 12 13 C11.01 13.495 11.01 13.495 10 14 C9.9175 12.9275 9.835 11.855 9.75 10.75 C8.92982288 6.64911442 8.24283524 5.50161575 5 3 C2.86690808 1.76487921 2.86690808 1.76487921 1 1 C1 2.65 1 4.3 1 6 C0.67 6 0.34 6 0 6 C0 4.02 0 2.04 0 0 Z " fill="#6BB1CD" transform="translate(103,26)"/>
<path d="M0 0 C0.33 0 0.66 0 1 0 C1.35029413 3.39915049 1.52871118 6.61411225 1 10 C-1.8125 12.375 -1.8125 12.375 -5 14 C-6.02323436 15.31558703 -7.03126968 16.64377755 -8 18 C-8.66 18 -9.32 18 -10 18 C-8.64717831 13.57258356 -6.76701112 11.63690779 -3 9 C-2.34 8.67 -1.68 8.34 -1 8 C-0.53476937 6.10466658 -0.53476937 6.10466658 -0.375 3.9375 C-0.25125 2.638125 -0.1275 1.33875 0 0 Z " fill="#75B7D2" transform="translate(20,30)"/>
<path d="M0 0 C0.33 0.66 0.66 1.32 1 2 C-0.07826365 3.27513763 -1.16285519 4.54492569 -2.25 5.8125 C-2.85328125 6.52019531 -3.4565625 7.22789063 -4.078125 7.95703125 C-5.97224549 9.97049673 -7.60933792 11.60544712 -10 13 C-12.25 12.6875 -12.25 12.6875 -14 12 C-13.32453125 11.55269531 -12.6490625 11.10539062 -11.953125 10.64453125 C-5.23560348 6.12119488 -5.23560348 6.12119488 0 0 Z " fill="#4880A0" transform="translate(149,71)"/>
<path d="M0 0 C2.69398922 2.58622965 5.24053318 5.29852336 7.75 8.0625 C8.36359375 8.73410156 8.9771875 9.40570313 9.609375 10.09765625 C11 12 11 12 11 15 C6.02357681 11.63359608 2.90940204 7.17893559 0 2 C0 1.34 0 0.68 0 0 Z " fill="#4E88A8" transform="translate(80,53)"/>
<path d="M0 0 C0.33 0 0.66 0 1 0 C1.29344873 4.98862849 1.05887078 7.96229058 -2 12 C-2.33 12 -2.66 12 -3 12 C-3.29344873 7.01137151 -3.05887078 4.03770942 0 0 Z " fill="#70B3CE" transform="translate(118,50)"/>
<path d="M0 0 C0.99 0.99 1.98 1.98 3 3 C2.67 3.99 2.34 4.98 2 6 C2.92203709 8.36522558 3.91698965 10.70401807 5 13 C4.01 13.495 4.01 13.495 3 14 C2.29866401 12.42274653 1.614417 10.83788667 0.9375 9.25 C0.55464844 8.36828125 0.17179687 7.4865625 -0.22265625 6.578125 C-1.04600008 3.84743691 -0.9773992 2.63098653 0 0 Z " fill="#5990AE" transform="translate(77,48)"/>
<path d="M0 0 C2.475 0.99 2.475 0.99 5 2 C3.8125 3.5625 3.8125 3.5625 2 5 C-0.625 4.8125 -0.625 4.8125 -3 4 C-3.33 3.34 -3.66 2.68 -4 2 C-2.68 2 -1.36 2 0 2 C0 1.34 0 0.68 0 0 Z " fill="#8EC7E3" transform="translate(95,63)"/>
<path d="M0 0 C0.99 0.33 1.98 0.66 3 1 C2.67 2.98 2.34 4.96 2 7 C1.34 7 0.68 7 0 7 C-0.38133299 5.0085944 -0.71325582 3.00720923 -1 1 C-0.67 0.67 -0.34 0.34 0 0 Z " fill="#273764" transform="translate(76,38)"/>
<path d="M0 0 C1.9375 0.8125 1.9375 0.8125 4 2 C4.33 2.99 4.66 3.98 5 5 C3.35 5 1.7 5 0 5 C-0.5625 3.0625 -0.5625 3.0625 -1 1 C-0.67 0.67 -0.34 0.34 0 0 Z " fill="#78B7D2" transform="translate(82,67)"/>
<path d="M0 0 C0.99 0.33 1.98 0.66 3 1 C2.67 2.65 2.34 4.3 2 6 C1.01 6 0.02 6 -1 6 C-1.042721 4.33388095 -1.04063832 2.66617115 -1 1 C-0.67 0.67 -0.34 0.34 0 0 Z " fill="#5D6498" transform="translate(68,26)"/>
<path d="M0 0 C0.99 0 1.98 0 3 0 C3 3.3 3 6.6 3 10 C2.01 10.495 2.01 10.495 1 11 C0.67 7.37 0.34 3.74 0 0 Z " fill="#7FBDD7" transform="translate(101,23)"/>
</svg>
