<?xml version="1.0" encoding="utf-8"?>
<!-- Generator: Adobe Illustrator 27.5.0, SVG Export Plug-In . SVG Version: 6.00 Build 0)  -->
<svg version="1.1" xmlns="http://www.w3.org/2000/svg" xmlns:xlink="http://www.w3.org/1999/xlink" x="0px" y="0px"
	 viewBox="0 0 750 500" style="enable-background:new 0 0 750 500;" xml:space="preserve">
<g id="BACKGROUND">
	<rect style="fill:#B5D7F2;" width="750" height="500"/>
</g>
<g id="OBJECTS">
	<g id="BACK_CLOUDS">
		<g>
			<path style="fill:#92B7F7;" d="M405.569,186.966c76.731,33.575,123.259-7.654,196.393,37.134s39.104,197.293-119.064,231.876
				s-302.381-7.654-351.492-158.777C93.656,181.033,158.808,94.332,231.56,91.336C339.224,86.902,349.209,162.304,405.569,186.966z"
				/>
			
				<ellipse transform="matrix(0.3827 -0.9239 0.9239 0.3827 -225.422 305.1943)" style="fill:#92B7F7;" cx="115.667" cy="321.281" rx="10.182" ry="10.182"/>
			<circle style="fill:#92B7F7;" cx="647.545" cy="229.328" r="10.182"/>
			<circle style="fill:#92B7F7;" cx="216.671" cy="69.266" r="4.465"/>
			<circle style="fill:#92B7F7;" cx="594.853" cy="201.657" r="4.465"/>
			<path style="fill:#92B7F7;" d="M140.385,351.378c0-2.466-1.999-4.465-4.465-4.465c-2.466,0-4.465,1.999-4.465,4.465
				c0,2.466,1.999,4.465,4.465,4.465C138.387,355.842,140.385,353.844,140.385,351.378z"/>
			<circle style="fill:#92B7F7;" cx="87.244" cy="361.506" r="4.465"/>
			<path style="fill:none;stroke:#2A2A68;stroke-width:0.75;stroke-linecap:round;stroke-linejoin:round;stroke-miterlimit:10;" d="
				M115.633,197.391c5.801-58.488,55.743-101.154,113.626-97.327c92.558,6.118,151.908,102.471,221.304,102.67
				c69.396,0.199,175.591-22.825,186.8,76.369c11.209,99.194-122.184,182.444-250.151,182.534
				C226.853,461.751,100.144,353.54,115.633,197.391z"/>
		</g>
		<g>
			<path style="fill:#FFFFFF;" d="M354.395,416.107c-81.238,0.327-161.696-54.461-161.213-133.05
				c0.474-77.141,57.513-72.94,119.71-128.858c62.197-55.918,94.096-89.233,161.455-59.438
				C577.657,140.458,592.284,415.15,354.395,416.107z"/>
			<circle style="fill:#FFFFFF;" cx="173.102" cy="328.013" r="10.182"/>
			
				<ellipse transform="matrix(0.7071 -0.7071 0.7071 0.7071 -167.794 447.7589)" style="fill:#FFFFFF;" cx="456.596" cy="426.425" rx="10.182" ry="10.182"/>
			
				<ellipse transform="matrix(0.9732 -0.2298 0.2298 0.9732 -33.8362 54.3956)" style="fill:#FFFFFF;" cx="216.671" cy="172.499" rx="10.182" ry="10.182"/>
			
				<ellipse transform="matrix(0.9732 -0.2298 0.2298 0.9732 -22.9456 50.8092)" style="fill:#FFFFFF;" cx="206.716" cy="123.939" rx="10.182" ry="10.182"/>
			<circle style="fill:#FFFFFF;" cx="572.709" cy="274.969" r="10.182"/>
			
				<ellipse transform="matrix(0.7071 -0.7071 0.7071 0.7071 88.7315 339.9531)" style="fill:#FFFFFF;" cx="454.725" cy="62.868" rx="10.182" ry="10.182"/>
			<circle style="fill:#FFFFFF;" cx="243.235" cy="155.997" r="4.465"/>
			<circle style="fill:#FFFFFF;" cx="176.053" cy="285.896" r="4.465"/>
			<circle style="fill:#FFFFFF;" cx="494.286" cy="49.135" r="4.465"/>
			<circle style="fill:#FFFFFF;" cx="484.98" cy="397.78" r="4.465"/>
			<path style="fill:none;stroke:#2A2A68;stroke-width:0.75;stroke-linecap:round;stroke-linejoin:round;stroke-miterlimit:10;" d="
				M195.473,277.549c-5.368,57.788,46.418,130.813,137.143,141.363c90.725,10.549,195.692-31.121,218.374-168.791
				S424.923,57.593,364.264,117.725C303.605,177.857,204.44,181.022,195.473,277.549z"/>
		</g>
	</g>
	<g id="DESIGN">
		<g>
			<g>
				<path style="fill:#FFB044;" d="M344.006,226.236c0,0,27.002-48.038,29.2-89.798c2.198-41.759,10.047-62.795,26.688-65.935
					c16.641-3.14,40.817,26.374,22.292,102.043c-18.525,75.669-27.002,79.436-27.002,79.436L344.006,226.236z"/>
				
					<path style="fill:none;stroke:#2A2A68;stroke-width:0.75;stroke-linecap:round;stroke-linejoin:round;stroke-miterlimit:10;" d="
					M401.464,117.286c0,0,0.314,60.912-26.374,119.625"/>
			</g>
			<g>
				<path style="fill:#5DA8A2;" d="M334.005,319.947c-35.336-7.499-49.666-39.781-43.522-74.202
					c6.144-34.422,2.001-47.121-11.193-57.535c-13.194-10.414-12.235-28.616-5.892-40.467c6.342-11.85-7.502-22.879-8.128-50.854
					s14.317-56.358,38.25-50.974c31.801,7.154,10.397,45.743,28.022,62.936c20.085,19.592,20.511,36.164,19.398,66.524
					c-1.608,43.847,30.995,34.439,38.668,72.79C397.28,286.516,388.973,331.612,334.005,319.947z"/>
				
					<path style="fill:none;stroke:#2A2A68;stroke-width:0.75;stroke-linecap:round;stroke-linejoin:round;stroke-miterlimit:10;" d="
					M300.342,111.849c0.396,84.571,47.642,118.126,46.79,179.551"/>
			</g>
			<g>
				<path style="fill:#FFB044;" d="M297.538,330.162c0,0-12.245-46.783-43.957-65.935c-31.712-19.153-51.581-39.236-33.596-59.97
					c22.606-26.06,124.021,19.467,136.266,92.937C368.497,370.665,297.538,330.162,297.538,330.162z"/>
				
					<path style="fill:none;stroke:#2A2A68;stroke-width:0.75;stroke-linecap:round;stroke-linejoin:round;stroke-miterlimit:10;" d="
					M255.465,231.573c0,0,75.355,38.933,80.692,104.24"/>
			</g>
			<g>
				<path style="fill:#FFB044;" d="M391.103,253.552c3.768-35.165,26.374-57.458,57.458-53.062
					c31.084,4.396,24.804-23.862,49.922-36.735c25.118-12.873,30.77,1.884,52.748-7.221c21.978-9.105,41.759-18.525,51.806,5.024
					c10.047,23.548-32.34,28.258-42.073,49.294c-9.733,21.036-11.617,42.701-45.527,45.527
					c-33.91,2.826-28.886,49.294-66.877,57.458c-37.991,8.163-55.574,2.198-55.574,2.198L391.103,253.552z"/>
				
					<path style="fill:none;stroke:#2A2A68;stroke-width:0.75;stroke-linecap:round;stroke-linejoin:round;stroke-miterlimit:10;" d="
					M533.649,198.92c-57.994,19.825-92.845,82.033-138.187,100.697"/>
			</g>
			<g>
				<path style="fill:#5DA8A2;" d="M358.135,246.644c0,0,11.5-48.195,48.98-96.077c30.532-39.005,70.331-28.572,68.133-5.966
					c-2.198,22.606-54.004,62.482-59.028,113.032C411.198,308.184,358.135,246.644,358.135,246.644z"/>
				
					<path style="fill:none;stroke:#2A2A68;stroke-width:0.75;stroke-linecap:round;stroke-linejoin:round;stroke-miterlimit:10;" d="
					M430.978,170.034c0,0-37.049,33.91-48.352,93.879"/>
			</g>
			<g>
				<path style="fill:#5DA8A2;" d="M340.553,298.137c0,0-39.875,5.024-62.796-6.28c-22.92-11.303-61.226-30.456-74.727-4.71
					c-13.501,25.746,20.408,69.703,102.671,75.041C387.963,367.526,340.553,298.137,340.553,298.137z"/>
				
					<path style="fill:none;stroke:#2A2A68;stroke-width:0.75;stroke-linecap:round;stroke-linejoin:round;stroke-miterlimit:10;" d="
					M240.708,300.334c0,0,21.036,42.387,108.322,34.537"/>
			</g>
			<g>
				<path style="fill:#5DA8A2;" d="M399.968,292.452c0,0,42.514,5.228,66.951-6.535c24.437-11.764,65.277-31.697,79.671-4.902
					c14.394,26.796-21.759,72.544-109.465,78.099C349.42,364.67,399.968,292.452,399.968,292.452z"/>
				
					<path style="fill:none;stroke:#2A2A68;stroke-width:0.75;stroke-linecap:round;stroke-linejoin:round;stroke-miterlimit:10;" d="
					M506.42,294.74c0,0-22.428,44.115-115.49,35.945"/>
			</g>
		</g>
		<g>
			<g>
				<path style="fill:#FF5678;" d="M489.188,339.518c-7.833-21.499-58.163-20.665-80.607-20.202h-80.52
					c0,0-74.107-8.463-79.607,28.535c-4.471,30.081,55.885,41.323,114.193,40.175l1.549,5.072
					C401.693,388.098,497.021,361.017,489.188,339.518z"/>
				<path style="fill:#EA3963;" d="M406.915,381.944c0,0-19.647,2.428-76.162-3.974c-44.864-5.082-72.873-20.727-82.524-26.966
					c0.079,27.713,58.196,38.127,114.418,37.021l1.549,5.072c10.576-1.41,25.754-4.578,41.918-8.88L406.915,381.944z"/>
				<path style="fill:#EA3963;" d="M489.188,339.518c-0.431-1.182-1.011-2.285-1.687-3.336c-3.648,4.124-19.318,19.782-55.64,31.192
					c-24.351,7.649-51.572,15.446-70.228,20.668c0.338-0.006,0.676-0.01,1.014-0.016l1.549,5.072
					C401.693,388.098,497.021,361.017,489.188,339.518z"/>
				<g>
					<path style="fill:#D2684D;" d="M365.054,392.978c16.821-2.336,44.524-8.879,69.55-17.299l-11.185-27.368l-58.02,29.62
						L365.054,392.978z"/>
					<path style="fill:#BC513C;" d="M431.284,367.555c-22.695,7.118-47.793,14.345-66.094,19.49l-0.136,5.934
						c16.821-2.336,44.524-8.879,69.55-17.299L431.284,367.555z"/>
					<path style="fill:#2A2A68;" d="M365.4,377.932c0,0,1.284,7.88-0.346,15.046l-18.82,22.118l4.125-37.164H365.4z"/>
					<path style="fill:#303351;" d="M426.309,346.837l-5.679,2.899c0,0,2.789,13.989,10.426,27.12
						c2.358-0.769,4.698-1.556,7.01-2.358L426.309,346.837z"/>
					
						<line style="fill:none;stroke:#2A2A68;stroke-width:0.75;stroke-linecap:round;stroke-linejoin:round;stroke-miterlimit:10;" x1="365.4" y1="377.932" x2="442.441" y2="338.602"/>
				</g>
				<g>
					<path style="fill:#D2684D;" d="M301.801,384.111c30.188,5.113,68.102,5.083,99.929,1.238l1.963-8l-3.167-7.166l-89.08-20.904
						L301.801,384.111z"/>
					<path style="fill:#BC513C;" d="M401.731,385.348l0.762-3.105c-8.505,0.367-30.113,0.443-71.74-4.273
						c-9.43-1.068-18.097-2.61-26.025-4.427l-2.926,10.567C331.989,389.224,369.904,389.194,401.731,385.348z"/>
					<path style="fill:#2A2A68;" d="M297.371,383.312c2.954,0.566,5.992,1.079,9.103,1.541c2.434-7.269,6.609-20.415,9.945-34.407
						l-8.702-2.042L297.371,383.312z"/>
					
						<path style="fill:none;stroke:#2A2A68;stroke-width:0.75;stroke-linecap:round;stroke-linejoin:round;stroke-miterlimit:10;" d="
						M248.453,347.851c-5.5,36.998,87.069,45.497,153.277,37.497"/>
					
						<line style="fill:none;stroke:#2A2A68;stroke-width:0.75;stroke-linecap:round;stroke-linejoin:round;stroke-miterlimit:10;" x1="400.527" y1="370.183" x2="291.867" y2="344.684"/>
					<path style="fill:#2A2A68;" d="M400.527,370.183c0,0-0.425,7.999,1.204,15.166l17.962,21.999l-4.125-37.164H400.527z"/>
				</g>
			</g>
			<g>
				<g>
					<path style="fill:#D2684D;" d="M332.865,270.314c0,0-24.498,45.83-57.788,56.83c-24.016,7.935-43.247,7.583-49.33,7.291
						c-6.083-0.292-11.041-2.375-10.749-4.5c0.292-2.125,2.125-2,2.125-2c-2.281-0.75-4.376-2.538-3.948-4.073
						c0.594-2.125,4.15-0.755,4.15-0.755c-0.635-0.413-1.217-0.911-1.588-1.495c-1.25-1.969,0.625-3.937,2.812-2.594
						c2.187,1.344,5.817,2.252,5.817,2.252c-0.061-0.733-0.072-1.869,0.214-3.189c0.822-3.8,4.75-5.187,5.25-2.937
						c0.5,2.25-1.875,4-0.125,6c1.75,2,10.187-0.25,9.124-2.937c-1.063-2.687-3.5-1.438-6.125-2.125
						c-2.625-0.688-0.625-4.062,3.75-3.937c4.375,0.125,7.25,5.5,7.25,5.5s32.498-10.666,57.329-47.83
						c11.35-16.987,21.237-33.179,31.072-41.664l7.842,22.624L332.865,270.314z"/>
					
						<path style="fill:none;stroke:#2A2A68;stroke-width:0.75;stroke-linecap:round;stroke-linejoin:round;stroke-miterlimit:10;" d="
						M217.122,327.936c2.208,0.708,7.645,2.021,11.333,1.521"/>
					
						<path style="fill:none;stroke:#2A2A68;stroke-width:0.75;stroke-linecap:round;stroke-linejoin:round;stroke-miterlimit:10;" d="
						M217.325,323.108c0,0,6.443,2.786,10.505,2.099"/>
					
						<path style="fill:none;stroke:#2A2A68;stroke-width:0.75;stroke-linecap:round;stroke-linejoin:round;stroke-miterlimit:10;" d="
						M224.366,321.272c0,0,1.526,0.498,3.464,0.748"/>
					
						<path style="fill:none;stroke:#2A2A68;stroke-width:0.75;stroke-linecap:round;stroke-linejoin:round;stroke-miterlimit:10;" d="
						M237.41,320.55c-1.849,0.807-3.123,5.51,0.71,7.385"/>
					
						<path style="fill:none;stroke:#2A2A68;stroke-width:0.75;stroke-linecap:round;stroke-linejoin:round;stroke-miterlimit:10;" d="
						M225.747,334.435c-6.083-0.292-11.041-2.375-10.749-4.5c0.292-2.125,2.125-2,2.125-2c-2.281-0.75-4.376-2.538-3.948-4.073
						c0.594-2.125,4.15-0.755,4.15-0.755c-0.635-0.413-1.217-0.911-1.588-1.495c-1.25-1.969,0.625-3.937,2.812-2.594
						c2.187,1.344,5.817,2.252,5.817,2.252c-0.061-0.733-0.072-1.869,0.214-3.189c0.822-3.8,4.75-5.187,5.25-2.937
						c0.5,2.25-1.875,4-0.125,6c1.75,2,10.187-0.25,9.124-2.937c-1.063-2.687-3.5-1.438-6.125-2.125
						c-2.625-0.688-0.625-4.062,3.75-3.937c4.375,0.125,7.25,5.5,7.25,5.5"/>
					<path style="fill:#BC513C;" d="M335.83,249.268l-0.883-0.441c0,0-16.778,46.36-54.749,68.436
						c-16.673,9.694-30.597,14.53-38.966,16.837c8.917-0.742,20.656-2.597,33.844-6.955c33.29-10.999,57.788-56.83,57.788-56.83
						l5.172-14.268C336.687,251.855,335.83,249.268,335.83,249.268z"/>
				</g>
				<g>
					<path style="fill:#D2684D;" d="M403.776,270.314c0,0,24.498,45.83,57.788,56.83c24.016,7.935,43.247,7.583,49.33,7.291
						c6.083-0.292,11.041-2.375,10.749-4.5c-0.292-2.125-2.125-2-2.125-2c2.281-0.75,4.376-2.538,3.948-4.073
						c-0.594-2.125-4.15-0.755-4.15-0.755c0.635-0.413,1.217-0.911,1.588-1.495c1.25-1.969-0.625-3.937-2.812-2.594
						c-2.187,1.344-5.817,2.252-5.817,2.252c0.061-0.733,0.072-1.869-0.214-3.189c-0.821-3.8-4.75-5.187-5.25-2.937
						c-0.5,2.25,1.875,4,0.125,6c-1.75,2-10.187-0.25-9.124-2.937c1.062-2.687,3.5-1.438,6.125-2.125
						c2.625-0.688,0.625-4.062-3.75-3.937c-4.375,0.125-7.25,5.5-7.25,5.5s-32.498-10.666-57.329-47.83
						c-11.35-16.987-21.237-33.179-31.072-41.664l-7.842,22.624L403.776,270.314z"/>
					
						<path style="fill:none;stroke:#2A2A68;stroke-width:0.75;stroke-linecap:round;stroke-linejoin:round;stroke-miterlimit:10;" d="
						M519.519,327.936c-2.208,0.708-7.645,2.021-11.333,1.521"/>
					
						<path style="fill:none;stroke:#2A2A68;stroke-width:0.75;stroke-linecap:round;stroke-linejoin:round;stroke-miterlimit:10;" d="
						M519.316,323.108c0,0-6.443,2.786-10.505,2.099"/>
					
						<path style="fill:none;stroke:#2A2A68;stroke-width:0.75;stroke-linecap:round;stroke-linejoin:round;stroke-miterlimit:10;" d="
						M512.275,321.272c0,0-1.526,0.498-3.463,0.748"/>
					
						<path style="fill:none;stroke:#2A2A68;stroke-width:0.75;stroke-linecap:round;stroke-linejoin:round;stroke-miterlimit:10;" d="
						M499.231,320.55c1.849,0.807,3.123,5.51-0.71,7.385"/>
					
						<path style="fill:none;stroke:#2A2A68;stroke-width:0.75;stroke-linecap:round;stroke-linejoin:round;stroke-miterlimit:10;" d="
						M519.519,327.936c2.281-0.75,4.376-2.538,3.948-4.073c-0.594-2.125-4.15-0.755-4.15-0.755c0.635-0.413,1.217-0.911,1.588-1.495
						c1.25-1.969-0.625-3.937-2.812-2.594c-2.187,1.344-5.817,2.252-5.817,2.252c0.061-0.733,0.072-1.869-0.214-3.189
						c-0.821-3.8-4.75-5.187-5.25-2.937c-0.5,2.25,1.875,4,0.125,6c-1.75,2-10.187-0.25-9.124-2.937
						c1.062-2.687,3.5-1.438,6.125-2.125c2.625-0.688,0.625-4.062-3.75-3.937c-4.375,0.125-7.25,5.5-7.25,5.5"/>
					<path style="fill:#BC513C;" d="M496.894,334.215c-12.183-3.797-39.687-13.755-60.397-31.596
						c-21.671-18.669-35.574-49.128-38.44-55.776l-1.363,3.932l7.083,19.54c0,0,24.498,45.83,57.788,56.83
						C475.499,331.748,487.815,333.56,496.894,334.215z"/>
				</g>
				<path style="fill:#2A2A68;" d="M404.535,228.15c0,0-3.127-2.71-9.009-5.63l-27.206,13.796l-27.664-13.568
					c-5.587,2.831-8.551,5.402-8.551,5.402c-3.592,36.164-4.045,94.957-4.045,94.957s16.137,9.203,40.26,9.203
					c24.123,0,40.26-9.203,40.26-9.203S408.127,264.315,404.535,228.15z"/>
			</g>
			<g>
				<rect x="359.613" y="191.486" style="fill:#D2684D;" width="16.958" height="35.664"/>
				<path style="fill:#2A2A68;" d="M352.032,195.264c0,0-20.501,6.515-19.959-15.074c0,0-10.291-6.424-5.375-16.84
					c0,0-3.417-5.5,1.833-7.916c0,0-5.073-14.832,10.38-15.249c0,0,2.036-9.416,9.619-11.666c7.583-2.25,14.082,4.333,14.082,4.333
					s4.916-5.687,12.416-4.802c7.499,0.885,7.583,8.718,10.666,10.468c3.083,1.75,12.416-2.25,16.582,2.75
					c4.166,5,1,16.582,1,16.582s7.083,1.417,4.75,9.083c0,0,8.719,29.931-22.165,25.998L352.032,195.264z"/>
				<path style="fill:#BC513C;" d="M376.57,208.295v-16.809h-16.958v16.388C362.528,209.148,368.514,210.829,376.57,208.295z"/>
				<path style="fill:#D2684D;" d="M395.527,222.52c-6.169-3.062-15.369-6.354-27.206-6.994
					c-12.132,0.656-21.497,4.098-27.664,7.223c1.93,9.772,8.494,25.15,27.664,25.15C386.202,247.899,393.111,233.953,395.527,222.52
					z"/>
				<path style="fill:#D2684D;" d="M393.856,166.099c-1.998,0-3.816,0.75-5.205,1.976c-10.417-2.211-11.519-13.163-11.519-13.163
					c-9.624,4.5-14.936-5.937-14.936-5.937c-3.062,12.937-14.249,13.686-14.249,13.686s0.812,9.562-2.312,9.874
					c-3.124,0.312-3.354-6.937-8.045-6.077c-3.197,1.002-5.517,3.987-5.517,7.514c0,4.349,3.526,7.875,7.874,7.875
					c1.435,0,2.775-0.39,3.934-1.06c1.676,10.609,6.69,23.725,24.21,23.725c17.564,0,21.441-13.171,21.713-23.797
					c1.185,0.714,2.568,1.131,4.051,1.131c4.349,0,7.874-3.526,7.874-7.875C401.731,169.625,398.205,166.099,393.856,166.099z"/>
				<g>
					<g>
						
							<path style="fill:none;stroke:#2A2A68;stroke-width:0.75;stroke-linecap:round;stroke-linejoin:round;stroke-miterlimit:10;" d="
							M336.406,173.432c0,0,2.958,0.292,4.458-0.833"/>
						
							<path style="fill:none;stroke:#2A2A68;stroke-width:0.75;stroke-linecap:round;stroke-linejoin:round;stroke-miterlimit:10;" d="
							M340.531,177.348c0,0-1.573-1.192-1.62-4.012"/>
					</g>
					<g>
						
							<path style="fill:none;stroke:#2A2A68;stroke-width:0.75;stroke-linecap:round;stroke-linejoin:round;stroke-miterlimit:10;" d="
							M397.876,173.432c0,0-2.958,0.292-4.458-0.833"/>
						
							<path style="fill:none;stroke:#2A2A68;stroke-width:0.75;stroke-linecap:round;stroke-linejoin:round;stroke-miterlimit:10;" d="
							M393.752,177.348c0,0,1.573-1.192,1.62-4.012"/>
					</g>
					
						<path style="fill:none;stroke:#2A2A68;stroke-width:0.75;stroke-linecap:round;stroke-linejoin:round;stroke-miterlimit:10;" d="
						M352.588,169.153c1.862,0.699,4.85,1.149,7.545-1.429"/>
					
						<path style="fill:none;stroke:#2A2A68;stroke-width:0.75;stroke-linecap:round;stroke-linejoin:round;stroke-miterlimit:10;" d="
						M383.813,169.148c-1.861,0.702-4.857,1.16-7.559-1.424"/>
					
						<path style="fill:none;stroke:#2A2A68;stroke-width:0.75;stroke-linecap:round;stroke-linejoin:round;stroke-miterlimit:10;" d="
						M366.659,164.162l0.771,3.562c0,0,4.541-0.375,4.854,2.437c0.312,2.812-5.625,2.437-5.625,2.437"/>
					
						<path style="fill:none;stroke:#2A2A68;stroke-width:0.75;stroke-linecap:round;stroke-linejoin:round;stroke-miterlimit:10;" d="
						M358.634,179.411c0,0,10.459,5.125,18.885-0.563"/>
				</g>
				<g>
					<path style="fill:#ED7E70;" d="M356.674,184.158c0-2.932-2.377-5.309-5.31-5.309c-2.932,0-5.309,2.377-5.309,5.309
						c0,2.932,2.377,5.309,5.309,5.309C354.297,189.467,356.674,187.09,356.674,184.158z"/>
					<circle style="fill:#ED7E70;" cx="382.828" cy="184.158" r="5.31"/>
				</g>
			</g>
		</g>
	</g>
	<g id="CLOUDS">
		<path style="fill:#FFFFFF;" d="M72.683,228.793c-12.331,0-14.74-6.803-10.701-9.496c4.039-2.693,8.788-1.417,7.866-8.717
			c-0.921-7.299-1.37-15.961,6.094-18.851c8.787-3.402,10.036,3.106,14.528,5.102c6.378,2.835,10.843-8.646,18.496-9.284
			c7.654-0.638,8.362,6.661,13.465,5.882c5.102-0.779,8.929-9.78,15.591-4.394c6.661,5.386-0.142,14.599,5.882,17.575
			c6.024,2.976,12.827-8.717,18.78,2.339c5.953,11.055-1.559,19.843-14.315,19.843S81.47,228.793,72.683,228.793z"/>
		<path style="fill:#FFFFFF;" d="M550.512,119.003c-7.547,0-13.88-3.748-12.118-10.099c1.701-6.13,11.48-1.913,14.351-5.846
			c2.87-3.933-1.169-9.461,3.083-12.225c4.252-2.764,7.547,4.252,12.543,3.295c4.996-0.957,2.277-10.63,6.666-15.839
			c4.389-5.209,10.448-6.803,14.913-2.232s11.799,5.315,14.244,0.425c2.445-4.89,8.185-16.397,20.41-14.577
			c12.224,1.821,8.823,14.47,9.673,18.829s4.784,6.272,11.268,4.039c6.484-2.232,10.205,1.701,10.205,8.079
			c0,6.378,3.238,8.192,9.036,6.697c12.224-3.154,22.004,19.453,0,19.453C642.781,119.003,563.693,119.003,550.512,119.003z"/>
		<path style="fill:#FFFFFF;" d="M135.707,446.366c-7.547,0-13.88-3.748-12.118-10.098c1.701-6.13,11.48-1.913,14.351-5.846
			s-1.169-9.461,3.083-12.225s7.547,4.252,12.543,3.295c4.996-0.957,2.277-10.63,6.666-15.839
			c4.389-5.209,10.448-6.803,14.913-2.232c4.465,4.571,11.799,5.315,14.244,0.425c2.445-4.89,8.185-16.397,20.41-14.577
			c12.225,1.821,8.823,14.47,9.673,18.829c0.85,4.358,4.784,6.272,11.268,4.039s10.205,1.701,10.205,8.079s3.238,8.192,9.036,6.697
			c12.225-3.154,22.004,19.453,0,19.453C227.976,446.366,148.888,446.366,135.707,446.366z"/>
		<path style="fill:#FFFFFF;" d="M668.844,354.343c-9.049-1.59-11.41-7.441-9.284-11.197c2.126-3.756,6.796,0.58,7.863-4.245
			c1.067-4.826,6.807-9.007,12.476-5.251c5.669,3.756,7.866,0.85,7.229-2.906c-0.638-3.756,1.772-9.567,9.567-9.85
			c7.795-0.284,7.866,8.362,7.654,12.331s3.26,6.017,5.811,4.39c2.551-1.626,7.654-4.751,11.48,0
			c3.827,4.751,0.213,11.484-5.173,13.893C711.081,353.917,685.781,357.319,668.844,354.343z"/>
		<path style="fill:#FFFFFF;" d="M111.426,123.276c9.049-1.59,11.41-7.441,9.284-11.197c-2.126-3.756-6.796,0.58-7.863-4.245
			c-1.066-4.826-6.807-9.007-12.476-5.251c-5.669,3.756-7.866,0.85-7.228-2.905c0.638-3.756-1.772-9.567-9.567-9.851
			c-7.795-0.284-7.866,8.362-7.654,12.331c0.213,3.969-3.26,6.017-5.811,4.39c-2.551-1.627-7.654-4.752-11.48,0
			c-3.827,4.751-0.213,11.484,5.173,13.893C69.19,122.851,94.489,126.253,111.426,123.276z"/>
		<path style="fill:#FFFFFF;" d="M520.392,438.772c-7.335,0-17.54-0.531-17.965-6.591c-0.425-6.059,4.89-5.421,9.886-4.996
			c4.996,0.425-0.106-7.973,5.953-10.736s7.441,0.531,10.205-5.953c2.764-6.484,3.295-17.858,15.307-17.008
			c12.012,0.85,7.972,12.65,10.736,15.945c2.764,3.295,8.929-4.039,13.5-1.063c4.571,2.976,1.488,7.76,5.74,8.717
			c4.252,0.957,12.544-9.227,23.174-5.145c10.63,4.082,14.776,26.831-3.614,26.831S529.321,438.772,520.392,438.772z"/>
	</g>
</g>
</svg>
