<svg width="28" height="28" viewBox="0 0 28 28" fill="none" xmlns="http://www.w3.org/2000/svg">
<path d="M2 4.97467L6.2 2M26 4.97467L21.8 2M24.6667 15.3333C24.6667 18.1623 23.5429 20.8754 21.5425 22.8758C19.5421 24.8762 16.829 26 14 26C11.171 26 8.45792 24.8762 6.45753 22.8758C4.45714 20.8754 3.33333 18.1623 3.33333 15.3333C3.33333 12.5044 4.45714 9.79125 6.45753 7.79086C8.45792 5.79047 11.171 4.66667 14 4.66667C16.829 4.66667 19.5421 5.79047 21.5425 7.79086C23.5429 9.79125 24.6667 12.5044 24.6667 15.3333Z" stroke="#F9F9F9" stroke-width="2.5" stroke-linecap="round" stroke-linejoin="round"/>
<path d="M14 9.33333V16L18 18.6667" stroke="#F9F9F9" stroke-width="2.5" stroke-linecap="round" stroke-linejoin="round"/>
</svg>
