<svg width="134" height="110" viewBox="0 0 134 110" fill="none" xmlns="http://www.w3.org/2000/svg">
<path d="M132.831 45.1301C133.383 45.2411 133.383 45.2411 133.946 45.3544C134.216 49.2949 133.441 52.7848 132.385 56.5677C132.306 56.8502 132.306 56.8502 132.226 57.1385C131.573 59.4516 130.722 61.6992 129.882 63.9486C129.593 64.728 129.317 65.5122 129.043 66.297C127.318 70.7494 125.184 75.3377 122.287 79.1441C121.896 79.6742 121.568 80.2222 121.232 80.7884C121.014 81.0907 120.791 81.3899 120.563 81.6854C120.17 82.2017 119.831 82.6918 119.504 83.2553C119.412 83.4033 119.32 83.5513 119.225 83.7038C119.078 83.7038 118.931 83.7038 118.779 83.7038C118.723 83.829 118.667 83.9542 118.609 84.0832C117.826 85.5512 116.611 86.8094 115.433 87.9649C115.149 88.2863 114.865 88.6088 114.583 88.932C110.083 93.9789 110.083 93.9789 107.627 95.5899C107.48 95.5899 107.332 95.5899 107.181 95.5899C107.107 95.8119 107.033 96.034 106.958 96.2627C106.737 96.3367 106.516 96.4107 106.288 96.487C105.989 96.7841 105.692 97.0834 105.396 97.384C102.927 99.1945 100.25 100.81 97.5897 102.318C97.437 102.406 97.2844 102.493 97.1271 102.584C93.4938 104.668 93.4938 104.668 91.8202 105.282C91.3358 105.461 90.8774 105.671 90.4105 105.892C87.9296 107.01 85.2741 107.704 82.6457 108.373C82.3823 108.446 82.119 108.519 81.8476 108.594C80.5108 108.928 79.1434 109.094 77.7806 109.284C77.5113 109.323 77.242 109.362 76.9646 109.402C73.8885 109.839 70.8884 109.996 67.7854 109.999C67.5826 109.999 67.3797 110 67.1708 110C64.08 109.999 61.0778 109.855 58.0207 109.362C57.46 109.273 56.899 109.196 56.336 109.123C52.6051 108.617 49.0356 107.519 45.467 106.341C45.2513 106.27 45.0356 106.199 44.8133 106.126C41.552 105.023 38.5305 103.414 35.5833 101.645C35.4013 101.537 35.2193 101.429 35.0318 101.317C34.3786 100.918 33.7397 100.5 33.1019 100.075C32.8713 99.9226 32.6407 99.7699 32.4032 99.6127C31.7915 99.1782 31.7915 99.1782 31.4448 98.8277C31.1172 98.474 31.1172 98.474 30.611 98.1996C29.8808 97.7557 29.2452 97.2255 28.5992 96.6692C28.4718 96.5602 28.3445 96.4511 28.2132 96.3388C27.2001 95.4633 26.2477 94.5413 25.3232 93.5715C25.1392 93.3865 24.9552 93.2015 24.7656 93.0109C24.5816 92.8258 24.3976 92.6408 24.208 92.4502C24.0832 92.3325 23.9585 92.2149 23.8299 92.0936C22.487 90.8008 21.3688 89.3554 20.2451 87.8717C19.9894 87.5412 19.7206 87.2212 19.4509 86.9022C19.078 86.395 19.078 86.395 19.078 85.7222C18.9308 85.7222 18.7836 85.7222 18.6319 85.7222C18.0928 84.7737 17.8851 84.1247 17.9628 83.031C20.0153 82.7911 22.1593 83.8063 23.7619 85.0494C23.5411 84.7927 23.5411 84.7927 23.3158 84.5308C22.8697 83.9281 22.8697 83.9281 22.8697 83.2553C23.9744 83.3842 24.9437 83.6312 25.9924 83.9982C36.8479 87.5373 51.789 87.4393 62.5717 83.7038C63.0592 83.5528 63.5471 83.4034 64.0354 83.2553C64.5141 83.106 64.9927 82.9565 65.4713 82.8068C65.6889 82.7406 65.9066 82.6744 66.1308 82.6062C69.7082 81.4746 72.9953 79.6161 76.1774 77.6487C76.4621 77.4769 76.4621 77.4769 76.7525 77.3017C78.1445 76.4423 79.4234 75.483 80.6895 74.4488C81.3197 73.937 81.9184 73.5178 82.6457 73.1633C82.9285 72.7073 82.9285 72.7073 83.0918 72.2663C83.3126 72.2663 83.5334 72.2663 83.7609 72.2663C83.8207 72.1229 83.8805 71.9795 83.9422 71.8318C84.207 71.3692 84.207 71.3692 84.8762 71.1449C85.0332 70.8503 85.1803 70.5502 85.3223 70.2479C85.9668 69.3256 86.748 68.6302 87.5963 67.9045C88.016 67.5507 88.016 67.5507 88.4449 67.1082C89.0315 67.0556 89.5964 67.0298 90.1839 67.0232C90.4466 67.0175 90.4466 67.0175 90.7147 67.0116C91.2777 66.9997 91.8408 66.9907 92.4039 66.982C97.4646 66.8986 97.4646 66.8986 102.469 66.1831C102.704 66.1348 102.94 66.0865 103.182 66.0368C104.906 65.6707 106.603 65.2315 108.296 64.7394C108.513 64.6764 108.729 64.6135 108.953 64.5487C110.273 64.1506 111.511 63.6617 112.757 63.0714C113.097 62.916 113.437 62.7606 113.778 62.6053C116.182 61.4878 118.43 60.2753 120.615 58.7586C121.232 58.3618 121.232 58.3618 121.679 58.3618C121.752 58.1398 121.826 57.9178 121.902 57.689C122.199 57.6143 122.496 57.5395 122.794 57.4647C122.867 57.2427 122.941 57.0207 123.017 56.7919C123.159 56.7596 123.302 56.7272 123.449 56.6938C123.601 56.6522 123.753 56.6106 123.909 56.5677C124.065 56.2724 124.214 55.9733 124.355 55.6706C124.686 55.5596 124.686 55.5596 125.024 55.4463C125.089 55.3168 125.153 55.1873 125.219 55.0539C125.559 54.3716 126.025 53.9352 126.586 53.428C126.733 53.428 126.88 53.428 127.032 53.428C127.089 53.2652 127.147 53.1024 127.206 52.9347C127.489 52.2796 127.821 51.7889 128.258 51.2274C128.394 51.0501 128.53 50.8729 128.67 50.6903C128.791 50.5576 128.913 50.425 129.039 50.2882C129.186 50.2882 129.333 50.2882 129.485 50.2882C129.503 50.1634 129.522 50.0385 129.541 49.9098C129.76 49.2314 130.149 48.817 130.6 48.2698C130.72 48.0617 130.84 47.8536 130.963 47.6391C131.115 47.3963 131.115 47.3963 131.269 47.1485C131.417 47.1485 131.564 47.1485 131.716 47.1485C131.734 47.0236 131.752 46.8987 131.771 46.7701C131.989 46.0951 132.374 45.6635 132.831 45.1301ZM122.151 63.9965C121.912 64.1352 121.673 64.274 121.428 64.417C121.236 64.5264 121.236 64.5264 121.041 64.638C120.072 65.1949 119.119 65.7786 118.166 66.3609C117.422 66.8033 116.66 67.1861 115.879 67.5567C115.659 67.6631 115.438 67.7695 115.21 67.8791C113.674 68.6079 112.14 69.2648 110.526 69.7994C110.27 69.8867 110.014 69.974 109.75 70.0639C104.71 71.7088 99.1868 72.5071 93.8903 72.4949C91.4869 72.4447 91.4869 72.4447 89.4486 73.5838C89.1083 73.9619 88.7739 74.3453 88.4449 74.7332C88.0217 75.1418 87.5968 75.5427 87.1624 75.9386C87.0532 76.0402 86.944 76.1417 86.8315 76.2463C85.5035 77.47 84.0755 78.5675 82.6457 79.667C82.7193 79.8151 82.7929 79.9631 82.8688 80.1156C84.3779 80.6107 85.9375 80.7337 87.5118 80.8854C87.9538 80.9282 88.3956 80.9739 88.8374 81.0196C94.7688 81.6073 100.419 80.5586 106.155 79.0805C107.426 78.7555 108.262 78.5422 109.481 79.1204C110.08 79.667 110.08 79.667 110.359 80.3959C110.27 81.7356 109.578 82.483 108.603 83.3543C102.487 87.7239 91.7369 86.8424 84.7915 85.6751C79.5409 84.7623 79.5409 84.7623 77.9618 83.7038C76.5831 83.7586 75.434 84.2858 74.184 84.8392C73.9889 84.9237 73.7938 85.0083 73.5928 85.0954C73.1153 85.3027 72.6387 85.5116 72.1626 85.7222C75.5689 89.1472 85.1157 88.4461 89.5322 88.4555C91.2265 88.448 92.9003 88.3881 94.5882 88.2408C95.6076 88.1725 96.624 88.1547 97.6455 88.1471C97.9251 88.1428 97.9251 88.1428 98.2104 88.1383C98.673 88.1376 99.1354 88.1614 99.5971 88.1891C100.128 88.7234 100.115 88.8732 100.127 89.6048C100.133 89.7751 100.139 89.9454 100.146 90.1208C99.9998 90.8817 99.6936 91.2319 99.151 91.7774C98.4906 92.1164 98.4906 92.1164 97.7291 92.3801C97.4836 92.4689 97.238 92.5576 96.985 92.6491C94.3099 93.42 91.5638 93.4223 88.8073 93.4033C88.621 93.4025 88.4347 93.4016 88.2427 93.4008C80.7435 93.361 73.618 92.2882 66.6545 89.3849C66.4112 89.2864 66.168 89.1878 65.9174 89.0862C65.7052 88.998 65.493 88.9099 65.2744 88.819C64.3637 88.5815 63.5592 88.6246 62.6275 88.6937C62.3708 88.7072 62.3708 88.7072 62.1091 88.7209C61.1207 88.756 61.1207 88.756 60.3413 89.3105C61.2307 89.691 62.1233 90.0634 63.0178 90.4318C63.1719 90.4954 63.3259 90.559 63.4847 90.6245C66.3609 91.8038 69.2008 92.7583 72.2872 93.2211C72.8857 93.3195 73.4734 93.432 74.0663 93.5575C79.8708 94.7753 85.667 94.7556 91.5675 94.6928C91.5675 94.8409 91.5675 94.9889 91.5675 95.1414C91.8619 95.2154 92.1563 95.2894 92.4597 95.3656C92.4597 95.9577 92.4597 96.5498 92.4597 97.1598C92.0181 97.3818 92.0181 97.3818 91.5675 97.6083C91.5675 97.7563 91.5675 97.9043 91.5675 98.0568C91.1995 98.1308 90.8315 98.2048 90.4523 98.2811C90.4523 98.4291 90.4523 98.5771 90.4523 98.7296C90.3223 98.7678 90.1924 98.806 90.0585 98.8453C89.0155 99.1553 87.982 99.4819 86.9533 99.8369C84.2197 100.757 81.4643 101.374 78.6309 101.869C78.3966 101.913 78.1623 101.957 77.9208 102.003C75.1208 102.511 72.3064 102.579 69.4691 102.571C68.9731 102.57 68.477 102.571 67.981 102.573C61.8747 102.577 61.8747 102.577 59.0448 101.883C58.6862 101.801 58.3276 101.719 57.9688 101.638C57.7172 101.58 57.7172 101.58 57.4605 101.522C56.8537 101.39 56.2439 101.298 55.6294 101.211C54.029 100.957 52.4995 100.461 50.9551 99.9807C50.5869 99.869 50.2158 99.7675 49.8442 99.6679C48.5951 99.3328 47.7351 98.8908 46.7355 98.0568C46.4623 97.5074 46.4752 97.1278 46.4707 96.515C46.4675 96.3213 46.4643 96.1276 46.4611 95.9281C46.515 95.3378 46.662 94.9755 46.9586 94.4686C50.6004 94.186 53.5484 94.9318 56.9995 96.0567C58.0849 96.3928 59.1757 96.6105 60.2942 96.8076C60.8605 96.9087 61.4106 97.0287 61.9697 97.1615C63.0253 97.4007 64.0739 97.5145 65.1507 97.6083C66.5547 97.7381 67.9501 97.8906 69.3467 98.0849C70.9668 98.2972 72.5373 98.3273 74.17 98.2811C74.17 98.2071 74.17 98.1331 74.17 98.0568C73.9557 98.0152 73.7414 97.9735 73.5207 97.9305C65.5946 96.3842 65.5946 96.3842 62.1256 95.3656C61.8634 95.2902 61.6012 95.2147 61.331 95.137C59.2937 94.5307 57.2924 93.8109 55.371 92.8965C52.7204 91.6751 50.5242 91.3396 47.6272 91.469C46.5157 91.5177 45.4039 91.5345 44.2916 91.5505C44.0676 91.5541 43.8435 91.5577 43.6126 91.5613C40.959 91.5863 38.3497 91.2885 35.7206 90.955C35.4693 90.9236 35.4693 90.9236 35.2129 90.8916C34.7655 90.8346 34.3185 90.774 33.8716 90.713C33.1863 90.6604 32.6742 90.7029 32.0146 90.8803C32.2354 91.3244 32.4562 91.7684 32.6837 92.2259C32.8309 92.2259 32.9781 92.2259 33.1298 92.2259C33.1804 92.3508 33.231 92.4757 33.2831 92.6044C33.8399 93.5907 34.5736 94.2191 35.5833 94.6928C35.6767 94.7909 35.7702 94.8889 35.8665 94.9898C36.364 95.4743 36.9088 95.8195 37.4931 96.1926C37.7096 96.3323 37.9261 96.4719 38.1492 96.6158C38.6636 96.9726 38.6636 96.9726 39.152 96.9355C39.152 97.0835 39.152 97.2315 39.152 97.384C39.3001 97.4401 39.4482 97.4962 39.6007 97.554C40.4245 97.8983 41.2141 98.2967 42.0098 98.7016C42.16 98.7776 42.3102 98.8537 42.465 98.932C42.6152 99.008 42.7655 99.0841 42.9202 99.1624C43.073 99.2393 43.2257 99.3163 43.3831 99.3956C43.6733 99.5437 43.962 99.6947 44.2487 99.8495C55.4532 105.789 71.2539 106.062 83.1976 102.495C84.6027 102.053 85.9715 101.543 87.3297 100.972C87.5045 100.899 87.6793 100.827 87.8594 100.752C88.3568 100.536 88.8465 100.307 89.3371 100.075C89.6478 99.9318 89.9585 99.7884 90.2693 99.6451C90.6138 99.4849 90.9583 99.3246 91.3026 99.1641C91.4682 99.0877 91.6338 99.0113 91.8044 98.9325C92.6162 98.551 93.3077 98.1574 94.021 97.6083C94.3907 97.4538 94.7626 97.3044 95.1362 97.1598C95.898 96.7419 96.63 96.275 97.3667 95.8142C97.6073 95.6656 97.848 95.517 98.0959 95.3639C100.042 94.1464 101.837 92.7842 103.612 91.3289C103.73 91.2326 103.848 91.1364 103.969 91.0373C104.491 90.6109 105.011 90.1828 105.53 89.7529C105.911 89.4383 106.299 89.1325 106.692 88.833C106.853 88.6946 107.014 88.5561 107.181 88.4134C107.181 88.2654 107.181 88.1174 107.181 87.9649C107.304 87.9137 107.427 87.8625 107.554 87.8098C109.538 86.6869 111.16 84.353 112.534 82.5825C112.623 82.4674 112.712 82.3523 112.805 82.2337C113.464 81.3828 114.116 80.5262 114.764 79.667C114.94 79.4346 115.115 79.2022 115.296 78.9627C116.218 77.7357 117.118 76.4978 117.987 75.2325C118.285 74.8023 118.593 74.3823 118.904 73.9623C119.635 72.9326 120.198 71.812 120.786 70.6964C120.953 70.3923 121.119 70.0883 121.286 69.7845C122.281 67.9581 123.133 66.2094 123.686 64.1927C123.065 63.7339 122.885 63.7083 122.151 63.9965Z" fill="#F9F9F9"/>
<path d="M0.342147 43.3362C0.636566 43.3362 0.930985 43.3362 1.23433 43.3362C1.6961 43.9091 1.6961 43.9091 2.15439 44.6537C2.7412 45.6196 2.7412 45.6196 3.46477 46.4759C3.46477 46.6979 3.46477 46.9199 3.46477 47.1487C3.61198 47.1487 3.75919 47.1487 3.91086 47.1487C4.24891 47.5841 4.24891 47.5841 4.63576 48.1719C5.13684 48.9166 5.64435 49.6168 6.23889 50.2884C6.81044 50.9612 6.81044 50.9612 6.81044 51.4097C7.14166 51.5208 7.14166 51.5208 7.47958 51.634C7.80804 51.9695 7.80804 51.9695 8.16265 52.4049C10.7161 55.411 13.67 57.7221 16.9729 59.8337C17.1756 59.9635 17.3783 60.0933 17.5872 60.2271C18.1542 60.5848 18.7265 60.932 19.3009 61.2774C19.4565 61.3754 19.612 61.4734 19.7723 61.5744C28.8546 67.2353 40.3056 68.7883 50.7502 66.6598C51.3312 66.5015 51.9042 66.3293 52.4768 66.1428C52.9853 65.9856 53.4911 65.8689 54.0123 65.7628C54.8108 65.5931 55.5453 65.3513 56.3002 65.0409C56.7724 64.8657 56.7724 64.8657 57.4851 64.6721C58.4566 64.3803 59.3607 64.0049 60.2854 63.5902C60.4613 63.5117 60.6371 63.4331 60.8183 63.3522C62.0594 62.7852 63.1923 62.1508 64.3194 61.3773C64.4787 61.2703 64.6379 61.1634 64.8021 61.0532C64.9996 60.9205 64.9996 60.9205 65.2011 60.7851C66.8644 60.1764 68.246 60.8369 69.7648 61.5157C71.4161 62.2266 73.0679 62.8844 74.7694 63.464C77.5523 64.4266 79.8264 65.5848 82.1995 67.3326C82.3746 67.4407 82.5497 67.5489 82.7301 67.6603C83.0917 68.0054 83.0917 68.0054 83.2015 68.5415C82.7869 70.7514 79.4489 72.9719 77.7386 74.2848C77.2629 74.5608 77.2629 74.5608 76.8186 74.7754C76.6708 74.848 76.523 74.9206 76.3708 74.9953C72.9181 76.5423 67.9069 75.0279 64.579 73.8363C63.0696 73.2502 61.6572 72.6524 60.3272 71.7198C58.991 70.8888 57.8231 71.08 56.3264 71.3694C55.6188 71.5375 54.9138 71.7124 54.2095 71.8939C52.5231 72.308 50.8107 72.5323 49.0913 72.757C48.8059 72.7944 48.5204 72.8318 48.2262 72.8703C46.6905 73.0665 45.1543 73.2444 43.6128 73.3878C43.7738 73.4797 43.9348 73.5716 44.1007 73.6664C44.3077 73.7872 44.5147 73.908 44.728 74.0326C44.935 74.1522 45.1421 74.2719 45.3553 74.3952C45.5164 74.5068 45.6774 74.6184 45.8433 74.7334C45.8433 74.8814 45.8433 75.0294 45.8433 75.1819C46.0028 75.242 46.1624 75.3022 46.3268 75.3641C46.9677 75.6343 47.5458 75.9472 48.1434 76.3032C48.3404 76.4189 48.5373 76.5345 48.7402 76.6537C48.8883 76.76 49.0364 76.8664 49.1889 76.976C49.1889 77.1241 49.1889 77.2721 49.1889 77.4246C49.4304 77.4593 49.4304 77.4593 49.6768 77.4947C50.3041 77.6488 50.3041 77.6488 50.7694 77.9598C51.6504 78.4502 52.5497 78.6484 53.5244 78.8823C54.7643 79.1812 55.8719 79.4839 56.9955 80.1158C56.9955 80.2638 56.9955 80.4118 56.9955 80.5643C57.1427 80.5643 57.2899 80.5643 57.4416 80.5643C57.4416 81.0689 57.4416 81.0689 57.2185 81.6856C55.8254 82.5261 54.4383 82.8695 52.8552 83.1854C52.636 83.233 52.4168 83.2805 52.1909 83.3295C49.0363 83.9786 45.8481 83.9649 42.6427 83.9575C42.0291 83.9563 41.4156 83.9575 40.8021 83.9589C38.7432 83.9599 36.6887 83.926 34.6318 83.8328C34.4452 83.8247 34.2587 83.8166 34.0665 83.8082C32.0927 83.7086 30.1623 83.4009 28.2227 83.0312C27.9579 82.9813 27.9579 82.9813 27.6878 82.9304C24.377 82.2954 21.0467 81.5125 17.9627 80.1158C17.6974 80 17.6974 80 17.4268 79.8819C15.128 78.812 13.244 77.2203 11.4526 75.4482C11.3265 75.3246 11.2005 75.2011 11.0707 75.0737C10.4486 74.4408 10.1399 74.0122 9.93307 73.1635C9.79506 73.0941 9.65705 73.0248 9.51486 72.9533C8.86993 72.629 8.7278 72.2212 8.37175 71.5937C8.24208 71.3861 8.11241 71.1785 7.97881 70.9647C6.31297 68.2942 4.80567 65.5754 3.68782 62.623C3.59926 62.3897 3.51071 62.1564 3.41947 61.9161C2.58551 59.642 1.88617 57.3306 1.23433 54.998C1.17891 54.8072 1.12349 54.6165 1.06639 54.4199C0.0475389 50.852 -0.17346 47.2613 0.119102 43.5604C0.192707 43.4864 0.266312 43.4124 0.342147 43.3362ZM8.81784 60.6046C9.04089 61.0532 9.04089 61.0532 9.04089 61.0532L8.81784 60.6046ZM9.04089 61.0532C9.1732 61.925 9.43413 62.571 9.86337 63.3379C9.98326 63.5524 10.1032 63.7669 10.2267 63.9879C11.3669 65.9723 12.5478 67.8906 13.9479 69.7014C14.0428 69.825 14.1376 69.9486 14.2354 70.0759C14.5102 70.4332 14.7866 70.7892 15.0631 71.1451C15.204 71.3365 15.3449 71.5279 15.49 71.7251C16.0528 72.38 16.6907 72.8873 17.3772 73.4018C17.5002 73.4962 17.6233 73.5906 17.7501 73.6878C20.9582 76.1298 24.6401 77.2174 28.5294 78.0834C28.7508 78.1335 28.9722 78.1836 29.2003 78.2352C29.4085 78.2796 29.6166 78.3241 29.8311 78.3698C30.0158 78.4094 30.2005 78.449 30.3908 78.4898C30.9229 78.5485 31.2855 78.4859 31.7914 78.3216C31.6382 78.2323 31.4849 78.143 31.3271 78.0509C31.1261 77.9321 30.9251 77.8133 30.718 77.6909C30.5188 77.5738 30.3195 77.4567 30.1143 77.3361C29.6317 77.022 29.2938 76.7074 28.8919 76.3032C28.5606 76.1922 28.5606 76.1922 28.2227 76.079C27.8551 75.704 27.8551 75.704 27.47 75.238C26.8544 74.5105 26.2477 73.8084 25.5462 73.1635C25.399 73.1635 25.2518 73.1635 25.1001 73.1635C25.0394 72.9996 24.9788 72.8357 24.9163 72.6668C23.9722 70.4182 22.5505 69.2476 20.4162 68.2297C16.6076 66.3872 12.6944 64.3082 9.60721 61.3668C9.31372 61.028 9.31372 61.028 9.04089 61.0532ZM65.9173 66.8841C65.9173 67.0321 65.9173 67.1801 65.9173 67.3326C65.4757 67.5546 65.4757 67.5546 65.0251 67.7811C67.2346 69.6473 70.5405 70.1049 73.3335 70.1079C73.5142 70.1082 73.6948 70.1086 73.8809 70.1089C74.7441 70.0925 75.4471 70.0687 76.1773 69.5753C75.9835 69.0546 75.9835 69.0546 75.3279 68.9104C74.9272 68.8024 74.9272 68.8024 74.5184 68.6922C74.2358 68.6142 73.9532 68.5361 73.662 68.4557C73.388 68.3811 73.114 68.3065 72.8317 68.2297C70.7657 67.6504 70.7657 67.6504 69.96 67.1924C68.7384 66.652 67.1943 66.4561 65.9173 66.8841ZM31.3454 72.2665C32.6099 73.6227 34.0394 75.0118 35.8062 75.6304C35.8062 75.7785 35.8062 75.9265 35.8062 76.079C36.2609 76.3942 36.7113 76.6812 37.1863 76.962C37.3153 77.0399 37.4442 77.1178 37.5771 77.1981C37.9525 77.4246 38.3291 77.6489 38.7058 77.8731C38.8965 77.9974 39.0871 78.1217 39.2835 78.2498C40.6322 78.9927 42.3228 79.062 43.8359 78.9944C43.6579 78.5124 43.6579 78.5124 43.2129 78.3847C43.0367 78.3269 42.8604 78.2691 42.6788 78.2095C40.8354 77.5061 39.2846 76.2203 37.7492 75.0006C37.3841 74.6907 37.3841 74.6907 36.9215 74.7334C36.9215 74.5854 36.9215 74.4373 36.9215 74.2848C35.5699 73.2656 33.9234 72.224 32.1957 72.2524C31.9151 72.2571 31.6345 72.2617 31.3454 72.2665Z" fill="#F9F9F9"/>
<path d="M98.3704 0.837646C101.113 0.927081 103.389 3.85317 105.173 5.65936C105.357 5.84438 105.541 6.0294 105.731 6.22002C105.915 6.40504 106.099 6.59006 106.289 6.78069C106.473 6.96108 106.657 7.14148 106.846 7.32734C107.441 7.9404 107.975 8.5887 108.519 9.24761C108.659 9.38638 108.798 9.52514 108.942 9.66811C109.438 10.1721 109.875 10.6997 110.317 11.252C110.886 11.9589 111.457 12.6611 112.048 13.3501C113.083 14.5593 114.085 15.7535 114.917 17.1188C115.263 17.6215 115.672 18.0108 116.102 18.4425C116.797 19.3204 117.454 20.2264 118.11 21.1337C118.23 21.2982 118.351 21.4627 118.475 21.6322C119.589 23.2256 120.395 24.9901 121.233 26.7403C121.303 26.8857 121.374 27.0312 121.446 27.181C122.675 29.7135 123.736 32.2796 124.355 35.0382C124.407 35.2139 124.46 35.3897 124.514 35.5708C125.923 40.5076 126.48 47.9535 124.211 52.6903C123.522 53.8633 122.703 54.4909 121.456 54.9978C121.161 54.9978 120.867 54.9978 120.563 54.9978C120.564 54.8544 120.564 54.711 120.564 54.5633C120.746 45.2448 120.746 45.2448 119.002 36.1595C118.92 35.8993 118.92 35.8993 118.837 35.6338C118.549 34.7387 118.22 33.8717 117.848 33.0073C117.643 32.5226 117.452 32.0334 117.261 31.5428C115.919 28.1436 114.194 24.8618 111.865 22.0308C111.791 22.0308 111.717 22.0308 111.642 22.0308C111.661 22.4188 111.685 22.8065 111.711 23.1941C111.724 23.4101 111.737 23.626 111.75 23.8485C111.952 24.996 112.62 25.7479 113.356 26.6142C115.056 28.7291 116.293 31.1432 117.218 33.6926C117.362 34.0885 117.362 34.0885 117.51 34.4924C119.463 40.1223 119.359 46.2781 118.723 52.1384C118.699 52.3689 118.675 52.5993 118.65 52.8368C118.419 54.684 118.095 56.7348 116.674 58.0394C115.525 58.8907 114.643 59.1166 113.203 59.0346C113.056 58.9606 112.908 58.8866 112.757 58.8103C112.717 57.6916 112.841 56.7862 113.147 55.7127C115.095 48.3976 115.543 40.7021 112.311 33.6926C112.164 33.5446 112.016 33.3965 111.865 33.244C111.223 36.0732 110.607 38.8777 110.303 41.7661C110.516 41.8627 110.728 41.9593 110.947 42.0587C111.694 42.4675 111.911 42.7596 112.194 43.5585C112.879 46.2016 112.541 48.9852 112.088 51.6338C112.044 51.8937 112.001 52.1536 111.956 52.4214C111.238 56.2356 109.28 60.8134 106.317 63.4413C105.753 63.8014 105.443 63.8227 104.779 63.8099C104.581 63.8077 104.383 63.8055 104.178 63.8033C103.973 63.7977 103.768 63.792 103.556 63.7862C103.347 63.7832 103.139 63.7802 102.924 63.777C102.41 63.7691 101.896 63.7581 101.382 63.7442C101.161 63.3001 101.161 63.3001 100.935 62.8471C101.177 62.4826 101.419 62.1181 101.661 61.7537C101.866 61.4434 102.071 61.133 102.276 60.8223C102.702 60.1781 103.128 59.5363 103.573 58.9049C104.482 57.609 105.045 56.2454 105.619 54.7735C105.805 54.3388 105.991 53.9043 106.177 53.47C106.824 51.9158 107.338 50.3213 107.85 48.7184C107.718 48.9728 107.586 49.2272 107.45 49.4893C107.272 49.8304 107.094 50.1714 106.916 50.5125C106.829 50.6793 106.743 50.8461 106.654 51.018C105.329 53.5505 105.329 53.5505 104.727 54.325C104.58 54.325 104.433 54.325 104.281 54.325C104.223 54.4892 104.164 54.6534 104.104 54.8226C103.272 56.7497 101.588 58.2488 100.008 59.5672C99.6817 59.8568 99.3688 60.162 99.0613 60.4722C97.4107 62.1269 95.2367 64.2259 92.8074 64.4722C92.2922 64.4298 91.8413 64.3353 91.3445 64.1927C91.0664 64.1203 91.0664 64.1203 90.7826 64.0464C89.781 63.753 89.781 63.753 89.3371 63.5199C89.1141 62.8471 89.1141 62.8471 89.2674 62.3706C89.6347 61.843 89.8517 61.8768 90.4523 61.7258C90.6083 61.4305 90.7573 61.1314 90.8984 60.8287C91.1193 60.7547 91.3401 60.6807 91.5676 60.6045C91.6573 60.4102 91.6573 60.4102 91.7488 60.212C92.1422 59.4625 92.6784 59.094 93.3519 58.5861C93.4991 58.5861 93.6463 58.5861 93.798 58.5861C93.857 58.4508 93.9159 58.3155 93.9766 58.1761C94.2569 57.6656 94.5016 57.427 94.9551 57.0723C96.5249 55.764 97.6977 54.1353 98.9028 52.4932C99.3453 51.897 99.8022 51.316 100.266 50.7368C101.231 49.4598 101.982 48.1206 102.72 46.7C102.79 46.569 102.86 46.4379 102.932 46.3029C106.868 38.9223 107.741 30.8999 106.289 22.7036C106.232 22.364 106.175 22.0244 106.119 21.6847C105.875 20.2629 105.595 18.8829 105.1 17.5262C104.95 17.0969 104.95 17.0969 104.769 16.2839C104.025 13.2178 102.496 10.0947 100.489 7.67775C100.331 7.48435 100.173 7.29095 100.01 7.09168C99.8463 6.89192 99.6824 6.69216 99.5135 6.48634C99.2526 6.16241 99.2526 6.16241 98.9864 5.83194C98.6819 5.45703 98.3725 5.08598 98.0542 4.72287C97.2439 3.75719 97.0003 3.08986 97.0531 1.82056C97.2294 0.999003 97.5795 0.951254 98.3704 0.837646ZM108.073 47.8213C108.296 48.2698 108.296 48.2698 108.296 48.2698L108.073 47.8213Z" fill="#F9F9F9"/>
<path d="M39.5979 0.277102C40.044 0.949899 40.044 0.949899 40.0301 1.52458C39.6055 3.08973 38.76 4.45611 37.939 5.84169C37.1215 7.23192 36.4562 8.6695 35.8062 10.1448C35.7262 10.3171 35.6463 10.4894 35.564 10.6669C33.1633 15.8807 32.0236 21.692 31.7914 27.4133C31.7822 27.6029 31.773 27.7925 31.7635 27.9879C31.681 31.3051 32.125 34.7365 32.9066 37.9537C32.9655 38.1966 33.0245 38.4394 33.0852 38.6896C33.7943 41.2777 35.0991 43.6281 36.626 45.8188C36.8395 46.1316 37.0395 46.4537 37.2307 46.7807C37.6482 47.4679 38.1129 48.1029 38.5942 48.7465C38.7667 48.9784 38.9392 49.2102 39.117 49.4491C39.5625 50.0461 39.5625 50.0461 39.9952 50.4548C40.2671 50.7369 40.2671 50.7369 40.2671 51.1854C40.4097 51.2455 40.5523 51.3057 40.6992 51.3676C41.1592 51.6339 41.1592 51.6339 41.3823 52.3067C41.5295 52.3808 41.6767 52.4548 41.8284 52.531C41.9756 52.605 42.1228 52.679 42.2745 52.7553C42.3481 52.9773 42.4217 53.1993 42.4975 53.4281C42.9161 53.6682 42.9161 53.6682 43.3897 53.8766C43.6422 54.0615 43.8891 54.2543 44.1303 54.4539C44.2669 54.5659 44.4036 54.6779 44.5444 54.7933C44.6878 54.9117 44.8312 55.0301 44.9789 55.1521C47.1413 56.9128 49.368 58.5641 51.8654 59.8196C54.3189 61.0531 54.3189 61.0531 55.2111 61.9502C55.1928 62.3961 55.1928 62.3961 54.988 62.8472C53.1415 63.9828 50.5285 64.1876 48.4221 63.8845C46.6519 63.4033 44.6552 62.134 43.3897 60.8288C43.019 60.6029 42.6471 60.3788 42.2745 60.156C39.9358 58.3729 37.7538 56.3684 35.7504 54.213C35.6437 54.0999 35.5371 53.9868 35.4272 53.8702C34.6909 53.0603 34.6909 53.0603 34.6909 52.3067C34.5437 52.3067 34.3965 52.3067 34.2449 52.3067C33.872 51.795 33.5257 51.2839 33.1854 50.7509C33.0362 50.5215 33.0362 50.5215 32.884 50.2874C32.6849 49.9811 32.4864 49.6745 32.2885 49.3675C31.9362 48.8215 31.5787 48.279 31.2198 47.7373C31.1183 47.583 31.0168 47.4286 30.9123 47.2695C30.6954 46.9302 30.6954 46.9302 30.4531 46.7001C29.3096 49.8333 28.8583 52.71 28.8221 56.0492C28.8181 56.2836 28.8141 56.518 28.81 56.7595C28.8117 58.3669 29.0755 59.7499 29.5609 61.2774C29.6502 61.5901 29.7386 61.9031 29.8258 62.2165C29.8856 62.4246 29.9454 62.6328 30.007 62.8472C29.663 63.1931 29.3413 63.1095 28.8639 63.1136C27.4457 63.091 26.265 62.8496 25.1784 61.8652C23.0587 59.3088 23.5738 55.1504 23.7618 52.0825C24.2522 48.0335 25.5076 43.7138 27.5953 40.199C27.8217 39.6356 27.7616 39.3634 27.6093 38.7807C27.569 38.6197 27.5288 38.4587 27.4873 38.2928C27.3657 37.856 27.2371 37.4213 27.1057 36.9875C25.5547 31.1854 25.7737 23.066 27.6434 17.3765C27.8147 16.8151 27.8147 16.8151 27.7766 15.9757C27.3681 16.3473 27.0852 16.6858 26.8007 17.1636C26.4361 17.7734 26.038 18.3344 25.6158 18.9052C24.7757 20.0512 24.0021 21.2259 23.2407 22.426C23.1183 22.5916 22.9958 22.7573 22.8696 22.9279C22.7224 22.9279 22.5752 22.9279 22.4235 22.9279C22.4016 23.052 22.3798 23.176 22.3573 23.3038C22.1622 23.9521 21.848 24.4242 21.4755 24.9884C20.7747 26.0735 20.124 27.166 19.5239 28.3103C19.4161 28.5153 19.3083 28.7202 19.1972 28.9314C17.4098 32.4206 16.2284 36.0703 15.5911 39.9385C15.5101 40.4148 15.4192 40.8882 15.327 41.3624C14.7851 44.3331 14.731 47.3049 14.6817 50.3166C14.6787 50.4906 14.6756 50.6645 14.6724 50.8437C14.6669 51.175 14.6624 51.5064 14.6591 51.8378C14.6415 52.9548 14.6415 52.9548 14.3939 53.2038C12.8027 53.1078 11.7566 52.5596 10.6439 51.4658C9.38544 49.5857 9.62969 47.2995 9.70994 45.1302C9.71792 44.9081 9.7259 44.6861 9.73412 44.4572C9.98781 38.3669 11.1957 32.4171 14.034 26.998C14.4075 26.2864 14.4075 26.2864 14.7267 25.5017C15.0492 24.754 15.4145 24.0757 15.8297 23.3765C16.2524 22.6613 16.6731 21.9476 17.0704 21.2179C17.6841 20.1767 18.3773 19.2019 19.0778 18.2184C19.2368 17.99 19.3958 17.7616 19.5596 17.5263C19.7181 17.3014 19.8765 17.0765 20.0397 16.8447C20.186 16.636 20.3324 16.4273 20.4832 16.2122C20.6082 16.0602 20.7333 15.9081 20.8622 15.7514C21.0094 15.7514 21.1566 15.7514 21.3083 15.7514C21.3332 15.6186 21.3581 15.4857 21.3838 15.3488C21.5454 14.8073 21.7372 14.5401 22.1072 14.1194C22.2232 13.9857 22.3392 13.852 22.4588 13.7142C22.5805 13.577 22.7023 13.4399 22.8278 13.2985C23.0663 13.0256 23.3048 12.7526 23.5431 12.4794C23.6575 12.3491 23.7719 12.2189 23.8898 12.0846C24.1669 11.7622 24.4317 11.4291 24.694 11.0944C25.0539 10.6503 25.3943 10.3157 25.8389 9.96258C26.5953 9.33066 27.2207 8.62991 27.8585 7.87936C29.1191 6.40559 29.1191 6.40559 30.007 6.10801C30.3853 5.74093 30.7562 5.36611 31.1222 4.98668C37.0232 -0.346125 37.0232 -0.346125 39.5979 0.277102ZM27.9996 15.3029C28.2226 15.7514 28.2226 15.7514 28.2226 15.7514L27.9996 15.3029Z" fill="#F9F9F9"/>
<path d="M76.4005 18.6668C76.5669 19.1459 76.5669 19.1459 76.6235 19.5638C76.0993 19.8274 75.7576 19.8106 75.1737 19.8301C73.3842 20.0015 72.0461 20.9254 70.8522 22.241C69.2602 24.2288 68.4287 26.3635 68.5016 28.9479C68.7553 30.8928 69.5318 32.8588 71.0474 34.1411C73.1772 35.7789 75.4763 36.6902 78.1848 36.3837C78.5594 36.2415 78.932 36.0938 79.3001 35.9352C79.9274 36.0193 79.9274 36.0193 80.4153 36.1595C79.8022 38.1023 77.8905 39.3941 76.1635 40.3084C72.842 41.826 69.3079 41.5892 65.9174 40.4205C65.1182 40.0367 64.4026 39.5979 63.6869 39.0749C63.4845 38.9315 63.2821 38.7882 63.0736 38.6404C60.7623 36.5101 59.3351 33.8506 59.1163 30.6921C58.9919 27.3753 59.425 24.6462 61.6726 22.0702C61.8221 21.9091 61.9716 21.7481 62.1256 21.5822C62.2521 21.4374 62.3786 21.2925 62.509 21.1433C65.4494 17.9427 72.5204 15.7615 76.4005 18.6668Z" fill="#F9F9F9"/>
<path d="M23.8594 24.5259C24.431 24.7221 24.431 24.7221 24.7962 25.2001C25.161 25.9723 25.1833 26.5103 25.1812 27.3634C25.181 27.6593 25.1809 27.9552 25.1807 28.26C25.1789 28.4138 25.177 28.5675 25.1751 28.7259C25.1699 29.1851 25.1705 29.644 25.172 30.1032C25.1665 32.757 24.9633 35.2971 23.9866 37.7812C23.5711 38.9294 23.3487 40.1256 23.0927 41.3178C22.9863 41.7711 22.8794 42.2243 22.7721 42.6774C22.7207 42.907 22.6693 43.1366 22.6163 43.3731C22.5177 43.8131 22.4189 44.2531 22.3145 44.6918C21.5659 47.8591 21.3861 50.9096 21.3641 54.157C21.3578 54.6336 21.3511 55.1102 21.3441 55.5867C21.3279 56.7361 21.3167 57.8854 21.3084 59.0348C19.5987 58.8076 19.5987 58.8076 18.8131 58.376C18.6013 58.262 18.6013 58.262 18.3853 58.1456C18.2458 58.069 18.1064 57.9924 17.9627 57.9135C17.7363 57.8228 17.7363 57.8228 17.5053 57.7304C16.8944 57.3574 16.712 56.9916 16.4014 56.3436C16.3398 55.7495 16.3127 55.2106 16.3204 54.6178C16.32 54.4518 16.3197 54.2857 16.3193 54.1147C16.3195 53.5774 16.3251 53.0403 16.3317 52.5031C16.3332 52.3195 16.3346 52.1359 16.3361 51.9468C16.3796 46.7123 16.8491 41.5139 18.8549 36.6082C18.9594 36.2223 19.0565 35.8342 19.1476 35.4449C21.0893 27.4482 21.0893 27.4482 22.8697 24.7221C23.3158 24.4979 23.3158 24.4979 23.8594 24.5259Z" fill="#F9F9F9"/>
<path d="M103.166 38.1778C103.063 39.5147 102.654 40.4234 101.981 41.5698C101.894 41.7245 101.806 41.8791 101.717 42.0385C100.33 44.4573 100.33 44.4573 98.7329 44.9478C97.1715 45.5013 95.9931 46.3313 94.6893 47.3263C94.021 47.8212 94.021 47.8212 93.4991 48.0709C93.0473 48.2587 93.0473 48.2587 92.9058 48.9426C92.5564 49.2886 92.5564 49.2886 92.1112 49.6574C91.4445 50.2236 90.8222 50.807 90.2153 51.4375C89.1435 52.53 87.9674 53.3131 86.6606 54.1007C86.5102 54.1987 86.3598 54.2967 86.2049 54.3976C84.7847 55.3054 83.2909 55.9824 81.7495 56.651C81.4958 56.761 81.4958 56.761 81.2369 56.8733C81.0077 56.9715 81.0077 56.9715 80.7738 57.0716C80.4144 57.2159 80.4144 57.2159 80.1923 57.4646C79.8938 57.5151 79.5932 57.5529 79.2922 57.5847C79.1118 57.6042 78.9314 57.6237 78.7455 57.6438C78.5559 57.6633 78.3663 57.6828 78.1709 57.7029C77.8852 57.7335 77.8852 57.7335 77.5937 57.7647C77.1217 57.8151 76.6496 57.8642 76.1775 57.9132C76.1775 58.4312 76.1775 58.9493 76.1775 59.483C75.5245 59.4101 74.9895 59.3494 74.421 59.0065C74.0288 58.3493 74.116 57.7637 74.1701 57.0161C74.2805 56.7941 74.2805 56.7941 74.3931 56.5676C74.5403 56.5676 74.6875 56.5676 74.8392 56.5676C74.9022 56.3781 74.9022 56.3781 74.9664 56.1848C75.4263 55.4431 76.0949 55.0691 76.8187 54.6193C76.9582 54.5289 77.0976 54.4386 77.2413 54.3455C78.2994 53.6741 78.2994 53.6741 78.8872 53.5551C79.0235 53.5131 79.1597 53.4711 79.3001 53.4279C79.4105 53.0948 79.4105 53.0948 79.5231 52.7551C79.9864 52.3965 80.4441 52.0681 80.9311 51.7459C81.949 51.0648 81.949 51.0648 82.9341 50.3372C83.3149 50.0639 83.3149 50.0639 83.761 50.0639C83.8199 49.9286 83.8789 49.7933 83.9396 49.6539C84.2199 49.1434 84.4646 48.9048 84.918 48.5501C85.5166 48.0552 86.0315 47.5445 86.5351 46.9522C87.7162 45.5631 88.9467 44.2842 90.4314 43.222C90.7495 42.9941 91.0608 42.7564 91.3654 42.5107C92.9694 41.2679 94.7376 40.624 96.6224 39.9382C97.133 39.7516 97.6413 39.5597 98.1491 39.3657C102.093 37.8605 102.093 37.8605 103.166 38.1778Z" fill="#F9F9F9"/>
<path d="M116.995 69.1268C117.761 69.8138 118.04 70.2104 118.305 71.2013C117.904 72.9281 116.455 74.127 115.001 75.0418C113.917 75.6406 112.8 76.0971 111.642 76.5276C111.458 76.5994 111.274 76.6712 111.085 76.7452C109.615 77.3079 108.165 77.6854 106.623 77.9853C106.15 78.0804 105.676 78.1756 105.203 78.2709C104.971 78.3171 104.739 78.3633 104.5 78.4108C103.904 78.5319 103.311 78.6598 102.718 78.793C100.822 79.2176 98.9283 79.5653 97.0043 79.8355C96.8034 79.8642 96.6025 79.8928 96.3956 79.9223C94.6524 80.1544 93.0059 80.3526 91.3445 79.6673C91.1265 78.9699 91.0647 78.6616 91.3924 77.9941C93.9973 74.2688 100.422 73.7333 104.466 72.8929C107.356 72.2808 110.026 71.3742 112.757 70.2481C113.309 70.0216 113.862 69.7976 114.416 69.5753C114.627 69.4875 114.838 69.3996 115.056 69.309C115.744 69.1001 116.28 69.0544 116.995 69.1268Z" fill="#F9F9F9"/>
<path d="M40.2672 44.4575C41.8992 44.5607 43.3916 44.865 44.9512 45.3546C45.2475 45.4439 45.2475 45.4439 45.5497 45.535C47.3022 46.113 48.7653 47.0464 50.3042 48.0458C50.5164 48.1657 50.7286 48.2857 50.9472 48.4093C51.1031 48.5114 51.2589 48.6134 51.4195 48.7186C51.4195 48.8666 51.4195 49.0146 51.4195 49.1671C51.5391 49.181 51.6587 49.1949 51.7819 49.2091C52.9885 49.6242 53.8836 50.7476 54.7651 51.634C54.9491 51.782 55.1332 51.9301 55.3227 52.0826C55.8804 52.5311 55.8804 52.5311 56.3543 53.0357C57.4528 54.0921 58.7221 54.9414 59.971 55.8092C60.0931 55.9116 60.2153 56.0139 60.3412 56.1193C60.3412 56.2674 60.3412 56.4154 60.3412 56.5679C60.4839 56.591 60.6265 56.6141 60.7734 56.638C60.9252 56.6888 61.077 56.7397 61.2334 56.7921C61.307 57.0142 61.3806 57.2362 61.4565 57.4649C61.6773 57.5621 61.6773 57.5621 61.9026 57.6612C62.3486 57.9135 62.3486 57.9135 62.5577 58.4601C62.5717 59.0348 62.5717 59.0348 62.3486 59.3852C61.0357 60.3341 60.2105 60.7766 58.5569 60.6047C55.8579 59.8208 53.1271 58.3701 50.9734 56.5679C50.5924 56.2594 50.2114 55.951 49.8303 55.6428C49.5465 55.4129 49.5465 55.4129 49.257 55.1785C48.7279 54.7513 48.7279 54.7513 48.0738 54.3252C48.0738 54.1772 48.0738 54.0292 48.0738 53.8767C47.8786 53.7898 47.8786 53.7898 47.6795 53.7013C47.141 53.4059 46.7846 53.0836 46.353 52.6467C46.1999 52.4923 46.0468 52.338 45.8891 52.1789C45.7314 52.0176 45.5737 51.8563 45.4112 51.6901C45.2544 51.5322 45.0975 51.3744 44.9359 51.2118C42.4977 48.7395 42.4977 48.7395 42.4977 48.0458C42.3505 48.0458 42.2033 48.0458 42.0516 48.0458C41.6743 47.5631 41.6743 47.5631 41.257 46.9385C40.8036 46.2252 40.8036 46.2252 40.2672 45.5788C40.2582 45.2052 40.2577 44.8312 40.2672 44.4575Z" fill="#F9F9F9"/>
<path d="M60.6619 74.3968C62.837 75.4277 65.0155 76.1637 67.3497 76.7454C68.1811 76.9854 68.9225 77.2907 69.7091 77.6486C69.63 78.2714 69.541 78.4989 69.0566 78.9119C68.8809 79.0223 68.7052 79.1328 68.5242 79.2465C68.3503 79.3581 68.1763 79.4697 67.9971 79.5847C65.7937 80.8879 62.9502 80.6203 60.5246 79.9947C59.7112 79.76 58.9095 79.4995 58.1108 79.2185C57.8337 79.1219 57.5565 79.0254 57.2709 78.9259C53.5999 77.5691 53.5999 77.5691 52.7578 76.0788C52.6225 75.4478 52.612 74.9143 52.7578 74.2847C54.921 71.3419 58.0847 73.1734 60.6619 74.3968Z" fill="#F9F9F9"/>
<path d="M98.7047 47.8213C98.4364 48.968 98.1353 49.6031 97.3665 50.5125C97.0398 51.0763 97.0398 51.0763 96.7252 51.6469C96.0637 52.7948 95.2981 53.794 94.3972 54.7595C94.2879 54.8774 94.1786 54.9953 94.066 55.1168C93.7545 55.4518 93.4416 55.7855 93.1286 56.1191C92.9949 56.2657 92.8612 56.4122 92.7235 56.5633C90.8791 58.52 87.5621 61.5758 84.8263 61.7792C83.0314 61.8141 81.5874 61.6864 79.969 60.8287C79.969 60.6067 79.969 60.3846 79.969 60.1559C80.4286 59.9028 80.8887 59.6507 81.3491 59.399C81.6053 59.2585 81.8614 59.118 82.1254 58.9732C82.8686 58.586 82.8686 58.586 83.4506 58.3539C84.2517 58.0288 84.9494 57.5543 85.6784 57.0924C86.1664 56.8188 86.5611 56.6702 87.1064 56.5676C87.1064 56.4196 87.1064 56.2716 87.1064 56.1191C87.5877 55.752 88.0703 55.4076 88.5702 55.0679C89.769 54.2355 90.7809 53.3677 91.7904 52.3066C91.9376 52.3066 92.0848 52.3066 92.2365 52.3066C92.2963 52.1739 92.3561 52.0412 92.4177 51.9045C93.4026 50.064 95.5889 48.5797 97.478 47.8213C98.2587 47.597 98.2587 47.597 98.7047 47.8213Z" fill="#F9F9F9"/>
<path d="M32.9066 54.1008C33.312 54.4102 33.312 54.4102 33.6846 54.8034C33.8229 54.9465 33.9611 55.0896 34.1035 55.237C34.2468 55.3894 34.39 55.5417 34.5376 55.6987C34.8369 56.0083 35.1366 56.3176 35.4367 56.6265C35.5788 56.7734 35.7208 56.9204 35.8671 57.0718C36.8894 58.1151 38.0146 59.0201 39.1518 59.9317C39.3378 60.0815 39.5239 60.2312 39.7155 60.3855C40.0744 60.674 40.4351 60.9603 40.7976 61.244C41.9888 62.2167 41.9888 62.2167 42.3023 63.1275C42.2744 63.7443 42.2744 63.7443 41.8284 64.4171C39.8318 65.1576 37.4352 64.5429 35.5692 63.7162C35.2755 63.5779 34.9824 63.4385 34.6909 63.2957C34.6909 63.1477 34.6909 62.9997 34.6909 62.8472C34.5483 62.7871 34.4057 62.7269 34.2588 62.665C33.7988 62.3987 33.7988 62.3987 33.5757 61.7259C33.2791 61.5749 32.9816 61.4255 32.6835 61.2773C32.335 60.8805 32.335 60.8805 32.0144 60.4223C31.6308 59.8833 31.2488 59.3652 30.8295 58.8525C30.1484 57.9648 30.1436 57.0922 30.1499 56.0106C30.2799 55.0951 30.6803 54.7217 31.3453 54.1008C31.9566 53.7935 32.2586 53.9103 32.9066 54.1008Z" fill="#F9F9F9"/>
<path d="M6.58762 67.3325C7.22789 67.9022 7.59329 68.5487 8.00953 69.2948C8.46608 70.0999 8.92467 70.8767 9.47326 71.6216C9.93329 72.2664 9.93329 72.2664 9.93329 72.7149C10.0805 72.7149 10.2277 72.7149 10.3794 72.7149C10.722 73.1058 11.0497 73.51 11.3691 73.9203C11.9154 74.6207 12.3174 75.1353 13.0559 75.6304C13.0559 75.7784 13.0559 75.9264 13.0559 76.0789C13.2031 76.0789 13.3503 76.0789 13.502 76.0789C13.502 76.2269 13.502 76.3749 13.502 76.5274C13.7964 76.6014 14.0908 76.6754 14.3942 76.7517C14.3942 76.8997 14.3942 77.0477 14.3942 77.2002C14.523 77.2557 14.6518 77.3112 14.7845 77.3684C15.3533 77.6862 15.7364 78.0695 16.1785 78.5458C14.3168 78.0929 13.2856 77.1939 11.9407 75.8546C11.7659 75.6898 11.5911 75.5251 11.411 75.3553C10.148 74.1444 10.148 74.1444 9.93329 73.1634C9.79528 73.094 9.65727 73.0247 9.51508 72.9532C8.86937 72.6286 8.73107 72.2222 8.37197 71.5936C8.14642 71.2471 8.14642 71.2471 7.9163 70.8936C7.75845 70.6482 7.60061 70.4027 7.43798 70.1499C7.2784 69.905 7.11883 69.6601 6.95442 69.4079C6.56581 68.6347 6.50963 68.1848 6.58762 67.3325Z" fill="#F9F9F9"/>
<path d="M103.166 38.1779C103.166 38.3999 103.166 38.622 103.166 38.8507C102.876 38.8322 102.586 38.8137 102.287 38.7946C101.068 38.7946 100.225 39.2141 99.1509 39.7478C98.6243 39.9691 98.0937 40.1784 97.5625 40.3882C97.0695 40.5852 96.5796 40.787 96.0901 40.9926C95.8711 41.0835 95.8711 41.0835 95.6476 41.1763C95.3606 41.2954 95.0741 41.4159 94.7883 41.5378C93.8509 41.9239 93.0115 42.1078 92.0134 42.2147C92.9318 41.3805 93.8409 40.9823 94.9827 40.5607C95.158 40.4942 95.3333 40.4276 95.514 40.3591C95.8771 40.2215 96.2405 40.0849 96.6042 39.9491C97.1214 39.756 97.6375 39.5601 98.1533 39.3632C102.096 37.8617 102.096 37.8617 103.166 38.1779Z" fill="#F9F9F9"/>
<path d="M78.631 53.428C78.8518 53.502 79.0726 53.576 79.3001 53.6522C78.2188 54.5466 77.1628 55.404 75.9544 56.1192C75.2165 56.5929 74.9281 56.9141 74.7137 57.7731C74.6815 58.0414 74.6493 58.3097 74.6162 58.5861C75.1682 58.8081 75.1682 58.8081 75.7314 59.0346C75.7314 58.8866 75.7314 58.7386 75.7314 58.5861C75.8786 58.5861 76.0258 58.5861 76.1775 58.5861C76.1775 58.8821 76.1775 59.1782 76.1775 59.4832C75.5245 59.4102 74.9895 59.3496 74.421 59.0066C74.0288 58.3494 74.116 57.7638 74.1701 57.0162C74.2437 56.8682 74.3173 56.7202 74.3931 56.5677C74.5403 56.5677 74.6875 56.5677 74.8392 56.5677C74.8803 56.4414 74.9214 56.315 74.9638 56.1849C75.4323 55.4355 76.1236 55.0678 76.8605 54.6194C77.7959 54.0871 77.7959 54.0871 78.631 53.428Z" fill="#F9F9F9"/>
<path d="M86.2145 47.1487C86.3617 47.2227 86.5089 47.2967 86.6606 47.3729C86.3131 48.2304 85.7871 48.784 85.0992 49.3913C84.8784 49.3913 84.6576 49.3913 84.4301 49.3913C84.3749 49.5209 84.3197 49.6504 84.2628 49.7838C83.9468 50.3557 83.5655 50.7409 83.0918 51.1855C82.9446 51.1115 82.7974 51.0374 82.6458 50.9612C82.7562 50.6282 82.7562 50.6282 82.8688 50.2884C83.0114 50.256 83.154 50.2236 83.3009 50.1903C83.5287 50.1278 83.5287 50.1278 83.761 50.0641C83.828 49.9277 83.895 49.7912 83.964 49.6506C84.237 49.1075 84.5169 48.8564 84.9877 48.4803C85.5312 48.0438 85.818 47.7466 86.2145 47.1487Z" fill="#F9F9F9"/>
<path d="M22.6467 89.759C23.0928 90.0674 23.0928 90.0674 23.5389 90.4318C23.5389 90.5798 23.5389 90.7279 23.5389 90.8804C23.7382 90.9667 23.7382 90.9667 23.9414 91.0547C24.475 91.3535 24.7494 91.6504 25.1281 92.1278C25.5929 92.7216 25.5929 92.7216 26.2154 93.123C26.2154 93.271 26.2154 93.419 26.2154 93.5716C25.123 93.0427 24.2181 92.5955 23.5389 91.5532C23.6125 91.4051 23.6861 91.2571 23.762 91.1046C23.6147 91.1046 23.4675 91.1046 23.3159 91.1046C22.6467 90.3283 22.6467 90.3283 22.6467 89.759Z" fill="#F9F9F9"/>
<path d="M47.1815 94.917C47.3287 94.917 47.4759 94.917 47.6276 94.917C47.6276 95.065 47.6276 95.213 47.6276 95.3655C47.4804 95.3655 47.3331 95.3655 47.1815 95.3655C47.1815 96.1056 47.1815 96.8457 47.1815 97.6082C47.3287 97.6082 47.4759 97.6082 47.6276 97.6082C47.6276 97.7562 47.6276 97.9042 47.6276 98.0567C47.7748 98.0567 47.922 98.0567 48.0737 98.0567C48 98.2047 47.9264 98.3527 47.8506 98.5052C47.409 98.3572 46.9674 98.2092 46.5123 98.0567C46.3845 95.8724 46.3845 95.8724 47.1815 94.917Z" fill="#F9F9F9"/>
<path d="M81.0843 56.3435C81.5443 56.4416 81.5443 56.4416 81.9765 56.5678C80.3406 57.6084 78.7263 57.6399 76.8464 57.6891C77.4868 57.0453 78.2294 57.0324 79.0908 56.8902C80.1751 56.7956 80.1751 56.7956 81.0843 56.3435Z" fill="#F9F9F9"/>
<path d="M92.2941 42.2893C92.4223 42.3387 92.5506 42.3882 92.6827 42.4391C92.2468 42.7768 91.81 43.113 91.3723 43.4483C91.2484 43.5446 91.1245 43.6408 90.9968 43.74C90.0567 44.4575 90.0567 44.4575 89.5601 44.4575C89.8739 43.711 90.2307 43.3066 90.8704 42.8176C91.0217 42.6982 91.1729 42.5788 91.3287 42.4558C91.7905 42.2148 91.7905 42.2148 92.2941 42.2893Z" fill="#F9F9F9"/>
<path d="M98.2588 47.5972C98.406 47.6712 98.5532 47.7452 98.7049 47.8214C98.5516 48.3681 98.5516 48.3681 98.2588 48.9428C97.7012 49.111 97.7012 49.111 97.1436 49.167C96.9228 49.278 96.9228 49.278 96.6975 49.3913C96.6975 49.0213 96.6975 48.6512 96.6975 48.27C97.2113 48.0308 97.7325 47.807 98.2588 47.5972Z" fill="#F9F9F9"/>
<path d="M10.1562 72.9392C11.2609 73.7855 12.038 74.7127 12.8328 75.8547C12.3031 75.7986 12.3031 75.7986 11.7176 75.6304C11.3805 75.1221 11.2415 74.6429 11.0484 74.0605C10.9012 74.0605 10.754 74.0605 10.6023 74.0605C10.4551 73.6905 10.3079 73.3205 10.1562 72.9392Z" fill="#F9F9F9"/>
<path d="M78.6309 53.428C78.8518 53.502 79.0726 53.576 79.3001 53.6522C78.564 54.2443 77.828 54.8364 77.0696 55.4464C76.9224 55.3724 76.7752 55.2984 76.6235 55.2221C77.9792 53.8212 77.9792 53.8212 78.6309 53.428Z" fill="#F9F9F9"/>
<path d="M74.1699 58.3618C75.2294 58.7823 75.2294 58.7823 75.7312 59.0346C75.7312 58.8866 75.7312 58.7386 75.7312 58.5861C75.8784 58.5861 76.0257 58.5861 76.1773 58.5861C76.1773 58.8821 76.1773 59.1781 76.1773 59.4831C74.942 59.3727 74.942 59.3727 74.4208 58.7963C74.338 58.6529 74.2552 58.5096 74.1699 58.3618Z" fill="#F9F9F9"/>
<path d="M89.1139 51.634C89.3347 51.708 89.5555 51.782 89.783 51.8583C88.7894 52.6354 88.7894 52.6354 87.7756 53.4282C87.7756 53.2061 87.7756 52.9841 87.7756 52.7554C88.4029 52.1386 88.4029 52.1386 89.1139 51.634Z" fill="#F9F9F9"/>
</svg>
