<svg width="170" height="192" viewBox="0 0 170 192" fill="none" xmlns="http://www.w3.org/2000/svg">
<path d="M164.586 54.9768C165.254 55.112 165.254 55.112 165.935 55.25C166.261 60.0503 165.324 64.3016 164.047 68.9098C163.952 69.254 163.952 69.254 163.856 69.6052C163.066 72.423 162.037 75.1609 161.021 77.9012C160.672 78.8506 160.339 79.8059 160.008 80.7618C157.922 86.1858 155.342 91.7751 151.839 96.4119C151.367 97.0578 150.97 97.7254 150.564 98.415C150.3 98.7833 150.031 99.1478 149.756 99.5078C149.281 100.137 148.87 100.734 148.475 101.42C148.363 101.6 148.252 101.781 148.138 101.967C147.96 101.967 147.782 101.967 147.598 101.967C147.531 102.119 147.463 102.272 147.393 102.429C146.446 104.217 144.978 105.75 143.554 107.157C143.21 107.549 142.867 107.942 142.525 108.335C137.085 114.484 137.085 114.484 134.116 116.446C133.938 116.446 133.76 116.446 133.576 116.446C133.487 116.716 133.398 116.987 133.307 117.266C133.04 117.356 132.773 117.446 132.498 117.539C132.136 117.901 131.777 118.265 131.419 118.632C128.434 120.837 125.198 122.804 121.981 124.642C121.797 124.749 121.612 124.855 121.422 124.965C117.03 127.505 117.03 127.505 115.006 128.252C114.421 128.471 113.867 128.727 113.302 128.996C110.303 130.358 107.092 131.204 103.915 132.018C103.596 132.107 103.278 132.196 102.95 132.287C101.334 132.695 99.6807 132.896 98.0331 133.128C97.7076 133.175 97.382 133.223 97.0466 133.272C93.3278 133.803 89.7008 133.996 85.9493 133.999C85.7042 133.999 85.459 134 85.2063 134C81.4698 133.999 77.8402 133.823 74.1443 133.223C73.4665 133.115 72.7882 133.021 72.1076 132.932C67.597 132.316 63.2818 130.978 58.9674 129.542C58.7066 129.456 58.4459 129.37 58.1772 129.281C54.2343 127.937 50.5816 125.977 47.0185 123.822C46.7985 123.691 46.5784 123.559 46.3517 123.423C45.5621 122.936 44.7897 122.427 44.0186 121.91C43.7398 121.724 43.4611 121.538 43.1739 121.346C42.4344 120.817 42.4344 120.817 42.0152 120.39C41.6192 119.959 41.6192 119.959 41.0072 119.625C40.1244 119.084 39.3561 118.438 38.575 117.761C38.4211 117.628 38.2671 117.495 38.1084 117.358C36.8835 116.292 35.7322 115.169 34.6145 113.987C34.3921 113.762 34.1696 113.536 33.9404 113.304C33.7179 113.079 33.4955 112.853 33.2663 112.621C33.1154 112.478 32.9646 112.335 32.8091 112.187C31.1857 110.612 29.8337 108.851 28.4752 107.044C28.1662 106.641 27.8412 106.251 27.5151 105.863C27.0643 105.245 27.0643 105.245 27.0643 104.425C26.8863 104.425 26.7084 104.425 26.525 104.425C25.8733 103.27 25.6221 102.479 25.7161 101.147C28.1975 100.855 30.7895 102.091 32.727 103.606C32.46 103.293 32.46 103.293 32.1877 102.974C31.6484 102.24 31.6484 102.24 31.6484 101.42C32.9838 101.577 34.1557 101.878 35.4235 102.325C48.5474 106.636 66.6105 106.517 79.6463 101.967C80.2356 101.783 80.8254 101.601 81.4158 101.42C81.9945 101.238 82.5732 101.056 83.1517 100.874C83.4148 100.793 83.678 100.713 83.9491 100.629C88.2739 99.251 92.2479 96.9869 96.095 94.5903C96.4391 94.3811 96.4391 94.3811 96.7902 94.1677C98.4731 93.1207 100.019 91.9521 101.55 90.6922C102.312 90.0688 103.036 89.5582 103.915 89.1264C104.257 88.5708 104.257 88.5708 104.454 88.0336C104.721 88.0336 104.988 88.0336 105.263 88.0336C105.335 87.8589 105.408 87.6842 105.482 87.5042C105.802 86.9408 105.802 86.9408 106.611 86.6676C106.801 86.3086 106.979 85.9431 107.151 85.5748C107.93 84.4513 108.874 83.6042 109.9 82.7201C110.407 82.2891 110.407 82.2891 110.926 81.7501C111.635 81.686 112.318 81.6546 113.028 81.6465C113.346 81.6396 113.346 81.6396 113.67 81.6325C114.351 81.6179 115.031 81.607 115.712 81.5964C121.83 81.4947 121.83 81.4947 127.88 80.6231C128.165 80.5643 128.449 80.5055 128.743 80.445C130.827 79.999 132.879 79.4639 134.925 78.8644C135.187 78.7878 135.449 78.7111 135.719 78.6322C137.315 78.1472 138.811 77.5516 140.318 76.8325C140.729 76.6432 141.141 76.454 141.552 76.2648C144.459 74.9035 147.177 73.4264 149.818 71.5788C150.564 71.0954 150.564 71.0954 151.104 71.0954C151.193 70.8249 151.282 70.5545 151.373 70.2758C151.733 70.1847 152.092 70.0937 152.452 70.0026C152.541 69.7321 152.63 69.4617 152.722 69.183C152.894 69.1436 153.066 69.1041 153.244 69.0635C153.428 69.0128 153.611 68.9621 153.8 68.9098C153.989 68.5502 154.169 68.1858 154.34 67.817C154.74 67.6818 154.74 67.6818 155.149 67.5438C155.226 67.3861 155.304 67.2283 155.384 67.0657C155.795 66.2346 156.358 65.7029 157.036 65.0851C157.214 65.0851 157.392 65.0851 157.575 65.0851C157.645 64.8868 157.714 64.6885 157.786 64.4843C158.129 63.6862 158.53 63.0884 159.058 62.4043C159.223 62.1885 159.387 61.9726 159.556 61.7502C159.703 61.5885 159.85 61.4269 160.002 61.2603C160.18 61.2603 160.358 61.2603 160.542 61.2603C160.564 61.1082 160.586 60.9561 160.609 60.7993C160.874 59.9729 161.344 59.468 161.89 58.8016C162.034 58.548 162.179 58.2944 162.328 58.0332C162.512 57.7374 162.512 57.7374 162.699 57.4356C162.877 57.4356 163.055 57.4356 163.238 57.4356C163.26 57.2834 163.283 57.1313 163.305 56.9746C163.569 56.1523 164.034 55.6266 164.586 54.9768ZM151.675 77.9595C151.386 78.1285 151.098 78.2975 150.8 78.4717C150.569 78.605 150.569 78.605 150.333 78.741C149.162 79.4193 148.009 80.1304 146.857 80.8398C145.958 81.3786 145.037 81.845 144.093 82.2964C143.826 82.426 143.559 82.5556 143.284 82.6892C141.426 83.5769 139.572 84.3772 137.621 85.0284C137.312 85.1348 137.002 85.2411 136.683 85.3507C130.589 87.3545 123.912 88.327 117.509 88.3121C114.603 88.2509 114.603 88.2509 112.139 89.6386C111.728 90.0991 111.324 90.5662 110.926 91.0387C110.414 91.5365 109.9 92.0248 109.375 92.5072C109.243 92.6308 109.111 92.7545 108.975 92.8819C107.37 94.3726 105.643 95.7097 103.915 97.049C104.004 97.2294 104.093 97.4097 104.184 97.5954C106.009 98.1986 107.894 98.3484 109.798 98.5332C110.332 98.5854 110.866 98.6411 111.4 98.6968C118.571 99.4127 125.402 98.1351 132.336 96.3346C133.873 95.9386 134.883 95.6787 136.357 96.3831C137.082 97.049 137.082 97.049 137.419 97.9369C137.312 99.5689 136.475 100.479 135.297 101.541C127.902 106.864 114.906 105.79 106.509 104.368C100.161 103.256 100.161 103.256 98.2522 101.967C96.5854 102.033 95.1962 102.675 93.685 103.35C93.4491 103.453 93.2133 103.556 92.9703 103.662C92.393 103.914 91.8167 104.169 91.2412 104.425C95.3593 108.598 106.901 107.744 112.24 107.755C114.289 107.746 116.312 107.673 118.353 107.493C119.585 107.41 120.814 107.389 122.049 107.379C122.387 107.374 122.387 107.374 122.732 107.369C123.291 107.368 123.85 107.397 124.408 107.431C125.051 108.081 125.034 108.264 125.049 109.155C125.056 109.362 125.064 109.57 125.072 109.784C124.895 110.711 124.525 111.137 123.869 111.802C123.071 112.215 123.071 112.215 122.15 112.536C121.853 112.644 121.556 112.752 121.25 112.863C118.016 113.803 114.696 113.805 111.364 113.782C111.139 113.781 110.913 113.78 110.681 113.779C101.615 113.731 93.0007 112.424 84.5821 108.887C84.2881 108.767 83.994 108.647 83.691 108.523C83.4345 108.416 83.178 108.308 82.9137 108.198C81.8127 107.908 80.84 107.961 79.7137 108.045C79.4034 108.062 79.4034 108.062 79.0869 108.078C77.8921 108.121 77.8921 108.121 76.9497 108.796C78.025 109.26 79.1042 109.714 80.1856 110.162C80.3718 110.24 80.5581 110.317 80.75 110.397C84.2272 111.834 87.6605 112.997 91.3919 113.56C92.1154 113.68 92.8259 113.817 93.5428 113.97C100.56 115.454 107.567 115.43 114.701 115.353C114.701 115.534 114.701 115.714 114.701 115.9C115.057 115.99 115.413 116.08 115.779 116.173C115.779 116.894 115.779 117.615 115.779 118.358C115.246 118.629 115.246 118.629 114.701 118.905C114.701 119.085 114.701 119.265 114.701 119.451C114.256 119.541 113.811 119.631 113.353 119.724C113.353 119.905 113.353 120.085 113.353 120.271C113.196 120.317 113.038 120.364 112.877 120.412C111.616 120.789 110.366 121.187 109.122 121.62C105.818 122.74 102.487 123.493 99.0611 124.095C98.7778 124.149 98.4945 124.203 98.2027 124.258C94.8176 124.877 91.415 124.961 87.985 124.951C87.3852 124.949 86.7855 124.951 86.1858 124.952C78.8036 124.957 78.8036 124.957 75.3824 124.113C74.9489 124.012 74.5153 123.913 74.0815 123.814C73.7774 123.743 73.7774 123.743 73.4671 123.672C72.7334 123.512 71.9962 123.4 71.2534 123.293C69.3185 122.985 67.4694 122.38 65.6023 121.795C65.1572 121.659 64.7085 121.535 64.2593 121.414C62.7492 121.006 61.7095 120.467 60.501 119.451C60.1707 118.782 60.1863 118.319 60.1808 117.573C60.177 117.337 60.1732 117.101 60.1692 116.858C60.2345 116.139 60.4121 115.697 60.7707 115.08C65.1735 114.736 68.7374 115.644 72.9097 117.015C74.2219 117.424 75.5407 117.689 76.8929 117.929C77.5775 118.053 78.2425 118.199 78.9184 118.361C80.1946 118.652 81.4623 118.79 82.7641 118.905C84.4616 119.063 86.1485 119.249 87.8369 119.485C89.7956 119.744 91.6942 119.781 93.6681 119.724C93.6681 119.634 93.6681 119.544 93.6681 119.451C93.409 119.4 93.15 119.35 92.883 119.297C83.3008 117.414 83.3008 117.414 79.1069 116.173C78.7899 116.081 78.4729 115.989 78.1463 115.894C75.6832 115.156 73.2638 114.279 70.941 113.165C67.7365 111.677 65.0814 111.268 61.579 111.426C60.2353 111.485 58.8912 111.506 57.5465 111.525C57.2756 111.53 57.0047 111.534 56.7256 111.538C53.5174 111.569 50.3629 111.206 47.1845 110.8C46.8807 110.762 46.8807 110.762 46.5707 110.723C46.0298 110.653 45.4894 110.579 44.9492 110.505C44.1206 110.441 43.5016 110.493 42.7041 110.709C42.971 111.25 43.238 111.791 43.513 112.348C43.691 112.348 43.869 112.348 44.0523 112.348C44.1135 112.5 44.1747 112.652 44.2377 112.809C44.9108 114.011 45.7979 114.776 47.0185 115.353C47.1315 115.473 47.2444 115.592 47.3608 115.715C47.9623 116.305 48.621 116.726 49.3274 117.18C49.5891 117.35 49.8509 117.52 50.1205 117.696C50.7425 118.13 50.7425 118.13 51.3329 118.085C51.3329 118.265 51.3329 118.446 51.3329 118.632C51.5119 118.7 51.6909 118.768 51.8754 118.839C52.8713 119.258 53.8258 119.743 54.7878 120.237C54.9694 120.329 55.151 120.422 55.3382 120.517C55.5198 120.61 55.7014 120.702 55.8885 120.798C56.0732 120.892 56.2578 120.985 56.4481 121.082C56.7989 121.262 57.148 121.446 57.4946 121.635C71.0403 128.871 90.1427 129.203 104.582 124.858C106.281 124.319 107.936 123.698 109.578 123.003C109.789 122.914 110 122.825 110.218 122.734C110.819 122.471 111.411 122.192 112.004 121.91C112.38 121.735 112.756 121.561 113.131 121.386C113.548 121.191 113.964 120.996 114.381 120.8C114.581 120.707 114.781 120.614 114.987 120.518C115.969 120.053 116.805 119.574 117.667 118.905C118.114 118.717 118.564 118.535 119.015 118.358C119.936 117.849 120.821 117.281 121.712 116.719C122.003 116.538 122.294 116.357 122.593 116.171C124.946 114.688 127.116 113.028 129.262 111.255C129.404 111.138 129.547 111.021 129.694 110.9C130.324 110.381 130.953 109.859 131.58 109.335C132.041 108.952 132.511 108.58 132.986 108.215C133.181 108.046 133.376 107.878 133.576 107.704C133.576 107.523 133.576 107.343 133.576 107.157C133.726 107.095 133.875 107.033 134.028 106.968C136.426 105.601 138.387 102.757 140.048 100.601C140.156 100.46 140.264 100.32 140.376 100.176C141.173 99.1392 141.96 98.0957 142.745 97.049C142.957 96.7659 143.169 96.4828 143.388 96.191C144.502 94.6964 145.59 93.1883 146.641 91.647C147.001 91.1229 147.373 90.6113 147.75 90.0996C148.633 88.8453 149.314 87.4802 150.025 86.1212C150.226 85.7507 150.428 85.3804 150.63 85.0103C151.833 82.7854 152.863 80.6551 153.531 78.1985C152.779 77.6396 152.563 77.6084 151.675 77.9595Z" fill="#74B2E7"/>
<path d="M4.41364 52.7913C4.76958 52.7913 5.12552 52.7913 5.49224 52.7913C6.05051 53.4892 6.05051 53.4892 6.60456 54.3963C7.31398 55.5729 7.31398 55.5729 8.18876 56.616C8.18876 56.8865 8.18876 57.1569 8.18876 57.4356C8.36672 57.4356 8.54469 57.4356 8.72806 57.4356C9.13675 57.966 9.13675 57.966 9.60442 58.6821C10.2102 59.5892 10.8238 60.4422 11.5425 61.2603C12.2335 62.0799 12.2335 62.0799 12.2335 62.6263C12.634 62.7616 12.634 62.7616 13.0425 62.8995C13.4396 63.3083 13.4396 63.3083 13.8683 63.8386C16.9553 67.5006 20.5265 70.3159 24.5195 72.8883C24.7645 73.0464 25.0096 73.2045 25.2621 73.3674C25.9476 73.8032 26.6395 74.2261 27.334 74.647C27.522 74.7664 27.7101 74.8857 27.9038 75.0087C38.884 81.9048 52.7276 83.7966 65.3548 81.2037C66.0572 81.0109 66.7499 80.801 67.4421 80.5739C68.0569 80.3824 68.6683 80.2402 69.2984 80.1109C70.2638 79.9043 71.1518 79.6096 72.0644 79.2316C72.6353 79.0181 72.6354 79.0181 73.497 78.7823C74.6714 78.4268 75.7644 77.9695 76.8824 77.4643C77.095 77.3687 77.3076 77.273 77.5266 77.1744C79.027 76.4836 80.3966 75.7109 81.7592 74.7686C81.9518 74.6383 82.1444 74.508 82.3428 74.3738C82.5816 74.2121 82.5816 74.2121 82.8252 74.0472C84.8361 73.3057 86.5064 74.1103 88.3425 74.9372C90.3389 75.8032 92.3358 76.6046 94.3928 77.3106C97.7572 78.4833 100.507 79.8941 103.376 82.0233C103.587 82.155 103.799 82.2867 104.017 82.4224C104.454 82.8429 104.454 82.8429 104.587 83.496C104.086 86.188 100.05 88.893 97.9826 90.4924C97.4074 90.8285 97.4074 90.8285 96.8702 91.09C96.6916 91.1784 96.5129 91.2668 96.3288 91.3578C92.1547 93.2423 86.0964 91.3976 82.0731 89.946C80.2483 89.2319 78.5408 88.5038 76.9329 87.3677C75.3175 86.3554 73.9056 86.5882 72.096 86.9408C71.2406 87.1456 70.3883 87.3587 69.5369 87.5797C67.498 88.0842 65.4279 88.3574 63.3492 88.6312C63.0041 88.6768 62.659 88.7223 62.3034 88.7692C60.4467 89.0081 58.5896 89.2249 56.7259 89.3996C56.9206 89.5116 57.1152 89.6236 57.3158 89.7389C57.5661 89.8861 57.8163 90.0334 58.0742 90.185C58.3245 90.3308 58.5747 90.4766 58.8326 90.6268C59.0272 90.7628 59.2219 90.8987 59.4224 91.0388C59.4224 91.2191 59.4224 91.3994 59.4224 91.5852C59.6154 91.6584 59.8083 91.7317 60.007 91.8071C60.7818 92.1363 61.4808 92.5174 62.2032 92.9511C62.4413 93.092 62.6794 93.2329 62.9248 93.378C63.1038 93.5076 63.2828 93.6372 63.4672 93.7707C63.4672 93.951 63.4672 94.1313 63.4672 94.3171C63.7592 94.3594 63.7592 94.3594 64.0571 94.4025C64.8155 94.5903 64.8155 94.5903 65.3779 94.9692C66.443 95.5665 67.5302 95.808 68.7086 96.0929C70.2076 96.457 71.5467 96.8257 72.905 97.5955C72.905 97.7758 72.905 97.9561 72.905 98.1419C73.083 98.1419 73.2609 98.1419 73.4443 98.1419C73.4443 98.7566 73.4443 98.7566 73.1747 99.5079C71.4904 100.532 69.8135 100.95 67.8996 101.335C67.6346 101.393 67.3695 101.451 67.0964 101.51C63.2827 102.301 59.4283 102.284 55.5531 102.275C54.8113 102.274 54.0696 102.275 53.3279 102.277C50.8388 102.278 48.355 102.237 45.8683 102.123C45.6427 102.114 45.4172 102.104 45.1849 102.094C42.7987 101.972 40.4649 101.597 38.12 101.147C37.7999 101.086 37.7999 101.086 37.4733 101.024C33.4707 100.251 29.4445 99.297 25.7161 97.5955C25.3954 97.4544 25.3954 97.4544 25.0683 97.3105C22.2891 96.0072 20.0114 94.0683 17.8456 91.9096C17.6933 91.759 17.5409 91.6085 17.3839 91.4534C16.6319 90.6824 16.2587 90.1603 16.0086 89.1264C15.8418 89.0419 15.6749 88.9573 15.503 88.8703C14.7233 88.4753 14.5515 87.9785 14.1211 87.214C13.9643 86.9612 13.8075 86.7083 13.646 86.4478C11.6321 83.1947 9.80985 79.8827 8.45841 76.2862C8.35135 76.002 8.24429 75.7178 8.13398 75.4249C7.12577 72.6547 6.2803 69.839 5.49224 66.9975C5.42525 66.7651 5.35825 66.5327 5.28922 66.2933C4.05747 61.9469 3.79029 57.5728 4.14399 53.0645C4.23297 52.9743 4.32196 52.8841 4.41364 52.7913ZM14.6604 73.8274C14.93 74.3738 14.93 74.3738 14.93 74.3738L14.6604 73.8274ZM14.93 74.3738C15.09 75.4358 15.4054 76.2228 15.9244 77.157C16.0693 77.4183 16.2143 77.6796 16.3636 77.9488C17.7421 80.3662 19.1697 82.703 20.8624 84.9089C20.9771 85.0595 21.0918 85.21 21.2099 85.3651C21.5422 85.8003 21.8764 86.234 22.2106 86.6676C22.3809 86.9008 22.5513 87.1339 22.7267 87.3741C23.4071 88.1719 24.1783 88.7899 25.0082 89.4167C25.157 89.5316 25.3058 89.6466 25.4591 89.7651C29.3375 92.7398 33.7888 94.0648 38.4908 95.1196C38.7584 95.1807 39.0261 95.2417 39.3018 95.3047C39.5535 95.3588 39.8052 95.4129 40.0645 95.4686C40.2877 95.5168 40.511 95.565 40.7411 95.6147C41.3843 95.6863 41.8228 95.61 42.4344 95.4099C42.2492 95.3011 42.0639 95.1923 41.873 95.0801C41.63 94.9354 41.3871 94.7907 41.1367 94.6415C40.8959 94.4989 40.655 94.3563 40.4068 94.2093C39.8234 93.8267 39.4149 93.4435 38.929 92.9511C38.5285 92.8159 38.5285 92.8159 38.12 92.6779C37.6755 92.2212 37.6755 92.2212 37.2099 91.6535C36.4658 90.7672 35.7323 89.912 34.8842 89.1264C34.7062 89.1264 34.5283 89.1264 34.3449 89.1264C34.2716 88.9267 34.1982 88.727 34.1227 88.5213C32.9813 85.7821 31.2626 84.3561 28.6822 83.1161C24.0779 80.8716 19.347 78.339 15.6147 74.7558C15.2599 74.3432 15.2599 74.3432 14.93 74.3738ZM83.691 81.4769C83.691 81.6572 83.691 81.8375 83.691 82.0233C83.1571 82.2937 83.1571 82.2937 82.6124 82.5697C85.2837 84.843 89.2803 85.4005 92.6569 85.4041C92.8753 85.4045 93.0937 85.4049 93.3187 85.4053C94.3623 85.3854 95.2121 85.3564 96.095 84.7552C95.8607 84.121 95.8607 84.121 95.068 83.9453C94.5836 83.8137 94.5836 83.8137 94.0895 83.6795C93.7478 83.5844 93.4061 83.4894 93.054 83.3914C92.7228 83.3005 92.3915 83.2097 92.0502 83.1161C89.5526 82.4103 89.5526 82.4103 88.5785 81.8525C87.1017 81.1942 85.2349 80.9555 83.691 81.4769ZM41.8951 88.0336C43.4239 89.6857 45.1521 91.378 47.2882 92.1315C47.2882 92.3119 47.2882 92.4922 47.2882 92.6779C47.8378 93.0619 48.3823 93.4116 48.9566 93.7537C49.1125 93.8486 49.2684 93.9435 49.429 94.0413C49.8828 94.3171 50.3382 94.5904 50.7936 94.8635C51.0241 95.0149 51.2545 95.1664 51.492 95.3224C53.1225 96.2274 55.1664 96.3119 56.9956 96.2295C56.7804 95.6423 56.7804 95.6423 56.2425 95.4867C56.0294 95.4163 55.8163 95.3459 55.5968 95.2733C53.3682 94.4164 51.4933 92.8501 49.6371 91.3642C49.1956 90.9867 49.1956 90.9867 48.6364 91.0388C48.6364 90.8585 48.6364 90.6781 48.6364 90.4924C47.0024 89.2507 45.0119 87.9818 42.9232 88.0165C42.5839 88.0222 42.2447 88.0278 41.8951 88.0336Z" fill="#74B2E7"/>
<path d="M122.925 1.02051C126.241 1.12945 128.992 4.69396 131.15 6.89423C131.372 7.11962 131.595 7.345 131.824 7.57722C132.046 7.80261 132.269 8.028 132.498 8.26021C132.72 8.47996 132.943 8.69972 133.172 8.92613C133.891 9.67295 134.537 10.4627 135.195 11.2654C135.363 11.4344 135.532 11.6035 135.706 11.7776C136.306 12.3916 136.834 13.0343 137.369 13.7071C138.056 14.5682 138.747 15.4236 139.46 16.2629C140.712 17.7359 141.924 19.1907 142.929 20.8539C143.347 21.4662 143.843 21.9405 144.363 22.4664C145.203 23.5359 145.996 24.6395 146.79 25.7448C146.935 25.9452 147.081 26.1455 147.231 26.352C148.578 28.2931 149.552 30.4426 150.565 32.5747C150.65 32.7518 150.735 32.929 150.823 33.1115C152.308 36.1965 153.591 39.3225 154.34 42.683C154.403 42.8971 154.466 43.1112 154.531 43.3318C156.235 49.3457 156.908 58.4162 154.165 64.1865C153.332 65.6154 152.342 66.3799 150.834 66.9974C150.478 66.9974 150.122 66.9974 149.756 66.9974C149.756 66.8228 149.756 66.6481 149.756 66.4681C149.976 55.1165 149.976 55.1165 147.868 44.0489C147.769 43.7319 147.769 43.7319 147.669 43.4085C147.32 42.3181 146.922 41.262 146.473 40.209C146.225 39.6185 145.994 39.0226 145.764 38.4249C144.141 34.2842 142.055 30.2863 139.239 26.8376C139.15 26.8376 139.061 26.8376 138.97 26.8376C138.993 27.3102 139.022 27.7826 139.054 28.2548C139.07 28.5178 139.085 28.7809 139.101 29.052C139.345 30.4498 140.153 31.3657 141.043 32.421C143.098 34.9974 144.593 37.9382 145.711 41.0438C145.886 41.5261 145.886 41.5261 146.064 42.0181C148.425 48.8763 148.299 56.3753 147.531 63.5142C147.502 63.7949 147.472 64.0757 147.442 64.3649C147.163 66.6152 146.772 69.1134 145.054 70.7027C143.664 71.7397 142.598 72.0148 140.857 71.915C140.679 71.8248 140.501 71.7347 140.318 71.6418C140.27 70.2789 140.42 69.176 140.79 67.8682C143.145 58.9572 143.687 49.5826 139.779 41.0438C139.601 40.8635 139.423 40.6832 139.239 40.4974C138.463 43.9438 137.719 47.3602 137.352 50.8788C137.609 50.9965 137.865 51.1141 138.13 51.2353C139.033 51.7333 139.296 52.0891 139.637 53.0623C140.466 56.282 140.058 59.6729 139.509 62.8995C139.456 63.2161 139.404 63.5327 139.35 63.8589C138.482 68.5053 136.115 74.0819 132.533 77.2832C131.85 77.7219 131.475 77.7478 130.674 77.7321C130.434 77.7295 130.194 77.7269 129.947 77.7241C129.699 77.7173 129.45 77.7104 129.195 77.7033C128.942 77.6996 128.69 77.6959 128.43 77.6921C127.808 77.6825 127.187 77.669 126.566 77.6521C126.299 77.1112 126.299 77.1112 126.026 76.5593C126.319 76.1153 126.611 75.6712 126.903 75.2273C127.152 74.8493 127.4 74.4712 127.648 74.0927C128.162 73.3079 128.678 72.5262 129.215 71.757C130.314 70.1784 130.994 68.5173 131.689 66.7242C131.913 66.1947 132.138 65.6653 132.363 65.1363C133.145 63.243 133.767 61.3006 134.386 59.3479C134.226 59.6578 134.066 59.9678 133.902 60.2871C133.687 60.7026 133.472 61.118 133.256 61.5335C133.152 61.7367 133.047 61.9399 132.94 62.1493C131.338 65.2343 131.338 65.2343 130.61 66.1778C130.432 66.1778 130.255 66.1778 130.071 66.1778C130.001 66.3779 129.93 66.5779 129.857 66.784C128.852 69.1316 126.815 70.9577 124.906 72.5638C124.511 72.9165 124.132 73.2884 123.761 73.6662C121.765 75.682 119.137 78.239 116.2 78.5389C115.577 78.4873 115.032 78.3722 114.431 78.1985C114.095 78.1103 114.095 78.1103 113.752 78.0203C112.541 77.6629 112.541 77.6629 112.005 77.3789C111.735 76.5593 111.735 76.5593 111.92 75.9788C112.364 75.3362 112.627 75.3773 113.353 75.1933C113.541 74.8337 113.721 74.4693 113.892 74.1005C114.159 74.0104 114.426 73.9202 114.701 73.8273C114.809 73.5907 114.809 73.5907 114.92 73.3493C115.396 72.4362 116.044 71.9873 116.858 71.3686C117.036 71.3686 117.214 71.3686 117.398 71.3686C117.469 71.2038 117.54 71.039 117.613 70.8691C117.952 70.2473 118.248 69.9566 118.796 69.5245C120.694 67.9308 122.112 65.9468 123.569 63.9464C124.104 63.2201 124.656 62.5123 125.217 61.8067C126.384 60.2512 127.292 58.6197 128.184 56.8892C128.268 56.7296 128.353 56.5699 128.44 56.4055C133.198 47.4146 134.254 37.6418 132.498 27.6572C132.429 27.2435 132.361 26.8298 132.293 26.416C131.998 24.684 131.66 23.003 131.061 21.3502C130.88 20.8272 130.88 20.8272 130.661 19.8369C129.761 16.1018 127.913 12.2973 125.487 9.353C125.296 9.1174 125.105 8.8818 124.908 8.63906C124.71 8.39571 124.511 8.15236 124.307 7.90164C123.992 7.50704 123.992 7.50704 123.67 7.10446C123.302 6.64775 122.928 6.19575 122.543 5.75342C121.563 4.57704 121.269 3.76412 121.333 2.21788C121.546 1.21707 121.969 1.1589 122.925 1.02051ZM134.655 58.2552C134.925 58.8015 134.925 58.8015 134.925 58.8015L134.655 58.2552Z" fill="#74B2E7"/>
<path d="M51.8722 0.33756C52.4114 1.15715 52.4114 1.15715 52.3946 1.85722C51.8814 3.76386 50.8592 5.42835 49.8666 7.11625C48.8783 8.80979 48.0739 10.561 47.2881 12.3582C47.1914 12.5681 47.0948 12.778 46.9953 12.9942C44.093 19.3456 42.7151 26.4248 42.4344 33.3943C42.4232 33.6253 42.4121 33.8564 42.4007 34.0944C42.3009 38.1353 42.8377 42.3154 43.7826 46.2346C43.8539 46.5304 43.9251 46.8262 43.9985 47.131C44.8558 50.2837 46.4333 53.1469 48.2793 55.8156C48.5373 56.1966 48.7792 56.589 49.0103 56.9874C49.5151 57.8245 50.0769 58.5981 50.6587 59.3821C50.8673 59.6646 51.0758 59.947 51.2907 60.238C51.8293 60.9653 51.8293 60.9653 52.3525 61.4631C52.6811 61.8068 52.6811 61.8068 52.6811 62.3531C52.8535 62.4264 53.0259 62.4996 53.2035 62.5751C53.7597 62.8995 53.7597 62.8995 54.0294 63.7191C54.2073 63.8093 54.3853 63.8994 54.5687 63.9923C54.7466 64.0825 54.9246 64.1726 55.108 64.2655C55.1969 64.536 55.2859 64.8064 55.3776 65.0851C55.8837 65.3776 55.8837 65.3776 56.4562 65.6315C56.7615 65.8567 57.06 66.0916 57.3515 66.3348C57.5168 66.4712 57.682 66.6076 57.8522 66.7482C58.0255 66.8924 58.1989 67.0367 58.3775 67.1853C60.9917 69.3301 63.6837 71.3417 66.703 72.8712C69.6691 74.3738 69.6691 74.3738 70.7477 75.4666C70.7256 76.0098 70.7256 76.0098 70.4781 76.5594C68.2457 77.9427 65.0867 78.1922 62.5402 77.8229C60.4001 77.2368 57.9862 75.6906 56.4562 74.1006C56.008 73.8253 55.5585 73.5523 55.108 73.281C52.2806 71.1088 49.6427 68.6669 47.2207 66.0413C47.0917 65.9035 46.9627 65.7657 46.8299 65.6237C45.9398 64.6371 45.9398 64.6371 45.9398 63.7191C45.7619 63.7191 45.5839 63.7191 45.4005 63.7191C44.9498 63.0958 44.5311 62.4731 44.1197 61.8238C43.9393 61.5443 43.9393 61.5443 43.7553 61.2592C43.5146 60.8861 43.2746 60.5126 43.0354 60.1386C42.6094 59.4735 42.1772 58.8126 41.7434 58.1527C41.6207 57.9647 41.498 57.7766 41.3716 57.5829C41.1094 57.1695 41.1094 57.1695 40.8165 56.8892C39.4341 60.7061 38.8885 64.2104 38.8446 68.2781C38.8398 68.5637 38.835 68.8492 38.8301 69.1434C38.8321 71.1015 39.151 72.7863 39.7379 74.647C39.8458 75.028 39.9527 75.4093 40.0581 75.791C40.1304 76.0445 40.2027 76.2981 40.2772 76.5594C39.8613 76.9807 39.4724 76.8788 38.8952 76.8838C37.1806 76.8562 35.7532 76.5623 34.4396 75.3631C31.8769 72.2488 32.4997 67.1833 32.7269 63.4459C33.3199 58.5135 34.8376 53.2513 37.3616 48.9697C37.6352 48.2834 37.5626 47.9517 37.3784 47.242C37.3297 47.0458 37.2811 46.8497 37.2309 46.6476C37.0839 46.1155 36.9285 45.5859 36.7696 45.0575C34.8945 37.9895 35.1592 28.0986 37.4197 21.1678C37.6268 20.4839 37.6268 20.4839 37.5806 19.4613C37.0868 19.914 36.7448 20.3263 36.4009 20.9084C35.9601 21.6513 35.4788 22.3346 34.9684 23.0299C33.9528 24.426 33.0175 25.857 32.097 27.3189C31.949 27.5207 31.8009 27.7225 31.6483 27.9304C31.4704 27.9304 31.2924 27.9304 31.109 27.9304C31.0826 28.0815 31.0562 28.2326 31.029 28.3882C30.7931 29.178 30.4133 29.7531 29.963 30.4404C29.1157 31.7622 28.329 33.0932 27.6036 34.4871C27.4732 34.7368 27.3429 34.9865 27.2086 35.2437C25.0477 39.4942 23.6194 43.9402 22.849 48.6524C22.7511 49.2325 22.6411 49.8093 22.5297 50.3869C21.8746 54.0058 21.8091 57.6259 21.7496 61.2948C21.7459 61.5067 21.7421 61.7186 21.7383 61.9369C21.7316 62.3405 21.7262 62.7442 21.7223 63.1478C21.701 64.5086 21.701 64.5086 21.4016 64.8119C19.4779 64.695 18.2132 64.0271 16.8681 62.6946C15.3466 60.4044 15.6419 57.6193 15.7389 54.9768C15.7486 54.7063 15.7582 54.4357 15.7681 54.157C16.0748 46.7379 17.5351 39.4899 20.9666 32.8885C21.418 32.0216 21.418 32.0216 21.804 31.0658C22.1939 30.1549 22.6355 29.3285 23.1375 28.4768C23.6485 27.6056 24.1571 26.7362 24.6374 25.8473C25.3793 24.5788 26.2174 23.3914 27.0643 22.1933C27.2565 21.9151 27.4487 21.6368 27.6467 21.3502C27.8383 21.0762 28.0298 20.8022 28.2271 20.5199C28.4041 20.2657 28.581 20.0114 28.7633 19.7494C28.9145 19.5642 29.0657 19.379 29.2215 19.1881C29.3994 19.1881 29.5774 19.1881 29.7608 19.1881C29.7909 19.0263 29.821 18.8644 29.8521 18.6977C30.0474 18.0379 30.2793 17.7125 30.7267 17.2C30.8669 17.0371 31.0072 16.8742 31.1517 16.7064C31.2989 16.5393 31.4461 16.3722 31.5978 16.2C31.8862 15.8676 32.1745 15.535 32.4625 15.2022C32.6009 15.0435 32.7392 14.8848 32.8817 14.7213C33.2168 14.3285 33.5368 13.9227 33.854 13.515C34.289 12.974 34.7006 12.5664 35.2381 12.1362C36.1525 11.3664 36.9086 10.5128 37.6797 9.59849C39.2037 7.80318 39.2037 7.80318 40.2772 7.44067C40.7345 6.99349 41.1829 6.5369 41.6254 6.07468C48.7595 -0.421643 48.7595 -0.421644 51.8722 0.33756ZM37.8503 18.6417C38.1199 19.1881 38.1199 19.1881 38.1199 19.1881L37.8503 18.6417Z" fill="#74B2E7"/>
<path d="M96.3645 22.7395C96.5657 23.3232 96.5657 23.3232 96.6342 23.8323C96.0004 24.1533 95.5873 24.1329 94.8814 24.1567C92.718 24.3654 91.1003 25.4909 89.657 27.0936C87.7323 29.515 86.727 32.1156 86.8151 35.2638C87.1219 37.633 88.0606 40.028 89.8929 41.59C92.4677 43.5851 95.2473 44.6953 98.5217 44.322C98.9745 44.1487 99.4251 43.9688 99.87 43.7756C100.628 43.8781 100.628 43.8781 101.218 44.0488C100.477 46.4155 98.166 47.9891 96.078 49.1029C92.0625 50.9517 87.7899 50.6631 83.6909 49.2395C82.7248 48.772 81.8596 48.2374 80.9944 47.6004C80.7497 47.4257 80.505 47.251 80.2529 47.071C77.4586 44.476 75.7333 41.2362 75.4687 37.3886C75.3183 33.3481 75.842 30.0235 78.5591 26.8855C78.7399 26.6893 78.9206 26.4931 79.1069 26.291C79.2598 26.1146 79.4127 25.9382 79.5703 25.7564C83.1252 21.8575 91.6737 19.2004 96.3645 22.7395Z" fill="#74B2E7"/>
<path d="M32.8449 29.8771C33.5359 30.1161 33.5359 30.1161 33.9775 30.6983C34.4185 31.6391 34.4454 32.2944 34.4428 33.3337C34.4427 33.6941 34.4425 34.0545 34.4423 34.4259C34.4401 34.6132 34.4378 34.8005 34.4355 34.9934C34.4293 35.5528 34.43 36.1118 34.4318 36.6712C34.4251 39.904 34.1795 42.9983 32.9987 46.0245C32.4964 47.4232 32.2275 48.8803 31.918 50.3327C31.7894 50.8849 31.6601 51.437 31.5304 51.9889C31.4682 52.2686 31.4061 52.5482 31.342 52.8364C31.2229 53.3724 31.1033 53.9084 30.9772 54.4429C30.0721 58.3012 29.8548 62.0173 29.8282 65.9732C29.8206 66.5537 29.8125 67.1343 29.804 67.7148C29.7844 69.1149 29.7708 70.515 29.7608 71.9152C27.6939 71.6384 27.6939 71.6384 26.7441 71.1127C26.4881 70.9737 26.4881 70.9737 26.2269 70.832C26.0583 70.7387 25.8897 70.6454 25.716 70.5492C25.4423 70.4388 25.4423 70.4388 25.1631 70.3262C24.4245 69.8718 24.204 69.4262 23.8285 68.6368C23.754 67.9131 23.7213 67.2566 23.7305 66.5345C23.7301 66.3322 23.7297 66.1299 23.7293 65.9215C23.7296 65.267 23.7363 64.6128 23.7442 63.9583C23.746 63.7347 23.7478 63.5111 23.7496 63.2807C23.8022 56.9041 24.3698 50.5716 26.7947 44.5955C26.9211 44.1254 27.0384 43.6527 27.1486 43.1783C29.496 33.437 29.496 33.437 31.6484 30.1161C32.1877 29.8429 32.1877 29.8429 32.8449 29.8771Z" fill="#74B2E7"/>
<path d="M128.723 46.5075C128.599 48.136 128.104 49.2431 127.29 50.6396C127.185 50.828 127.079 51.0164 126.971 51.2105C125.294 54.1571 125.294 54.1571 123.363 54.7546C121.476 55.4288 120.051 56.44 118.475 57.652C117.667 58.2549 117.667 58.2549 117.036 58.5591C116.49 58.7879 116.49 58.7879 116.319 59.6209C115.896 60.0424 115.896 60.0424 115.358 60.4917C114.552 61.1814 113.8 61.8922 113.066 62.6602C111.77 63.9911 110.349 64.945 108.769 65.9044C108.587 66.0238 108.405 66.1432 108.218 66.2662C106.501 67.372 104.695 68.1968 102.831 69.0112C102.525 69.1452 102.525 69.1452 102.212 69.282C101.934 69.4016 101.934 69.4016 101.652 69.5235C101.217 69.6993 101.217 69.6993 100.949 70.0024C100.588 70.0639 100.224 70.1099 99.8606 70.1486C99.6425 70.1723 99.4244 70.1961 99.1997 70.2206C98.9704 70.2444 98.7412 70.2682 98.505 70.2926C98.1596 70.3299 98.1596 70.3299 97.8072 70.3679C97.2365 70.4292 96.6658 70.4891 96.095 70.5488C96.095 71.1798 96.095 71.8109 96.095 72.4611C95.3056 72.3723 94.6588 72.2984 93.9715 71.8806C93.4974 71.08 93.6028 70.3667 93.6681 69.456C93.8016 69.1855 93.8016 69.1855 93.9378 68.9096C94.1157 68.9096 94.2937 68.9096 94.4771 68.9096C94.5532 68.6787 94.5532 68.6787 94.6309 68.4432C95.1869 67.5397 95.9952 67.0842 96.8702 66.5362C97.0388 66.4261 97.2074 66.3161 97.3811 66.2027C98.6603 65.3848 98.6603 65.3848 99.371 65.2398C99.5357 65.1886 99.7004 65.1375 99.8701 65.0848C100.004 64.6791 100.004 64.6791 100.14 64.2652C100.7 63.8284 101.253 63.4284 101.842 63.0359C103.073 62.2061 103.073 62.2061 104.264 61.3198C104.724 60.9869 104.724 60.9869 105.263 60.9869C105.334 60.8221 105.406 60.6573 105.479 60.4875C105.818 59.8656 106.114 59.575 106.662 59.1428C107.386 58.5399 108.008 57.9179 108.617 57.1963C110.045 55.5041 111.532 53.9462 113.327 52.6523C113.712 52.3746 114.088 52.0851 114.457 51.7857C116.396 50.2718 118.533 49.4875 120.812 48.652C121.429 48.4246 122.044 48.1909 122.658 47.9546C127.426 46.1209 127.426 46.1209 128.723 46.5075Z" fill="#74B2E7"/>
<path d="M145.441 84.209C146.368 85.0458 146.705 85.529 147.025 86.7361C146.541 88.8397 144.788 90.3001 143.031 91.4146C141.721 92.144 140.37 92.7001 138.97 93.2245C138.747 93.312 138.525 93.3994 138.296 93.4895C136.52 94.1751 134.767 94.6349 132.902 95.0003C132.33 95.1161 131.758 95.2321 131.186 95.3482C130.905 95.4044 130.625 95.4607 130.336 95.5186C129.616 95.6661 128.898 95.822 128.181 95.9842C125.89 96.5015 123.6 96.925 121.274 97.2541C121.031 97.289 120.788 97.324 120.538 97.3599C118.43 97.6426 116.44 97.8841 114.431 97.0492C114.168 96.1997 114.093 95.8241 114.489 95.0109C117.638 90.4729 125.406 89.8206 130.294 88.7968C133.789 88.0511 137.016 86.9467 140.318 85.575C140.985 85.299 141.654 85.0261 142.323 84.7554C142.579 84.6483 142.834 84.5413 143.098 84.431C143.93 84.1765 144.577 84.1208 145.441 84.209Z" fill="#74B2E7"/>
<path d="M52.6813 54.1572C54.6542 54.283 56.4585 54.6536 58.344 55.25C58.7022 55.3588 58.7022 55.3588 59.0676 55.4699C61.1863 56.1739 62.9551 57.3109 64.8156 58.5284C65.0721 58.6745 65.3286 58.8207 65.5929 58.9712C65.7813 59.0956 65.9697 59.2199 66.1638 59.348C66.1638 59.5283 66.1638 59.7086 66.1638 59.8944C66.3084 59.9113 66.453 59.9282 66.602 59.9456C68.0607 60.4512 69.1428 61.8197 70.2086 62.8995C70.4311 63.0798 70.6535 63.2601 70.8827 63.4459C71.5569 63.9923 71.5569 63.9923 72.1299 64.607C73.4579 65.894 74.9925 66.9285 76.5022 67.9857C76.6499 68.1103 76.7977 68.235 76.9499 68.3634C76.9499 68.5438 76.9499 68.7241 76.9499 68.9098C77.1223 68.938 77.2947 68.9662 77.4723 68.9952C77.6558 69.0572 77.8394 69.1192 78.0285 69.183C78.1175 69.4535 78.2064 69.724 78.2981 70.0026C78.5651 70.1209 78.5651 70.1209 78.8374 70.2417C79.3767 70.549 79.3767 70.549 79.6295 71.2149C79.6464 71.915 79.6464 71.915 79.3767 72.3419C77.7894 73.4978 76.7918 74.0368 74.7927 73.8274C71.5297 72.8725 68.2283 71.1053 65.6245 68.9098C65.164 68.534 64.7034 68.1584 64.2426 67.7829C63.8995 67.5029 63.8995 67.5029 63.5495 67.2173C62.9099 66.697 62.9099 66.697 62.1191 66.1779C62.1191 65.9976 62.1191 65.8173 62.1191 65.6315C61.8831 65.5257 61.8831 65.5257 61.6424 65.4178C60.9914 65.0579 60.5606 64.6653 60.0388 64.1332C59.8537 63.9451 59.6686 63.7571 59.4779 63.5633C59.2872 63.3668 59.0965 63.1703 58.9001 62.9678C58.7105 62.7755 58.5209 62.5832 58.3255 62.3851C55.3778 59.3735 55.3778 59.3735 55.3778 58.5284C55.1998 58.5284 55.0219 58.5284 54.8385 58.5284C54.3824 57.9404 54.3824 57.9404 53.8779 57.1795C53.3298 56.3106 53.3298 56.3106 52.6813 55.5232C52.6703 55.068 52.6698 54.6124 52.6813 54.1572Z" fill="#74B2E7"/>
<path d="M77.3375 90.6287C79.9671 91.8846 82.6009 92.7811 85.4228 93.4898C86.4278 93.7822 87.3242 94.154 88.2752 94.5901C88.1796 95.3487 88.0719 95.6258 87.4863 96.1289C87.2739 96.2635 87.0615 96.398 86.8427 96.5366C86.6324 96.6725 86.4221 96.8085 86.2054 96.9485C83.5416 98.5361 80.1039 98.21 77.1715 97.448C76.1881 97.162 75.219 96.8447 74.2534 96.5024C73.9183 96.3848 73.5832 96.2672 73.2379 96.146C68.7999 94.4932 68.7999 94.4932 67.7817 92.6777C67.6183 91.909 67.6055 91.2592 67.7817 90.4921C70.397 86.9073 74.2217 89.1384 77.3375 90.6287Z" fill="#74B2E7"/>
<path d="M123.33 58.2549C123.005 59.6519 122.641 60.4255 121.712 61.5333C121.317 62.2202 121.317 62.2202 120.936 62.9153C120.137 64.3136 119.211 65.5308 118.122 66.707C117.99 66.8506 117.858 66.9942 117.722 67.1422C117.345 67.5503 116.967 67.9568 116.588 68.3632C116.427 68.5418 116.265 68.7203 116.099 68.9043C113.869 71.288 109.859 75.0105 106.551 75.2582C104.381 75.3007 102.636 75.1451 100.679 74.1003C100.679 73.8299 100.679 73.5594 100.679 73.2807C101.235 72.9725 101.791 72.6653 102.347 72.3587C102.657 72.1876 102.967 72.0164 103.286 71.8401C104.184 71.3684 104.184 71.3684 104.888 71.0856C105.857 70.6895 106.7 70.1116 107.581 69.5488C108.171 69.2155 108.649 69.0346 109.308 68.9096C109.308 68.7293 109.308 68.549 109.308 68.3632C109.89 67.916 110.473 67.4964 111.077 67.0826C112.527 66.0686 113.75 65.0115 114.97 63.7189C115.148 63.7189 115.326 63.7189 115.51 63.7189C115.582 63.5572 115.654 63.3956 115.729 63.229C116.92 60.987 119.563 59.1788 121.847 58.2549C122.79 57.9817 122.79 57.9817 123.33 58.2549Z" fill="#74B2E7"/>
<path d="M43.7826 65.9046C44.2727 66.2814 44.2727 66.2814 44.7232 66.7604C44.8904 66.9347 45.0575 67.109 45.2297 67.2886C45.4028 67.4742 45.576 67.6599 45.7544 67.8511C46.1163 68.2283 46.4787 68.605 46.8415 68.9812C47.0132 69.1603 47.1849 69.3393 47.3618 69.5238C48.5977 70.7947 49.958 71.8971 51.3328 73.0077C51.5577 73.1901 51.7826 73.3725 52.0143 73.5605C52.4482 73.9119 52.8842 74.2606 53.3226 74.6063C54.7626 75.7912 54.7626 75.7912 55.1417 76.9007C55.1079 77.652 55.1079 77.652 54.5686 78.4716C52.1549 79.3737 49.2575 78.6249 47.0016 77.6179C46.6466 77.4494 46.2922 77.2795 45.9398 77.1056C45.9398 76.9253 45.9398 76.745 45.9398 76.5592C45.7674 76.486 45.595 76.4127 45.4174 76.3373C44.8612 76.0128 44.8612 76.0128 44.5916 75.1932C44.2329 75.0093 43.8733 74.8274 43.513 74.6469C43.0916 74.1634 43.0916 74.1634 42.704 73.6053C42.2402 72.9486 41.7784 72.3175 41.2715 71.6929C40.4481 70.6116 40.4423 69.5486 40.4499 68.231C40.6071 67.1158 41.0911 66.6609 41.895 65.9046C42.6342 65.5301 42.9992 65.6725 43.7826 65.9046Z" fill="#74B2E7"/>
<path d="M11.9641 82.0232C12.7381 82.7171 13.1799 83.5047 13.6831 84.4137C14.235 85.3944 14.7894 86.3407 15.4527 87.2481C16.0088 88.0335 16.0088 88.0335 16.0088 88.5799C16.1868 88.5799 16.3648 88.5799 16.5481 88.5799C16.9623 89.0561 17.3585 89.5485 17.7447 90.0483C18.4051 90.9015 18.8911 91.5284 19.7839 92.1315C19.7839 92.3118 19.7839 92.4921 19.7839 92.6779C19.9619 92.6779 20.1399 92.6779 20.3232 92.6779C20.3232 92.8582 20.3232 93.0385 20.3232 93.2242C20.6792 93.3144 21.0351 93.4046 21.4018 93.4974C21.4018 93.6778 21.4018 93.8581 21.4018 94.0438C21.5576 94.1115 21.7133 94.1791 21.8737 94.2487C22.5614 94.6358 23.0246 95.1028 23.559 95.683C21.3082 95.1313 20.0616 94.0361 18.4357 92.4047C18.2243 92.2039 18.013 92.0032 17.7953 91.7964C16.2684 90.3213 16.2684 90.3213 16.0088 89.1263C15.842 89.0418 15.6751 88.9573 15.5032 88.8702C14.7226 88.4747 14.5554 87.9797 14.1213 87.2139C13.8486 86.7919 13.8486 86.7919 13.5704 86.3613C13.3795 86.0623 13.1887 85.7633 12.9921 85.4552C12.7992 85.1569 12.6063 84.8587 12.4075 84.5513C11.9377 83.6095 11.8698 83.0614 11.9641 82.0232Z" fill="#74B2E7"/>
<path d="M128.723 46.5077C128.723 46.7782 128.723 47.0486 128.723 47.3273C128.372 47.3048 128.022 47.2822 127.661 47.259C126.187 47.259 125.168 47.7699 123.869 48.4201C123.232 48.6897 122.591 48.9446 121.949 49.2002C121.353 49.4403 120.76 49.686 120.169 49.9365C119.904 50.0473 119.904 50.0473 119.634 50.1602C119.287 50.3054 118.94 50.4521 118.595 50.6007C117.462 51.071 116.447 51.295 115.24 51.4252C116.351 50.4091 117.45 49.9239 118.83 49.4104C119.042 49.3293 119.254 49.2483 119.472 49.1648C119.911 48.9972 120.351 48.8308 120.79 48.6654C121.416 48.4301 122.039 48.1915 122.663 47.9516C127.43 46.1225 127.43 46.1225 128.723 46.5077Z" fill="#74B2E7"/>
<path d="M99.0611 65.085C99.3281 65.1751 99.5951 65.2653 99.8701 65.3582C98.5628 66.4476 97.2862 67.4921 95.8253 68.3633C94.9332 68.9404 94.5845 69.3317 94.3254 70.3781C94.2865 70.705 94.2475 71.0318 94.2074 71.3685C94.8748 71.6389 94.8748 71.6389 95.5557 71.9149C95.5557 71.7346 95.5557 71.5543 95.5557 71.3685C95.7337 71.3685 95.9116 71.3685 96.095 71.3685C96.095 71.7291 96.095 72.0897 96.095 72.4613C95.3055 72.3724 94.6588 72.2985 93.9715 71.8807C93.4974 71.0801 93.6028 70.3668 93.6681 69.4561C93.7571 69.2758 93.8461 69.0955 93.9378 68.9097C94.1157 68.9097 94.2937 68.9097 94.4771 68.9097C94.5268 68.7558 94.5765 68.6019 94.6277 68.4434C95.1941 67.5305 96.0299 67.0826 96.9208 66.5363C98.0515 65.8879 98.0515 65.8879 99.0611 65.085Z" fill="#74B2E7"/>
<path d="M108.229 57.4355C108.407 57.5257 108.585 57.6159 108.769 57.7087C108.349 58.7533 107.713 59.4277 106.881 60.1675C106.614 60.1675 106.347 60.1675 106.072 60.1675C106.006 60.3253 105.939 60.4831 105.87 60.6456C105.488 61.3423 105.027 61.8116 104.454 62.3531C104.276 62.2629 104.098 62.1728 103.915 62.0799C104.049 61.6742 104.049 61.6742 104.185 61.2603C104.357 61.2209 104.53 61.1814 104.707 61.1408C104.982 61.0647 104.982 61.0647 105.263 60.9871C105.344 60.8209 105.425 60.6547 105.509 60.4834C105.839 59.8217 106.177 59.5158 106.746 59.0577C107.403 58.526 107.75 58.1639 108.229 57.4355Z" fill="#74B2E7"/>
<path d="M31.3789 109.343C31.9182 109.718 31.9182 109.718 32.4575 110.162C32.4575 110.343 32.4575 110.523 32.4575 110.709C32.6984 110.814 32.6984 110.814 32.9441 110.921C33.5892 111.285 33.921 111.647 34.3788 112.228C34.9407 112.952 34.9407 112.952 35.6933 113.441C35.6933 113.621 35.6933 113.801 35.6933 113.987C34.3726 113.343 33.2786 112.798 32.4575 111.528C32.5465 111.348 32.6355 111.168 32.7272 110.982C32.5492 110.982 32.3712 110.982 32.1879 110.982C31.3789 110.036 31.3789 110.036 31.3789 109.343Z" fill="#74B2E7"/>
<path d="M61.0404 115.626C61.2184 115.626 61.3964 115.626 61.5797 115.626C61.5797 115.806 61.5797 115.987 61.5797 116.172C61.4018 116.172 61.2238 116.172 61.0404 116.172C61.0404 117.074 61.0404 117.975 61.0404 118.904C61.2184 118.904 61.3964 118.904 61.5797 118.904C61.5797 119.085 61.5797 119.265 61.5797 119.451C61.7577 119.451 61.9357 119.451 62.119 119.451C62.0301 119.631 61.9411 119.811 61.8494 119.997C61.3155 119.817 60.7816 119.637 60.2315 119.451C60.077 116.79 60.077 116.79 61.0404 115.626Z" fill="#74B2E7"/>
<path d="M102.027 68.6367C102.584 68.7562 102.584 68.7562 103.106 68.9099C101.128 70.1776 99.1767 70.2159 96.9041 70.2759C97.6782 69.4916 98.5759 69.4759 99.6174 69.3026C100.928 69.1874 100.928 69.1874 102.027 68.6367Z" fill="#74B2E7"/>
<path d="M115.58 51.5161C115.735 51.5764 115.89 51.6366 116.049 51.6986C115.522 52.11 114.994 52.5195 114.465 52.928C114.315 53.0453 114.165 53.1625 114.011 53.2834C112.875 54.1574 112.875 54.1574 112.274 54.1574C112.654 53.248 113.085 52.7554 113.858 52.1596C114.041 52.0142 114.224 51.8687 114.412 51.7189C114.971 51.4254 114.971 51.4254 115.58 51.5161Z" fill="#74B2E7"/>
<path d="M122.79 57.9819C122.968 58.0721 123.146 58.1622 123.33 58.2551C123.144 58.921 123.144 58.921 122.79 59.6211C122.116 59.826 122.116 59.826 121.442 59.8943C121.175 60.0295 121.175 60.0295 120.903 60.1675C120.903 59.7167 120.903 59.266 120.903 58.8015C121.524 58.5102 122.154 58.2376 122.79 57.9819Z" fill="#74B2E7"/>
<path d="M16.2783 88.8533C17.6138 89.8842 18.5533 91.0137 19.5141 92.4048C18.8737 92.3365 18.8737 92.3365 18.1659 92.1316C17.7584 91.5124 17.5903 90.9287 17.3569 90.2193C17.179 90.2193 17.001 90.2193 16.8176 90.2193C16.6397 89.7685 16.4617 89.3177 16.2783 88.8533Z" fill="#74B2E7"/>
<path d="M99.0611 65.085C99.3281 65.1751 99.595 65.2653 99.8701 65.3582C98.9802 66.0794 98.0904 66.8006 97.1736 67.5437C96.9956 67.4536 96.8176 67.3634 96.6343 67.2705C98.2732 65.5639 98.2732 65.5639 99.0611 65.085Z" fill="#74B2E7"/>
<path d="M93.6682 71.0952C94.9491 71.6075 94.9491 71.6075 95.5558 71.9148C95.5558 71.7345 95.5558 71.5542 95.5558 71.3684C95.7337 71.3684 95.9117 71.3684 96.0951 71.3684C96.0951 71.729 96.0951 72.0896 96.0951 72.4612C94.6016 72.3267 94.6016 72.3267 93.9716 71.6245C93.8715 71.4499 93.7714 71.2752 93.6682 71.0952Z" fill="#74B2E7"/>
<path d="M111.735 62.8997C112.002 62.9898 112.269 63.08 112.544 63.1729C111.342 64.1195 111.342 64.1195 110.117 65.0852C110.117 64.8148 110.117 64.5443 110.117 64.2656C110.875 63.5144 110.875 63.5144 111.735 62.8997Z" fill="#74B2E7"/>
<path d="M20.952 182.36L9.432 167.636C9.12 167.228 8.796 166.796 8.46 166.34C8.124 165.884 7.788 165.416 7.452 164.936H7.416L7.488 176.096C7.488 176.744 7.476 177.368 7.452 177.968C7.428 178.568 7.392 179.024 7.344 179.336C7.728 179.288 8.208 179.264 8.784 179.264C9.384 179.24 9.804 179.228 10.044 179.228V182H1.836V179.624C2.388 179.6 2.844 179.528 3.204 179.408C3.588 179.288 3.876 179.012 4.068 178.58C4.284 178.148 4.392 177.452 4.392 176.492L4.32 162.704C4.32 162.056 4.332 161.432 4.356 160.832C4.38 160.232 4.416 159.776 4.464 159.464C4.08 159.488 3.588 159.512 2.988 159.536C2.412 159.536 1.992 159.548 1.728 159.572V156.8H7.38L18.396 170.696C18.996 171.464 19.488 172.124 19.872 172.676C20.28 173.228 20.628 173.708 20.916 174.116H20.952V162.704C20.952 162.056 20.964 161.432 20.988 160.832C21.012 160.232 21.036 159.776 21.06 159.464C20.676 159.488 20.196 159.512 19.62 159.536C19.044 159.536 18.624 159.548 18.36 159.572V156.8H26.568V159.176C26.04 159.2 25.584 159.272 25.2 159.392C24.816 159.512 24.516 159.788 24.3 160.22C24.108 160.628 24.012 161.324 24.012 162.308V182.36H20.952ZM27.4253 182V179.516C28.0973 179.516 28.6373 179.324 29.0453 178.94C29.4533 178.556 29.7893 178.052 30.0533 177.428C30.3413 176.804 30.6173 176.132 30.8813 175.412L37.9013 156.152H40.4213L48.0893 175.772C48.2333 176.132 48.4253 176.684 48.6653 177.428C48.9053 178.148 49.0493 178.784 49.0973 179.336C49.5053 179.288 49.8893 179.264 50.2493 179.264C50.6333 179.24 50.9453 179.228 51.1853 179.228V182H41.5013V179.624C42.1733 179.624 42.6293 179.492 42.8693 179.228C43.1333 178.94 43.2533 178.556 43.2293 178.076C43.2053 177.596 43.0733 177.056 42.8333 176.456L42.1133 174.476L34.3013 174.62L33.7253 176.312C33.6053 176.624 33.4253 177.092 33.1853 177.716C32.9693 178.316 32.7653 178.82 32.5732 179.228C32.9573 179.18 33.4133 179.156 33.9413 179.156C34.4933 179.132 34.8893 179.12 35.1293 179.12V182H27.4253ZM35.2013 171.92H41.2133L39.5573 167.42C39.2453 166.556 38.9693 165.692 38.7293 164.828C38.4893 163.94 38.3093 163.16 38.1893 162.488H38.1533C38.0573 162.896 37.9133 163.508 37.7213 164.324C37.5293 165.14 37.2293 166.112 36.8213 167.24L35.2013 171.92ZM53.1281 179.624C53.6801 179.6 54.1361 179.528 54.4961 179.408C54.8801 179.288 55.1681 179.012 55.3601 178.58C55.5761 178.148 55.6841 177.452 55.6841 176.492V162.704C55.6841 162.056 55.6961 161.432 55.7201 160.832C55.7681 160.232 55.8041 159.776 55.8281 159.464C55.4441 159.488 54.9641 159.512 54.3881 159.536C53.8121 159.536 53.3921 159.548 53.1281 159.572V156.8C54.8321 156.776 56.5361 156.764 58.2401 156.764C59.9441 156.764 61.6481 156.752 63.3521 156.728C65.4641 156.704 67.3001 156.98 68.8601 157.556C70.4441 158.132 71.6561 159.02 72.4961 160.22C73.3601 161.42 73.7681 162.98 73.7201 164.9C73.6961 165.86 73.4681 166.808 73.0361 167.744C72.6041 168.656 71.9681 169.496 71.1281 170.264C70.2881 171.008 69.2321 171.62 67.9601 172.1C66.6881 172.58 65.2001 172.844 63.4961 172.892C62.9681 172.916 62.5001 172.928 62.0921 172.928C61.7081 172.928 61.3121 172.916 60.9041 172.892V176.06C60.9041 176.732 60.8921 177.368 60.8681 177.968C60.8441 178.568 60.8081 179.024 60.7601 179.336C61.0241 179.312 61.3601 179.3 61.7681 179.3C62.1761 179.276 62.5721 179.264 62.9561 179.264C63.3641 179.24 63.6521 179.228 63.8201 179.228V182H53.1281V179.624ZM60.9041 170.192C61.1681 170.216 61.4321 170.24 61.6961 170.264C61.9601 170.288 62.2361 170.3 62.5241 170.3C63.8441 170.3 64.9121 170.084 65.7281 169.652C66.5681 169.196 67.1801 168.548 67.5641 167.708C67.9481 166.844 68.1401 165.8 68.1401 164.576C68.1401 163.376 67.9721 162.416 67.6361 161.696C67.3241 160.976 66.9161 160.448 66.4121 160.112C65.9081 159.752 65.3801 159.524 64.8281 159.428C64.2761 159.308 63.7721 159.248 63.3161 159.248C62.8121 159.248 62.3801 159.308 62.0201 159.428C61.6601 159.548 61.3841 159.812 61.1921 160.22C61.0001 160.628 60.9041 161.252 60.9041 162.092V170.192ZM95.0614 182.36L83.5414 167.636C83.2294 167.228 82.9054 166.796 82.5694 166.34C82.2334 165.884 81.8974 165.416 81.5614 164.936H81.5254L81.5974 176.096C81.5974 176.744 81.5854 177.368 81.5614 177.968C81.5374 178.568 81.5014 179.024 81.4534 179.336C81.8374 179.288 82.3174 179.264 82.8934 179.264C83.4934 179.24 83.9134 179.228 84.1534 179.228V182H75.9454V179.624C76.4974 179.6 76.9534 179.528 77.3134 179.408C77.6974 179.288 77.9854 179.012 78.1774 178.58C78.3934 178.148 78.5014 177.452 78.5014 176.492L78.4294 162.704C78.4294 162.056 78.4414 161.432 78.4654 160.832C78.4894 160.232 78.5254 159.776 78.5734 159.464C78.1894 159.488 77.6974 159.512 77.0974 159.536C76.5214 159.536 76.1014 159.548 75.8374 159.572V156.8H81.4894L92.5054 170.696C93.1054 171.464 93.5974 172.124 93.9814 172.676C94.3894 173.228 94.7374 173.708 95.0254 174.116H95.0614V162.704C95.0614 162.056 95.0734 161.432 95.0974 160.832C95.1214 160.232 95.1454 159.776 95.1694 159.464C94.7854 159.488 94.3054 159.512 93.7294 159.536C93.1534 159.536 92.7334 159.548 92.4694 159.572V156.8H100.677V159.176C100.149 159.2 99.6934 159.272 99.3094 159.392C98.9254 159.512 98.6254 159.788 98.4094 160.22C98.2174 160.628 98.1214 161.324 98.1214 162.308V182.36H95.0614ZM115.993 173.324C115.993 172.316 115.837 171.584 115.525 171.128C115.213 170.672 114.781 170.396 114.229 170.3C113.701 170.18 113.113 170.132 112.465 170.156L111.529 170.192V176.096C111.529 176.744 111.517 177.356 111.493 177.932C111.469 178.508 111.433 178.952 111.385 179.264H116.209C116.929 179.264 117.625 179.108 118.297 178.796C118.969 178.46 119.521 177.92 119.953 177.176C120.385 176.408 120.601 175.376 120.601 174.08H122.941L122.761 182H103.753V179.624C104.305 179.6 104.761 179.528 105.121 179.408C105.505 179.288 105.793 179.012 105.985 178.58C106.201 178.148 106.309 177.452 106.309 176.492V162.704C106.309 162.056 106.321 161.432 106.345 160.832C106.393 160.232 106.429 159.776 106.453 159.464C106.069 159.488 105.589 159.512 105.013 159.536C104.437 159.536 104.017 159.548 103.753 159.572V156.8H121.753L121.969 163.784H119.593C119.593 162.464 119.365 161.468 118.909 160.796C118.453 160.124 117.889 159.68 117.217 159.464C116.545 159.224 115.885 159.116 115.237 159.14L113.941 159.176C113.437 159.176 113.005 159.248 112.645 159.392C112.285 159.512 112.009 159.8 111.817 160.256C111.625 160.688 111.529 161.372 111.529 162.308V167.708H115.741L115.597 164.576H118.369V173.324H115.993ZM140.762 164.864C140.546 163.52 140.162 162.404 139.61 161.516C139.058 160.604 138.35 159.92 137.486 159.464C136.646 159.008 135.662 158.792 134.534 158.816C133.502 158.816 132.59 159.104 131.798 159.68C131.03 160.256 130.646 161 130.646 161.912C130.646 162.656 130.85 163.304 131.258 163.856C131.69 164.408 132.338 164.924 133.202 165.404C134.066 165.884 135.158 166.4 136.478 166.952C137.39 167.312 138.326 167.732 139.286 168.212C140.246 168.692 141.134 169.268 141.95 169.94C142.766 170.588 143.426 171.356 143.93 172.244C144.434 173.108 144.686 174.128 144.686 175.304C144.686 176.72 144.302 177.98 143.534 179.084C142.766 180.188 141.686 181.052 140.294 181.676C138.926 182.276 137.318 182.576 135.47 182.576C134.51 182.576 133.466 182.42 132.338 182.108C131.234 181.82 130.19 181.388 129.206 180.812L129.314 182.324H126.542V173.9H128.918C129.254 175.916 130.022 177.44 131.222 178.472C132.446 179.48 133.898 179.984 135.578 179.984C136.442 179.984 137.198 179.828 137.846 179.516C138.494 179.204 138.998 178.796 139.358 178.292C139.718 177.764 139.898 177.2 139.898 176.6C139.898 175.76 139.598 175.064 138.998 174.512C138.422 173.96 137.69 173.492 136.802 173.108C135.938 172.724 135.05 172.352 134.138 171.992C132.986 171.512 131.906 171.008 130.898 170.48C129.914 169.928 129.05 169.304 128.306 168.608C127.562 167.912 126.986 167.12 126.578 166.232C126.17 165.32 125.966 164.276 125.966 163.1C125.966 162.356 126.11 161.588 126.398 160.796C126.686 159.98 127.154 159.236 127.802 158.564C128.45 157.868 129.314 157.304 130.394 156.872C131.474 156.44 132.806 156.224 134.39 156.224C135.35 156.224 136.394 156.368 137.522 156.656C138.674 156.944 139.658 157.376 140.474 157.952L140.33 156.476H143.138V164.864H140.762ZM166.346 164.936C166.346 163.64 166.166 162.572 165.806 161.732C165.446 160.868 164.93 160.232 164.258 159.824C163.61 159.392 162.83 159.188 161.918 159.212H160.19V176.096C160.19 176.744 160.178 177.368 160.154 177.968C160.13 178.568 160.094 179.024 160.046 179.336C160.454 179.288 160.97 179.264 161.594 179.264C162.242 179.24 162.686 179.228 162.926 179.228V182H152.414V179.624C152.966 179.6 153.422 179.528 153.782 179.408C154.166 179.288 154.454 179.012 154.646 178.58C154.862 178.148 154.97 177.452 154.97 176.492V159.248H153.314C151.946 159.272 150.866 159.74 150.074 160.652C149.282 161.564 148.886 162.992 148.886 164.936H146.51L146.69 156.8H168.506L168.722 164.936H166.346Z" fill="#74B2E7"/>
</svg>
