<svg width="17" height="18" viewBox="0 0 17 18" fill="none" xmlns="http://www.w3.org/2000/svg">
<path d="M13.5502 17.28C12.5702 18.23 11.5002 18.08 10.4702 17.63C9.38016 17.17 8.38016 17.15 7.23016 17.63C5.79016 18.25 5.03016 18.07 4.17016 17.28C-0.709836 12.25 0.0101643 4.59 5.55016 4.31C6.90016 4.38 7.84016 5.05 8.63016 5.11C9.81016 4.87 10.9402 4.18 12.2002 4.27C13.7102 4.39 14.8502 4.99 15.6002 6.07C12.4802 7.94 13.2202 12.05 16.0802 13.2C15.5102 14.7 14.7702 16.19 13.5402 17.29L13.5502 17.28ZM8.53016 4.25C8.38016 2.02 10.1902 0.18 12.2702 0C12.5602 2.58 9.93016 4.5 8.53016 4.25Z" fill="black"/>
</svg>
