<svg width="32" height="36" viewBox="0 0 32 36" fill="none" xmlns="http://www.w3.org/2000/svg">
<path d="M29.3334 27.6296V20.963M29.3334 20.963H2.66675M29.3334 20.963H16.0001V13.5556H25.3334C26.3943 13.5556 27.4117 14.0238 28.1618 14.8573C28.912 15.6908 29.3334 16.8213 29.3334 18V20.963ZM2.66675 12.0741V27.6296M6.66675 13.5556C6.66675 14.3414 6.9477 15.095 7.4478 15.6507C7.94789 16.2063 8.62617 16.5185 9.33341 16.5185C10.0407 16.5185 10.7189 16.2063 11.219 15.6507C11.7191 15.095 12.0001 14.3414 12.0001 13.5556C12.0001 12.7697 11.7191 12.0161 11.219 11.4604C10.7189 10.9048 10.0407 10.5926 9.33341 10.5926C8.62617 10.5926 7.94789 10.9048 7.4478 11.4604C6.9477 12.0161 6.66675 12.7697 6.66675 13.5556Z" stroke="#9FA9BA" stroke-width="2.5" stroke-linecap="round" stroke-linejoin="round"/>
</svg>
