<svg width="26" height="26" viewBox="0 0 26 26" fill="none" xmlns="http://www.w3.org/2000/svg">
<path d="M19.1579 1C20.2047 1 21.0526 1.85483 21.0526 2.91667V6.05042C21.6173 6.382 22 7.00108 22 7.70833V22.0833C22 23.1365 21.1502 24 20.1053 24H7.32527C6.88834 24.0009 6.45555 23.9145 6.05171 23.7457C5.64788 23.577 5.28096 23.3293 4.972 23.0167C4.66305 22.7042 4.41815 22.333 4.25135 21.9245C4.08455 21.516 3.99913 21.0782 4.00001 20.6362V4.35992C3.99975 3.46973 4.34883 2.61584 4.97056 1.98585C5.59228 1.35585 6.43579 1.00127 7.31579 1H19.1579ZM5.89474 7.38537V20.6391C5.89424 20.829 5.93086 21.0171 6.00249 21.1926C6.07412 21.3681 6.17935 21.5276 6.31212 21.6618C6.44489 21.796 6.60259 21.9024 6.77614 21.9747C6.94969 22.047 7.13567 22.084 7.32337 22.0833H20.1053V7.70833H7.32716C6.83184 7.71026 6.34238 7.5999 5.89474 7.38537ZM16.3158 14.4167C16.567 14.4167 16.808 14.5176 16.9857 14.6974C17.1633 14.8771 17.2632 15.1208 17.2632 15.375C17.2632 15.6292 17.1633 15.8729 16.9857 16.0526C16.808 16.2324 16.567 16.3333 16.3158 16.3333H10.6316C10.3803 16.3333 10.1394 16.2324 9.96169 16.0526C9.78403 15.8729 9.68422 15.6292 9.68422 15.375C9.68422 15.1208 9.78403 14.8771 9.96169 14.6974C10.1394 14.5176 10.3803 14.4167 10.6316 14.4167H16.3158ZM16.3158 10.5833C16.567 10.5833 16.808 10.6843 16.9857 10.864C17.1633 11.0437 17.2632 11.2875 17.2632 11.5417C17.2632 11.7958 17.1633 12.0396 16.9857 12.2193C16.808 12.399 16.567 12.5 16.3158 12.5H10.6316C10.3803 12.5 10.1394 12.399 9.96169 12.2193C9.78403 12.0396 9.68422 11.7958 9.68422 11.5417C9.68422 11.2875 9.78403 11.0437 9.96169 10.864C10.1394 10.6843 10.3803 10.5833 10.6316 10.5833H16.3158ZM19.1579 2.91667H7.31579C7.12918 2.91717 6.94449 2.95485 6.77227 3.02756C6.60005 3.10026 6.44367 3.20657 6.31207 3.34041C6.04628 3.61071 5.89753 3.97675 5.89853 4.358C5.89903 4.54677 5.93628 4.7336 6.00815 4.90781C6.08003 5.08203 6.18512 5.24021 6.31743 5.37334C6.58464 5.64221 6.94649 5.79268 7.32337 5.79167H19.1579V2.91667Z" fill="black"/>
</svg>
