<svg width="62" height="63" viewBox="0 0 62 63" fill="none" xmlns="http://www.w3.org/2000/svg">
<rect x="1.5" y="2" width="59" height="59" rx="19.5" stroke="#74B2E7" stroke-width="3"/>
<mask id="path-2-outside-1_972_377" maskUnits="userSpaceOnUse" x="18.0776" y="19.7307" width="26" height="23" fill="black">
<rect fill="white" x="18.0776" y="19.7307" width="26" height="23"/>
<path d="M31.0043 42.1933C30.7901 42.1933 30.5763 42.1507 30.363 42.0653C30.1496 41.9809 29.9674 41.8538 29.8163 41.684L22.1763 34.012H24.047L30.7563 40.7333C30.8025 40.7778 30.8425 40.8058 30.8763 40.8173C30.9101 40.8289 30.9501 40.8342 30.9963 40.8333C31.0407 40.8333 31.0799 40.828 31.1136 40.8173C31.1483 40.8058 31.1883 40.7778 31.2336 40.7333L39.6203 32.3387C40.2852 31.6738 40.7981 30.9271 41.159 30.0987C41.5199 29.2702 41.6919 28.4298 41.675 27.5773C41.6474 26.044 41.1616 24.7444 40.2176 23.6787C39.2745 22.612 38.1207 22.0787 36.7563 22.0787C36.0336 22.0787 35.3305 22.2253 34.647 22.5187C33.9643 22.812 33.371 23.2391 32.867 23.8L31.659 25.1C31.5656 25.2156 31.4643 25.2956 31.355 25.34C31.2456 25.3844 31.1287 25.4062 31.0043 25.4053C30.8799 25.4044 30.7563 25.3769 30.6336 25.3227C30.511 25.2684 30.4025 25.1942 30.3083 25.1L29.1003 23.8C28.5999 23.2373 28.0087 22.8076 27.327 22.5107C26.6443 22.2129 25.939 22.064 25.211 22.064C24.0447 22.064 23.027 22.4684 22.1576 23.2773C21.2892 24.0871 20.7247 25.1018 20.4643 26.3213H19.1163C19.3919 24.7222 20.0914 23.3907 21.215 22.3267C22.3385 21.2627 23.6705 20.7307 25.211 20.7307C26.1239 20.7307 27.0012 20.9164 27.843 21.288C28.6847 21.6587 29.4381 22.196 30.103 22.9L31.0003 23.8493L31.847 22.952C32.5234 22.2302 33.287 21.6796 34.1376 21.3C34.9883 20.9204 35.8612 20.7307 36.7563 20.7307C38.5003 20.7307 39.9772 21.3991 41.187 22.736C42.3967 24.0729 43.0012 25.6862 43.0003 27.576C43.0003 28.6142 42.7945 29.6204 42.383 30.5947C41.9705 31.5689 41.3781 32.4449 40.6056 33.2227L32.1523 41.6853C31.9825 41.8542 31.8021 41.9809 31.611 42.0653C31.4199 42.1498 31.2176 42.192 31.0043 42.192M30.859 30.8333H19.0776V29.5H36.167C36.7154 29.5 37.1861 29.304 37.579 28.912C37.971 28.5191 38.167 28.0484 38.167 27.5C38.167 26.9516 37.971 26.4809 37.579 26.088C37.1861 25.696 36.7154 25.5 36.167 25.5C35.8381 25.5 35.5305 25.5747 35.2443 25.724C34.9572 25.8742 34.7203 26.0876 34.5336 26.364L33.1976 25.9973C33.4936 25.4382 33.903 24.9933 34.4256 24.6627C34.9483 24.332 35.5287 24.1667 36.167 24.1667C37.0932 24.1667 37.8799 24.4907 38.527 25.1387C39.1759 25.7858 39.5003 26.572 39.5003 27.4973C39.5003 28.4227 39.1759 29.2098 38.527 29.8587C37.8781 30.5076 37.0914 30.8324 36.167 30.8333H33.4203C33.6585 31.1071 33.8425 31.4093 33.9723 31.74C34.1021 32.0707 34.167 32.4351 34.167 32.8333C34.167 33.7596 33.8425 34.5462 33.1936 35.1933C32.5465 35.8422 31.7599 36.1667 30.8336 36.1667C30.1963 36.1667 29.6159 36.0013 29.0923 35.6707C28.5696 35.34 28.1603 34.8951 27.8643 34.336L29.2003 33.9693C29.387 34.2467 29.6239 34.46 29.911 34.6093C30.1981 34.7587 30.5056 34.8333 30.8336 34.8333C31.3821 34.8333 31.8527 34.6373 32.2456 34.2453C32.6376 33.8524 32.8336 33.3818 32.8336 32.8333C32.8336 32.2849 32.6416 31.8142 32.2576 31.4213C31.8736 31.0284 31.4074 30.8324 30.859 30.8333Z"/>
</mask>
<path d="M31.0043 42.1933C30.7901 42.1933 30.5763 42.1507 30.363 42.0653C30.1496 41.9809 29.9674 41.8538 29.8163 41.684L22.1763 34.012H24.047L30.7563 40.7333C30.8025 40.7778 30.8425 40.8058 30.8763 40.8173C30.9101 40.8289 30.9501 40.8342 30.9963 40.8333C31.0407 40.8333 31.0799 40.828 31.1136 40.8173C31.1483 40.8058 31.1883 40.7778 31.2336 40.7333L39.6203 32.3387C40.2852 31.6738 40.7981 30.9271 41.159 30.0987C41.5199 29.2702 41.6919 28.4298 41.675 27.5773C41.6474 26.044 41.1616 24.7444 40.2176 23.6787C39.2745 22.612 38.1207 22.0787 36.7563 22.0787C36.0336 22.0787 35.3305 22.2253 34.647 22.5187C33.9643 22.812 33.371 23.2391 32.867 23.8L31.659 25.1C31.5656 25.2156 31.4643 25.2956 31.355 25.34C31.2456 25.3844 31.1287 25.4062 31.0043 25.4053C30.8799 25.4044 30.7563 25.3769 30.6336 25.3227C30.511 25.2684 30.4025 25.1942 30.3083 25.1L29.1003 23.8C28.5999 23.2373 28.0087 22.8076 27.327 22.5107C26.6443 22.2129 25.939 22.064 25.211 22.064C24.0447 22.064 23.027 22.4684 22.1576 23.2773C21.2892 24.0871 20.7247 25.1018 20.4643 26.3213H19.1163C19.3919 24.7222 20.0914 23.3907 21.215 22.3267C22.3385 21.2627 23.6705 20.7307 25.211 20.7307C26.1239 20.7307 27.0012 20.9164 27.843 21.288C28.6847 21.6587 29.4381 22.196 30.103 22.9L31.0003 23.8493L31.847 22.952C32.5234 22.2302 33.287 21.6796 34.1376 21.3C34.9883 20.9204 35.8612 20.7307 36.7563 20.7307C38.5003 20.7307 39.9772 21.3991 41.187 22.736C42.3967 24.0729 43.0012 25.6862 43.0003 27.576C43.0003 28.6142 42.7945 29.6204 42.383 30.5947C41.9705 31.5689 41.3781 32.4449 40.6056 33.2227L32.1523 41.6853C31.9825 41.8542 31.8021 41.9809 31.611 42.0653C31.4199 42.1498 31.2176 42.192 31.0043 42.192M30.859 30.8333H19.0776V29.5H36.167C36.7154 29.5 37.1861 29.304 37.579 28.912C37.971 28.5191 38.167 28.0484 38.167 27.5C38.167 26.9516 37.971 26.4809 37.579 26.088C37.1861 25.696 36.7154 25.5 36.167 25.5C35.8381 25.5 35.5305 25.5747 35.2443 25.724C34.9572 25.8742 34.7203 26.0876 34.5336 26.364L33.1976 25.9973C33.4936 25.4382 33.903 24.9933 34.4256 24.6627C34.9483 24.332 35.5287 24.1667 36.167 24.1667C37.0932 24.1667 37.8799 24.4907 38.527 25.1387C39.1759 25.7858 39.5003 26.572 39.5003 27.4973C39.5003 28.4227 39.1759 29.2098 38.527 29.8587C37.8781 30.5076 37.0914 30.8324 36.167 30.8333H33.4203C33.6585 31.1071 33.8425 31.4093 33.9723 31.74C34.1021 32.0707 34.167 32.4351 34.167 32.8333C34.167 33.7596 33.8425 34.5462 33.1936 35.1933C32.5465 35.8422 31.7599 36.1667 30.8336 36.1667C30.1963 36.1667 29.6159 36.0013 29.0923 35.6707C28.5696 35.34 28.1603 34.8951 27.8643 34.336L29.2003 33.9693C29.387 34.2467 29.6239 34.46 29.911 34.6093C30.1981 34.7587 30.5056 34.8333 30.8336 34.8333C31.3821 34.8333 31.8527 34.6373 32.2456 34.2453C32.6376 33.8524 32.8336 33.3818 32.8336 32.8333C32.8336 32.2849 32.6416 31.8142 32.2576 31.4213C31.8736 31.0284 31.4074 30.8324 30.859 30.8333Z" fill="#74B2E7"/>
<path d="M30.363 42.0653L30.4744 41.7868L30.4734 41.7864L30.363 42.0653ZM29.8163 41.684L30.0404 41.4845L30.0348 41.4783L30.0289 41.4723L29.8163 41.684ZM22.1763 34.012V33.712H21.4542L21.9637 34.2237L22.1763 34.012ZM24.047 34.012L24.2593 33.8001L24.1714 33.712H24.047V34.012ZM30.7563 40.7333L30.5439 40.9453L30.5484 40.9496L30.7563 40.7333ZM30.9963 40.8333V40.5333L30.9905 40.5334L30.9963 40.8333ZM31.1136 40.8173L31.204 41.1034L31.2085 41.1019L31.1136 40.8173ZM31.2336 40.7333L31.4437 40.9476L31.4459 40.9454L31.2336 40.7333ZM39.6203 32.3387L39.4082 32.1265L39.4081 32.1266L39.6203 32.3387ZM41.675 27.5773L41.375 27.5827L41.375 27.5833L41.675 27.5773ZM40.2176 23.6787L39.9929 23.8774L39.9931 23.8776L40.2176 23.6787ZM34.647 22.5187L34.5287 22.243L34.5285 22.243L34.647 22.5187ZM32.867 23.8L33.0868 24.0042L33.0901 24.0005L32.867 23.8ZM31.659 25.1L31.4392 24.8958L31.4321 24.9034L31.4256 24.9115L31.659 25.1ZM30.3083 25.1L30.0884 25.3044L30.0962 25.3121L30.3083 25.1ZM29.1003 23.8L28.8761 23.9994L28.8805 24.0042L29.1003 23.8ZM27.327 22.5107L27.207 22.7856L27.2072 22.7857L27.327 22.5107ZM22.1576 23.2773L21.9533 23.0577L21.953 23.0579L22.1576 23.2773ZM20.4643 26.3213V26.6213H20.707L20.7577 26.384L20.4643 26.3213ZM19.1163 26.3213L18.8207 26.2704L18.7602 26.6213H19.1163V26.3213ZM25.211 20.7307V21.0307V20.7307ZM27.843 21.288L27.7218 21.5625L27.7221 21.5626L27.843 21.288ZM30.103 22.9L29.8849 23.106L29.885 23.1061L30.103 22.9ZM31.0003 23.8493L30.7823 24.0554L31.0005 24.2863L31.2185 24.0552L31.0003 23.8493ZM31.847 22.952L32.0652 23.1579L32.0659 23.1571L31.847 22.952ZM43.0003 27.576L42.7003 27.5759V27.576H43.0003ZM42.383 30.5947L42.6592 30.7116L42.6593 30.7114L42.383 30.5947ZM40.6056 33.2227L40.8179 33.4347L40.8185 33.4341L40.6056 33.2227ZM32.1523 41.6853L32.3639 41.898L32.3646 41.8973L32.1523 41.6853ZM30.859 30.8333L30.859 31.1333L30.8595 31.1333L30.859 30.8333ZM19.0776 30.8333H18.7776V31.1333H19.0776V30.8333ZM19.0776 29.5V29.2H18.7776V29.5H19.0776ZM37.579 28.912L37.7909 29.1244L37.7913 29.1239L37.579 28.912ZM37.579 26.088L37.7913 25.8761L37.7909 25.8756L37.579 26.088ZM35.2443 25.724L35.1055 25.458L35.1052 25.4582L35.2443 25.724ZM34.5336 26.364L34.4542 26.6533L34.6618 26.7103L34.7823 26.5319L34.5336 26.364ZM33.1976 25.9973L32.9325 25.857L32.7575 26.1876L33.1182 26.2866L33.1976 25.9973ZM38.527 25.1387L38.3147 25.3507L38.3151 25.3511L38.527 25.1387ZM36.167 30.8333L36.167 31.1333L36.1673 31.1333L36.167 30.8333ZM33.4203 30.8333V30.5333H32.7616L33.194 31.0303L33.4203 30.8333ZM34.167 32.8333H34.467H34.167ZM33.1936 35.1933L32.9818 34.9809L32.9812 34.9815L33.1936 35.1933ZM29.0923 35.6707L28.9319 35.9242L28.9321 35.9243L29.0923 35.6707ZM27.8643 34.336L27.7849 34.0467L27.4241 34.1457L27.5992 34.4764L27.8643 34.336ZM29.2003 33.9693L29.4492 33.8018L29.3288 33.623L29.1209 33.68L29.2003 33.9693ZM30.8336 34.8333V34.5333V34.8333ZM32.2456 34.2453L32.4575 34.4577L32.458 34.4572L32.2456 34.2453ZM31.0043 42.1933V41.8933C30.8309 41.8933 30.6549 41.859 30.4744 41.7868L30.363 42.0653L30.2516 42.3439C30.4977 42.4423 30.7492 42.4933 31.0043 42.4933V42.1933ZM30.363 42.0653L30.4734 41.7864C30.3032 41.719 30.16 41.619 30.0404 41.4845L29.8163 41.684L29.5922 41.8835C29.7748 42.0886 29.9961 42.2427 30.2526 42.3443L30.363 42.0653ZM29.8163 41.684L30.0289 41.4723L22.3889 33.8003L22.1763 34.012L21.9637 34.2237L29.6037 41.8957L29.8163 41.684ZM22.1763 34.012V34.312H24.047V34.012V33.712H22.1763V34.012ZM24.047 34.012L23.8346 34.2239L30.544 40.9453L30.7563 40.7333L30.9686 40.5214L24.2593 33.8001L24.047 34.012ZM30.7563 40.7333L30.5484 40.9496C30.6049 41.0039 30.683 41.0683 30.7792 41.1012L30.8763 40.8173L30.9734 40.5335C30.9827 40.5367 30.9888 40.5397 30.9916 40.5412C30.9943 40.5427 30.9949 40.5432 30.993 40.5419C30.9889 40.5391 30.9794 40.5317 30.9642 40.5171L30.7563 40.7333ZM30.8763 40.8173L30.7792 41.1012C30.8542 41.1268 30.9307 41.1346 31.0021 41.1333L30.9963 40.8333L30.9905 40.5334C30.9805 40.5336 30.9742 40.533 30.9713 40.5326C30.9683 40.5322 30.9694 40.5321 30.9734 40.5335L30.8763 40.8173ZM30.9963 40.8333V41.1333C31.0639 41.1333 31.1346 41.1253 31.204 41.1034L31.1136 40.8173L31.0233 40.5313C31.0251 40.5307 31.0176 40.5333 30.9963 40.5333V40.8333ZM31.1136 40.8173L31.2085 41.1019C31.3073 41.069 31.3864 41.0037 31.4437 40.9476L31.2336 40.7333L31.0236 40.5191C31.0094 40.533 31.0008 40.5397 30.9976 40.5419C30.9962 40.5429 30.9971 40.5421 31.0002 40.5405C31.0033 40.5389 31.0095 40.5358 31.0188 40.5327L31.1136 40.8173ZM31.2336 40.7333L31.4459 40.9454L39.8325 32.5507L39.6203 32.3387L39.4081 32.1266L31.0214 40.5213L31.2336 40.7333ZM39.6203 32.3387L39.8324 32.5508C40.5228 31.8604 41.0575 31.0828 41.434 30.2185L41.159 30.0987L40.8839 29.9789C40.5387 30.7715 40.0476 31.4871 39.4082 32.1265L39.6203 32.3387ZM41.159 30.0987L41.434 30.2185C41.8111 29.3528 41.9927 28.4696 41.9749 27.5714L41.675 27.5773L41.375 27.5833C41.391 28.3899 41.2286 29.1876 40.8839 29.9789L41.159 30.0987ZM41.675 27.5773L41.9749 27.5719C41.9462 25.9731 41.4374 24.6033 40.4422 23.4798L40.2176 23.6787L39.9931 23.8776C40.8859 24.8856 41.3486 26.1149 41.375 27.5827L41.675 27.5773ZM40.2176 23.6787L40.4424 23.48C39.4451 22.3521 38.2109 21.7787 36.7563 21.7787V22.0787V22.3787C38.0306 22.3787 39.1039 22.8719 39.9929 23.8774L40.2176 23.6787ZM36.7563 22.0787V21.7787C35.9918 21.7787 35.2485 21.9341 34.5287 22.243L34.647 22.5187L34.7653 22.7944C35.4126 22.5166 36.0755 22.3787 36.7563 22.3787V22.0787ZM34.647 22.5187L34.5285 22.243C33.8053 22.5538 33.1764 23.0068 32.6438 23.5995L32.867 23.8L33.0901 24.0005C33.5655 23.4715 34.1233 23.0702 34.7654 22.7943L34.647 22.5187ZM32.867 23.8L32.6472 23.5958L31.4392 24.8958L31.659 25.1L31.8787 25.3042L33.0867 24.0042L32.867 23.8ZM31.659 25.1L31.4256 24.9115C31.3561 24.9976 31.2936 25.0411 31.242 25.0621L31.355 25.34L31.4679 25.6179C31.635 25.55 31.7752 25.4335 31.8924 25.2885L31.659 25.1ZM31.355 25.34L31.242 25.0621C31.1712 25.0909 31.0936 25.106 31.0064 25.1053L31.0043 25.4053L31.0022 25.7053C31.1639 25.7065 31.3201 25.678 31.4679 25.6179L31.355 25.34ZM31.0043 25.4053L31.0064 25.1053C30.9262 25.1048 30.843 25.0872 30.7549 25.0483L30.6336 25.3227L30.5123 25.5971C30.6696 25.6666 30.8336 25.7041 31.0022 25.7053L31.0043 25.4053ZM30.6336 25.3227L30.7549 25.0483C30.6659 25.0089 30.5883 24.9557 30.5204 24.8879L30.3083 25.1L30.0962 25.3121C30.2167 25.4327 30.356 25.528 30.5123 25.5971L30.6336 25.3227ZM30.3083 25.1L30.5281 24.8958L29.3201 23.5958L29.1003 23.8L28.8805 24.0042L30.0885 25.3042L30.3083 25.1ZM29.1003 23.8L29.3245 23.6006C28.7955 23.0059 28.1689 22.5501 27.4467 22.2356L27.327 22.5107L27.2072 22.7857C27.8486 23.065 28.4042 23.4688 28.8761 23.9994L29.1003 23.8ZM27.327 22.5107L27.4469 22.2357C26.7273 21.9218 25.9812 21.764 25.211 21.764V22.064V22.364C25.8967 22.364 26.5613 22.504 27.207 22.7856L27.327 22.5107ZM25.211 22.064V21.764C23.9674 21.764 22.877 22.1982 21.9533 23.0577L22.1576 23.2773L22.362 23.497C23.1769 22.7387 24.1221 22.364 25.211 22.364V22.064ZM22.1576 23.2773L21.953 23.0579C21.0373 23.9118 20.4435 24.9822 20.1709 26.2587L20.4643 26.3213L20.7577 26.384C21.006 25.2213 21.5411 24.2624 22.3622 23.4967L22.1576 23.2773ZM20.4643 26.3213V26.0213H19.1163V26.3213V26.6213H20.4643V26.3213ZM19.1163 26.3213L19.4119 26.3723C19.6771 24.8337 20.3471 23.5617 21.4213 22.5445L21.215 22.3267L21.0087 22.1088C19.8357 23.2196 19.1066 24.6108 18.8207 26.2704L19.1163 26.3213ZM21.215 22.3267L21.4213 22.5445C22.4894 21.533 23.7477 21.0307 25.211 21.0307V20.7307V20.4307C23.5934 20.4307 22.1877 20.9923 21.0087 22.1088L21.215 22.3267ZM25.211 20.7307V21.0307C26.0818 21.0307 26.9179 21.2076 27.7218 21.5625L27.843 21.288L27.9641 21.0135C27.0845 20.6253 26.1659 20.4307 25.211 20.4307V20.7307ZM27.843 21.288L27.7221 21.5626C28.5253 21.9162 29.246 22.4295 29.8849 23.106L30.103 22.9L30.3211 22.694C29.6302 21.9625 28.8442 21.4011 27.9639 21.0134L27.843 21.288ZM30.103 22.9L29.885 23.1061L30.7823 24.0554L31.0003 23.8493L31.2183 23.6433L30.321 22.6939L30.103 22.9ZM31.0003 23.8493L31.2185 24.0552L32.0652 23.1579L31.847 22.952L31.6288 22.7461L30.7821 23.6435L31.0003 23.8493ZM31.847 22.952L32.0659 23.1571C32.7167 22.4627 33.4479 21.9363 34.2599 21.574L34.1376 21.3L34.0154 21.026C33.126 21.4229 32.3301 21.9978 31.6281 22.7469L31.847 22.952ZM34.1376 21.3L34.2599 21.574C35.0737 21.2109 35.905 21.0307 36.7563 21.0307V20.7307V20.4307C35.8174 20.4307 34.9029 20.63 34.0154 21.026L34.1376 21.3ZM36.7563 20.7307V21.0307C38.4123 21.0307 39.8094 21.6608 40.9645 22.9373L41.187 22.736L41.4094 22.5347C40.1449 21.1374 38.5883 20.4307 36.7563 20.4307V20.7307ZM41.187 22.736L40.9645 22.9373C42.1218 24.2161 42.7012 25.7566 42.7003 27.5759L43.0003 27.576L43.3003 27.5761C43.3012 25.6159 42.6717 23.9296 41.4094 22.5347L41.187 22.736ZM43.0003 27.576H42.7003C42.7003 28.5734 42.5029 29.5399 42.1066 30.4779L42.383 30.5947L42.6593 30.7114C43.0862 29.701 43.3003 28.6551 43.3003 27.576H43.0003ZM42.383 30.5947L42.1067 30.4777C41.7097 31.4154 41.1393 32.2596 40.3928 33.0113L40.6056 33.2227L40.8185 33.4341C41.6169 32.6301 42.2313 31.7224 42.6592 30.7116L42.383 30.5947ZM40.6056 33.2227L40.3934 33.0107L31.9401 41.4733L32.1523 41.6853L32.3646 41.8973L40.8179 33.4347L40.6056 33.2227ZM32.1523 41.6853L31.9407 41.4726C31.7933 41.6193 31.6427 41.7233 31.4897 41.7909L31.611 42.0653L31.7322 42.3397C31.9615 42.2384 32.1718 42.0891 32.3639 41.898L32.1523 41.6853ZM31.611 42.0653L31.4897 41.7909C31.3376 41.8581 31.1768 41.892 31.0043 41.892V42.192V42.492C31.2585 42.492 31.5021 42.4414 31.7322 42.3397L31.611 42.0653ZM30.859 30.8333V30.5333H19.0776V30.8333V31.1333H30.859V30.8333ZM19.0776 30.8333H19.3776V29.5H19.0776H18.7776V30.8333H19.0776ZM19.0776 29.5V29.8H36.167V29.5V29.2H19.0776V29.5ZM36.167 29.5V29.8C36.7959 29.8 37.3425 29.5717 37.7909 29.1244L37.579 28.912L37.3671 28.6996C37.0297 29.0363 36.6349 29.2 36.167 29.2V29.5ZM37.579 28.912L37.7913 29.1239C38.2387 28.6755 38.467 28.129 38.467 27.5H38.167H37.867C37.867 27.9679 37.7032 28.3627 37.3666 28.7001L37.579 28.912ZM38.167 27.5H38.467C38.467 26.871 38.2387 26.3245 37.7913 25.8761L37.579 26.088L37.3666 26.2999C37.7032 26.6373 37.867 27.0321 37.867 27.5H38.167ZM37.579 26.088L37.7909 25.8756C37.3425 25.4283 36.7959 25.2 36.167 25.2V25.5V25.8C36.6349 25.8 37.0297 25.9637 37.3671 26.3004L37.579 26.088ZM36.167 25.5V25.2C35.7907 25.2 35.4354 25.2859 35.1055 25.458L35.2443 25.724L35.3831 25.99C35.6256 25.8634 35.8855 25.8 36.167 25.8V25.5ZM35.2443 25.724L35.1052 25.4582C34.7727 25.6322 34.4987 25.8797 34.285 26.1961L34.5336 26.364L34.7823 26.5319C34.9419 26.2954 35.1417 26.1163 35.3834 25.9898L35.2443 25.724ZM34.5336 26.364L34.613 26.0747L33.277 25.708L33.1976 25.9973L33.1182 26.2866L34.4542 26.6533L34.5336 26.364ZM33.1976 25.9973L33.4628 26.1377C33.7349 25.6237 34.1086 25.2182 34.586 24.9162L34.4256 24.6627L34.2652 24.4091C33.6974 24.7684 33.2524 25.2528 32.9325 25.857L33.1976 25.9973ZM34.4256 24.6627L34.586 24.9162C35.0591 24.6169 35.5836 24.4667 36.167 24.4667V24.1667V23.8667C35.4739 23.8667 34.8375 24.0471 34.2652 24.4091L34.4256 24.6627ZM36.167 24.1667V24.4667C37.0146 24.4667 37.7246 24.7597 38.3147 25.3507L38.527 25.1387L38.7392 24.9267C38.0351 24.2216 37.1718 23.8667 36.167 23.8667V24.1667ZM38.527 25.1387L38.3151 25.3511C38.907 25.9413 39.2003 26.6508 39.2003 27.4973H39.5003H39.8003C39.8003 26.4932 39.4448 25.6303 38.7388 24.9262L38.527 25.1387ZM39.5003 27.4973H39.2003C39.2003 28.3438 38.9069 29.0544 38.3148 29.6465L38.527 29.8587L38.7391 30.0708C39.4448 29.3651 39.8003 28.5015 39.8003 27.4973H39.5003ZM38.527 29.8587L38.3148 29.6465C37.7226 30.2388 37.0123 30.5325 36.1667 30.5333L36.167 30.8333L36.1673 31.1333C37.1705 31.1324 38.0336 30.7763 38.7391 30.0708L38.527 29.8587ZM36.167 30.8333V30.5333H33.4203V30.8333V31.1333H36.167V30.8333ZM33.4203 30.8333L33.194 31.0303C33.4102 31.2787 33.5761 31.5516 33.693 31.8496L33.9723 31.74L34.2516 31.6304C34.109 31.2671 33.9069 30.9355 33.6466 30.6364L33.4203 30.8333ZM33.9723 31.74L33.693 31.8496C33.8076 32.1414 33.867 32.4681 33.867 32.8333H34.167H34.467C34.467 32.4021 34.3966 32 34.2516 31.6304L33.9723 31.74ZM34.167 32.8333H33.867C33.867 33.6808 33.5736 34.3908 32.9818 34.9809L33.1936 35.1933L33.4055 35.4058C34.1115 34.7017 34.467 33.8383 34.467 32.8333H34.167ZM33.1936 35.1933L32.9812 34.9815C32.3911 35.5733 31.6811 35.8667 30.8336 35.8667V36.1667V36.4667C31.8386 36.4667 32.702 36.1112 33.4061 35.4052L33.1936 35.1933ZM30.8336 36.1667V35.8667C30.2513 35.8667 29.7267 35.7165 29.2525 35.417L29.0923 35.6707L28.9321 35.9243C29.5051 36.2862 30.1413 36.4667 30.8336 36.4667V36.1667ZM29.0923 35.6707L29.2527 35.4171C28.7753 35.1151 28.4016 34.7096 28.1294 34.1956L27.8643 34.336L27.5992 34.4764C27.919 35.0806 28.364 35.5649 28.9319 35.9242L29.0923 35.6707ZM27.8643 34.336L27.9437 34.6253L29.2797 34.2586L29.2003 33.9693L29.1209 33.68L27.7849 34.0467L27.8643 34.336ZM29.2003 33.9693L28.9514 34.1368C29.1651 34.4543 29.4394 34.7022 29.7725 34.8755L29.911 34.6093L30.0494 34.3432C29.8083 34.2178 29.6088 34.039 29.4492 33.8018L29.2003 33.9693ZM29.911 34.6093L29.7725 34.8755C30.103 35.0474 30.4581 35.1333 30.8336 35.1333V34.8333V34.5333C30.5532 34.5333 30.2932 34.47 30.0494 34.3432L29.911 34.6093ZM30.8336 34.8333V35.1333C31.4626 35.1333 32.0092 34.9051 32.4575 34.4577L32.2456 34.2453L32.0337 34.033C31.6963 34.3696 31.3016 34.5333 30.8336 34.5333V34.8333ZM32.2456 34.2453L32.458 34.4572C32.9054 34.0088 33.1336 33.4623 33.1336 32.8333H32.8336H32.5336C32.5336 33.3013 32.3699 33.696 32.0333 34.0334L32.2456 34.2453ZM32.8336 32.8333H33.1336C33.1336 32.2064 32.9109 31.6605 32.4722 31.2116L32.2576 31.4213L32.0431 31.631C32.3724 31.968 32.5336 32.3634 32.5336 32.8333H32.8336ZM32.2576 31.4213L32.4722 31.2116C32.0317 30.761 31.488 30.5323 30.8585 30.5333L30.859 30.8333L30.8595 31.1333C31.3268 31.1326 31.7155 31.2959 32.0431 31.631L32.2576 31.4213Z" fill="#74B2E7" mask="url(#path-2-outside-1_972_377)"/>
</svg>
