<svg width="24" height="26" viewBox="0 0 24 26" fill="none" xmlns="http://www.w3.org/2000/svg">
<path d="M2.3999 15.4H5.13705C5.47305 15.4 5.80447 15.4792 6.10505 15.6328L8.43876 16.8184C8.73933 16.9708 9.07076 17.05 9.4079 17.05H10.5988C11.7508 17.05 12.6856 17.9992 12.6856 19.1704C12.6856 19.2184 12.6548 19.2592 12.6102 19.2724L9.70619 20.116C9.18511 20.2671 8.62946 20.2143 8.14276 19.9672L5.6479 18.7M6.97133 8.00679C6.97133 5.49639 9.13819 3.01479 10.6582 1.58319C11.0585 1.20689 11.5769 0.998829 12.1142 0.998829C12.6515 0.998829 13.1699 1.20689 13.5702 1.58319C15.0902 3.01599 17.257 5.49519 17.257 8.00799C17.257 10.468 15.3096 13 12.1142 13C8.91876 13 6.97133 10.468 6.97133 8.00679Z" stroke="#F9F9F9" stroke-width="2" stroke-linecap="round" stroke-linejoin="round"/>
<path d="M12.6856 18.4L17.9348 16.7068C18.3917 16.5596 18.8813 16.5677 19.3337 16.7299C19.786 16.8922 20.178 17.2004 20.4536 17.6104C20.8753 18.2224 20.7039 19.1008 20.089 19.4728L11.5005 24.6772C11.2319 24.8404 10.9345 24.9444 10.6265 24.983C10.3184 25.0216 10.006 24.9939 9.70847 24.9016L2.3999 22.624" stroke="#F9F9F9" stroke-width="2" stroke-linecap="round" stroke-linejoin="round"/>
</svg>
