<svg width="19" height="19" viewBox="0 0 19 19" fill="none" xmlns="http://www.w3.org/2000/svg">
<path d="M6.484 18.163H3.194C1.982 18.163 1 17.181 1 15.969V9.51502C1.00074 9.04484 1.10194 8.58026 1.29682 8.15237C1.49171 7.72449 1.77578 7.34319 2.13 7.03402L8.06 1.86902C8.45931 1.52164 8.97074 1.33032 9.5 1.33032C10.0293 1.33032 10.5407 1.52164 10.94 1.86902L16.87 7.03502C17.2241 7.34408 17.5081 7.72522 17.703 8.15292C17.8978 8.58062 17.9991 9.04501 18 9.51502V15.969C18 16.5507 17.769 17.1086 17.3577 17.5201C16.9465 17.9315 16.3887 18.1628 15.807 18.163H12.79V11.582C12.79 10.674 12.054 9.93702 11.145 9.93702H8.13C7.221 9.93702 6.485 10.674 6.485 11.582L6.484 18.163ZM6.484 18.163H12.791" stroke="black" stroke-width="1.5" stroke-linejoin="round"/>
</svg>
