<?xml version="1.0" encoding="utf-8"?>
<!-- Generator: Adobe Illustrator 27.5.0, SVG Export Plug-In . SVG Version: 6.00 Build 0)  -->
<svg version="1.1" xmlns="http://www.w3.org/2000/svg" xmlns:xlink="http://www.w3.org/1999/xlink" x="0px" y="0px"
	 viewBox="0 0 500 500" style="enable-background:new 0 0 500 500;" xml:space="preserve">
<g id="BACKGROUND">
	<g>
		<rect style="fill:#154979;" width="500" height="500"/>
		<rect y="410.94" style="fill:#1A4D7C;" width="500" height="89.06"/>
		<rect y="422.379" style="fill:#0D4073;" width="500" height="77.621"/>
	</g>
</g>
<g id="OBJECTS">
	<g>
		<g>
			<g>
				<path style="fill:#0D4073;" d="M162.746,372.812l-18.794-99.449c-0.801-4.24-4.506-7.31-8.822-7.31H75.396l30.86,144.888
					h357.368v-38.128H162.746z"/>
				<path style="fill:#003663;" d="M102.222,368.634l-18.005-95.271c-0.801-4.24-4.506-7.31-8.821-7.31H55.121l23.42,144.888H403.89
					v-38.128H107.263C104.797,372.812,102.68,371.057,102.222,368.634z"/>
				<rect x="98.421" y="410.94" style="fill:#002551;" width="19.7" height="11.439"/>
				<rect x="363.184" y="410.94" style="fill:#002551;" width="19.7" height="11.439"/>
				<rect x="158.155" y="410.94" style="fill:#002551;" width="19.7" height="11.439"/>
				<rect x="422.918" y="410.94" style="fill:#002551;" width="19.7" height="11.439"/>
				<rect x="403.89" y="372.812" style="fill:#0D4073;" width="59.734" height="38.128"/>
				<rect x="108.271" y="416.659" style="fill:#2F5B90;" width="9.85" height="5.719"/>
				<rect x="373.034" y="416.659" style="fill:#2F5B90;" width="9.85" height="5.719"/>
			</g>
			<path style="fill:#678CB4;" d="M448.62,338.496H166.593c-2.833,0-5.13,2.297-5.13,5.13v24.055c0,2.833,2.297,5.13,5.13,5.13
				H448.62c2.833,0,5.13-2.297,5.13-5.13v-24.055C453.75,340.793,451.453,338.496,448.62,338.496z"/>
			<path style="fill:#5B80A7;" d="M161.463,367.682c0,2.833,2.297,5.13,5.13,5.13H448.62c2.833,0,5.13-2.297,5.13-5.13v-2.51
				H161.463V367.682z"/>
			<path style="fill:#5B80A7;" d="M388.886,338.496H106.859c-2.833,0-5.13,2.297-5.13,5.13v24.055c0,2.833,2.297,5.13,5.13,5.13
				h282.027c2.833,0,5.13-2.297,5.13-5.13v-24.055C394.016,340.793,391.719,338.496,388.886,338.496z"/>
			<path style="fill:#436D9A;" d="M101.729,365.172v2.51c0,2.833,2.297,5.13,5.13,5.13h282.027c2.833,0,5.13-2.297,5.13-5.13v-2.51
				H101.729z"/>
			<path style="fill:#678CB4;" d="M448.62,326.696H166.593c-2.833,0-5.13,2.297-5.13,5.13v1.54c0,2.833,2.297,5.13,5.13,5.13H448.62
				c2.833,0,5.13-2.297,5.13-5.13v-1.54C453.75,328.993,451.453,326.696,448.62,326.696z"/>
			<path style="fill:#5B80A7;" d="M388.886,326.696H106.859c-2.833,0-5.13,2.297-5.13,5.13v1.54c0,2.833,2.297,5.13,5.13,5.13
				h282.027c2.833,0,5.13-2.297,5.13-5.13v-1.54C394.016,328.993,391.719,326.696,388.886,326.696z"/>
			<path style="fill:#5B80A7;" d="M161.617,334.56c0.54,2.255,2.556,3.936,4.976,3.936H448.62c2.42,0,4.436-1.681,4.976-3.936
				H161.617z"/>
			<path style="fill:#436D9A;" d="M101.883,334.56c0.54,2.255,2.556,3.936,4.976,3.936h282.027c2.42,0,4.436-1.681,4.976-3.936
				H101.883z"/>
		</g>
		<g>
			<path style="fill:#2F5B90;" d="M144.353,302.896c-13.899,0-13.899,0-13.899,0s0,0-13.9,0c-13.899,0-18.132,11.9-18.132,11.9
				s4.233,11.9,18.132,11.9c13.9,0,13.9,0,13.9,0s0,0,13.899,0c13.9,0,18.133-11.9,18.133-11.9S158.253,302.896,144.353,302.896z"/>
			<g>
				<path style="fill:#F2ECE5;" d="M110.365,294.357c28.322-10.113,48.142-5.632,64.474,4.688
					c9.791,6.187,20.05,15.752,20.05,27.651c0,0-19.069,0-47.118,0S110.365,294.357,110.365,294.357z"/>
				<path style="fill:#FFFFFF;" d="M110.365,294.357c0,0,21.583,13.457,31.25,22.392
					C151.283,325.684,122.082,325.117,110.365,294.357z"/>
			</g>
			<g>
				<path style="fill:#002551;" d="M181.311,282.742c0,0-0.919,2.256-2.469,2.828c-1.55,0.571-10.342-6.079-10.342-6.079
					s-3.715,2.157-7.456,0.919c-3.74-1.238-4.812-4.369-3.253-8.127c1.559-3.758,8.575-7.537,8.575-7.537l0.479,3.314
					c0,0,8.137,3.821,9.893,5.77C178.494,275.78,181.311,282.742,181.311,282.742z"/>
				<g id="XMLID_104_">
					<g id="XMLID_107_">
						<path style="fill:#FFCBAE;" d="M201.478,317.261c1.705-1.481,3.387-5.191,4.346-7.168c1.071-2.207-0.68-5.037-0.68-5.037
							l-19.978-16.494l1.919,20.911l0.752,0.306L201.478,317.261z"/>
					</g>
				</g>
				<g id="XMLID_82_">
					<g id="XMLID_103_">
						<path style="fill:#F9B092;" d="M196.005,309.808c0.451-2.063,0.499-4.016,0.295-6.116c-0.192-1.982-0.52-3.943-1-5.865
							l-10.134-9.266l1.919,20.911l0.752,0.306l7.208,3.953C195.356,312.422,195.717,311.125,196.005,309.808z"/>
					</g>
				</g>
				<path style="fill:#FFCBAE;" d="M175.113,277.809c0,0,0.728-6.743,7.893-3.304c7.165,3.439,5.451,8.893,5.224,10.599
					c0,0,12.265,7.556,5.341,23.512c-6.924,15.956-18.693,8.892-27.07,5.87c-8.377-3.022-23.318-7.121-20.696-18.224
					C148.449,285.062,154.556,269.659,175.113,277.809z"/>
				<g>
					<path style="fill:#FF9D7C;" d="M181.918,300.268c0.179-0.055,0.484,0.28,0.707,0.942c0.224,0.655,0.327,1.641,0.115,2.689
						c-0.215,1.047-0.695,1.914-1.158,2.43c-0.465,0.522-0.876,0.712-1.02,0.591c-0.301-0.269,0.459-1.57,0.79-3.303
						C181.725,301.892,181.535,300.398,181.918,300.268z"/>
				</g>
				<g>
					<path style="fill:#002551;" d="M175.96,294.254c0.186-0.002,0.385,0.42,0.385,1.142c0.003,0.715-0.243,1.717-0.847,2.645
						c-0.606,0.926-1.425,1.555-2.082,1.839c-0.661,0.291-1.128,0.277-1.201,0.106c-0.149-0.375,1.141-1.209,2.097-2.72
						C175.312,295.783,175.557,294.268,175.96,294.254z"/>
				</g>
				<g>
					<path style="fill:#002551;" d="M170.086,304.651c0.175-0.064,0.493,0.24,0.718,0.878c0.227,0.63,0.309,1.595,0.035,2.593
						c-0.276,0.998-0.841,1.785-1.358,2.21c-0.52,0.432-0.949,0.531-1.067,0.387c-0.245-0.32,0.653-1.399,1.059-2.973
						C169.93,306.185,169.713,304.8,170.086,304.651z"/>
				</g>
				<path style="fill:#FFB091;" d="M173.36,316.447c2.194,0.87,4.677-0.204,5.547-2.397c0.87-2.194-0.204-4.677-2.397-5.547
					c-2.194-0.87-4.677,0.204-5.547,2.397C170.093,313.094,171.166,315.577,173.36,316.447z"/>
				<path style="fill:#FFB091;" d="M181,296.16c2.193,0.87,4.677-0.204,5.547-2.397c0.87-2.194-0.204-4.677-2.397-5.547
					c-2.194-0.87-4.677,0.204-5.546,2.397C177.732,292.807,178.806,295.291,181,296.16z"/>
				<path style="fill:#FFB091;" d="M179.563,275.706c2.172,0.11,3.975,1.638,5.596,3.087c0.482,0.431,0.986,0.897,1.157,1.52
					c0.171,0.623-0.165,1.429-0.807,1.504c-0.621,0.073-1.09-0.513-1.5-0.984c-0.41-0.472-1.12-0.904-1.611-0.518
					c-0.229,0.18-0.321,0.487-0.533,0.686c-0.462,0.433-1.215,0.169-1.751-0.168c-0.741-0.466-1.418-1.035-2.005-1.685
					c-0.576-0.638-1.089-1.509-0.796-2.316C177.621,275.986,178.665,275.66,179.563,275.706z"/>
				<g>
					<path style="fill:#FF9D7C;" d="M178.132,304.488c0.08,0.039,0.108,0.249-0.089,0.535c-0.19,0.284-0.626,0.597-1.235,0.68
						c-0.63,0.092-1.333-0.11-1.957-0.41c-0.62-0.301-1.213-0.623-1.875-0.977c-2.604-1.41-4.688-2.651-4.532-3.013
						c0.151-0.356,2.538,0.323,5.205,1.767c0.659,0.352,1.3,0.746,1.816,1.072c0.51,0.319,0.949,0.513,1.309,0.561
						C177.553,304.815,177.961,304.404,178.132,304.488z"/>
				</g>
				<g>
					<path style="fill:#002551;" d="M161.644,308.503c-0.183,0.022-0.433-0.424-0.491-1.219c-0.062-0.787,0.129-1.913,0.726-2.982
						c0.6-1.067,1.461-1.817,2.165-2.176c0.709-0.365,1.22-0.385,1.297-0.217c0.164,0.369-1.272,1.321-2.227,3.085
						C162.107,306.73,162.045,308.45,161.644,308.503z"/>
				</g>
				<g>
					<path style="fill:#002551;" d="M167.063,296.101c-0.183,0.013-0.413-0.441-0.415-1.235c-0.007-0.785,0.281-1.89,0.99-2.881
						c0.71-0.989,1.664-1.618,2.41-1.864c0.752-0.253,1.257-0.181,1.303-0.004c0.098,0.39-1.447,1.079-2.562,2.693
						C167.62,294.385,167.465,296.068,167.063,296.101z"/>
				</g>
				<path style="fill:#002551;" d="M156.77,288.883c1.898,1.964,3.574,3.983,5.07,6.268c1.225-3.7,0.972-7.883-0.897-11.303
					c4.611,1.386,9.585,1.24,14.136-0.33c1.266,1.128,2.609,2.302,3.874,3.43c0.513-0.541,1.113-0.928,1.626-1.469
					c-1.192-2.317-2.297-4.833-3.799-6.963c-1.502-2.129-3.33-4.07-5.567-5.407c-3.269-1.954-6.946-2.576-10.722-3.076l-2.01-7.324
					l-4.08,2.099l3.615,4.871c0,0-19.1,0.19-18.2,17.544l-15.554,1.34c0,0,4.436,11.074,13.401,6.602l-9.93,7.732
					c0,0,5.527,6.706,14.782,0.015c0,0-2.057,6.881,5.013,7.679c7.07,0.798,8.644,0,8.644,0S162.925,301.47,156.77,288.883z"/>
			</g>
			<g>
				<path style="fill:#FFFFFF;" d="M183.558,326.696L194.272,295c1.919-5.675,7.242-9.495,13.233-9.495h136.714
					c41.687,0,71.551,22.49,71.551,41.09L183.558,326.696z"/>
				<path style="fill:#F2ECE5;" d="M183.558,326.696l232.212-0.1c0-1.623-0.241-3.277-0.684-4.942H185.262L183.558,326.696z"/>
			</g>
		</g>
		<path style="fill:#002551;" d="M472.845,432.119H27.941c-2.69,0-4.87-2.18-4.87-4.87l0,0c0-2.69,2.18-4.87,4.87-4.87h444.905
			c2.69,0,4.87,2.18,4.87,4.87l0,0C477.715,429.938,475.535,432.119,472.845,432.119z"/>
	</g>
	<g>
		<g>
			<polygon style="fill:#002551;" points="73.011,334.56 73.011,422.379 79.724,422.379 79.724,361.241 131.197,361.241 
				131.197,422.379 140.003,422.379 140.003,334.56 			"/>
			<polygon style="fill:#002551;" points="36.376,334.56 36.376,422.379 41.931,422.379 41.931,361.241 93.405,361.241 
				93.405,422.379 103.368,422.379 103.368,334.56 			"/>
			<polygon style="fill:#2F5B90;" points="99.45,334.56 99.45,422.379 103.368,422.379 103.368,361.241 136.086,361.241 
				136.086,422.379 140.003,422.379 140.003,334.56 			"/>
			<g>
				<path style="fill:#436D9A;" d="M134.202,356.154h-27.689v-17.168h27.689V356.154z M107.512,355.154h25.689v-15.168h-25.689
					V355.154z"/>
			</g>
			<circle style="fill:#436D9A;" cx="120.357" cy="347.57" r="2.408"/>
		</g>
		<g>
			<path style="fill:#002551;" d="M74.593,334.56h-17.22c-1.243,0-2.251-1.008-2.251-2.251v-7.129c0-1.243,1.008-2.252,2.251-2.252
				h17.22c1.243,0,2.251,1.008,2.251,2.252v7.129C76.844,333.552,75.836,334.56,74.593,334.56z"/>
			<path style="fill:#2F5B90;" d="M79.599,334.56h-17.22c-1.243,0-2.251-1.008-2.251-2.251v-7.129c0-1.243,1.008-2.252,2.251-2.252
				h17.22c1.243,0,2.251,1.008,2.251,2.252v7.129C81.851,333.552,80.843,334.56,79.599,334.56z"/>
			<path style="fill:#5B80A7;" d="M62.379,333.435c-0.621,0-1.126-0.505-1.126-1.126v-7.129c0-0.621,0.505-1.126,1.126-1.126h17.221
				c0.621,0,1.126,0.505,1.126,1.126v7.129c0,0.621-0.505,1.126-1.126,1.126H62.379z"/>
			<g>
				<rect x="63.236" y="325.758" style="fill:#678CB4;" width="2.864" height="5.973"/>
				<rect x="67.137" y="325.758" style="fill:#678CB4;" width="2.864" height="5.973"/>
				<rect x="71.977" y="325.758" style="fill:#678CB4;" width="2.864" height="5.973"/>
				<rect x="75.878" y="325.758" style="fill:#678CB4;" width="2.864" height="5.973"/>
			</g>
		</g>
	</g>
	<g>
		<path style="fill:#003663;" d="M280.603,77.55h44.001v81.782h-44.001V77.55z M227.507,159.332h44.001V77.55h-44.001V159.332z
			 M174.411,159.332h44.001V77.55h-44.001V159.332z M280.603,248.22h44.001v-81.782h-44.001V248.22z M227.507,248.22h44.001v-81.782
			h-44.001V248.22z M174.411,248.22h44.001v-81.782h-44.001V248.22z"/>
		<path style="fill:#5B80A7;" d="M346.794,67.881H153.206v11.836h7.163v173.571h18.641c0-20.428-11.979-58.213-11.979-58.213
			s27.762-65.2,30.293-115.359h104.368c2.531,50.159,30.293,115.359,30.293,115.359s-11.979,37.784-11.979,58.213h18.641V79.717
			h8.148V67.881z"/>
		<g>
			<path style="fill:#FFFFFF;" d="M250.83,111.48c-3.515,0-6.365-2.849-6.365-6.365c0-3.515,2.85-6.365,6.365-6.365
				c0.532,0,1.047,0.073,1.541,0.196c-1.518-1.428-3.556-2.31-5.804-2.31c-4.683,0-8.479,3.796-8.479,8.479
				c0,4.683,3.796,8.479,8.479,8.479c2.249,0,4.287-0.881,5.804-2.31C251.877,111.407,251.363,111.48,250.83,111.48z"/>
			<g>
				<path style="fill:#FFFFFF;" d="M196.322,174.886l-1.006,1.896c-0.349,0.657-0.873,1.198-1.51,1.557l-1.839,1.037
					c-0.071,0.04-0.071,0.144,0,0.184l1.839,1.037c0.637,0.359,1.162,0.9,1.51,1.557l1.006,1.896c0.039,0.073,0.14,0.073,0.179,0
					l1.006-1.896c0.349-0.657,0.873-1.198,1.51-1.557l1.839-1.037c0.071-0.04,0.071-0.144,0-0.184l-1.839-1.037
					c-0.637-0.359-1.162-0.9-1.51-1.557l-1.006-1.896C196.462,174.813,196.361,174.813,196.322,174.886z"/>
			</g>
			<g>
				<path style="fill:#FFFFFF;" d="M209.421,200.716l-0.499,0.941c-0.173,0.326-0.433,0.594-0.749,0.773l-0.912,0.515
					c-0.035,0.02-0.035,0.072,0,0.091l0.912,0.514c0.316,0.178,0.576,0.447,0.749,0.773l0.499,0.941
					c0.019,0.036,0.069,0.036,0.089,0l0.499-0.941c0.173-0.326,0.433-0.594,0.749-0.773l0.912-0.514c0.035-0.02,0.035-0.072,0-0.091
					l-0.912-0.515c-0.316-0.178-0.576-0.447-0.749-0.773l-0.499-0.941C209.49,200.68,209.44,200.68,209.421,200.716z"/>
			</g>
			<g>
				<path style="fill:#FFFFFF;" d="M294.351,119.989l-0.499,0.941c-0.173,0.326-0.433,0.594-0.749,0.773l-0.912,0.515
					c-0.035,0.02-0.035,0.072,0,0.091l0.912,0.515c0.316,0.178,0.576,0.446,0.749,0.773l0.499,0.941
					c0.019,0.036,0.069,0.036,0.089,0l0.499-0.941c0.173-0.326,0.433-0.594,0.749-0.773l0.912-0.515c0.035-0.02,0.035-0.072,0-0.091
					l-0.912-0.515c-0.316-0.178-0.576-0.446-0.749-0.773l-0.499-0.941C294.421,119.952,294.37,119.952,294.351,119.989z"/>
			</g>
		</g>
	</g>
</g>
<g id="DESIGNED_BY_FREEPIK">
	<g>
		<g id="XMLID_135_">
			<g id="XMLID_201_">
				<path id="XMLID_209_" style="fill:#FFFFFF;" d="M260.104,465.465c-0.432,0.443-0.803,0.931-1.109,1.453l-0.465-0.241
					c-0.067-0.298-0.349-0.503-0.659-0.466c-0.331,0.039-0.568,0.339-0.529,0.67c0.039,0.331,0.339,0.568,0.67,0.529
					c0.066-0.008,0.127-0.026,0.184-0.052l0.451,0.234c-0.251,0.554-0.433,1.139-0.539,1.744l0.746,0.132
					c0.23-1.306,0.85-2.507,1.792-3.473L260.104,465.465z"/>
				<path id="XMLID_208_" style="fill:#FFFFFF;" d="M265.592,463.163c-0.171,0-0.341,0.006-0.51,0.017l-0.074-0.626
					c0.188-0.149,0.296-0.389,0.266-0.645c-0.046-0.393-0.402-0.674-0.795-0.628c-0.393,0.046-0.674,0.402-0.628,0.795
					c0.03,0.254,0.189,0.461,0.404,0.564l0.074,0.624c-0.714,0.116-1.403,0.332-2.06,0.646l0.327,0.684
					c0.934-0.447,1.942-0.673,2.995-0.673c0.496,0,0.993,0.053,1.475,0.158l0.161-0.741
					C266.692,463.222,266.142,463.163,265.592,463.163z"/>
				<path id="XMLID_207_" style="fill:#FFFFFF;" d="M272.194,465.711c0.331-0.04,0.566-0.341,0.526-0.672
					c-0.04-0.331-0.341-0.566-0.672-0.526c-0.309,0.038-0.535,0.304-0.53,0.609l-0.416,0.363c-0.418-0.43-0.889-0.813-1.408-1.139
					l-0.404,0.641c1.134,0.715,2.021,1.726,2.563,2.925l0.69-0.313c-0.251-0.554-0.568-1.072-0.942-1.545l0.402-0.351
					C272.065,465.716,272.129,465.719,272.194,465.711z"/>
				<path id="XMLID_206_" style="fill:#FFFFFF;" d="M265.044,473.372c-0.386,0.023-0.775,0.035-1.157,0.035
					c-0.88,0-1.733-0.061-2.478-0.179c-0.391-0.062-0.846-0.155-1.27-0.292c1.046,1.861,3.069,3.125,5.388,3.125
					c2.855,0,5.262-1.916,5.95-4.504c-0.682,0.449-1.505,0.825-2.459,1.123C267.839,473.047,266.463,473.286,265.044,473.372z"/>
				<path id="XMLID_202_" style="fill:#FFFFFF;" d="M265.592,464.68c-3.352,0-6.08,2.666-6.08,5.943
					c0,0.426,0.046,0.849,0.137,1.261c0.673,0.483,2.706,0.89,5.348,0.731c2.879-0.173,5.297-0.957,6.672-2.159
					c-0.006-0.195-0.021-0.39-0.045-0.582C271.244,466.913,268.65,464.68,265.592,464.68z M263.432,471.194
					c-1.02,0-1.85-0.83-1.85-1.85c0-1.02,0.83-1.85,1.85-1.85c1.02,0,1.85,0.83,1.85,1.85
					C265.282,470.365,264.452,471.194,263.432,471.194z M268.17,470.286c-0.75,0-1.36-0.61-1.36-1.36s0.61-1.361,1.36-1.361
					c0.75,0,1.361,0.61,1.361,1.361S268.92,470.286,268.17,470.286z"/>
			</g>
			<path id="XMLID_199_" style="fill:#FFFFFF;" d="M281.595,466.547c-0.295-0.116-0.805-0.309-1.382-0.237
				c-0.551,0.069-0.844,0.341-0.844,1.007v0.866h2.228v1.717h-2.228v5.455h-1.932v-5.455h-1.34v-1.717h1.34v-0.888
				c0-1.68,0.896-2.783,2.568-2.783c0.643,0,1.157,0.122,1.59,0.308L281.595,466.547z"/>
			<path id="XMLID_197_" style="fill:#FFFFFF;" d="M286.298,469.879c-0.177-0.03-0.358-0.046-0.526-0.046
				c-0.896,0-1.51,0.548-1.51,1.614v3.908h-1.932v-7.172h1.872v0.785c0.452-0.673,1.14-0.977,2.021-0.977
				c0.414,0,0.848,0.128,1.094,0.337L286.298,469.879z"/>
			<path id="XMLID_194_" style="fill:#FFFFFF;" d="M293.965,471.757c0,0.222-0.015,0.489-0.037,0.651h-5.085
				c0.207,1.036,0.933,1.488,1.843,1.488c0.622,0,1.295-0.252,1.813-0.688l1.133,1.243c-0.814,0.748-1.85,1.088-3.057,1.088
				c-2.198,0-3.723-1.495-3.723-3.753c0-2.258,1.48-3.797,3.627-3.797C292.544,467.99,293.958,469.522,293.965,471.757z
				 M288.851,471.091h3.175c-0.177-0.918-0.733-1.436-1.562-1.436C289.554,469.655,289.021,470.203,288.851,471.091z"/>
			<path id="XMLID_191_" style="fill:#FFFFFF;" d="M301.618,471.757c0,0.222-0.015,0.489-0.037,0.651h-5.085
				c0.207,1.036,0.932,1.488,1.843,1.488c0.622,0,1.295-0.252,1.814-0.688l1.132,1.243c-0.814,0.748-1.85,1.088-3.057,1.088
				c-2.198,0-3.723-1.495-3.723-3.753c0-2.258,1.48-3.797,3.627-3.797C300.197,467.99,301.611,469.522,301.618,471.757z
				 M296.504,471.091h3.175c-0.178-0.918-0.733-1.436-1.562-1.436C297.207,469.655,296.674,470.203,296.504,471.091z"/>
			<path id="XMLID_188_" style="fill:#FFFFFF;" d="M309.964,471.764c0,2.154-1.495,3.775-3.471,3.775
				c-0.962,0-1.643-0.378-2.109-0.933v3.708h-1.924v-10.133h1.887v0.792c0.466-0.585,1.155-0.984,2.139-0.984
				C308.469,467.99,309.964,469.61,309.964,471.764z M304.287,471.764c0,1.132,0.747,1.976,1.843,1.976
				c1.14,0,1.85-0.881,1.85-1.976c0-1.095-0.711-1.976-1.85-1.976C305.035,469.788,304.287,470.632,304.287,471.764z"/>
			<path id="XMLID_185_" style="fill:#FFFFFF;" d="M313.067,465.836c0,0.696-0.54,1.229-1.236,1.229
				c-0.696,0-1.229-0.533-1.229-1.229c0-0.696,0.533-1.243,1.229-1.243C312.527,464.592,313.067,465.14,313.067,465.836z
				 M312.809,475.354h-1.932v-7.172h1.932V475.354z"/>
			<path id="XMLID_137_" style="fill:#FFFFFF;" d="M316.032,470.736l2.702-2.554h2.369l-3.479,3.375l3.501,3.797h-2.376
				l-2.716-2.901v2.901H314.1v-10.658h1.932V470.736z"/>
		</g>
		<g>
			<path style="fill:#FFFFFF;" d="M184.412,475.289v-1.055c-0.527,0.718-1.391,1.23-2.388,1.23c-1.846,0-3.149-1.406-3.149-3.706
				c0-2.256,1.289-3.721,3.149-3.721c0.952,0,1.816,0.469,2.388,1.245v-3.765h1.099v9.77H184.412z M184.412,473.37v-3.208
				c-0.395-0.615-1.245-1.143-2.124-1.143c-1.421,0-2.27,1.172-2.27,2.739c0,1.567,0.85,2.724,2.27,2.724
				C183.168,474.483,184.017,473.986,184.412,473.37z"/>
			<path style="fill:#FFFFFF;" d="M186.932,471.744c0-2.051,1.465-3.706,3.486-3.706c2.139,0,3.398,1.67,3.398,3.794v0.279h-5.727
				c0.088,1.333,1.025,2.446,2.549,2.446c0.805,0,1.626-0.322,2.182-0.894l0.527,0.718c-0.703,0.703-1.655,1.084-2.812,1.084
				C188.44,475.465,186.932,473.956,186.932,471.744z M190.403,468.947c-1.509,0-2.256,1.274-2.314,2.358h4.643
				C192.718,470.25,192.015,468.947,190.403,468.947z"/>
			<path style="fill:#FFFFFF;" d="M194.607,474.351l0.571-0.791c0.469,0.542,1.362,1.011,2.329,1.011c1.084,0,1.67-0.513,1.67-1.216
				c0-1.714-4.38-0.659-4.38-3.281c0-1.098,0.952-2.036,2.636-2.036c1.201,0,2.051,0.454,2.622,1.026l-0.513,0.762
				c-0.424-0.513-1.201-0.894-2.109-0.894c-0.967,0-1.567,0.483-1.567,1.113c0,1.552,4.38,0.527,4.38,3.281
				c0,1.187-0.952,2.138-2.783,2.138C196.306,475.465,195.325,475.113,194.607,474.351z"/>
			<path style="fill:#FFFFFF;" d="M201.477,466.471c0-0.41,0.337-0.747,0.732-0.747c0.41,0,0.747,0.337,0.747,0.747
				c0,0.41-0.337,0.732-0.747,0.732C201.814,467.203,201.477,466.881,201.477,466.471z M201.667,475.289v-7.075h1.099v7.075H201.667
				z"/>
			<path style="fill:#FFFFFF;" d="M204.582,477.105l0.556-0.82c0.586,0.703,1.289,0.967,2.3,0.967c1.172,0,2.27-0.571,2.27-2.124
				v-1.011c-0.513,0.718-1.377,1.26-2.373,1.26c-1.845,0-3.149-1.377-3.149-3.662c0-2.27,1.289-3.677,3.149-3.677
				c0.952,0,1.802,0.469,2.373,1.245v-1.069h1.098v6.87c0,2.344-1.641,3.076-3.369,3.076
				C206.237,478.16,205.417,477.926,204.582,477.105z M209.709,473.253v-3.091c-0.381-0.615-1.23-1.143-2.109-1.143
				c-1.421,0-2.27,1.128-2.27,2.695c0,1.553,0.849,2.695,2.27,2.695C208.478,474.41,209.328,473.868,209.709,473.253z"/>
			<path style="fill:#FFFFFF;" d="M217.413,475.289v-4.629c0-1.245-0.63-1.641-1.582-1.641c-0.865,0-1.685,0.527-2.095,1.099v5.17
				h-1.099v-7.075h1.099v1.025c0.498-0.586,1.465-1.201,2.519-1.201c1.48,0,2.256,0.747,2.256,2.285v4.966H217.413z"/>
			<path style="fill:#FFFFFF;" d="M219.932,471.744c0-2.051,1.465-3.706,3.486-3.706c2.139,0,3.398,1.67,3.398,3.794v0.279h-5.727
				c0.088,1.333,1.025,2.446,2.549,2.446c0.806,0,1.626-0.322,2.183-0.894l0.527,0.718c-0.703,0.703-1.655,1.084-2.812,1.084
				C221.441,475.465,219.932,473.956,219.932,471.744z M223.404,468.947c-1.509,0-2.256,1.274-2.314,2.358h4.643
				C225.718,470.25,225.015,468.947,223.404,468.947z"/>
			<path style="fill:#FFFFFF;" d="M233.35,475.289v-1.055c-0.527,0.718-1.392,1.23-2.388,1.23c-1.845,0-3.149-1.406-3.149-3.706
				c0-2.256,1.289-3.721,3.149-3.721c0.952,0,1.817,0.469,2.388,1.245v-3.765h1.098v9.77H233.35z M233.35,473.37v-3.208
				c-0.396-0.615-1.245-1.143-2.124-1.143c-1.421,0-2.27,1.172-2.27,2.739c0,1.567,0.849,2.724,2.27,2.724
				C232.105,474.483,232.954,473.986,233.35,473.37z"/>
			<path style="fill:#FFFFFF;" d="M239.692,475.289v-9.77h1.098v3.765c0.572-0.776,1.421-1.245,2.388-1.245
				c1.845,0,3.149,1.465,3.149,3.721c0,2.299-1.304,3.706-3.149,3.706c-0.996,0-1.86-0.513-2.388-1.23v1.055H239.692z
				 M242.9,474.483c1.436,0,2.285-1.157,2.285-2.724c0-1.568-0.85-2.739-2.285-2.739c-0.864,0-1.728,0.527-2.109,1.143v3.208
				C241.171,473.986,242.036,474.483,242.9,474.483z"/>
			<path style="fill:#FFFFFF;" d="M247.528,477.061c0.161,0.073,0.425,0.117,0.601,0.117c0.483,0,0.805-0.161,1.055-0.747
				l0.469-1.069l-2.959-7.148h1.187l2.358,5.8l2.344-5.8h1.201l-3.545,8.51c-0.425,1.025-1.143,1.421-2.08,1.435
				c-0.234,0-0.601-0.044-0.806-0.103L247.528,477.061z"/>
		</g>
	</g>
</g>
</svg>
