<?xml version="1.0" encoding="utf-8"?>
<!-- Generator: Adobe Illustrator 27.5.0, SVG Export Plug-In . SVG Version: 6.00 Build 0)  -->
<svg version="1.1" xmlns="http://www.w3.org/2000/svg" xmlns:xlink="http://www.w3.org/1999/xlink" x="0px" y="0px"
	 viewBox="0 0 500 500" style="enable-background:new 0 0 500 500;" xml:space="preserve">
<g id="BACKGROUND">
	<g>
		<rect style="fill:#070063;" width="500" height="500"/>
		<path style="opacity:0.31;fill:#070063;" d="M443.31,87.69c20.76,8.09,39.97,19.95,56.69,34.66V500H0V146.82
			c20.59-27.84,54-46.54,88.58-46.06c42.53,0.59,82.2,28.41,124.52,24.09c30.36-3.1,56.32-22.21,84.31-34.37
			C343.18,70.59,396.82,69.56,443.31,87.69z"/>
	</g>
	<g>
		<g>
			<g>
				<rect y="310" style="fill:#FFFFFF;" width="500" height="190"/>
				<g>
					<path style="opacity:0.28;fill:#A3A9F3;" d="M500,323.67H10.86c10.19,0,19.39,7.36,29.51,8.66
						c-3.681,1.167-7.36,2.334-11.037,3.501c-1.51,0.479-1.096,2.716,0.485,2.628c17.513-0.975,35.092-1.384,52.362,1.452
						c20.84,3.42,41.48,12.03,55.61,27.71c39.46,43.82,101.58,63.07,160.44,66.55c41.652,2.459,82.259-10.864,121.593-25.36
						c3.953-1.457,7.644,2.677,5.746,6.438c-0.029,0.057-0.057,0.114-0.086,0.171c-1.29,2.555,0.946,5.474,3.747,4.888
						c16.815-3.517,33.949-6.395,50.86-3.856c6.84,1.03,13.66,3.13,19.91,6.25V500H0V310h500V323.67z"/>
					<g>
						<g>
							<path style="fill:#A3A9F3;" d="M414.333,333.667c7.129-0.206,14.257-0.303,21.386-0.383l21.386-0.117l21.386,0.115
								l10.693,0.14c3.564,0.083,7.129,0.132,10.693,0.245c-3.564,0.113-7.129,0.162-10.693,0.245l-10.693,0.139l-21.386,0.115
								l-21.386-0.117C428.591,333.97,421.462,333.873,414.333,333.667z"/>
							<path style="fill:#A3A9F3;" d="M460.333,345.667c3.29-0.206,6.579-0.303,9.869-0.383c3.29-0.091,6.579-0.104,9.869-0.117
								c3.289,0.011,6.579,0.024,9.869,0.115l4.934,0.14c1.645,0.083,3.289,0.132,4.934,0.245c-1.645,0.113-3.29,0.162-4.934,0.245
								l-4.934,0.139c-3.29,0.091-6.579,0.104-9.869,0.115c-3.29-0.013-6.579-0.026-9.869-0.117
								C466.912,345.97,463.623,345.873,460.333,345.667z"/>
							<path style="fill:#A3A9F3;" d="M12.333,331c4.12-0.206,8.241-0.303,12.361-0.383c4.121-0.082,8.241-0.075,12.361-0.117
								c4.121,0.039,8.241,0.035,12.361,0.115l6.181,0.14c2.06,0.083,4.12,0.132,6.181,0.245c-2.06,0.113-4.12,0.162-6.181,0.245
								l-6.181,0.14c-4.12,0.08-8.241,0.076-12.361,0.115c-4.12-0.042-8.241-0.034-12.361-0.117
								C20.574,331.303,16.454,331.206,12.333,331z"/>
							<path style="fill:#A3A9F3;" d="M19.667,338.333c4-0.393,8-0.484,12-0.5c4,0.014,8,0.104,12,0.5c-4,0.396-8,0.486-12,0.5
								C27.667,338.817,23.667,338.727,19.667,338.333z"/>
							<path style="fill:#A3A9F3;" d="M445.667,415.667c4.5-0.206,9.001-0.303,13.501-0.383c4.5-0.082,9.001-0.075,13.501-0.117
								c4.5,0.039,9.001,0.035,13.501,0.115l6.751,0.14c2.25,0.083,4.5,0.132,6.75,0.245c-2.25,0.113-4.5,0.162-6.75,0.245
								l-6.751,0.139c-4.5,0.08-9.001,0.076-13.501,0.115c-4.5-0.042-9.001-0.034-13.501-0.117
								C454.667,415.97,450.167,415.873,445.667,415.667z"/>
						</g>
					</g>
				</g>
			</g>
			<g>
				<path style="fill:#A3A9F3;" d="M500,275.33V319H0v-43.67c0-5.94,0.62-11.74,1.81-17.33c0.28-1.35,0.6-2.68,0.95-4
					c1.72-6.51,4.21-12.71,7.36-18.5c0.74-1.36,1.52-2.69,2.34-4c4.27-6.91,9.52-13.14,15.57-18.5c1.57-1.4,3.2-2.74,4.88-4
					c14-10.67,31.47-17,50.42-17h333.34c18.95,0,36.42,6.33,50.42,17c1.68,1.26,3.31,2.6,4.88,4c6.05,5.36,11.3,11.59,15.57,18.5
					c0.82,1.31,1.6,2.64,2.34,4c3.15,5.79,5.64,11.99,7.36,18.5c0.35,1.32,0.67,2.65,0.95,4C499.38,263.59,500,269.39,500,275.33z"
					/>
				<g style="opacity:0.5;">
					<g>
						<path style="fill:#A3A9F3;" d="M471.97,213H28.03c1.57-1.4,3.2-2.74,4.88-4h434.18C468.77,210.26,470.4,211.6,471.97,213z"/>
						<path style="fill:#A3A9F3;" d="M489.88,235.5H10.12c0.74-1.36,1.52-2.69,2.34-4h475.08
							C488.36,232.81,489.14,234.14,489.88,235.5z"/>
						<path style="fill:#A3A9F3;" d="M498.19,258H1.81c0.28-1.35,0.6-2.68,0.95-4h494.48C497.59,255.32,497.91,256.65,498.19,258z"
							/>
						<rect y="276.5" style="fill:#A3A9F3;" width="500" height="4"/>
						<rect y="299" style="fill:#A3A9F3;" width="500" height="4"/>
					</g>
				</g>
			</g>
		</g>
		<g>
			<path style="fill:#4341EA;" d="M500,436.04V500H0V347.22c4.1-0.86,8.26-1.44,12.4-1.91c11.37-1.29,23.02-2.22,34.48-2.06
				c22.61,0.33,45.29,5.16,66,14.26c10.09,4.44,19.76,9.86,28.8,16.16c9.36,6.53,17.46,14.57,25.6,22.53
				c7.74,7.56,15.6,15.08,24.5,21.29c9.85,6.88,20.38,13,31.08,18.43c21.24,10.78,43.97,18.61,68.01,18.64
				c23.13,0.01,45.68-6.02,67.94-11.62c19.31-4.85,38.85-9.15,58.62-11.68C444.04,427.86,474.08,427,500,436.04z"/>
			<g>
				<path style="opacity:0.26;fill:#4341EA;" d="M500,436.04v26.45c-9.16-0.01-19.76-3.1-27.09-3.26
					c-35.93-0.79-71.13,8.42-106.07,15.54c-20.16,4.11-40.52,7.74-61.11,8.64c-53.6,2.35-107.84-14.81-150.32-47.57
					c-15.65-12.06-29.73-26.13-45.89-37.5c-16.17-11.36-35.18-20.08-54.92-19.37c-7.51,0.28-16.66,3.71-17.19,11.2
					c-0.54,7.63,8.1,12.16,15.17,15.08c31.8,13.1,60.06,34.62,81.31,61.64c2.93,3.73-1.37,8.82-5.56,6.59l-84.07-44.81
					c-5.3-2.83-10.69,3.6-6.98,8.32c1.39,1.77,2.91,3.48,4.52,5.12c4.74,4.86,0.94,13.08-5.84,12.67c-3.77-0.23-7.33,0.44-9.98,3.86
					c-3.04,3.94-3.27,9.31-1.16,13.82c3.95,8.41,12.68,12.14,20.44,16.51c4.88,2.76,9.83,6.35,12.65,11.03H0V347.22
					c4.1-0.86,8.26-1.44,12.4-1.91c11.37-1.29,23.02-2.22,34.48-2.06c22.61,0.33,45.29,5.16,66,14.26
					c10.09,4.44,19.76,9.86,28.8,16.16c9.36,6.53,17.46,14.57,25.6,22.53c7.74,7.56,15.6,15.08,24.5,21.29
					c9.85,6.88,20.38,13,31.08,18.43c21.24,10.78,43.97,18.61,68.01,18.64c23.13,0.01,45.68-6.02,67.94-11.62
					c19.31-4.85,38.85-9.15,58.62-11.68C444.04,427.86,474.08,427,500,436.04z"/>
				<path style="fill:#A3A9F3;" d="M500,436.04v19.34c-25.92-9.05-55.96-8.19-82.57-4.79c-19.77,2.53-39.31,6.83-58.62,11.69
					c-22.26,5.6-44.81,11.63-67.94,11.61c-24.04-0.02-46.77-7.85-68.01-18.64c-10.7-5.43-21.23-11.54-31.08-18.42
					c-8.9-6.22-16.76-13.73-24.5-21.3c-8.14-7.95-16.24-16-25.6-22.53c-9.04-6.3-18.71-11.72-28.8-16.16
					c-20.71-9.1-43.39-13.93-66-14.25c-11.46-0.17-23.11,0.76-34.48,2.06c-4.14,0.47-8.3,1.04-12.4,1.9v-19.33
					c4.1-0.86,8.26-1.44,12.4-1.91c11.37-1.29,23.02-2.22,34.48-2.06c22.61,0.33,45.29,5.16,66,14.26
					c10.09,4.44,19.76,9.86,28.8,16.16c9.36,6.53,17.46,14.57,25.6,22.53c7.74,7.56,15.6,15.08,24.5,21.29
					c9.85,6.88,20.38,13,31.08,18.43c21.24,10.78,43.97,18.61,68.01,18.64c23.13,0.01,45.68-6.02,67.94-11.62
					c19.31-4.85,38.85-9.15,58.62-11.68C444.04,427.86,474.08,427,500,436.04z"/>
				<g>
					<g>
						<path style="fill:#2827C2;" d="M300.842,480.98c-6.154,1.798-12.472,2.992-18.86,3.591
							c-6.397,0.495-12.827,0.382-19.217-0.196c-6.386-0.651-12.703-1.844-18.936-3.373c-6.22-1.592-12.315-3.629-18.305-5.932
							c-5.965-2.372-11.8-5.055-17.517-7.97c-5.684-2.981-11.239-6.196-16.7-9.561c-5.438-3.402-10.786-6.944-16.071-10.575
							c-5.271-3.65-10.492-7.371-15.691-11.119c-10.391-7.504-20.742-15.06-31.394-22.167c-5.339-3.532-10.752-6.951-16.27-10.185
							c-5.55-3.181-11.205-6.174-16.984-8.911c-5.806-2.675-11.715-5.125-17.755-7.213c-6.06-2.018-12.213-3.759-18.471-5.032
							c-6.27-1.2-12.616-1.983-18.995-2.217c-6.381-0.134-12.762,0.276-19.068,1.257l-0.02-0.862
							c17.265,2.101,33.819,8.157,49.137,16.172c15.364,8.026,29.631,17.931,43.474,28.277
							c13.841,10.366,27.406,21.091,41.582,30.978c14.167,9.858,29.09,18.816,45.209,25.134
							c-16.167-6.195-31.178-15.049-45.433-24.81c-14.291-9.756-27.843-20.52-41.716-30.822
							c-13.858-10.302-28.126-20.149-43.455-28.106c-15.285-7.947-31.762-13.919-48.903-15.959l-3.119-0.371l3.099-0.491
							c6.362-1.007,12.801-1.438,19.239-1.319c6.435,0.219,12.837,0.992,19.158,2.185c6.31,1.26,12.511,3.001,18.6,5.061
							c6.071,2.116,12.005,4.594,17.832,7.298c5.799,2.764,11.469,5.784,17.03,8.991c5.531,3.26,10.948,6.702,16.289,10.255
							c10.654,7.149,20.992,14.738,31.36,22.266c5.188,3.76,10.395,7.491,15.65,11.151c5.269,3.64,10.599,7.189,16.018,10.599
							c5.441,3.372,10.975,6.594,16.635,9.581c5.693,2.921,11.504,5.612,17.444,7.992c5.967,2.306,12.035,4.357,18.22,6.002
							c6.201,1.571,12.492,2.808,18.857,3.506c6.369,0.624,12.785,0.786,19.176,0.34
							C288.352,483.876,294.674,482.732,300.842,480.98z"/>
						<path style="fill:#2827C2;" d="M42.694,416.832c8.378,3.393,16.55,7.299,24.507,11.605
							c7.959,4.305,15.666,9.073,23.152,14.158c7.441,5.152,14.661,10.629,21.544,16.503l5.101,4.474l4.989,4.596l4.845,4.745
							l4.712,4.874l-4.896-4.684l-4.993-4.575l-5.074-4.482l-5.178-4.358c-6.965-5.735-14.154-11.198-21.615-16.269
							c-7.415-5.137-15.101-9.875-22.957-14.311C58.972,424.672,50.906,420.602,42.694,416.832z"/>
						<path style="fill:#2827C2;" d="M366.956,483.563l7.311-3.589l7.515-3.155l7.697-2.695l7.837-2.269
							c10.535-2.733,21.382-4.241,32.26-4.651c10.882-0.329,21.805,0.444,32.502,2.456l7.973,1.733l7.862,2.168l7.712,2.639
							l7.537,3.087l-7.626-2.837l-7.761-2.419l-7.868-2.023l-7.963-1.591c-10.667-1.844-21.518-2.619-32.331-2.214
							c-10.816,0.325-21.59,1.836-32.108,4.395C386.983,475.16,376.731,478.843,366.956,483.563z"/>
					</g>
				</g>
			</g>
		</g>
	</g>
</g>
<g id="OBJECTS">
	<g>
		<g>
			<path style="fill:#A3A9F3;" d="M429.191,345.146c-0.251-1.109-0.213-2.316,0.154-3.416c0.355-1.107,0.988-2.083,1.705-2.941
				c1.469-1.692,3.205-3.04,5.107-4.167c3.834-2.197,8.276-3.201,12.667-3.21c8.835,0.012,17.343,3.703,23.99,9.32
				c3.333,2.818,6.224,6.139,8.598,9.8c2.344,3.675,4.146,7.743,5.089,12.018c0.959,4.265,1.115,8.729,0.27,13.03
				c-0.467,2.128-1.111,4.261-2.3,6.183c-0.591,0.954-1.342,1.835-2.244,2.544c-0.921,0.688-2,1.161-3.11,1.368l-0.207-0.923
				c1.928-0.521,3.405-1.957,4.329-3.708c0.94-1.753,1.415-3.771,1.728-5.789c0.629-4.042,0.32-8.207-0.735-12.155
				c-1.05-3.953-2.747-7.725-5.03-11.132c-2.245-3.431-5.015-6.519-8.132-9.178c-6.205-5.304-14.123-8.786-22.276-9.113
				c-4.056-0.148-8.169,0.65-11.784,2.508c-1.796,0.918-3.517,2.105-4.913,3.533c-1.376,1.42-2.283,3.286-1.974,5.251
				L429.191,345.146z"/>
			<path style="fill:#FF6585;" d="M481.761,383.902c5.195-13.844-12.243-29.498-16.13-32.765
				c-3.85-3.31-22.107-18.001-34.935-10.645c0,0-15.93,10.247,0.051,25.801c0,0,4.176,3.386,9.972,4.868
				c2.775,0.709,4.607,1.675,5.772,2.492c0.993,1.018,2.242,2.671,3.388,5.295c2.395,5.481,6.409,9.058,6.409,9.058
				C474.212,401.274,481.761,383.902,481.761,383.902z"/>
			<g>
				<g>
					<path style="fill:#FFFFFF;" d="M435.375,348.516c0.429,2.041,0.852,3.949,1.479,5.692c0.621,1.738,1.465,3.258,2.633,4.306
						c1.16,1.05,2.706,1.662,4.506,1.945c1.797,0.314,3.764,0.292,5.858,0.364c-1.737,1.172-3.743,1.929-5.947,2.088
						c-2.165,0.182-4.69-0.411-6.507-2.081c-1.823-1.65-2.692-3.954-2.93-6.09C434.243,352.579,434.519,350.441,435.375,348.516z"/>
					<path style="fill:#FFFFFF;" d="M458.613,368.27c0.429,2.041,0.852,3.949,1.479,5.692c0.621,1.738,1.465,3.259,2.633,4.306
						c1.16,1.05,2.706,1.662,4.506,1.945c1.797,0.314,3.764,0.292,5.858,0.364c-1.737,1.172-3.743,1.929-5.947,2.089
						c-2.165,0.182-4.69-0.412-6.507-2.081c-1.823-1.65-2.692-3.954-2.93-6.09C457.481,372.334,457.757,370.196,458.613,368.27z"/>
				</g>
			</g>
		</g>
		<g>
			<g>
				<g>
					<g>
						<circle style="fill:#A3A9F3;" cx="428.731" cy="381.064" r="5.314"/>
					</g>
				</g>
				<g>
					<path style="fill:#FFFFFF;" d="M425.454,384.632c-0.074,0-0.149-0.028-0.206-0.085c-0.114-0.114-0.114-0.298,0-0.412
						l6.554-6.554c0.114-0.114,0.298-0.114,0.412,0c0.114,0.114,0.114,0.298,0,0.412l-6.554,6.554
						C425.603,384.604,425.529,384.632,425.454,384.632z"/>
				</g>
			</g>
			<g>
				<g>
					<g>
						<path style="fill:#A3A9F3;" d="M444.179,388.784c-1.677,1.677-4.396,1.677-6.074,0c-1.677-1.677-1.677-4.397,0-6.074
							c1.677-1.677,4.397-1.677,6.074,0C445.856,384.387,445.856,387.107,444.179,388.784z"/>
					</g>
				</g>
				<g>
					<path style="fill:#FFFFFF;" d="M438.494,388.631c-0.06,0-0.12-0.023-0.166-0.069c-0.092-0.092-0.092-0.241,0-0.333l5.297-5.297
						c0.092-0.092,0.241-0.092,0.333,0c0.092,0.092,0.092,0.241,0,0.333l-5.297,5.297
						C438.614,388.608,438.554,388.631,438.494,388.631z"/>
				</g>
			</g>
			<g>
				<path style="fill:#4341EA;" d="M424.298,397.683L424.298,397.683c-1.081-1.171-1.009-2.997,0.163-4.078l5.766-5.324
					c1.171-1.081,2.997-1.009,4.078,0.163l0,0c1.081,1.171,1.008,2.997-0.163,4.078l-5.766,5.324
					C427.206,398.927,425.38,398.854,424.298,397.683z"/>
				<path style="fill:#FF6585;" d="M431.412,395.042l2.731-2.521c1.171-1.081,1.244-2.907,0.163-4.078
					c-1.081-1.171-2.907-1.244-4.078-0.163l-2.731,2.521L431.412,395.042z"/>
			</g>
		</g>
	</g>
	<g>
		<g>
			<path style="fill:#FF6585;" d="M223.2,313.46c-1.26,2.02-4.37,2.78-7.03,2.36c-2.65-0.42-4.97-1.76-7.2-3.06
				c-13.18,6.56-27.5,11.38-42.35,14.42c-13.06,3.91-26.42,5.84-41.86,3.78c-1.08-0.03-2.16-0.08-3.24-0.12
				c-1.49,1.75-3.07,3.52-5.27,4.59c-2.34,1.15-5.57,1.31-7.57-0.24c-2-1.56-1.2-7.67,1.39-8.31c-1.11-1.64-2.16-3.29-3.14-4.94
				c-9.86-16.44-13.8-33.33-11.51-52.02c-3.08,1.09-6.93,0.85-9.46-1.02s-3.25-5.45-1.15-7.65c2.1-2.2,11.91-2.36,13.52,0.14
				c23.09-9.96,34.96-17.67,61.18-20.17c3.88-0.38,8.08-0.64,12.68-0.77c10.1-0.73,20.42-0.54,30.89,0.63
				c0.5-2.8,9.8-5.42,12.66-3.94c2.87,1.48,3.64,5.05,2.02,7.52c-1.63,2.48-5.15,3.79-8.49,3.63c10.7,18.65,14.03,39.59,9.88,59.96
				C221.84,308.13,224.45,311.43,223.2,313.46z"/>
			<g>
				<path style="opacity:0.5;fill:#FF6585;" d="M223.2,313.46c-1.26,2.02-4.37,2.78-7.03,2.36c-2.65-0.42-4.97-1.76-7.2-3.06
					c-13.18,6.56-27.5,11.38-42.35,14.42c-13.06,3.91-26.42,5.84-41.86,3.78c-1.08-0.03-2.16-0.08-3.24-0.12
					c-1.49,1.75-3.07,3.52-5.27,4.59c-2.34,1.15-5.57,1.31-7.57-0.24c-2-1.56-1.2-7.67,1.39-8.31c-1.11-1.64-2.16-3.29-3.14-4.94
					c0.81-0.45,1.61-0.9,2.39-1.38c2.98-1.81,5.81-4.18,6.53-7.25c0.283-1.201,0.094-2.503-0.462-3.649
					c-1.165-2.405-0.239-5.263,2.147-6.468c9.868-4.981,18.738-11.402,26.094-18.913c7.38-7.54,13.3-16.31,15.73-25.91
					c1.32-5.24,1.53-10.72,0.45-16.01c-0.08-0.37-0.18-0.75-0.3-1.14c3.88-0.38,8.08-0.64,12.68-0.77
					c10.1-0.73,20.42-0.54,30.89,0.63c0.5-2.8,9.8-5.42,12.66-3.94c2.87,1.48,3.64,5.05,2.02,7.52c-1.63,2.48-5.15,3.79-8.49,3.63
					c10.7,18.65,14.03,39.59,9.88,59.96C221.84,308.13,224.45,311.43,223.2,313.46z"/>
				<g>
					<g>
						<path style="fill:#C23C58;" d="M144.118,267.186c-0.436,3.175-1.209,6.305-2.21,9.36c-0.991,3.06-2.27,6.026-3.745,8.888
							c-1.496,2.85-3.192,5.599-5.129,8.168l-1.486,1.899l-1.551,1.842l-1.645,1.757c-0.565,0.569-1.139,1.129-1.718,1.681
							c0.5-0.627,1.005-1.246,1.519-1.857l1.465-1.893l1.428-1.915l1.36-1.961c1.768-2.643,3.414-5.362,4.869-8.183
							c1.477-2.81,2.759-5.719,3.911-8.683C142.327,273.32,143.278,270.276,144.118,267.186z"/>
						<path style="fill:#C23C58;" d="M150.313,266.882c-0.25,4.296-0.974,8.568-2.056,12.748c-1.081,4.182-2.588,8.25-4.366,12.19
							c-1.851,3.905-3.98,7.685-6.467,11.217l-1.925,2.603l-2.03,2.518l-2.162,2.402c-0.75,0.773-1.509,1.536-2.272,2.293
							c0.685-0.831,1.375-1.653,2.073-2.467l1.98-2.535l1.904-2.586l1.796-2.659c2.33-3.584,4.438-7.313,6.197-11.206
							c1.832-3.859,3.307-7.88,4.535-11.976C148.745,275.326,149.653,271.131,150.313,266.882z"/>
					</g>
				</g>
			</g>
		</g>
		<g>
			<path style="fill:#FFCF66;" d="M408.14,268.9c-2.53,1.87-6.38,2.11-9.46,1.02c2.06,16.78-0.91,32.1-8.67,46.96
				c-1.75,3.35-3.74,6.68-5.98,10c2.59,0.64,3.39,6.75,1.39,8.31c-2,1.55-5.23,1.39-7.57,0.24c-2.2-1.07-3.78-2.84-5.27-4.59
				c-1.08,0.04-2.16,0.09-3.24,0.12c-15.44,2.06-28.8,0.13-41.86-3.78c-14.85-3.04-29.17-7.86-42.35-14.42
				c-2.23,1.3-4.55,2.64-7.21,3.06c-2.65,0.42-5.76-0.34-7.02-2.36c-1.25-2.03,1.35-5.33,4.05-5.21
				c-4.15-20.37-0.82-41.31,9.88-59.96c-3.34,0.16-6.86-1.15-8.49-3.63c-1.62-2.47-0.85-6.04,2.02-7.52
				c2.86-1.48,12.16,1.14,12.66,3.94c10.47-1.17,20.79-1.36,30.89-0.63c9.79,0.29,17.77,1.13,24.75,2.45
				c18.43,3.47,29.88,10.2,49.11,18.49c1.61-2.5,11.42-2.34,13.52-0.14S410.67,267.03,408.14,268.9z"/>
			<g>
				<path style="opacity:0.5;fill:#FFCF66;" d="M385.42,335.19c-2,1.55-5.23,1.39-7.57,0.24c-2.2-1.07-3.78-2.84-5.27-4.59
					c-1.08,0.04-2.16,0.09-3.24,0.12c-15.44,2.06-28.8,0.13-41.86-3.78c-14.85-3.04-29.17-7.86-42.35-14.42
					c-2.23,1.3-4.55,2.64-7.21,3.06c-2.65,0.42-5.76-0.34-7.02-2.36c-1.25-2.03,1.35-5.33,4.05-5.21
					c-4.15-20.37-0.82-41.31,9.88-59.96c-3.34,0.16-6.86-1.15-8.49-3.63c-1.62-2.47-0.85-6.04,2.02-7.52
					c2.86-1.48,12.16,1.14,12.66,3.94c10.47-1.17,20.79-1.36,30.89-0.63c9.79,0.29,17.77,1.13,24.75,2.45
					c1.89,2.61,3.49,5.37,4.75,8.27c2.58,5.93,3.68,12.51,2.97,18.94c-0.42,3.83-1.43,7.63-1.08,11.46
					c0.35,3.83,2.53,7.86,6.25,8.83c2.93,0.77,5.98-0.52,9.01-0.49c3.02,0.03,6.54,2.76,5.27,5.51c-0.59,1.26-1.98,1.93-2.96,2.92
					c-3.37,3.42-0.92,9.57,3.1,12.18c4.03,2.61,9.05,3.13,13.45,5.03c0.89,0.38,1.76,0.83,2.59,1.33c-1.75,3.35-3.74,6.68-5.98,10
					C386.62,327.52,387.42,333.63,385.42,335.19z"/>
				<g>
					<path style="fill:#E8AC5D;" d="M359.07,273.853c0.678,2.948,1.496,5.846,2.526,8.663c1.041,2.812,2.237,5.563,3.647,8.204
						c1.389,2.652,2.987,5.19,4.724,7.634l1.341,1.808l1.414,1.755l1.458,1.726c0.513,0.551,1.018,1.112,1.519,1.681
						c-0.575-0.49-1.146-0.988-1.709-1.496l-1.633-1.584l-1.537-1.68l-1.467-1.746c-1.909-2.37-3.562-4.944-4.995-7.631
						c-1.412-2.698-2.607-5.515-3.489-8.427C359.978,279.853,359.34,276.869,359.07,273.853z"/>
					<path style="fill:#E8AC5D;" d="M355.026,274.218c-0.966,3.887-1.447,7.87-1.375,11.836c0.075,3.963,0.632,7.92,1.807,11.698
						c1.099,3.801,2.806,7.414,4.925,10.763c1.055,1.68,2.235,3.284,3.524,4.8c1.264,1.54,2.667,2.964,4.132,4.33
						c-1.612-1.193-3.096-2.558-4.498-4.004c-1.379-1.468-2.647-3.044-3.8-4.703c-2.296-3.327-4.041-7.032-5.24-10.901
						c-1.123-3.892-1.707-7.945-1.616-11.986C352.973,282.015,353.664,277.991,355.026,274.218z"/>
				</g>
			</g>
		</g>
	</g>
	<g>
		<path style="fill:#4341EA;" d="M388.17,347.325c-5.899-12.568-16.197-23.018-28.676-29.101
			c-7.512-3.661-16.974-7.156-18.494-15.373c-1.103-5.962,2.714-11.559,4.951-17.194c3.952-9.96,3.003-21.337-0.491-31.466
			c-3.494-10.129-9.361-19.247-15.283-28.177c-7.1-10.705-14.419-21.374-23.514-30.446c-9.095-9.071-20.148-16.542-32.622-19.611
			c-19.001-4.674-37.232,6.627-56.752,7.987c-16.59,1.156-30.456,13.951-38.15,28.694c-7.695,14.743-10.494,31.452-14.277,47.647
			c-3.783,16.194-8.982,32.75-20.278,44.956c-5.866,6.339-13.11,11.202-20.091,16.285c-6.982,5.083-13.884,10.568-18.686,17.747
			c-4.802,7.178-7.268,16.38-4.642,24.607c56.099,12.319,115.54,19.124,171.257,5.177c19.353-4.844,37.997-12.206,57.298-17.257
			C349.018,346.749,368.774,342.656,388.17,347.325z"/>
		<g>
			<g>
				<g>
					<g>
						<path style="fill:#07002E;" d="M399.874,361.52c-0.09-1.94-0.34-3.91-0.73-5.88c-2.95-14.8-105.26-60.88-105.26-60.88
							l-73.01-0.4l-4.36-0.02c0,0-95.12,33.82-102.3,54.11c-7.19,20.3,0.42,34.25,16.06,39.32c4.65,1.51,17.75,3.07,33.86,4.52
							c27.792,2.5,64.534,4.663,82.294,5.646l0.056,2.374c0,0,103.2-7.04,126.88-11.27
							C393.874,385.37,400.424,374.09,399.874,361.52z M258.774,357.93l-6.849,0.366l-2.101-0.626l4.32-3.72l4.556,2.523
							l2.414,1.337L258.774,357.93z"/>
					</g>
					<g>
						<g>
							<g>
								<path style="fill:#170099;" d="M307.01,344c2.374-0.893,4.778-1.68,7.186-2.451c2.406-0.782,4.833-1.489,7.26-2.196
									c2.434-0.684,4.868-1.365,7.323-1.973l3.684-0.908c1.238-0.267,2.467-0.568,3.713-0.806
									c-1.184,0.456-2.386,0.85-3.579,1.277l-3.607,1.176c-2.406,0.782-4.833,1.489-7.26,2.194
									c-2.434,0.682-4.868,1.365-7.324,1.971C311.955,342.902,309.497,343.504,307.01,344z"/>
								<path style="fill:#170099;" d="M329.51,332c-0.878,1.519-1.98,2.829-3.135,4.091c-1.177,1.24-2.409,2.43-3.865,3.409
									c0.877-1.521,1.979-2.831,3.135-4.091C326.824,334.171,328.055,332.981,329.51,332z"/>
							</g>
							<g>
								<g>
									<path style="fill:#170099;" d="M180.844,341.333c5.938,1.23,11.849,2.567,17.757,3.92
										c5.908,1.35,11.795,2.788,17.694,4.178c5.88,1.469,11.769,2.895,17.639,4.403l8.8,2.281
										c2.925,0.796,5.858,1.559,8.775,2.384c-2.971-0.605-5.927-1.273-8.891-1.908l-8.866-2.01
										c-5.908-1.353-11.796-2.788-17.694-4.18c-5.879-1.471-11.77-2.894-17.639-4.405
										C192.55,344.489,186.684,342.964,180.844,341.333z"/>
									<path style="fill:#170099;" d="M185.177,337.333c1.19,0.802,2.147,1.8,3.049,2.845c0.878,1.065,1.699,2.178,2.284,3.489
										c-1.192-0.8-2.149-1.799-3.049-2.845C186.585,339.755,185.764,338.643,185.177,337.333z"/>
								</g>
								<path style="fill:#170099;" d="M257.677,362.333c0.123,2.978,0.136,5.953,0.133,8.927c0.008,2.975-0.062,5.947-0.133,8.92
									c-0.095,2.972-0.191,5.944-0.365,8.913l-0.264,4.454c-0.125,1.484-0.215,2.969-0.37,4.452
									c-0.072-1.489-0.079-2.977-0.12-4.465l-0.015-4.462c-0.007-2.975,0.063-5.947,0.135-8.92
									c0.096-2.972,0.192-5.944,0.367-8.913C257.208,368.269,257.387,365.3,257.677,362.333z"/>
							</g>
						</g>
						<g>
							<path style="opacity:0.5;fill:#07002E;" d="M182.054,327.73c-0.3,1.46,0.7,2.83,1.69,3.94
								c5.324,5.935,12.137,10.513,19.622,13.248c1.47,0.537,1.028,2.703-0.535,2.619c-2.698-0.145-5.446-0.724-8.117-1.177
								c-4.88-0.82-10.47-0.98-14.13,2.35c-3.52,3.21-4.04,8.57-6.79,12.46c-2.87,4.08-7.79,6.06-11.96,8.78
								c-4.18,2.72-8.09,7.31-6.96,12.17c0.95,4.05,4.95,6.47,8.15,9.14c0.38,0.32,0.75,0.66,1.11,1.03
								c-16.11-1.45-29.21-3.01-33.86-4.52c-15.64-5.07-23.25-19.02-16.06-39.32c7.18-20.29,102.3-54.11,102.3-54.11l4.36,0.02
								c-2.84,10.02-8.08,18.64-16.99,24.53c-4.86,3.21-10.45,5.33-16.26,5.91C185.374,325.03,182.514,325.53,182.054,327.73z"/>
							<path style="opacity:0.5;fill:#07002E;" d="M399.874,361.52c-3.3-0.27-6.72-1.53-9.66-3.06c-5.63-2.93-11.32-6.85-17.65-6.39
								c-2.33,0.16-4.58,0.93-6.91,1.13c-2.32,0.19-4.92-0.33-6.34-2.19c-1.42-1.86-0.74-5.19,1.54-5.67
								c-5.98-2.56-12.72-2.57-19.2-1.97c-28.33,2.63-55.37,16.11-83.8,14.87c0.31-0.1,0.61-0.2,0.92-0.31
								c0.53-0.18,1.07-0.35,1.6-0.53c8.87-2.96,17.74-5.92,26.6-8.87c2.38-0.79,5.11-1.96,5.66-4.41c0.61-2.78-1.98-5.09-3.61-7.42
								c-3.17-4.49-3.03-10.53-1.84-15.9c1.2-5.36,3.34-10.54,3.79-16.01c0.28-3.32-0.1-6.68-1.06-9.87l3.97-0.16
								c0,0,102.31,46.08,105.26,60.88C399.534,357.61,399.784,359.58,399.874,361.52z"/>
						</g>
					</g>
				</g>
				<g>
					<path style="fill:#E29579;" d="M241.454,397.66l-0.71,0.07c-5.06,3-12.33,9.04-19.07,23.13l-3.12-0.87l4.9-23.39
						C230.184,397.01,236.314,397.37,241.454,397.66z"/>
					<path style="fill:#E29579;" d="M286.854,416.26l-3.15,0.75c-6.19-14.34-13.2-20.67-18.14-23.86l-8.49-1.22l0.6-27.26
						c2.51-0.4,4.95-1.41,7.11-2.94c0.17-0.12,0.3-0.21,0.46-0.29c4.04-2.25,6.98-2.84,8.94-2.84c1.73,0,3.15,1.16,3.44,2.84
						L286.854,416.26z"/>
				</g>
			</g>
			<g>
				<g>
					<path style="fill:#E29579;" d="M245.023,123.78c-2.349-2.36-6.518-3.075-9.148-0.809c-18.868-40.019-48.93-17.844-48.93-17.844
						c-19.648,12.355-10.762,35.417-4.887,46.473c-0.865-0.046-1.635-0.011-2.027,0.081c-3.401,0.798-5.261,4.626-4.707,7.924
						c0.441,2.627,2.239,4.927,4.549,6.252c1.921,1.101,4.451,1.748,6.674,1.501c0.506-0.056,2.407-0.656,3.805-1.424
						c16.385,24.054,38.362,9.561,38.362,9.561c20.694-9.373,18.69-26.161,14.636-36.942c0.702-0.478,1.26-0.928,1.445-1.134
						c1.494-1.664,2.442-4.098,2.664-6.3C247.726,128.469,246.902,125.668,245.023,123.78z"/>
					<g>
						<g>
							<path style="fill:#DF8666;" d="M225.94,145.997c1.869,3.636,6.331,5.068,9.966,3.199c3.635-1.869,5.068-6.331,3.199-9.966
								c-1.869-3.635-6.331-5.068-9.966-3.199C225.503,137.9,224.071,142.362,225.94,145.997z"/>
							<path style="fill:#DF8666;" d="M193.176,162.837c1.869,3.636,6.331,5.068,9.966,3.199c3.635-1.869,5.068-6.331,3.199-9.966
								c-1.869-3.636-6.331-5.068-9.966-3.199C192.74,154.739,191.308,159.202,193.176,162.837z"/>
						</g>
						<g>
							<g>
								<g>
									<path style="fill:#07002E;" d="M215.907,135.006c1.105,2.149,2.852,3.455,3.902,2.915c1.05-0.54,1.005-2.72-0.099-4.869
										c-1.105-2.15-2.852-3.455-3.901-2.915C214.758,130.677,214.802,132.857,215.907,135.006z"/>
								</g>
							</g>
							<g>
								<g>
									<path style="fill:#07002E;" d="M203.244,141.515c1.105,2.149,1.149,4.33,0.099,4.869c-1.05,0.54-2.797-0.765-3.902-2.915
										c-1.105-2.149-1.149-4.329-0.099-4.869C200.392,138.06,202.139,139.365,203.244,141.515z"/>
								</g>
							</g>
							<g>
								<path style="fill:#DF8666;" d="M206.17,145.698c0.518,1.296,0.251,2.905-0.645,4.07c-0.462,0.564-1.022,1.058-1.678,1.348
									c-0.309,0.178-0.664,0.25-0.992,0.362c-0.344,0.069-0.691,0.114-1.035,0.13c0.289-0.207,0.586-0.359,0.866-0.534
									c0.267-0.198,0.557-0.346,0.8-0.553c0.517-0.373,0.952-0.816,1.329-1.293c0.388-0.474,0.659-1.03,0.887-1.617
									C205.923,147.017,206.07,146.383,206.17,145.698z"/>
								<path style="fill:#DF8666;" d="M217.94,139.895c0.858,1.101,2.382,1.682,3.84,1.496c0.72-0.114,1.43-0.349,2.01-0.769
									c0.309-0.178,0.551-0.448,0.813-0.674c0.233-0.262,0.447-0.539,0.634-0.828c-0.324,0.145-0.606,0.324-0.898,0.478
									c-0.306,0.131-0.579,0.307-0.881,0.412c-0.583,0.259-1.185,0.411-1.787,0.496c-0.605,0.096-1.222,0.05-1.844-0.05
									C219.203,140.347,218.582,140.154,217.94,139.895z"/>
							</g>
							<path style="fill:#07002E;" d="M214.347,151.905c0.308-0.868,0.859-1.646,1.527-2.302c0.668-0.662,1.497-1.172,2.394-1.499
								c0.9-0.306,1.867-0.47,2.805-0.35c0.472,0.009,0.924,0.161,1.372,0.265c0.441,0.141,0.862,0.34,1.269,0.541
								c-0.466-0.012-0.904-0.094-1.347-0.111c-0.444,0.002-0.877-0.052-1.308,0c-0.861,0.024-1.696,0.21-2.487,0.492
								C216.97,149.496,215.587,150.576,214.347,151.905z"/>
						</g>
						<g>
							<g>
								<path style="fill:#07002E;" d="M221.176,155.907c-0.294,0.76-0.948,1.316-1.653,1.707c-0.731,0.346-1.564,0.528-2.352,0.351
									c0.76-0.25,1.47-0.44,2.119-0.805C219.966,156.846,220.554,156.398,221.176,155.907z"/>
							</g>
						</g>
						<g>
							<g>
								<path style="fill:#07002E;" d="M199.213,127.601c0.645,1.167,0.678,2.332,0.47,3.5c-0.232,1.153-0.631,2.301-1.262,3.332
									c-0.597,1.049-1.463,1.944-2.417,2.64c-0.935,0.74-2.045,1.158-3.117,1.473c-0.542,0.159-1.111-0.151-1.27-0.693
									c-0.128-0.434,0.045-0.884,0.397-1.129l0.097-0.067c0.778-0.538,1.509-1.059,2.098-1.692
									c0.629-0.594,1.065-1.324,1.445-2.064c0.362-0.752,0.647-1.556,0.792-2.41c0.159-0.838,0.315-1.735,0.744-2.599l0.124-0.249
									c0.263-0.53,0.906-0.746,1.436-0.483C198.954,127.26,199.111,127.417,199.213,127.601z"/>
								<path style="fill:#07002E;" d="M207.422,122.515c0.773,1.086,1.809,1.62,2.953,1.937c1.14,0.29,2.348,0.426,3.55,0.302
									c1.204-0.085,2.385-0.479,3.426-1.038c1.071-0.523,1.928-1.344,2.675-2.174c0.378-0.42,0.344-1.067-0.076-1.445
									c-0.336-0.302-0.817-0.341-1.19-0.13l-0.102,0.059c-0.822,0.468-1.607,0.903-2.433,1.161
									c-0.808,0.311-1.653,0.388-2.486,0.411c-0.834,0.001-1.683-0.089-2.516-0.327c-0.825-0.219-1.701-0.466-2.665-0.452
									l-0.278,0.004c-0.591,0.008-1.065,0.494-1.056,1.086C207.226,122.135,207.299,122.344,207.422,122.515z"/>
							</g>
						</g>
						<path style="fill:#07002E;" d="M206.96,132.088c1.09,1.293,2.086,2.623,3.099,3.926c1.02,1.294,2.023,2.594,3.133,3.746
							c0.271,0.294,0.55,0.576,0.839,0.839c0.236,0.216,0.738,0.605,0.976,1.086c0.549,0.946,0.417,2.218-0.178,3.009
							c-0.576,0.871-1.548,1.28-2.413,1.408c-0.887,0.115-1.747,0.044-2.569-0.165c1.628-0.189,3.428-0.608,4.016-1.827
							c0.294-0.615,0.303-1.237-0.039-1.734c-0.165-0.261-0.34-0.39-0.729-0.718c-0.334-0.289-0.651-0.589-0.95-0.901
							c-1.179-1.269-2.163-2.655-3.016-4.111C208.271,135.194,207.531,133.68,206.96,132.088z"/>
						<path style="fill:#07002E;" d="M178.789,160.483c-0.481-0.883-0.743-1.999-0.31-3.097c0.486-1.117,1.711-1.667,2.791-1.792
							c1.133-0.161,2.26,0.092,3.26,0.511c1.019,0.42,1.897,0.992,2.751,1.728c0.305,0.263,0.339,0.724,0.076,1.029
							c-0.199,0.23-0.509,0.306-0.781,0.217l-0.066-0.022c-0.963-0.318-2.11-0.595-2.971-0.421
							c-0.427,0.096-0.699,0.251-0.864,0.571c-0.172,0.329-0.171,0.839-0.135,1.346c0.107,1.024,0.42,2.125,1.351,2.146
							c0.986,0.042,2.052-0.639,2.981-1.284c-0.73,0.897-1.592,1.781-2.947,2.052c-0.7,0.114-1.529-0.323-1.884-0.918
							c-0.374-0.586-0.574-1.191-0.701-1.818c-0.116-0.625-0.185-1.316,0.104-2.064c0.291-0.762,1.08-1.311,1.78-1.434
							c1.422-0.262,2.619,0.022,3.818,0.451l-0.77,1.224c-1.362-1.184-3.137-2.232-4.91-2.204c-0.881,0.025-1.805,0.284-2.281,1.004
							C178.568,158.43,178.587,159.506,178.789,160.483z"/>
						<path style="fill:#07002E;" d="M244.568,126.674c-0.438-0.905-1.193-1.767-2.338-2.055c-1.191-0.255-2.351,0.421-3.082,1.226
							c-0.79,0.827-1.24,1.891-1.482,2.948c-0.252,1.073-0.298,2.119-0.196,3.243c0.036,0.401,0.391,0.697,0.792,0.661
							c0.303-0.028,0.545-0.236,0.631-0.509l0.02-0.066c0.302-0.968,0.745-2.062,1.387-2.661c0.326-0.292,0.611-0.422,0.967-0.37
							c0.368,0.052,0.782,0.349,1.173,0.674c0.77,0.683,1.483,1.578,0.958,2.348c-0.54,0.826-1.713,1.297-2.779,1.677
							c1.154-0.071,2.375-0.258,3.384-1.202c0.5-0.503,0.627-1.431,0.35-2.066c-0.259-0.645-0.634-1.159-1.07-1.628
							c-0.441-0.458-0.962-0.917-1.738-1.117c-0.789-0.207-1.695,0.116-2.202,0.613c-1.041,1.004-1.507,2.143-1.855,3.367
							l1.443,0.086c-0.17-1.797,0.012-3.85,1.066-5.275c0.533-0.701,1.282-1.303,2.144-1.271
							C243.027,125.299,243.891,125.941,244.568,126.674z"/>
					</g>
				</g>
				<path style="fill:#07002E;" d="M239.794,121.6c-2.62-7.85-7.73-14.79-14.38-19.78c3.25-3.29,3.65-8.88,1.17-12.79
					c0.09,2.1-1.46,4-3.35,4.94c-1.88,0.94-4.05,1.1-6.15,1.18c-3.42,0.12-7.15,0.57-10.56,0.35c0.04-3.56-0.94-7.05-3.32-9.7
					c-0.69,3.48-3.13,6.38-5.97,8.49c-2.84,2.12-6.1,3.58-9.21,5.26c-5.07,2.74-9.91,6.18-13.21,10.91
					c-3.3,4.72-4.3,10.45-2.53,15.93c-2.46,0.42-4.08,3.04-4.14,5.54c-0.06,2.5,1.07,4.87,2.31,7.04c2.64,4.63,5.88,8.92,9.63,12.7
					c0.361-0.072,1.013-0.108,1.739-0.078c2.438,2.315,5.824,3.656,9.243,3.702c-2.075-2.24-1.993-5.648-2.058-8.701
					c-0.142-6.574-1.563-13.117-4.162-19.157c12.781-1.822,25.543-8.546,33.376-18.809c4.389,8.476,12.798,14.522,15.563,23.658
					c1.53-2.844,2.231-6.113,2.079-9.338c0.004,0.008,0.007,0.015,0.011,0.023C236.984,122.01,238.374,121.59,239.794,121.6z"/>
			</g>
			<g>
				<g>
					<path style="fill:#E29579;" d="M212.779,180.315c1.225,2.01,2.854,5.19,4.169,8.174c-1.873,2.474-4.581,4.946-8.488,6.851
						c4.841,3.677,10.687,6.428,16,8.299c8.345,2.939,16.9,3.895,24.997-0.377c7.448-3.929,11.777-10.929,14.704-18.771
						c-4.679,0.251-8.482-0.6-11.503-1.936c-1.174-1.374-2.547-3.043-3.919-4.855c-2.451-3.249-4.901-6.938-6.173-10.174
						l-0.007-0.013c-0.639-1.592-0.992-3.071-0.909-4.334l-19.004,0.042l-13.245,13.218
						C210.139,176.898,211.622,178.738,212.779,180.315z"/>
					<path style="fill:#DF8666;" d="M212.403,179.715c0,0,13.954,1.947,29.447-14.426
						C241.85,165.29,238.124,194.405,212.403,179.715z"/>
				</g>
				<path style="fill:#D88567;" d="M304.535,317.46c-2.508-1.124-4.951-2.385-7.454-3.519c-1.594,5.966-2.599,9.699-2.777,10.36
					c-0.001,0.005-0.001,0.003-0.002,0.008c-7.237,4.158-11.539,9.511-13.678,12.262c-1.646,2.117-0.96,3.644-0.272,4.457
					c0.35,0.414,0.931,0.405,1.286,0.005c1.691-1.903,5.539-4.966,7.258-4.246c1.941,0.813-7.656,18.273-5.415,20.1
					c0.9,0.734,8.064-11.505,8.064-11.505s-5.221,14.598-3.216,14.565c2.005-0.033,8.253-12.271,8.253-12.271
					s-3.481,15.212-1.476,14.319c2.004-0.892,6.353-12.244,6.353-12.244c-0.674,5.687-0.15,8.113,0.372,9.142
					c0.248,0.488,0.858,0.495,1.101,0.009c2.968-5.928,3.509-21.203,3.604-27.651l0.061,0.035c2.651-3.181,5.188-6.448,7.635-9.775
					C310.962,320.234,307.723,318.888,304.535,317.46z"/>
				<g>
					<path style="fill:#E29579;" d="M182.865,164.877c0.335,1.115,1.673,15.165,5.575,21.409l0.3,1.274l-0.691,8.653
						c5.885,0.449,11.859,0.262,17.738,0.818c-0.954-4.026-1.696-6.969-2.055-8.37c0.874-2.477,2.739-7.793,3.329-9.734
						c0.781-2.565-4.126-11.597-5.687-12.489c-1.561-0.892-1.896,8.14-1.896,8.14s-7.248-13.938-7.806-14.273
						c-0.558-0.335-1.338,0.446-1.338,0.446s-2.119-5.798-4.126-5.798c-2.007,0-1.45,2.453-1.45,2.453s-2.007-0.335-2.007,0.558
						c0,0.892,1.896,4.795,1.896,4.795S182.531,163.762,182.865,164.877z"/>
					<g>
						<g>
							<path style="fill:#DF8666;" d="M190.344,161.333c1.032,1.505,1.781,3.125,2.464,4.771c0.653,1.658,1.238,3.344,1.536,5.145
								c-1.034-1.505-1.783-3.124-2.463-4.771C191.229,164.82,190.645,163.134,190.344,161.333z"/>
							<path style="fill:#DF8666;" d="M184.927,157.667c1.03,1.415,1.778,2.95,2.46,4.513c0.653,1.575,1.238,3.179,1.54,4.904
								c-1.032-1.414-1.78-2.949-2.46-4.513C185.816,160.994,185.231,159.39,184.927,157.667z"/>
							<path style="fill:#DF8666;" d="M184.594,162.833c0.767,0.821,1.252,1.76,1.67,2.725c0.389,0.978,0.71,1.984,0.747,3.108
								c-0.769-0.82-1.254-1.759-1.67-2.725C184.953,164.963,184.632,163.956,184.594,162.833z"/>
						</g>
						<path style="fill:#DF8666;" d="M207.094,178.917c0.142-0.902,0.185-1.901-0.244-2.685c-0.469-0.815-0.891-1.64-1.336-2.458
							c-0.889-1.634-1.764-3.276-2.71-4.864c-0.238-0.396-0.483-0.786-0.74-1.161c-0.249-0.36-0.549-0.773-0.806-0.962
							c-0.1-0.043,0.051,0.009,0.066-0.023c0.005-0.011-0.059,0.072-0.097,0.145c-0.087,0.165-0.16,0.373-0.225,0.581
							c-0.126,0.424-0.223,0.87-0.31,1.318c-0.323,1.802-0.564,3.649-0.738,5.485l-0.14,1.482l-0.698-1.319
							c-1.375-2.596-2.764-5.188-4.176-7.763l-2.114-3.859c-0.359-0.635-0.722-1.277-1.105-1.874
							c-0.09-0.14-0.205-0.309-0.271-0.384c-0.005-0.006-0.023-0.028-0.016-0.022c0.05,0.053,0.146,0.089,0.224,0.08
							c0.025,0-0.01-0.003-0.029,0.004c-0.043,0.005-0.109,0.028-0.173,0.052c-0.265,0.106-0.573,0.306-0.828,0.5l-0.535,0.407
							l-0.185-0.637c-0.234-0.805-0.511-1.619-0.823-2.401c-0.316-0.779-0.661-1.562-1.118-2.218
							c-0.217-0.331-0.494-0.626-0.736-0.739c-0.285-0.122-0.728-0.184-1.053-0.127c-0.711,0.075-1.125,0.733-1.078,1.508
							l0.025,0.408l-0.405-0.05c-0.301-0.037-0.627-0.054-0.931-0.039c-0.295,0.01-0.627,0.076-0.752,0.184
							c-0.05,0.066-0.073,0.032-0.051,0.192c0.014,0.126,0.051,0.288,0.093,0.44c0.08,0.309,0.185,0.622,0.287,0.933
							c0.432,1.242,0.897,2.487,1.385,3.717l0.063,0.16l-0.15,0.066c-0.4,0.175-0.799,0.379-1.171,0.609
							c-0.337,0.233-0.8,0.505-0.801,0.878c0.023,0.427,0.13,0.872,0.226,1.306c0.103,0.436,0.217,0.87,0.341,1.301
							c-0.156-0.421-0.303-0.845-0.44-1.273c-0.132-0.431-0.27-0.856-0.32-1.324c-0.031-0.277,0.154-0.507,0.31-0.665
							c0.166-0.168,0.348-0.31,0.534-0.445c0.376-0.263,0.766-0.491,1.177-0.699l-0.086,0.225c-0.556-1.21-1.11-2.417-1.58-3.671
							c-0.116-0.315-0.233-0.628-0.332-0.959c-0.051-0.166-0.097-0.327-0.128-0.529c-0.062-0.164,0.023-0.562,0.227-0.71
							c0.392-0.32,0.768-0.333,1.121-0.379c0.359-0.028,0.697-0.023,1.057,0.008l-0.38,0.358c-0.028-0.477,0.031-1.004,0.326-1.458
							c0.279-0.46,0.796-0.763,1.299-0.848c0.523-0.088,0.974-0.05,1.489,0.129c0.546,0.242,0.862,0.631,1.125,1.005
							c0.537,0.759,0.896,1.566,1.238,2.378c0.336,0.816,0.625,1.634,0.883,2.483l-0.72-0.23c0.328-0.252,0.636-0.467,1.05-0.644
							c0.107-0.042,0.215-0.083,0.353-0.108c0.07-0.014,0.13-0.022,0.243-0.019c0.117,0.014,0.252,0.074,0.342,0.151l0.076,0.08
							c0.178,0.2,0.262,0.342,0.376,0.507c0.417,0.637,0.785,1.272,1.158,1.912c0.735,1.281,1.459,2.564,2.153,3.863
							c1.386,2.598,2.746,5.206,4.094,7.824l-0.838,0.163c0.212-1.865,0.429-3.717,0.847-5.563c0.106-0.462,0.222-0.922,0.377-1.386
							c0.084-0.233,0.169-0.464,0.307-0.707c0.083-0.123,0.14-0.25,0.343-0.387c0.067-0.061,0.285-0.124,0.403-0.088
							c0.16,0.028,0.227,0.083,0.302,0.13c0.476,0.389,0.685,0.78,0.96,1.183c0.255,0.401,0.491,0.808,0.719,1.218
							c0.912,1.638,1.72,3.317,2.505,5.007c0.397,0.841,0.777,1.696,1.191,2.52C207.451,177.036,207.292,178.024,207.094,178.917z"
							/>
					</g>
				</g>
				<g>
					<path style="fill:#FFFFFF;" d="M343.844,261.667c-1.667-17-49.667-74.333-56.667-76.333s-35.667-4.667-35.667-4.667
						s0.333,13-12,17.667c-12.333,4.667-23-10-23-10c-1.783,1.783-5.643,4.031-9.871,6.187c-0.495-3.886-0.796-6.187-0.796-6.187
						L187.51,188l-2.667,18c0,0-8,12.667-10.333,22.333s-16,69,4,79c18.09,9.045,32.966-2.635,36.645-17.767l1.362,4.773
						c42.34,17.006,77.365,0.423,77.365,0.423s0.716-18.168,1.136-35.122l10.826,13.026L292.51,322c4,2,18,8.667,18,8.667
						S345.51,278.667,343.844,261.667z"/>
					<g>
						<g>
							<path style="fill:#A3A9F3;" d="M218.594,236.75c0.438,4.401,0.602,8.825,0.655,13.247c0.051,4.424-0.107,8.848-0.325,13.268
								c-0.282,4.416-0.701,8.827-1.306,13.211c-0.602,4.385-1.452,8.736-2.525,13.024c0.291-2.194,0.725-4.357,0.958-6.554
								c0.323-2.181,0.573-4.372,0.803-6.564c0.444-4.385,0.869-8.772,1.072-13.176c0.3-4.397,0.442-8.805,0.556-13.214
								c0.056-2.205,0.092-4.41,0.099-6.617C218.623,241.167,218.601,238.961,218.594,236.75z"/>
							<path style="fill:#A3A9F3;" d="M184.344,206.75c-0.39,2.084-0.796,4.161-1.153,6.247c-0.384,2.081-0.751,4.164-1.096,6.251
								c-0.7,4.171-1.389,8.344-1.947,12.535c-0.647,4.178-1.144,8.377-1.622,12.578l-0.358,3.152l-0.296,3.159
								c-0.255,2.103-0.356,4.216-0.587,6.326c-0.014-4.238,0.125-8.482,0.475-12.71c0.321-4.23,0.827-8.444,1.399-12.647
								c0.643-4.193,1.319-8.381,2.183-12.533C182.201,214.956,183.152,210.82,184.344,206.75z"/>
							<path style="fill:#A3A9F3;" d="M206.844,195c1.593,2.592,2.955,5.316,4.223,8.082c1.273,2.765,2.375,5.608,3.365,8.49
								c0.943,2.898,1.765,5.841,2.344,8.838c0.543,3.002,0.891,6.048,0.818,9.09c-0.224-1.508-0.334-3.014-0.659-4.495
								c-0.214-1.494-0.591-2.961-0.911-4.432c-0.748-2.924-1.585-5.82-2.54-8.684c-0.957-2.863-2.025-5.689-3.122-8.507
								c-0.547-1.41-1.124-2.809-1.723-4.2C208.074,197.774,207.451,196.394,206.844,195z"/>
							<path style="fill:#A3A9F3;" d="M171.344,260.25c0.506-3.291,1.403-6.493,2.502-9.626c0.564-1.561,1.174-3.11,1.907-4.607
								c0.721-1.498,1.544-2.968,2.591-4.267c-0.714,1.502-1.281,3.044-1.874,4.575c-0.578,1.537-1.14,3.081-1.683,4.634
								C173.667,254.055,172.607,257.172,171.344,260.25z"/>
							<path style="fill:#A3A9F3;" d="M294.844,259.75c-0.496-2.308-0.884-4.629-1.255-6.952c-0.382-2.322-0.687-4.654-0.991-6.986
								c-0.28-2.335-0.559-4.67-0.761-7.014l-0.299-3.517c-0.063-1.177-0.161-2.35-0.194-3.53c0.258,1.153,0.452,2.313,0.681,3.47
								l0.576,3.483c0.382,2.322,0.686,4.654,0.989,6.986c0.279,2.335,0.558,4.67,0.759,7.014
								C294.561,255.046,294.757,257.391,294.844,259.75z"/>
							<path style="fill:#A3A9F3;" d="M250.153,240.202c1.728,1.813,3.453,3.61,5.244,5.335c1.799,1.716,3.621,3.403,5.518,5.004
								c1.882,1.619,3.835,3.152,5.814,4.656c0.992,0.75,2.001,1.478,3.022,2.193l1.528,1.081c0.52,0.344,1.034,0.7,1.546,1.063
								c-1.138-0.527-2.234-1.132-3.337-1.731c-1.081-0.635-2.146-1.297-3.201-1.977c-2.104-1.371-4.101-2.903-6.019-4.525
								c-1.903-1.639-3.732-3.369-5.418-5.23C253.156,244.218,251.561,242.276,250.153,240.202z"/>
							<path style="fill:#A3A9F3;" d="M249.641,247.728c1.509,2.799,3.135,5.516,4.944,8.104c1.817,2.579,3.766,5.062,5.891,7.387
								c2.108,2.341,4.389,4.522,6.779,6.581l1.823,1.512l1.881,1.443l1.915,1.406c0.659,0.44,1.312,0.89,1.963,1.35
								c-0.705-0.366-1.408-0.74-2.105-1.126l-2.052-1.227l-1.981-1.341l-1.929-1.42c-2.537-1.945-4.877-4.145-7.034-6.507
								c-2.14-2.378-4.102-4.921-5.789-7.636C252.25,253.548,250.776,250.702,249.641,247.728z"/>
							<path style="fill:#A3A9F3;" d="M214.953,190.865c1.209,1.559,2.492,3.051,3.917,4.396c1.401,1.365,2.914,2.611,4.535,3.686
								c3.224,2.157,6.875,3.726,10.714,4.153c3.808,0.503,7.756-0.268,11.2-1.999c3.439-1.724,6.406-4.575,7.914-8.24
								c-0.55,1.9-1.582,3.657-2.877,5.179c-1.321,1.505-2.925,2.759-4.677,3.741c-3.519,1.949-7.659,2.762-11.682,2.31
								c-4.004-0.529-7.811-2.162-11.03-4.516C219.739,197.22,217.019,194.227,214.953,190.865z"/>
							<path style="fill:#A3A9F3;" d="M309.844,265.75c-0.476,1.064-0.989,2.067-1.454,3.093c-0.477,1.017-0.922,2.041-1.344,3.078
								l-0.521-0.649c0.449-0.058,0.857-0.022,1.263-0.001c0.405,0.022,0.801,0.086,1.196,0.132
								c0.791,0.111,1.557,0.266,2.359,0.348c-0.776,0.264-1.6,0.297-2.391,0.348c-0.786,0.038-1.6,0.031-2.29,0.131l-0.786,0.114
								l0.265-0.763c0.382-1.099,0.888-2.155,1.497-3.144C308.261,267.455,308.97,266.526,309.844,265.75z"/>
						</g>
					</g>
				</g>
			</g>
		</g>
		<g>
			<g>
				<path style="fill:#4341EA;" d="M385.174,341.78c-6.93-1.13-13.76-2.77-20.44-4.92c-8.98-2.87-17.67-6.66-25.89-11.29
					c-5.74-3.22-11.5-7.13-14.45-13.02c-3.39-6.81-2.39-14.94-0.52-22.31c1.87-7.38,4.54-14.73,4.22-22.32
					c-0.53-12.74-9.4-23.7-19.55-31.41c-10.15-7.7-21.89-13.14-31.95-20.97c-10.93-8.49-19.67-19.76-25.25-32.43
					c-0.76-1.76-1.47-3.54-2.12-5.34c15.27-2.54,33.36,0.44,45.86,9.59c11.78,8.63,19.85,21.3,27.64,33.66
					c4.73,7.5,9.46,15.01,14.19,22.51c3.65,5.79,7.39,11.83,8.28,18.62c1.25,9.61-3.37,18.86-6.62,27.99
					c-1.88,5.27-3.28,11.3-0.76,16.29c1.75,3.46,5.09,5.78,8.3,7.96C359.254,323.3,372.034,332.87,385.174,341.78z"/>
				<g>
					<path style="opacity:0.5;fill:#4341EA;" d="M364.734,336.86c-8.98-2.87-17.67-6.66-25.89-11.29
						c-5.74-3.22-11.5-7.13-14.45-13.02c-3.39-6.81-2.39-14.94-0.52-22.31c1.87-7.38,4.54-14.73,4.22-22.32
						c-0.53-12.74-9.4-23.7-19.55-31.41c-10.15-7.7-21.89-13.14-31.95-20.97c-10.93-8.49-19.67-19.76-25.25-32.43
						c13.16,11.35,34.53,11.85,48.31,22.12c2.23,1.67,0.83,5.2-1.93,4.84l-8.72-1.14c-2.27-0.29-3.23,2.78-1.21,3.83l17.54,9.13
						c7.29,3.79,14.68,7.65,20.69,13.26c6.02,5.6,10.59,13.25,10.68,21.47c0.04,2.97-0.64,6.17-2.88,8.13
						c-2.21,10.75-3.42,21.94-1.14,32.67c2.29,10.74,8.49,21.05,18.15,26.25c4.48,2.41,9.67,3.75,12.63,8.32
						C364.414,333.45,364.894,335.19,364.734,336.86z"/>
					<g>
						<g>
							<path style="fill:#7B7AEA;" d="M257.98,186.308c6.235,6.979,13.006,13.459,20.291,19.296
								c3.661,2.893,7.398,5.693,11.278,8.283c3.87,2.603,7.891,4.983,11.884,7.43c3.977,2.471,7.931,5.019,11.643,7.916
								c3.697,2.901,7.187,6.135,10.033,9.912c1.417,1.888,2.691,3.885,3.746,5.999c1.04,2.12,1.869,4.343,2.437,6.632
								c0.538,2.296,0.819,4.651,0.791,7.003c-0.047,2.351-0.425,4.694-1.155,6.917c0.627-2.255,0.91-4.591,0.89-6.917
								c-0.048-2.328-0.4-4.641-1.001-6.882c-0.611-2.239-1.463-4.409-2.525-6.467c-1.075-2.052-2.366-3.99-3.792-5.816
								c-2.887-3.631-6.295-6.83-9.982-9.663c-3.686-2.839-7.628-5.342-11.61-7.785c-3.968-2.467-7.988-4.882-11.867-7.527
								c-3.877-2.642-7.65-5.44-11.254-8.442c-3.604-3.001-7.073-6.162-10.396-9.466
								C264.103,193.394,260.938,189.935,257.98,186.308z"/>
							<path style="fill:#7B7AEA;" d="M265.892,184.566c2.653,5.34,6.547,9.928,10.977,13.824c4.442,3.904,9.37,7.228,14.483,10.222
								c5.079,3.064,10.34,5.853,15.41,8.992c2.53,1.575,5.025,3.215,7.423,4.989c2.378,1.799,4.685,3.701,6.781,5.815
								c-2.25-1.947-4.604-3.761-7.066-5.416c-2.442-1.683-4.968-3.241-7.535-4.729c-5.127-2.987-10.378-5.78-15.525-8.792
								c-5.1-3.082-10.095-6.432-14.486-10.513c-2.187-2.042-4.23-4.246-6.022-6.642
								C268.568,189.904,267.023,187.321,265.892,184.566z"/>
							<path style="fill:#7B7AEA;" d="M333.169,275.023c-1.496,5.674-1.809,11.614-0.957,17.365
								c0.854,5.745,2.813,11.34,5.928,16.231c3.048,4.934,7.228,9.136,12.029,12.406c2.399,1.642,4.973,3.036,7.667,4.152
								c2.683,1.148,5.501,1.98,8.379,2.552c-2.916-0.349-5.786-1.091-8.559-2.096c-2.763-1.037-5.417-2.373-7.912-3.967
								c-4.982-3.199-9.263-7.504-12.451-12.517c-3.121-5.054-5.135-10.781-5.841-16.66c-0.348-2.939-0.396-5.91-0.124-8.849
								C331.632,280.706,332.214,277.8,333.169,275.023z"/>
							<path style="fill:#7B7AEA;" d="M326.081,295.503c0.741,2.541,1.661,5.006,2.815,7.353c1.164,2.34,2.505,4.587,4.065,6.675
								c1.542,2.102,3.298,4.042,5.196,5.838l1.461,1.311l1.532,1.233l1.578,1.185c0.549,0.361,1.094,0.733,1.637,1.115
								c-0.595-0.287-1.189-0.583-1.778-0.89l-1.72-1.009l-1.641-1.138l-1.578-1.229c-2.062-1.698-3.891-3.677-5.491-5.82
								c-1.581-2.157-2.938-4.485-3.959-6.953C327.168,300.711,326.419,298.133,326.081,295.503z"/>
						</g>
					</g>
				</g>
			</g>
			<g>
				<path style="fill:#4341EA;" d="M166.344,353.85c-12.11,13.87-31.7,20.78-49.83,17.56c-5.86-1.04-11.83-3.25-15.67-7.81
					c-0.12-0.7-0.2-1.4-0.23-2.11c-0.45-7.66,3.8-15.45,8.55-21.56c5.18-6.66,12.14-11.69,19.13-16.44
					c6.98-4.74,14.16-9.35,20.03-15.43c6.52-6.76,11.55-15.38,13.91-24.51c-2.26,10.48-0.97,21.7,3.64,31.39
					c0.21,0.45,0.44,0.9,0.67,1.34c3.1,6.12,7.24,11.99,7.63,18.8C174.574,342.02,170.914,348.61,166.344,353.85z"/>
				<g>
					<path style="opacity:0.5;fill:#4341EA;" d="M166.344,353.85c-12.11,13.87-31.7,20.78-49.83,17.56
						c-5.86-1.04-11.83-3.25-15.67-7.81c-0.12-0.7-0.2-1.4-0.23-2.11c1.83-0.47,3.79-0.3,5.7-0.15c9.07,0.72,18.37,1.07,27.08-1.55
						c8.71-2.61,16.84-8.7,19.71-17.33c-3.92-0.28-7.85-0.57-11.77-0.85c4.26-3.26,8.53-6.53,12.79-9.8
						c4.27-3.26,8.64-6.65,11.32-11.3c0.44-0.77,0.77-2.38,1.1-4.23c3.1,6.12,7.24,11.99,7.63,18.8
						C174.574,342.02,170.914,348.61,166.344,353.85z"/>
					<g>
						<g>
							<path style="fill:#7B7AEA;" d="M163.346,314.918c0.395,3.38,0.154,6.831-0.552,10.176c-0.736,3.343-1.967,6.573-3.568,9.604
								c-3.224,6.061-7.967,11.274-13.558,15.255c-5.642,3.915-12.025,6.676-18.626,8.408c-6.611,1.734-13.424,2.539-20.218,2.642
								c3.388-0.267,6.766-0.62,10.108-1.19c3.345-0.537,6.66-1.252,9.906-2.194c6.487-1.865,12.763-4.578,18.257-8.484
								c5.522-3.832,10.157-8.939,13.459-14.804C161.85,328.479,163.713,321.723,163.346,314.918z"/>
							<path style="fill:#7B7AEA;" d="M165.503,327.256c0.072,3.616-0.377,7.246-1.222,10.782
								c-0.834,3.541-2.121,6.975-3.746,10.234c-1.646,3.249-3.635,6.329-5.98,9.111l-1.812,2.035l-1.918,1.931l-2.047,1.789
								c-0.711,0.561-1.43,1.112-2.151,1.653c0.654-0.626,1.31-1.244,1.974-1.85l1.876-1.938l1.795-2.006l1.683-2.096
								c2.168-2.85,4.091-5.881,5.687-9.079c1.617-3.188,2.902-6.539,3.898-9.979C164.526,334.4,165.163,330.852,165.503,327.256z"
								/>
						</g>
					</g>
				</g>
			</g>
		</g>
	</g>
	<g>
		<g>
			<g>
				<g>
					<path style="fill:#FFFFFF;" d="M448.167,114c-0.106-2.313-1.1-4.54-2.759-6.074c-1.624-1.563-3.857-2.43-6.074-2.377
						c0.004-1.531,0.009-0.425,0.013-0.767l0.013-0.001l0.026-0.002l0.052-0.004l0.103-0.007l0.207-0.015l0.413-0.029l0.815-0.138
						l0.798-0.209c0.261-0.085,0.516-0.19,0.774-0.283c1.013-0.427,1.939-1.056,2.71-1.837c1.55-1.561,2.431-3.738,2.409-5.925
						c1.996,0.004,0.554,0.008,1,0.013l0.001,0.013l0.001,0.025l0.003,0.051l0.005,0.102l0.009,0.204l0.017,0.409l0.114,0.81
						l0.193,0.796c0.081,0.26,0.182,0.515,0.271,0.773c0.411,1.013,1.025,1.945,1.795,2.727c1.539,1.579,3.713,2.47,5.924,2.524
						c-0.004,1.537-0.009,0.426-0.013,0.77l-0.013,0l-0.026,0.001l-0.052,0.002l-0.104,0.003l-0.207,0.006l-0.416,0.012
						l-0.825,0.105c-0.272,0.053-0.541,0.125-0.812,0.185c-0.266,0.078-0.527,0.178-0.792,0.265
						c-1.039,0.404-1.999,1.02-2.814,1.796C449.268,109.46,448.273,111.687,448.167,114z M448.167,114
						c-0.122-2.32,0.785-4.688,2.414-6.419c0.822-0.859,1.821-1.553,2.918-2.033c0.28-0.106,0.557-0.223,0.841-0.319
						c0.289-0.078,0.577-0.167,0.869-0.235l0.89-0.149l0.45-0.032l0.226-0.016l0.113-0.008l0.056-0.004l0.028-0.002l0.014-0.001
						c0.005,0.343,0.01-0.769,0.014,0.768c-2.421,0.07-4.843-0.941-6.568-2.65c-0.864-0.855-1.561-1.881-2.034-3.005
						c-0.104-0.286-0.22-0.569-0.313-0.859c-0.076-0.295-0.162-0.588-0.228-0.886l-0.14-0.905l-0.026-0.457l-0.013-0.229
						l-0.006-0.114l-0.003-0.057l-0.001-0.029l-0.001-0.014c0.445-0.005-0.998-0.01,0.998-0.014
						c-0.006,2.446-1.027,4.864-2.766,6.567c-0.865,0.854-1.898,1.535-3.022,1.992c-0.565,0.222-1.146,0.397-1.741,0.513l-0.9,0.116
						l-0.453,0.015l-0.226,0.007l-0.113,0.004l-0.056,0.002l-0.028,0.001l-0.014,0c-0.005-0.341-0.009,0.765-0.014-0.765
						c2.416,0.038,4.779,1.073,6.419,2.798C447.381,109.312,448.288,111.68,448.167,114z"/>
					<path style="fill:#FFFFFF;" d="M476.167,63c-0.076-1.658-0.789-3.255-1.979-4.355c-1.164-1.121-2.765-1.743-4.355-1.704
						c0.003-1.097,0.006-0.305,0.009-0.55l0.009-0.001l0.019-0.001l0.037-0.003l0.074-0.005l0.148-0.011l0.296-0.021l0.585-0.099
						c0.385-0.089,0.762-0.202,1.128-0.353c0.726-0.306,1.39-0.757,1.943-1.317c1.111-1.119,1.743-2.68,1.727-4.248
						c1.431,0.003,0.397,0.006,0.717,0.009l0.001,0.009l0.001,0.018l0.002,0.037l0.003,0.073l0.007,0.146l0.012,0.293l0.082,0.581
						c0.079,0.384,0.189,0.759,0.332,1.125c0.294,0.726,0.735,1.395,1.287,1.955c1.103,1.132,2.662,1.771,4.248,1.81
						c-0.003,1.102-0.006,0.306-0.009,0.552l-0.009,0l-0.018,0.001l-0.037,0.001l-0.074,0.002l-0.149,0.004l-0.298,0.009
						l-0.592,0.075c-0.391,0.075-0.775,0.181-1.15,0.323c-0.745,0.29-1.433,0.732-2.017,1.288
						C476.956,59.745,476.243,61.342,476.167,63z M476.167,63c-0.087-1.663,0.563-3.362,1.731-4.603
						c0.589-0.616,1.305-1.113,2.092-1.457c0.396-0.168,0.806-0.3,1.226-0.397l0.638-0.107l0.323-0.023l0.162-0.011l0.081-0.006
						l0.04-0.003l0.02-0.001l0.01-0.001c0.003,0.246,0.007-0.551,0.01,0.551c-1.736,0.05-3.472-0.675-4.709-1.9
						c-0.62-0.613-1.119-1.349-1.458-2.154c-0.166-0.405-0.295-0.823-0.388-1.251l-0.1-0.649l-0.019-0.327l-0.009-0.164
						l-0.004-0.082l-0.002-0.041l-0.001-0.02l0-0.01c0.319-0.003-0.715-0.007,0.716-0.01c-0.005,1.754-0.736,3.487-1.983,4.709
						c-0.62,0.612-1.361,1.101-2.166,1.428c-0.405,0.159-0.822,0.285-1.248,0.368l-0.645,0.083l-0.325,0.011l-0.162,0.005
						l-0.081,0.003l-0.04,0.001l-0.02,0.001l-0.01,0c-0.003-0.245-0.007,0.548-0.01-0.549c1.732,0.027,3.426,0.769,4.602,2.006
						C475.603,59.639,476.253,61.337,476.167,63z"/>
					<path style="fill:#FFFFFF;" d="M30.833,189.333c-0.106-2.313-1.101-4.54-2.76-6.074c-1.624-1.563-3.857-2.43-6.074-2.377
						c0.004-1.531,0.009-0.425,0.013-0.767l0.013-0.001l0.026-0.002l0.052-0.004l0.104-0.008l0.207-0.015l0.413-0.029l0.815-0.138
						l0.798-0.209c0.261-0.085,0.516-0.19,0.774-0.283c1.013-0.427,1.939-1.056,2.71-1.837c1.55-1.561,2.431-3.738,2.409-5.925
						c1.996,0.004,0.554,0.008,1,0.013l0.001,0.013l0.002,0.025l0.003,0.051l0.005,0.102l0.009,0.204l0.017,0.409l0.114,0.81
						l0.193,0.796c0.081,0.26,0.182,0.515,0.271,0.773c0.411,1.013,1.025,1.945,1.795,2.727c1.539,1.579,3.713,2.47,5.924,2.524
						c-0.004,1.537-0.009,0.426-0.013,0.77l-0.013,0l-0.026,0.001l-0.052,0.002l-0.104,0.003l-0.207,0.006l-0.416,0.012
						l-0.825,0.105c-0.272,0.053-0.541,0.125-0.812,0.185c-0.266,0.078-0.527,0.178-0.792,0.265
						c-1.039,0.404-1.999,1.02-2.813,1.796C31.935,184.794,30.94,187.02,30.833,189.333z M30.833,189.333
						c-0.122-2.32,0.785-4.688,2.414-6.419c0.822-0.859,1.821-1.553,2.918-2.033c0.28-0.106,0.557-0.223,0.841-0.319
						c0.289-0.078,0.577-0.167,0.869-0.235l0.89-0.149l0.45-0.032l0.226-0.016l0.113-0.008l0.056-0.004l0.028-0.002l0.014-0.001
						c0.005,0.343,0.009-0.769,0.014,0.768c-2.421,0.07-4.843-0.941-6.568-2.65c-0.864-0.855-1.561-1.881-2.034-3.005
						c-0.104-0.286-0.22-0.569-0.313-0.859c-0.076-0.295-0.162-0.589-0.227-0.886l-0.14-0.904l-0.026-0.457l-0.013-0.229
						l-0.006-0.114l-0.003-0.057l-0.001-0.029l-0.001-0.014c0.445-0.005-0.998-0.009,0.998-0.014
						c-0.006,2.446-1.027,4.864-2.765,6.567c-0.865,0.854-1.898,1.535-3.022,1.992c-0.565,0.222-1.146,0.398-1.741,0.512l-0.9,0.116
						l-0.453,0.015l-0.226,0.007l-0.113,0.003l-0.056,0.002l-0.028,0.001l-0.014,0c-0.005-0.341-0.009,0.765-0.014-0.765
						c2.416,0.038,4.778,1.073,6.418,2.798C30.047,184.645,30.954,187.014,30.833,189.333z"/>
					<path style="fill:#FFFFFF;" d="M58.167,44c-0.106-2.313-1.1-4.54-2.76-6.074c-1.624-1.563-3.857-2.43-6.074-2.377
						c0.004-1.53,0.009-0.425,0.013-0.767l0.013-0.001l0.026-0.002l0.052-0.004l0.103-0.007l0.207-0.015l0.413-0.029l0.815-0.138
						l0.798-0.209c0.261-0.085,0.516-0.19,0.774-0.283c1.013-0.427,1.939-1.056,2.71-1.837c1.55-1.561,2.431-3.738,2.409-5.925
						c1.996,0.004,0.554,0.009,1,0.013l0.001,0.013l0.002,0.025l0.003,0.051l0.005,0.102l0.009,0.204l0.017,0.409l0.114,0.811
						l0.193,0.796c0.081,0.26,0.182,0.515,0.271,0.773c0.411,1.013,1.025,1.945,1.795,2.727c1.539,1.579,3.713,2.47,5.924,2.524
						c-0.004,1.537-0.009,0.426-0.013,0.77l-0.013,0l-0.026,0.001l-0.052,0.002l-0.104,0.003l-0.207,0.006l-0.416,0.012
						l-0.825,0.105c-0.272,0.053-0.541,0.125-0.812,0.185c-0.266,0.078-0.527,0.178-0.792,0.265
						c-1.039,0.404-1.999,1.02-2.814,1.796C59.268,39.46,58.273,41.687,58.167,44z M58.167,44c-0.122-2.32,0.785-4.688,2.414-6.419
						c0.822-0.859,1.821-1.553,2.918-2.033c0.28-0.106,0.557-0.223,0.84-0.319c0.289-0.078,0.577-0.167,0.869-0.235l0.89-0.149
						l0.45-0.032l0.225-0.016l0.113-0.008l0.057-0.004l0.028-0.002l0.014-0.001c0.005,0.343,0.009-0.769,0.014,0.768
						c-2.422,0.07-4.843-0.941-6.568-2.65c-0.864-0.855-1.561-1.881-2.034-3.005c-0.104-0.286-0.22-0.569-0.313-0.859
						c-0.076-0.295-0.162-0.589-0.228-0.886l-0.14-0.904l-0.026-0.457l-0.013-0.229l-0.006-0.114L57.67,26.39l-0.001-0.029
						l-0.001-0.014c0.445-0.005-0.998-0.01,0.998-0.014c-0.006,2.446-1.027,4.864-2.765,6.567c-0.865,0.854-1.898,1.535-3.022,1.992
						c-0.565,0.222-1.146,0.398-1.741,0.513l-0.9,0.116l-0.453,0.015l-0.226,0.007l-0.113,0.003l-0.056,0.002l-0.028,0.001l-0.014,0
						c-0.005-0.341-0.009,0.765-0.014-0.765c2.416,0.038,4.779,1.073,6.418,2.798C57.381,39.312,58.288,41.68,58.167,44z"/>
					<path style="fill:#FFFFFF;" d="M47.917,55c-0.067-1.462-0.696-2.87-1.744-3.839c-1.026-0.988-2.438-1.536-3.839-1.502
						c0.003-0.967,0.006-0.269,0.008-0.485l0.008-0.001l0.016-0.001l0.033-0.002l0.065-0.005l0.131-0.009l0.261-0.018l0.515-0.087
						c0.339-0.079,0.672-0.178,0.994-0.311c0.64-0.27,1.226-0.668,1.713-1.161c0.979-0.986,1.537-2.363,1.523-3.745
						c1.262,0.003,0.35,0.005,0.632,0.008l0,0.008l0.001,0.016l0.002,0.032l0.003,0.065l0.006,0.129l0.011,0.259l0.072,0.512
						c0.069,0.338,0.167,0.67,0.293,0.992c0.26,0.64,0.648,1.23,1.134,1.724c0.973,0.998,2.347,1.562,3.745,1.596
						c-0.003,0.972-0.005,0.27-0.008,0.486l-0.008,0l-0.016,0l-0.033,0.001l-0.065,0.002l-0.131,0.004l-0.263,0.007l-0.521,0.066
						c-0.345,0.066-0.684,0.16-1.014,0.285c-0.657,0.255-1.264,0.645-1.778,1.135C48.613,52.131,47.984,53.538,47.917,55z
						 M47.917,55c-0.077-1.466,0.496-2.964,1.526-4.058c0.52-0.543,1.151-0.982,1.845-1.285c0.349-0.148,0.71-0.264,1.081-0.35
						l0.562-0.094l0.285-0.02l0.143-0.01l0.071-0.005l0.036-0.002l0.018-0.001l0.009-0.001c0.003,0.217,0.006-0.486,0.009,0.486
						c-1.531,0.044-3.061-0.595-4.151-1.675c-0.546-0.54-0.987-1.189-1.286-1.899c-0.146-0.357-0.26-0.726-0.342-1.103l-0.088-0.572
						l-0.017-0.289l-0.008-0.144l-0.004-0.072l-0.002-0.036l-0.001-0.018l0-0.009c0.281-0.003-0.631-0.006,0.631-0.009
						c-0.004,1.546-0.649,3.074-1.748,4.151c-0.547,0.54-1.2,0.97-1.91,1.259c-0.357,0.14-0.724,0.251-1.101,0.324l-0.569,0.073
						l-0.286,0.009l-0.143,0.005l-0.071,0.002l-0.036,0.001l-0.018,0l-0.009,0c-0.003-0.216-0.006,0.483-0.009-0.484
						c1.527,0.024,3.02,0.678,4.057,1.768C47.42,52.037,47.993,53.534,47.917,55z"/>
				</g>
				<g>
					<circle style="fill:#FFFFFF;" cx="41.5" cy="165" r="2"/>
					<circle style="fill:#FFFFFF;" cx="17" cy="196.5" r="2.5"/>
					<circle style="fill:#FFFFFF;" cx="26.75" cy="54.75" r="1.25"/>
					<circle style="fill:#FFFFFF;" cx="161" cy="113" r="1.5"/>
					<circle style="fill:#FFFFFF;" cx="318.25" cy="165.25" r="1.75"/>
					<circle style="fill:#FFFFFF;" cx="464.5" cy="161" r="1.5"/>
					<circle style="fill:#FFFFFF;" cx="468.25" cy="34.25" r="1.75"/>
					<circle style="fill:#FFFFFF;" cx="481.5" cy="72" r="1"/>
					<circle style="fill:#FFFFFF;" cx="395.25" cy="37.25" r="1.25"/>
					<circle style="fill:#FFFFFF;" cx="273.25" cy="89.25" r="1.75"/>
					<circle style="fill:#FFFFFF;" cx="129.75" cy="148.25" r="1.75"/>
					<circle style="fill:#FFFFFF;" cx="79.25" cy="22.75" r="2.25"/>
				</g>
			</g>
		</g>
		<g>
			<g>
				<path style="fill:#FFCF66;" d="M150.97,93.81c-6.31,16.58-22.35,28.36-41.14,28.36c-24.3,0-44-19.7-44-44
					c0-18.79,11.78-34.83,28.36-41.14c-1.85,4.86-2.86,10.13-2.86,15.64c0,24.3,19.7,44,44,44
					C140.84,96.67,146.11,95.66,150.97,93.81z"/>
				<g>
					<polygon style="fill:#FFCF66;" points="125.333,58.262 127.411,62.473 132.058,63.148 128.696,66.426 129.49,71.054 
						125.333,68.869 121.177,71.054 121.971,66.426 118.608,63.148 123.255,62.473 					"/>
					<polygon style="fill:#FFCF66;" points="362.5,164.929 364.578,169.14 369.225,169.815 365.862,173.092 366.656,177.721 
						362.5,175.536 358.344,177.721 359.137,173.092 355.775,169.815 360.422,169.14 					"/>
					<polygon style="fill:#FFCF66;" points="51,90.596 53.078,94.806 57.725,95.482 54.362,98.759 55.156,103.387 51,101.202 
						46.844,103.387 47.637,98.759 44.275,95.482 48.922,94.806 					"/>
					<polygon style="fill:#FFCF66;" points="137.333,72 138.847,75.067 142.231,75.559 139.782,77.946 140.36,81.316 
						137.333,79.725 134.306,81.316 134.884,77.946 132.436,75.559 135.82,75.067 					"/>
					<polygon style="fill:#FFCF66;" points="416.986,41.933 418.5,45 421.884,45.492 419.435,47.879 420.013,51.25 416.986,49.658 
						413.959,51.25 414.538,47.879 412.089,45.492 415.473,45 					"/>
				</g>
			</g>
			<g>
				<path style="fill:#FFFFFF;" d="M335.215,73.667c-0.95-6.651-6.204-12.535-12.757-14.103c-6.876-1.646-15.198,2.181-18.873,8.221
					c-4.593-9.682-16.07-15.564-26.612-13.639c-9.661,1.765-17.72,9.946-19.675,19.521H335.215z"/>
				<path style="fill:#FFFFFF;" d="M156.333,128.851c-1.727-4.052-5.366-7.272-9.635-8.394c-4.777-1.255-10.344-0.228-13.893,3.207
					c-2.661-5.602-8.362-9.642-14.529-10.294c-6.168-0.652-12.696,2.465-16.47,7.386c-1.834-6.338-7.267-11.499-13.691-13.006
					c-6.424-1.507-13.585,0.699-18.047,5.56c-3.785,4.124-5.491,10.018-4.672,15.541H156.333z"/>
				<path style="fill:#FFFFFF;" d="M457.167,180.851c-1.449-4.052-4.502-7.272-8.085-8.394c-4.008-1.255-8.68-0.228-11.657,3.207
					c-2.232-5.602-7.016-9.642-12.191-10.294c-5.175-0.652-10.653,2.465-13.819,7.386c-1.539-6.338-6.097-11.499-11.488-13.006
					c-5.39-1.507-11.398,0.699-15.142,5.56c-3.176,4.124-4.607,10.018-3.92,15.541H457.167z"/>
				<path style="fill:#FFFFFF;" d="M95.715,153c-0.95-6.651-6.204-12.535-12.757-14.103c-6.876-1.646-15.198,2.181-18.873,8.221
					c-4.593-9.682-16.07-15.564-26.612-13.639c-9.661,1.765-17.72,9.946-19.675,19.521H95.715z"/>
			</g>
		</g>
	</g>
	<g>
		<circle style="fill:#FF6585;" cx="366.25" cy="105.75" r="53.583"/>
		<circle style="fill:#FFFFFF;" cx="366.25" cy="105.75" r="49.098"/>
		<circle style="opacity:0.38;fill:#A3A9F3;" cx="366.25" cy="105.75" r="19.5"/>
		<g>
			<circle style="fill:#FF6585;" cx="366.25" cy="105.75" r="5.767"/>
			<path style="fill:#FF6585;" d="M367.269,106.769l-28.287,27.329c-0.304,0.293-0.788,0.285-1.081-0.019
				c-0.287-0.297-0.284-0.768,0-1.063l27.329-28.287c0.553-0.573,1.466-0.589,2.039-0.035c0.573,0.553,0.589,1.466,0.035,2.039
				C367.294,106.745,367.28,106.759,367.269,106.769z"/>
			<path style="fill:#FF6585;" d="M366.71,105.252l24.921-6.704c0.309-0.083,0.628,0.1,0.711,0.41c0.08,0.296-0.087,0.601-0.372,0.7
				l-24.418,8.353c-0.754,0.258-1.574-0.144-1.832-0.898s0.144-1.574,0.898-1.832C366.647,105.27,366.681,105.26,366.71,105.252z"/>
		</g>
		<g>
			<g>
				<g>
					<path style="fill:#A3A9F3;" d="M364.446,59.636v8.069h-1.868v-6.571h-1.613v-1.498H364.446z"/>
					<path style="fill:#A3A9F3;" d="M371.883,66.183v1.521h-6.098v-1.21l3.112-2.939c0.715-0.681,0.842-1.095,0.842-1.487
						c0-0.634-0.438-1.003-1.292-1.003c-0.692,0-1.279,0.265-1.672,0.807l-1.36-0.876c0.622-0.911,1.752-1.499,3.204-1.499
						c1.798,0,2.998,0.922,2.998,2.386c0,0.784-0.22,1.499-1.349,2.547l-1.857,1.752H371.883z"/>
				</g>
				<g>
					<path style="fill:#A3A9F3;" d="M387.778,68.126v8.069h-1.868v-6.571h-1.613v-1.498H387.778z"/>
				</g>
				<g>
					<path style="fill:#A3A9F3;" d="M404.01,90.853v1.521h-6.098v-1.21l3.112-2.939c0.715-0.681,0.842-1.095,0.842-1.487
						c0-0.634-0.438-1.003-1.292-1.003c-0.692,0-1.279,0.265-1.672,0.807l-1.36-0.876c0.622-0.911,1.752-1.499,3.204-1.499
						c1.798,0,2.998,0.922,2.998,2.386c0,0.784-0.22,1.498-1.349,2.547l-1.857,1.752H404.01z"/>
				</g>
				<g>
					<path style="fill:#A3A9F3;" d="M404.8,128.805h-1.314v1.695h-1.821v-1.695h-4.346v-1.256l3.804-5.118h1.959l-3.527,4.853h2.167
						v-1.51h1.764v1.51h1.314V128.805z"/>
				</g>
				<g>
					<path style="fill:#A3A9F3;" d="M389.593,144.142c0,1.43-1.049,2.675-3.355,2.675c-1.118,0-2.294-0.311-3.078-0.865l0.738-1.43
						c0.611,0.461,1.452,0.726,2.294,0.726c0.934,0,1.51-0.392,1.51-1.049c0-0.634-0.415-1.049-1.879-1.049h-2.064l0.416-4.542
						h4.922v1.499h-3.366l-0.128,1.533h0.657C388.648,141.641,389.593,142.713,389.593,144.142z"/>
				</g>
				<g>
					<path style="fill:#A3A9F3;" d="M343.886,68.126v8.069h-1.868v-6.571h-1.613v-1.498H343.886z"/>
					<path style="fill:#A3A9F3;" d="M348.407,68.126v8.069h-1.868v-6.571h-1.613v-1.498H348.407z"/>
				</g>
				<g>
					<path style="fill:#A3A9F3;" d="M332.132,84.305v8.069h-1.868v-6.571h-1.613v-1.498H332.132z"/>
					<path style="fill:#A3A9F3;" d="M333.541,88.34c0-2.663,1.475-4.173,3.458-4.173c1.995,0,3.459,1.51,3.459,4.173
						c0,2.663-1.464,4.173-3.459,4.173C335.017,92.513,333.541,91.003,333.541,88.34z M338.579,88.34
						c0-1.833-0.646-2.593-1.58-2.593c-0.922,0-1.567,0.761-1.567,2.593c0,1.833,0.646,2.594,1.567,2.594
						C337.933,90.934,338.579,90.173,338.579,88.34z"/>
				</g>
				<g>
					<path style="fill:#A3A9F3;" d="M335.205,128.159c0,1.521-1.36,2.478-3.412,2.478c-2.04,0-3.389-0.957-3.389-2.478
						c0-0.865,0.45-1.51,1.222-1.902c-0.6-0.369-0.934-0.934-0.934-1.66c0-1.418,1.268-2.305,3.101-2.305
						c1.856,0,3.124,0.887,3.124,2.305c0,0.726-0.346,1.291-0.945,1.66C334.755,126.649,335.205,127.295,335.205,128.159z
						 M333.314,128.102c0-0.715-0.589-1.153-1.521-1.153c-0.923,0-1.499,0.438-1.499,1.153c0,0.715,0.576,1.164,1.499,1.164
						C332.726,129.266,333.314,128.816,333.314,128.102z M330.547,124.678c0,0.611,0.484,0.991,1.246,0.991
						c0.771,0,1.267-0.38,1.267-0.991c0-0.634-0.507-1.015-1.267-1.015C331.043,123.663,330.547,124.044,330.547,124.678z"/>
				</g>
				<g>
					<path style="fill:#A3A9F3;" d="M348.483,138.609v1.21l-2.997,6.859h-2.029l2.894-6.548h-2.674v1.314h-1.66v-2.836H348.483z"/>
				</g>
				<g>
					<path style="fill:#A3A9F3;" d="M410.063,106.407c0,1.36-1.048,2.605-3.342,2.605c-1.13,0-2.294-0.311-3.078-0.864l0.725-1.429
						c0.611,0.461,1.464,0.726,2.306,0.726c0.933,0,1.51-0.38,1.51-1.037c0-0.611-0.45-0.992-1.51-0.992h-0.853v-1.233l1.659-1.879
						h-3.434v-1.499h5.648v1.21l-1.821,2.075C409.326,104.321,410.063,105.22,410.063,106.407z"/>
				</g>
				<g>
					<path style="fill:#A3A9F3;" d="M329.011,104.666c0,2.79-1.672,4.346-4.115,4.346c-0.853,0-1.672-0.196-2.237-0.553l0.692-1.372
						c0.438,0.299,0.956,0.403,1.51,0.403c1.337,0,2.213-0.795,2.271-2.351c-0.472,0.473-1.164,0.726-2.006,0.726
						c-1.556,0-2.777-0.991-2.777-2.513c0-1.649,1.349-2.686,3.054-2.686C327.639,100.666,329.011,102.061,329.011,104.666z
						 M326.924,103.26c0-0.692-0.518-1.199-1.406-1.199c-0.795,0-1.349,0.461-1.349,1.199c0,0.738,0.542,1.21,1.372,1.21
						C326.36,104.47,326.924,103.963,326.924,103.26z"/>
				</g>
				<g>
					<path style="fill:#A3A9F3;" d="M367.997,147.815c0,1.648-1.349,2.686-3.055,2.686c-2.224,0-3.608-1.395-3.608-4
						c0-2.79,1.683-4.346,4.115-4.346c0.853,0,1.683,0.196,2.248,0.553l-0.692,1.372c-0.45-0.299-0.968-0.403-1.51-0.403
						c-1.348,0-2.213,0.795-2.271,2.34c0.473-0.473,1.153-0.715,1.995-0.715C366.775,145.302,367.997,146.293,367.997,147.815z
						 M366.186,147.907c0-0.738-0.542-1.21-1.371-1.21c-0.818,0-1.395,0.507-1.395,1.21c0,0.692,0.519,1.199,1.417,1.199
						C365.633,149.106,366.186,148.645,366.186,147.907z"/>
				</g>
			</g>
		</g>
	</g>
</g>
</svg>
