<?xml version="1.0" encoding="utf-8"?>
<!-- Generator: Adobe Illustrator 27.5.0, SVG Export Plug-In . SVG Version: 6.00 Build 0)  -->
<svg version="1.1" id="Ñëîé_1" xmlns="http://www.w3.org/2000/svg" xmlns:xlink="http://www.w3.org/1999/xlink" x="0px" y="0px"
	 viewBox="0 0 3800 2000" style="enable-background:new 0 0 3800 2000;" xml:space="preserve">
<g>
	<rect id="_x39_" style="fill:#163260;" width="3800" height="2000"/>
	<g id="_x38_">
		<rect x="3165.198" y="239.051" style="fill:#667ECC;" width="104.812" height="255.475"/>
		<rect x="1274.238" y="393.355" style="fill:#667ECC;" width="1943.366" height="1606.645"/>
		<polygon style="fill:#8A9EDD;" points="3270.01,239.051 3270.01,393.355 1431.456,393.355 1431.456,239.051 1379.05,239.051 
			1379.05,393.355 1379.05,494.526 1379.05,2000 3322.416,2000 3322.416,494.526 3322.416,393.355 3322.416,239.051 		"/>
		<rect x="1304.054" y="1516.793" style="fill:#667ECC;" width="2495.946" height="483.207"/>
		<path style="fill:#C8D1FC;" d="M3800,1270.132v246.66H1450.907v-78.653c0-92.783,110.958-168.007,247.817-168.007H3800z"/>
		<rect x="1274.238" y="239.051" style="fill:#667ECC;" width="104.812" height="255.475"/>
	</g>
	<path id="_x37_" style="fill:#E1E7FF;" d="M1851.628,1406.507c0,0,124.947-35.866,234.876-145.52
		c99.706-99.456,211.68-207.268,274.105-254.37c157.593-118.91,280.696,15.623,345.042-21.413
		c40.626-20.491,86.63-27.895,131.761-29.653c-31.698-32.078-53.44-73.014-62.543-117.29
		c-14.401-70.113-41.755-182.494-83.115-269.084c-47.726-99.919-145.897-224.346-182.637-269.398
		c-19.239-20.523-21.049-60.679-26.353-86.71c-25.548,26.029-54.246,53.614-90.469,62.589
		c-89.487,25.852-320.132,95.054-449.221,157.106c-122.949,59.103-310.806,185.104-399.655,246.251
		c-38.333,26.989-84.017,40.881-130.548,45.087c28.279,33.566,47.753,73.894,56.432,116.906
		c15.494,152.234,235.223,344.335,332.184,453.241C1827.119,1323.037,1851.628,1406.507,1851.628,1406.507z"/>
	<path id="_x36_" style="fill:#C8D1FC;" d="M2240.534,1097.365l-1.271,7.377c116.47-52.992,719.707-74.318,854.649-96.117
		c36.908-3.891,74.137,3.754,109.069,15.452c-14.909-33.626-19.666-71.132-13.815-107.534c9.274-57.64,20.88-151.262,14.351-229.26
		c-7.533-90.003-46.463-213.275-61.469-258.254c-8.745-21.213,1.477-52.365,4.953-73.753c-27.007,12.472-56.868,25.221-87.09,21.601
		c-75.726-6.137-271.646-19.994-388.037-9.962c-110.857,9.557-290.551,51.387-375.988,72.355
		c-37.036,9.51-75.896,6.906-112.603-3.329c11.872,33.773,15.073,70.16,9.266,105.475c-32.168,120.594-6.329,354.061,40.905,463.213
		C2243.411,1034.452,2245.866,1066.398,2240.534,1097.365z"/>
	<g id="_x35_">
		<path style="fill:#662948;" d="M2563.083,874.443c-0.524,0-1.006-0.346-1.155-0.875c-0.295-1.045-30.22-105.469-90.625-189.357
			c-26.213-36.402-77.039-89.854-141.075-130.702c-50.688-32.333-127.371-67.479-204.84-51.29
			c-67.944,14.196-107.849,53.761-129.36,84.452c-23.313,33.258-30.638,63.495-30.709,63.796c-0.151,0.646-0.803,1.047-1.445,0.893
			c-0.646-0.153-1.046-0.8-0.893-1.446c0.072-0.306,7.505-30.991,31.078-64.623c21.761-31.046,62.124-71.067,130.837-85.425
			c78.26-16.352,155.56,19.043,206.624,51.617c64.323,41.03,115.39,94.74,141.732,131.323
			c60.66,84.241,90.692,189.06,90.988,190.108c0.181,0.639-0.191,1.303-0.829,1.483
			C2563.302,874.428,2563.191,874.443,2563.083,874.443z"/>
		<path style="fill:#662948;" d="M2328.301,569.761c-274.473-165.662-364.151,80.428-364.151,80.428
			c-0.002,0.012-89.353,23.129-48.06,186.65c47.851,189.492,239.439,214.594,262.175,304.148
			c63.164,248.794,271.762,264.026,343.097,51.336C2607.874,934.385,2540.591,697.892,2328.301,569.761z"/>
		<path style="fill:#CE4ABF;" d="M2402.036,1362.174c-0.716,0.614-1.454,1.201-2.226,1.762c-12.014,7.575-40.7,14.929-74.133,20.813
			c-49.634,8.744-142.229,19.543-186.74,21.758c-212.958,10.595-427.309-74.415-312.953-301.764
			c91.299-181.518,251.441-254.338,251.441-254.338l86.231,112.749c-26.217,25.839-170.115,201.762,7.307,127.078
			c36.251-15.26,79.583-41.767,79.583-41.767S2471.207,1303.244,2402.036,1362.174z"/>
		<path style="fill:#F99370;" d="M2122.962,1495.894l-34.063-5.464l20.991-88.414l45.171-0.241
			c8.435,10.798,4.898,48.802,3.144,62.66C2154.127,1496.651,2122.962,1495.894,2122.962,1495.894z"/>
		<path style="fill:#A523A2;" d="M2408.396,1347.309c0,0-2.352,6.153-6.36,14.865c-0.716,0.614-1.454,1.201-2.226,1.762
			c-12.014,7.575-40.7,14.929-74.133,20.813c-31.385-96.704-30.111-192.425-30.111-192.425L2408.396,1347.309z"/>
		<path style="fill:#CE4ABF;" d="M2969.672,1596.162c-38.369,23.791-89.4,15.428-142.416-16.017
			c-19.477-11.558-39.225-26.238-58.711-43.58c-43.638-37.749-85.283-56.133-124.761-65.397l-0.011,0.01
			c-26.849-6.305-52.688-8.398-77.441-9.517c-55.602-2.52-105.748-0.128-149.682-29.466c-31.34-20.92-59.525-57.995-84.257-124.525
			c-26.054-70.096-67.572-206.674-81.848-259.205c0,0,26.228-7.728,30.718-14.705c59.318,24.733,80.317-59.146,77.259-103.941
			c84.465-86.843,214.359-100.101,515.331-13.008c90.578,32.728,242.025,11.693,267.497,70.397
			C3170.826,1097.75,3118.264,1504.019,2969.672,1596.162z"/>
		<path style="fill:#F99370;" d="M2244.645,1004.776l45.486,36.089c49.169,31.199,97.035-39.16,68.389-111.037
			c0,0-17.866-11.489-32.073-23.559L2244.645,1004.776z"/>
		<path style="fill:#E57D61;" d="M2231.209,814.642c1.542,1.627,3.059,3.336,4.437,5.092c-3.388,1.101,54.469,57.718,100.172,94.145
			c-14.647,58.546-61.676,99.992-70.454,107.336c-58.698-45.13-106.952-92.759-133.335-127.63
			C2089.79,831.552,2180.309,759.662,2231.209,814.642z"/>
		<path style="fill:#F99370;" d="M2259.342,724.388c33.021,47.634,63.803,107.511,57.455,166.128l-0.054,0.052
			c-2.649,23.593-11.999,45.983-25.781,65.678c-68.834,119.257-292.226,115.688-294.035-37.589
			c3.051-51.544-34.18-101.851-36.547-147.924c-12.524-76.454,59.309-140.951,132.92-139.586
			C2159.834,632.396,2216.379,667.944,2259.342,724.388z"/>
		<path style="fill:#C16256;" d="M2077.424,850.405c-10.671-3.536-4.863-20.212,5.698-16.365
			C2093.792,837.576,2087.983,854.253,2077.424,850.405z"/>
		<path style="fill:#C16256;" d="M2016.434,892.085c-10.671-3.536-4.864-20.213,5.697-16.365
			C2032.801,879.256,2026.993,895.933,2016.434,892.085z"/>
		<path style="fill:#C16256;" d="M2084.682,930.537c3.873-3.67,13.728-10.36,8.485-15.364c-1.595-0.862-3.594-0.254-4.443,1.329
			c-5.488,10.16-20.529,16.981-25.504,14.87c-1.753-0.745-1.253-3.627-0.524-5.915c6.845-19.396-11.826-73.152-15.59-52.838
			c0.151,0.332,14.993,33.126,9.344,50.847C2051.986,945.424,2072.663,939.193,2084.682,930.537z"/>
		<path style="fill:#E57D61;" d="M2259.342,724.388c33.021,47.634,63.803,107.511,57.455,166.128l-0.054,0.052
			c-3.497-39.781-40.468-100.758-40.468-100.758l-29.991-14.093c-187.706,91.578-286.045-35.225-286.045-35.225
			C1988.614,587.029,2187.322,611.834,2259.342,724.388z"/>
		<path style="fill:#662948;" d="M1965.624,715.619c0,0,97.554,124.479,270.53,47.713l21.593-69.641
			C2217.946,562.495,2012.397,511.503,1965.624,715.619z"/>
		<path style="fill:#F99370;" d="M2305.588,720.019c35.549,55.602-35.143,99.706-69.436,43.31
			C2200.605,707.731,2271.297,663.626,2305.588,720.019z"/>
		<path style="fill:#C16256;" d="M2299.731,744.268c-0.092-19.519-23.619-36.312-32.091-34.945
			c-16.473,1.582-29.287,21.633-23.512,25.151c7.48,1.822,7.349-17.257,23.648-18.594
			C2283.768,713.781,2290.383,745.708,2299.731,744.268z"/>
		<path style="fill:#C16256;" d="M2274.489,762.188c4.58-4.909-10.542-24.173,6.216-43.907c1.22-1.34,1.124-3.413-0.217-4.632
			C2258.025,716.382,2266.609,771.66,2274.489,762.188z"/>
		<path style="fill:#F4D4BE;" d="M2297.546,763.449c6.719,6.783-4.094,17.183-10.611,10.206
			C2280.216,766.872,2291.029,756.472,2297.546,763.449z"/>
		<path style="fill:#C16256;" d="M2046.38,816.105c0.851-0.537,1.935-0.666,2.932-0.256c18.653,7.696,37.837-4.2,38.03-4.322
			l0.003-0.002c1.492-0.942,3.471-0.5,4.416,0.99c0.947,1.494,0.508,3.47-0.986,4.417c-0.006,0.004-0.016,0.01-0.03,0.018
			c-1.254,0.792-22.305,13.724-43.875,4.821c-1.638-0.675-2.415-2.548-1.74-4.181
			C2045.392,816.952,2045.839,816.447,2046.38,816.105z"/>
		<path style="fill:#C16256;" d="M1993.925,868.516c0.217-0.404,0.526-0.772,0.922-1.061c17.866-13.109,17.065-31.136,17.055-31.321
			c-0.097-1.763,1.26-3.274,3.021-3.376c1.765-0.099,3.277,1.254,3.375,3.022c0.049,0.875,0.969,21.692-19.661,36.841
			c-1.425,1.045-3.431,0.739-4.478-0.688C1993.404,870.906,1993.357,869.571,1993.925,868.516z"/>
		<path style="fill:#C16256;" d="M2128.736,910.407c-0.228,0.398-0.545,0.758-0.949,1.038
			c-18.19,12.655-17.844,30.696-17.838,30.881c0.052,1.765-1.342,3.241-3.105,3.298c-1.767,0.055-3.244-1.336-3.298-3.106
			c-0.027-0.876-0.422-21.71,20.583-36.334c1.45-1.008,3.448-0.652,4.459,0.8C2129.316,908.031,2129.33,909.366,2128.736,910.407z"
			/>
		<path style="fill:#A523A2;" d="M2827.38,1579.988c-0.045,0.052-0.079,0.105-0.124,0.157
			c-19.477-11.558-39.225-26.238-58.711-43.58c-43.638-37.749-85.283-56.133-124.761-65.397
			c68.822-120.639,57.902-216.25-9.707-267.078c-84.295-63.379-154.663-157.323-154.663-157.323l212.42-130.721
			C3058.229,1153.872,2878.046,1514.937,2827.38,1579.988z"/>
		<path style="fill:#A523A2;" d="M2380.081,907.962c16.812,40.438,33.19,114.741-20.444,157.63
			c-53.634,42.889-109.092-17.127-109.092-17.127c14.041-16.845,30.721-14.702,30.721-14.702
			c59.315,24.734,80.312-59.153,77.253-103.94L2380.081,907.962z"/>
		<path style="fill:#CE4ABF;" d="M2854.541,1433.213c-71.865,142.313-502.036,236.347-703.79,86.356
			c-9.829-7.293-19.117-15.188-27.792-23.671c26.578-40.769,14.911-94.034,14.911-94.034c9.949-7.245,20.979-13.169,32.815-18.071
			c140.703-58.131,396.118,30.544,323.676-199.098c-63.262-200.492-113.728-276.767-113.728-276.767
			C2628.876,700.97,3001.167,1142.832,2854.541,1433.213z"/>
		<path style="fill:#A523A2;" d="M2144.38,1409.814c-1.607,0-3.197-0.713-4.264-2.076c-1.837-2.351-1.426-5.744,0.923-7.584
			c1.74-1.363,43.446-33.471,116.189-40.577c11.373-1.11,23.063-2.157,34.37-3.169c90.085-8.065,183.237-16.404,203.269-64.854
			c22.766-55.059-33.892-189.602-34.466-190.954c-1.169-2.748,0.112-5.923,2.86-7.091c2.744-1.17,5.922,0.11,7.091,2.859
			c2.421,5.692,58.998,140.086,34.509,199.318c-10.245,24.777-36.603,42.256-80.576,53.434
			c-38.051,9.672-85.671,13.935-131.723,18.058c-11.284,1.01-22.953,2.055-34.283,3.162c-69.414,6.78-110.172,38.015-110.575,38.329
			C2146.716,1409.44,2145.543,1409.814,2144.38,1409.814z"/>
		<path style="fill:#A523A2;" d="M2150.751,1519.568c-9.829-7.293-19.117-15.188-27.792-23.671
			c26.578-40.769,14.911-94.034,14.911-94.034c9.949-7.245,20.979-13.169,32.815-18.071l2.006,0.961
			C2202.575,1466.532,2150.751,1519.568,2150.751,1519.568z"/>
		<path style="fill:#F99370;" d="M2120.091,1401.961c0,0-65.698-27.297-100.761-24.7c-29.998,2.222-61.699,12.514-98.033,31.168
			c-22.299,11.448-22.041,24.382-22.041,24.382c-7.547,12.17,1.968,16.788,1.968,16.788c-5.051,16.187,20.073,13.812,20.073,13.812
			c13.836,30.208,81.121-3.035,107.17,4.194c25.45,7.062,40.904,28.288,76.328,25.373
			C2104.795,1492.979,2128.775,1461.98,2120.091,1401.961z"/>
		<path style="fill:#E57D61;" d="M1899.258,1434.72c-0.599,0-1.188-0.281-1.56-0.808c-0.607-0.86-0.402-2.05,0.458-2.657
			c0.449-0.317,45.581-31.717,107.331-34.307c1.083-0.066,1.941,0.773,1.985,1.825c0.045,1.053-0.772,1.941-1.825,1.985
			c-60.586,2.542-104.851,33.302-105.291,33.612C1900.021,1434.606,1899.638,1434.72,1899.258,1434.72z"/>
		<path style="fill:#E57D61;" d="M1901.226,1451.508c-0.613,0-1.214-0.295-1.583-0.841c-0.589-0.873-0.359-2.058,0.514-2.647
			c0.447-0.302,45.427-30.178,109.01-30.178c1.054,0,1.907,0.854,1.907,1.907s-0.854,1.907-1.907,1.907
			c-62.366,0-106.438,29.23-106.875,29.525C1901.964,1451.402,1901.593,1451.508,1901.226,1451.508z"/>
		<path style="fill:#E57D61;" d="M1921.299,1465.32c-0.679,0-1.335-0.362-1.68-1.001c-0.501-0.927-0.155-2.084,0.771-2.584
			c0.435-0.234,44.03-23.437,97.281-21.396c1.053,0.041,1.873,0.927,1.833,1.979c-0.041,1.053-0.892,1.858-1.979,1.833
			c-52.159-1.999-94.896,20.709-95.321,20.939C1921.915,1465.247,1921.604,1465.32,1921.299,1465.32z"/>
	</g>
	<g id="_x34_">
		<path style="fill:#C8D1FC;" d="M3800,1021.21v977.541c-140.751-26.831-384.198-60.919-582.396-76.383
			c-113.968-11.042-245.491-9.06-361.393-36.708c-31.229-7.438-61.328-17.038-89.648-29.63v-0.012
			c-149.378-63.466-205.238-180.102-161.73-316.767c40.24-128.699,157.356-185.112,251.498-269.113
			c132.34-98.588,165.611-229.654,163.184-329.275c-0.925-37.981,88.399-54.166,208.675-52.256h0.012
			C3420.295,891.658,3691.355,940.873,3800,1021.21z"/>
		<path style="fill:#E1E7FF;" d="M3149.211,1270.137c-122.27,126.704-485.802,321.429-293,615.523
			c-31.229-7.438-61.328-17.038-89.648-29.63v-0.012c-149.378-63.466-205.238-180.102-161.73-316.767
			c40.24-128.699,157.356-185.112,251.498-269.113c132.34-98.588,165.611-229.654,163.184-329.275
			c-0.925-37.981,88.399-54.166,208.675-52.256C3228.19,888.606,3271.494,1143.42,3149.211,1270.137z"/>
	</g>
	<g id="_x33_">
		<path style="fill:#8A9EDD;" d="M1006.595,1460.224L1006.595,1460.224c6.464-2.066,13.379,1.5,15.444,7.964l13.994,43.79
			c2.066,6.464-1.5,13.379-7.964,15.444l0,0c-6.464,2.066-13.379-1.5-15.444-7.964l-13.994-43.79
			C996.565,1469.204,1000.131,1462.289,1006.595,1460.224z"/>
		<path style="fill:#7689D6;" d="M1024.464,1227.781c-27.668-20.864-62.953-33.335-101.363-33.253
			c-88.575,0.188-160.216,67.052-160.014,149.344c0.088,35.685,13.671,68.411,36.254,94.021
			c29.488,33.445,74.326,54.75,124.492,54.644c88.575-0.188,160.216-67.052,160.014-149.344
			C1083.733,1296.585,1060.597,1255.025,1024.464,1227.781z"/>
		<path style="fill:#7689D6;" d="M878.778,1460.224L878.778,1460.224c-6.464-2.066-13.379,1.5-15.444,7.964l-13.994,43.79
			c-2.066,6.464,1.5,13.379,7.964,15.444l0,0c6.464,2.066,13.379-1.5,15.444-7.964l13.994-43.79
			C888.807,1469.204,885.242,1462.289,878.778,1460.224z"/>
		<path style="fill:#8A9EDD;" d="M1039.247,1227.781c-24.434-20.864-55.596-33.335-89.517-33.253
			c-78.224,0.188-141.493,67.052-141.315,149.344c0.077,35.685,12.073,68.411,32.017,94.021
			c26.042,33.445,65.641,54.75,109.944,54.644c78.224-0.188,141.493-67.052,141.315-149.344
			C1091.589,1296.585,1071.157,1255.025,1039.247,1227.781z"/>
		<ellipse style="fill:#B8D2FF;" cx="950.052" cy="1343.532" rx="120.136" ry="126.384"/>
		<path style="fill:#3B679B;" d="M866.31,1291.589c0.003,1.29-0.989,2.339-2.216,2.342c-1.227,0.003-2.223-1.041-2.226-2.331
			s0.989-2.339,2.216-2.342C865.311,1289.255,866.307,1290.299,866.31,1291.589z"/>
		<path style="fill:#3B679B;" d="M902.512,1253.33c0.003,1.29-0.989,2.339-2.216,2.342c-1.227,0.003-2.223-1.041-2.226-2.331
			c-0.003-1.29,0.989-2.339,2.216-2.342C901.513,1250.996,902.509,1252.04,902.512,1253.33z"/>
		<path style="fill:#3B679B;" d="M1001.643,1253.093c0.003,1.29-0.989,2.339-2.216,2.342c-1.227,0.003-2.223-1.041-2.226-2.331
			s0.989-2.339,2.216-2.342C1000.644,1250.759,1001.641,1251.802,1001.643,1253.093z"/>
		<path style="fill:#3B679B;" d="M1002.035,1433.723c0.003,1.29-0.989,2.339-2.216,2.342c-1.227,0.003-2.223-1.041-2.226-2.331
			c-0.003-1.29,0.989-2.339,2.216-2.342C1001.035,1431.389,1002.032,1432.433,1002.035,1433.723z"/>
		<path style="fill:#3B679B;" d="M902.904,1433.961c0.003,1.29-0.989,2.339-2.216,2.342c-1.227,0.003-2.223-1.041-2.226-2.331
			c-0.003-1.29,0.989-2.339,2.216-2.342C901.904,1431.627,902.901,1432.671,902.904,1433.961z"/>
		<path style="fill:#3B679B;" d="M866.536,1395.876c0.003,1.29-0.989,2.339-2.216,2.342c-1.227,0.003-2.223-1.041-2.226-2.331
			c-0.003-1.29,0.989-2.339,2.216-2.342C865.537,1393.542,866.533,1394.586,866.536,1395.876z"/>
		<path style="fill:#3B679B;" d="M1038.237,1395.464c0.003,1.29-0.989,2.339-2.216,2.342c-1.226,0.003-2.223-1.041-2.226-2.331
			s0.989-2.339,2.216-2.342C1037.237,1393.13,1038.234,1394.174,1038.237,1395.464z"/>
		<path style="fill:#3B679B;" d="M1038.011,1291.177c0.003,1.29-0.989,2.339-2.216,2.342s-2.223-1.041-2.226-2.331
			s0.989-2.339,2.216-2.342C1037.011,1288.843,1038.008,1289.887,1038.011,1291.177z"/>
		<path style="fill:#3B679B;" d="M855.363,1343.759c0.006,2.581-1.978,4.678-4.432,4.684c-2.453,0.006-4.446-2.082-4.452-4.662
			c-0.006-2.581,1.979-4.678,4.432-4.683C853.364,1339.091,855.357,1341.178,855.363,1343.759z"/>
		<path style="fill:#3B679B;" d="M1053.626,1343.284c0.006,2.581-1.979,4.678-4.432,4.683c-2.453,0.006-4.446-2.081-4.452-4.662
			c-0.006-2.581,1.979-4.678,4.432-4.684C1051.627,1338.616,1053.62,1340.703,1053.626,1343.284z"/>
		<path style="fill:#3B679B;" d="M954.72,1447.808c0.006,2.581-1.978,4.678-4.432,4.683c-2.453,0.006-4.446-2.081-4.452-4.662
			c-0.006-2.581,1.979-4.678,4.432-4.684C952.722,1443.14,954.715,1445.228,954.72,1447.808z"/>
		<path style="fill:#3B679B;" d="M954.268,1239.234c0.006,2.581-1.979,4.678-4.432,4.683c-2.453,0.006-4.446-2.081-4.452-4.662
			s1.979-4.678,4.432-4.684C952.269,1234.566,954.263,1236.654,954.268,1239.234z"/>
		<path style="fill:#3B679B;" d="M950.052,1347.738c-0.54,0-1.085-0.104-1.603-0.318c-1.571-0.648-2.597-2.178-2.602-3.876
			l-0.226-84.127c-0.006-2.323,1.872-4.211,4.194-4.217c0.004,0,0.008,0,0.012,0c2.317,0,4.199,1.875,4.205,4.193l0.199,74.013
			l31.474-31.474c1.643-1.643,4.305-1.643,5.947,0c1.643,1.643,1.643,4.305,0,5.947l-38.626,38.626
			C952.222,1347.311,951.146,1347.738,950.052,1347.738z"/>
		<path style="fill:#8A9EDD;" d="M843.232,1233.338L843.232,1233.338c5.831-3.527,7.677-11.127,4.115-16.936l-19.374-31.597
			l-20.95,12.846l19.375,31.597C829.93,1235.008,837.451,1236.836,843.232,1233.338z"/>
		<path style="fill:#FCB4B4;" d="M880.424,1186.684c-0.01,0.007-101.444,62.206-101.458,62.217
			C715.686,1166.638,835.616,1092.85,880.424,1186.684z"/>
		<path style="fill:#F49F9F;" d="M880.424,1186.684l-101.421,62.193c1.907-1.333,81.154-56.964,44.937-105.886l0.019-0.002
			l0.014,0.002c1.687,0.108,3.359,0.286,5.024,0.535c16.795,2.505,32.41,12.147,41.984,27.758L880.424,1186.684z"/>
		<path style="fill:#8A9EDD;" d="M1026.621,1233.338L1026.621,1233.338c-5.831-3.527-7.677-11.127-4.115-16.936l19.374-31.597
			l20.95,12.846l-19.374,31.597C1039.924,1235.008,1032.403,1236.836,1026.621,1233.338z"/>
		<path style="fill:#FCB4B4;" d="M989.43,1186.684c0.01,0.007,101.444,62.206,101.458,62.217
			C1154.168,1166.638,1034.238,1092.85,989.43,1186.684z"/>
		<path style="fill:#F49F9F;" d="M989.43,1186.684l101.421,62.193c-1.907-1.333-81.154-56.964-44.937-105.886l-0.019-0.002
			l-0.014,0.002c-1.687,0.108-3.359,0.286-5.024,0.535c-16.795,2.505-32.41,12.147-41.984,27.758L989.43,1186.684z"/>
		<polygon style="fill:#8A9EDD;" points="931.018,1198.503 950.699,1198.458 950.57,1160.606 930.889,1160.65 		"/>
		<path style="fill:#7689D6;" d="M983.042,1160.532c0.012,5.434-4.383,9.849-9.817,9.862l-64.946,0.148
			c-2.604,0.006-4.975-0.998-6.736-2.649c0,0,0,0,0-0.004c-1.92-1.787-3.12-4.334-3.126-7.165c-0.013-5.434,4.383-9.849,9.817-9.862
			l64.946-0.148c2.717-0.006,5.179,1.088,6.963,2.867C981.927,1155.358,983.036,1157.815,983.042,1160.532z"/>
		<path style="fill:#677CC1;" d="M983.042,1160.532c0.012,5.434-4.383,9.849-9.817,9.862l-64.946,0.148
			c0,0,64.941-2.272,64.901-19.827c2.717-0.006,5.179,1.088,6.963,2.867C981.927,1155.358,983.036,1157.815,983.042,1160.532z"/>
	</g>
	<g id="_x32_">
		<path style="fill:#667ECC;" d="M709.239,1508.005c0,4.399-1.769,8.368-4.636,11.237c-2.867,2.869-6.833,4.639-11.228,4.639
			H380.297c-8.763,0-15.891-7.107-15.891-15.876c0-4.398,1.769-8.367,4.663-11.264c2.868-2.87,6.861-4.639,11.228-4.639h313.077
			C702.137,1492.101,709.239,1499.208,709.239,1508.005z"/>
		<path style="fill:#667ECC;" d="M672.311,1492.101H401.36c0-21.213,8.602-40.388,22.484-54.28
			c13.881-13.918,33.068-22.5,54.238-22.5h117.481C637.957,1415.321,672.311,1449.702,672.311,1492.101z"/>
		<path style="fill:#536DB7;" d="M552.901,855.761v559.56c0,8.877-7.182,16.091-16.079,16.091c-8.87,0-16.079-7.214-16.079-16.091
			v-559.56c0-8.877,7.208-16.091,16.079-16.091C545.719,839.67,552.901,846.884,552.901,855.761z"/>
		<path style="fill:#667ECC;" d="M552.901,987.235v428.086c0,8.877-7.182,16.091-16.079,16.091V987.235H552.901z"/>
		<path style="fill:#536DB7;" d="M536.823,1431.412c0,0-105.356-4.589-106.735,60.689c0,0-27.36,13.355,0,31.78h-49.79
			c-8.763,0-15.891-7.107-15.891-15.876c0-4.398,1.769-8.367,4.663-11.264c2.868-2.87,6.861-4.639,11.228-4.639h21.063
			c0-21.213,8.602-40.388,22.484-54.28c13.881-13.918,33.068-22.5,54.238-22.5h58.754L536.823,1431.412z"/>
		<path style="fill:#667ECC;" d="M272.978,1084.58h526.376c20.581,0,36.155-18.572,32.622-38.826l-81.023-463.819
			c-8.713-50.017-52.106-86.543-102.84-86.578c-0.035,0-0.069,0-0.069,0H424.288c-50.769,0-94.196,36.526-102.943,86.578
			l-80.989,463.819C236.823,1066.009,252.397,1084.58,272.978,1084.58z"/>
		<path style="fill:#536DB7;" d="M272.978,1084.58c0,0,47.476-255.339,72.001-401.409c24.527-146.07,79.309-187.814,79.309-187.814
			c-50.769,0-94.196,36.526-102.943,86.578l-80.989,463.819C236.823,1066.009,252.397,1084.58,272.978,1084.58z"/>
	</g>
	<g id="_x31_">
		<path style="fill:#667ECC;" d="M1113.272,1603.934V2000H106.652v-396.066c0-44.674,36.181-80.884,80.819-80.884h845.02
			C1077.09,1523.05,1113.272,1559.259,1113.272,1603.934z"/>
		<path style="fill:#8A9EDD;" d="M1370.504,1603.934V2000H363.884v-396.066c0-44.674,36.181-80.884,80.819-80.884h845.02
			C1334.323,1523.05,1370.504,1559.259,1370.504,1603.934z"/>
		<path style="fill:#667ECC;" d="M1285.478,1667.47v229.009c0,32.761-26.536,59.318-59.277,59.318H508.203
			c-32.73,0-59.266-26.557-59.266-59.318V1667.47c0-32.761,26.536-59.318,59.266-59.318h717.998
			C1258.942,1608.152,1285.478,1634.709,1285.478,1667.47z"/>
		<path style="fill:#AAC7F7;" d="M1285.478,1667.47v229.009c0,32.761-26.536,59.318-59.277,59.318H559.65
			c-32.73,0-59.266-26.557-59.266-59.318V1667.47c0-32.761,26.536-59.318,59.266-59.318h666.552
			C1258.942,1608.152,1285.478,1634.709,1285.478,1667.47z"/>
		<path style="fill:#667ECC;" d="M942.686,1781.991c0,26.294-18.75,48.249-43.578,53.184c-3.444,0.724-6.973,1.064-10.629,1.064
			c-29.973,0-54.249-24.294-54.249-54.248c0-29.996,24.276-54.29,54.249-54.29c3.656,0,7.185,0.341,10.629,1.063
			C923.936,1733.7,942.686,1755.655,942.686,1781.991z"/>
		<path style="fill:#667ECC;" d="M834.23,1781.949c0-26.294,18.75-48.249,43.578-53.184c24.872,4.935,43.62,26.89,43.62,53.184
			c0,26.336-18.748,48.291-43.62,53.227C852.98,1830.24,834.23,1808.285,834.23,1781.949z"/>
		<path style="fill:#8A9EDD;" d="M855.488,1781.949c0-26.294,18.749-48.249,43.578-53.184c24.871,4.935,43.621,26.89,43.621,53.184
			c0,26.336-18.749,48.291-43.621,53.227C874.237,1830.24,855.488,1808.285,855.488,1781.949z"/>
	</g>
</g>
</svg>
