<svg width="30" height="30" viewBox="0 0 30 30" fill="none" xmlns="http://www.w3.org/2000/svg">
<path d="M27.2386 16.463C26.2902 16.7163 25.3125 16.8439 24.3308 16.8424C21.3418 16.8424 18.5348 15.6804 16.4264 13.572C15.0425 12.1791 14.0475 10.448 13.5406 8.55102C13.0336 6.65406 13.0323 4.6574 13.5368 2.75979C13.5999 2.52253 13.5995 2.27286 13.5357 2.03581C13.4718 1.79876 13.3467 1.58267 13.173 1.40921C12.9993 1.23576 12.783 1.11104 12.5458 1.04757C12.3087 0.984096 12.059 0.984103 11.8218 1.04759C9.4459 1.67979 7.27836 2.92653 5.53724 4.66239C0.080036 10.1196 0.080036 19.0026 5.53724 24.4626C6.83452 25.7668 8.37749 26.8008 10.0769 27.5049C11.7764 28.209 13.5985 28.5692 15.438 28.5646C17.2771 28.5698 19.0989 28.21 20.7979 27.5061C22.497 26.8022 24.0394 25.7682 25.336 24.464C27.0728 22.7222 28.3201 20.5537 28.9522 18.1766C29.0155 17.9394 29.0153 17.6897 28.9517 17.4526C28.888 17.2155 28.7631 16.9993 28.5895 16.8257C28.4159 16.6521 28.1997 16.5272 27.9626 16.4636C27.7255 16.3999 27.4758 16.3997 27.2386 16.463ZM23.3578 22.4844C22.3203 23.5273 21.0862 24.3542 19.727 24.9173C18.3679 25.4803 16.9106 25.7683 15.4394 25.7646C13.9677 25.7685 12.5098 25.4804 11.1502 24.9172C9.79049 24.3539 8.55603 23.5265 7.51824 22.483C3.15304 18.1164 3.15304 11.01 7.51824 6.64339C8.36295 5.80225 9.33654 5.10136 10.4022 4.56719C10.2464 6.58185 10.5272 8.60641 11.2254 10.5026C11.9237 12.3988 13.023 14.122 14.4482 15.5544C15.8772 16.9845 17.5999 18.0871 19.4969 18.7859C21.394 19.4847 23.4202 19.7631 25.4354 19.6018C24.9007 20.6671 24.1993 21.6402 23.3578 22.4844Z" fill="#F6F7FB" stroke="#F6F7FB"/>
</svg>
