<svg width="380" height="352" viewBox="0 0 380 352" fill="none" xmlns="http://www.w3.org/2000/svg">
<path opacity="0.75" d="M379.801 204.99C379.617 209.033 379.301 213.005 378.867 216.897C377.475 229.353 374.854 241.008 371.369 251.688C371.078 252.582 370.782 253.468 370.475 254.347C367.147 264.002 363.113 272.821 358.655 280.667C357.116 283.371 355.529 285.962 353.902 288.431C347.486 298.165 340.464 306.009 333.541 311.609C328.004 316.093 313.828 323.962 313.828 323.962C313.828 323.962 300.787 332.244 248.123 339.939C218.299 344.296 204.785 342.36 133.488 351.074C62.1902 359.789 28.1724 304.111 28.1724 304.111C-48.717 181.137 48.9161 125.35 116.712 141.436C131.994 145.062 150.354 149.848 163.777 159.35C164.273 159.702 164.771 160.007 165.273 160.276C165.345 160.315 165.415 160.353 165.488 160.389C165.559 160.428 176.886 160.389 165.704 160.498C182.732 168.834 199.664 145.458 216.724 124.316C221.079 118.921 225.347 113.939 229.525 109.359C229.532 109.353 229.538 109.344 229.545 109.338C231.171 107.554 232.784 105.831 234.383 104.167C244.475 93.6725 254.032 85.5282 263.062 79.452C264.124 78.7371 265.179 78.0498 266.227 77.3925C269.148 75.557 272.012 73.9393 274.818 72.5328C286.56 66.6402 297.309 64.3949 307.074 65.0501C307.584 65.0843 308.09 65.127 308.593 65.1782C309.104 65.2294 309.609 65.287 310.113 65.3532C323.678 67.1396 335.255 74.618 344.87 85.6734C359.368 102.342 369.395 127.144 375.019 152.81C376.135 157.896 377.077 163.016 377.846 168.115C378.935 175.331 379.588 182.393 379.855 189.282C379.879 189.867 379.9 190.45 379.917 191.033C379.939 191.72 379.954 192.407 379.968 193.09C379.968 193.22 379.973 193.348 379.975 193.478C380.039 197.378 379.98 201.219 379.804 204.995L379.801 204.99Z" fill="#74B2E7"/>
<path opacity="0.1" d="M312.893 103.204V223.505L309.26 228.32L249.655 263.258L214.915 283.109L75.238 203.577L132.556 145.793C147.842 148.807 152.151 152.433 165.578 160.331C168.903 161.77 166.573 160.878 167.075 161.101C167.577 161.325 167.218 161.165 167.289 161.196C167.362 161.226 167.432 161.256 167.505 161.286C184.49 168.157 198.232 144.807 215.969 127.972C216.515 127.454 217.064 126.933 217.612 126.406C217.775 126.25 217.94 126.092 218.105 125.932C218.407 125.643 218.708 125.356 219.009 125.063C219.304 124.779 219.598 124.495 219.893 124.208C220.189 123.922 220.483 123.636 220.78 123.349C221.076 123.062 221.372 122.774 221.67 122.483C222.264 121.905 222.858 121.323 223.455 120.739C223.634 120.565 223.813 120.391 223.99 120.216C224.349 119.865 224.71 119.51 225.073 119.157C225.132 119.098 225.192 119.041 225.251 118.983C225.672 118.571 226.094 118.158 226.518 117.744C227.265 117.012 228.019 116.275 228.775 115.537C228.782 115.532 228.789 115.525 228.795 115.52C230.421 114.036 232.035 112.605 233.635 111.221C243.729 102.497 253.289 95.7271 262.321 90.6761C263.383 90.0817 264.439 89.5105 265.487 88.964C280.629 81.0566 299.275 102.42 311.376 103.096C311.887 103.124 312.393 103.16 312.896 103.203L312.893 103.204Z" fill="white"/>
<path opacity="0.6" d="M306.733 65.0503C297.051 64.394 286.391 66.643 274.747 72.5453C271.991 73.9434 269.178 75.5425 266.311 77.3596C266.282 77.3767 266.255 77.3959 266.226 77.413C265.955 77.5841 265.685 77.7594 265.413 77.9347C264.642 78.4328 263.867 78.9458 263.087 79.476C254.133 85.5622 244.656 93.72 234.649 104.231C233.062 105.897 231.462 107.624 229.851 109.411C229.844 109.418 229.837 109.426 229.831 109.433C229.081 110.322 228.334 111.209 227.593 112.092C227.475 112.231 227.355 112.372 227.238 112.511C226.936 112.87 226.638 113.227 226.337 113.584C226.278 113.655 226.219 113.723 226.16 113.794C225.802 114.219 225.443 114.647 225.087 115.07C224.911 115.279 224.734 115.489 224.557 115.701C223.965 116.404 223.376 117.105 222.787 117.802C222.491 118.153 222.198 118.499 221.904 118.845C221.61 119.191 221.318 119.536 221.025 119.88C220.733 120.226 220.441 120.568 220.149 120.91C219.687 121.453 219.226 121.992 218.765 122.529V212.122H308.237V65.1765C307.737 65.1251 307.236 65.0824 306.73 65.0482L306.733 65.0503Z" fill="#468FCE"/>
<path d="M220.629 287.823L225.375 298.812L234.52 319.986C234.675 320.342 235.012 320.572 235.383 320.572H235.459C236.131 320.572 236.615 319.893 236.435 319.209L229.176 291.667L228.117 287.65L220.631 287.823H220.629Z" fill="#42599B"/>
<path d="M225.288 298.301C224.843 293.533 229.017 291.484 229.017 291.484L227.978 287.65L220.629 287.815L225.288 298.301Z" fill="#2E3B61"/>
<path d="M270.957 287.823L275.982 298.812L285.665 319.986C285.829 320.342 286.186 320.572 286.579 320.572H286.659C287.37 320.572 287.883 319.893 287.693 319.209L280.007 291.667L278.885 287.65L270.959 287.823H270.957Z" fill="#42599B"/>
<path d="M276.133 298.301C275.639 293.533 280.277 291.484 280.277 291.484L279.122 287.65L270.957 287.815L276.133 298.301Z" fill="#2E3B61"/>
<path d="M285.703 265.379H61.4238C60.3029 265.379 59.3943 266.339 59.3943 267.524V286.473C59.3943 287.658 60.3029 288.618 61.4238 288.618H285.703C286.824 288.618 287.733 287.658 287.733 286.473V267.524C287.733 266.339 286.824 265.379 285.703 265.379Z" fill="#42599B"/>
<path d="M69.614 287.65L68.5551 291.667L61.2959 319.209C61.1164 319.895 61.6005 320.572 62.2724 320.572H62.3482C62.7187 320.572 63.0547 320.342 63.2111 319.986L72.3559 298.814L77.1021 287.823L69.6156 287.65H69.614Z" fill="#2E3B61"/>
<path d="M109.69 287.65L108.631 291.667L101.371 319.209C101.192 319.895 101.676 320.572 102.348 320.572H102.424C102.794 320.572 103.13 320.342 103.287 319.986L112.431 298.814L117.178 287.823L109.691 287.65H109.69Z" fill="#2E3B61"/>
<path d="M142.947 209.217H58.7892C57.5792 209.217 56.5983 210.237 56.5983 211.495V286.34C56.5983 287.598 57.5792 288.618 58.7892 288.618H142.947C144.157 288.618 145.138 287.598 145.138 286.34V211.495C145.138 210.237 144.157 209.217 142.947 209.217Z" fill="#2E3B61"/>
<path d="M61.4217 209.217H145.906C147.026 209.217 147.934 210.159 147.934 211.319V274.897C147.934 276.057 147.026 276.999 145.906 276.999H61.4217C60.3024 276.999 59.3943 276.057 59.3943 274.897V211.319C59.3943 210.159 60.3024 209.217 61.4217 209.217Z" fill="#5974C6"/>
<path d="M147.934 250.759V274.897C147.934 276.052 147.02 276.999 145.906 276.999H61.4217C60.3058 276.999 59.3943 276.052 59.3943 274.897V211.319C59.3943 210.162 60.3075 209.217 61.4217 209.217H70.7937C76.6919 217.002 98.1636 241.77 136.02 247.065C141.052 247.769 144.959 249.046 147.932 250.761L147.934 250.759Z" fill="#42599B"/>
<path d="M75.2382 271.189C75.2382 271.189 59.9392 269.909 59.3943 269.515V254.79C62.6204 251.59 68.9553 247.949 68.9553 247.949L75.2382 271.187V271.189Z" fill="#334174"/>
<path d="M81.7623 229.552C82.277 229.552 82.6943 228.901 82.6943 228.099C82.6943 227.297 82.277 226.647 81.7623 226.647C81.2476 226.647 80.8303 227.297 80.8303 228.099C80.8303 228.901 81.2476 229.552 81.7623 229.552Z" fill="#334174"/>
<path d="M128.828 229.552C129.6 229.552 130.226 228.901 130.226 228.099C130.226 227.297 129.6 226.647 128.828 226.647C128.056 226.647 127.43 227.297 127.43 228.099C127.43 228.901 128.056 229.552 128.828 229.552Z" fill="#334174"/>
<path d="M81.7623 252.791C82.277 252.791 82.6943 252.141 82.6943 251.339C82.6943 250.537 82.277 249.886 81.7623 249.886C81.2476 249.886 80.8303 250.537 80.8303 251.339C80.8303 252.141 81.2476 252.791 81.7623 252.791Z" fill="#334174"/>
<path d="M128.828 252.791C129.6 252.791 130.226 252.141 130.226 251.339C130.226 250.537 129.6 249.886 128.828 249.886C128.056 249.886 127.43 250.537 127.43 251.339C127.43 252.141 128.056 252.791 128.828 252.791Z" fill="#334174"/>
<path d="M212.241 267.524V286.473C212.241 287.654 211.32 288.618 210.194 288.618H59.5771C58.4511 288.618 57.5303 287.652 57.5303 286.473V267.524C57.5303 266.343 58.4511 265.379 59.5771 265.379H210.194C211.32 265.379 212.241 266.345 212.241 267.524Z" fill="#2E3B61"/>
<path d="M106.687 248.918C106.687 248.918 105.128 261.99 106.687 266.347H112.518C112.518 266.347 110.901 251.273 106.687 248.918Z" fill="#465B8A"/>
<path d="M106.926 248.722C106.926 248.722 122.412 244.613 133.523 244.076C133.523 244.076 143.792 253.187 145.138 265.872L111.344 266.347C111.344 266.347 111.134 256.581 106.926 248.722Z" fill="#5974C6"/>
<path d="M69.3209 247.949C69.3209 247.949 66.3292 259.065 73.633 265.379L91.0821 265.307C91.0821 265.307 73.3901 250.306 69.3209 247.949Z" fill="#5974C6"/>
<path d="M69.6462 248.52C69.6462 248.52 84.9901 244.59 95.9986 244.076C95.9986 244.076 106.524 253.246 107.858 265.379H89.1238C89.1238 265.379 75.2615 262.292 69.6462 248.518V248.52Z" fill="#7992C8"/>
<path d="M106.37 246.1C101.907 247.145 99.6121 245.037 97.8092 242.862C97.6614 242.683 97.5152 242.506 97.374 242.327C95.6585 240.186 87.5177 232.875 83.2162 238.282C82.8079 238.796 82.4349 239.42 82.1039 240.176C82.1039 240.176 80.7127 240.716 80.3396 241.233C80.3396 241.233 80.7614 240.938 81.1226 240.952C80.38 241.631 79.4222 242.721 79.0442 244.092C78.8358 244.843 79.0543 246.044 79.5886 247.474C80.2472 249.237 81.3848 251.349 82.7962 253.4C85.7786 257.73 89.9792 261.782 93.454 261.692C92.5282 261.329 91.0865 260.479 88.9661 258.499C89.2635 258.75 92.0292 261.05 94.3714 261.572C100.97 260.244 112.281 268.275 113.746 270.22C113.746 270.22 116.899 262.648 117.12 259.623C117.537 253.903 115.864 243.872 106.365 246.098L106.37 246.1Z" fill="#002A5D"/>
<path d="M87.6395 264C87.6395 264 85.7357 263.478 84.3407 263.443C82.9458 263.408 79.7056 265.342 79.9072 265.368C80.1088 265.393 89.2181 265.368 89.2181 265.368L87.6395 264Z" fill="#BF8657"/>
<path d="M94.1727 261.466C94.16 261.494 95.5463 264.822 97.8077 262.78C99.2926 261.439 101.252 256.61 100.006 255.362C99.4133 254.768 97.0772 253.887 94.1568 249.886L93.9313 250.201L90.1501 255.497C90.1501 255.497 91.4412 257.015 92.5624 258.534C93.5057 259.809 94.3283 261.086 94.1695 261.466H94.1727Z" fill="#D39563"/>
<path d="M93.8764 249.277C93.8764 249.277 93.1955 245.637 91.8155 243.375C90.8298 241.76 85.7157 237.326 81.6982 243.019C81.6982 243.019 80.4723 244.606 80.03 246.907C79.6771 248.736 79.6407 251.916 85.1822 254.641L86.9267 255.696L93.8781 249.278L93.8764 249.277Z" fill="#002A5D"/>
<path d="M90.3959 258.373C90.3959 258.373 96.241 252.353 92.7857 248.396C89.3319 244.439 87.7588 240.997 83.8821 244.672C80.0054 248.349 80.6089 250.617 81.4695 252.247C82.3317 253.876 88.787 259.836 90.3959 258.371V258.373Z" fill="#DFA06C"/>
<path d="M80.8905 247.122C80.8905 247.122 86.9405 250.245 90.1822 248.254C93.4239 246.263 93.8782 244.332 93.8782 244.332C93.8782 244.332 90.3587 244.701 87.2813 242.14C87.2813 242.14 80.0936 243.459 80.8923 247.122H80.8905Z" fill="#002A5D"/>
<path d="M81.3349 247.075C81.3349 247.075 81.0435 249.369 81.6842 250.684C82.325 251.999 84.1419 254.213 83.4853 254.728C83.4853 254.728 79.2284 252.833 78.9844 249.624C78.7246 246.221 81.3349 247.077 81.3349 247.077V247.075Z" fill="#002A5D"/>
<path d="M87.374 256.551C87.374 256.551 88.2351 256.829 89.0639 256.513C90.2205 256.074 90.2806 254.292 90.0289 253.759C90.0289 253.759 88.2928 254.759 88.279 255.405C88.2721 255.677 87.187 255.774 87.3763 256.553L87.374 256.551Z" fill="#C88956"/>
<path d="M242.664 279.568C242.664 279.568 225.832 267.525 211.724 265.548C210.459 265.369 209.216 265.272 208.01 265.272C201.333 265.272 191.616 266.382 181.488 268.831C169.366 271.761 156.66 276.612 147.877 283.774C131.756 296.916 96.7151 302.175 96.7151 302.175C77.7459 284.025 84.8278 268.527 85.3346 265.74C85.3601 265.597 85.4247 265.44 85.5182 265.272C87.2764 262.155 100.136 254.772 98.5957 246.71C97.2269 239.55 103.08 236.998 113.414 235.517C115.342 235.242 117.425 235.001 119.65 234.777C146.529 232.059 167.804 244.696 187.524 243.89C193.205 243.657 198.493 243.899 203.389 244.487H203.396C203.545 244.505 203.695 244.524 203.843 244.542C203.858 244.542 203.875 244.546 203.89 244.549C234.41 248.389 249.496 265.739 249.496 265.739C250.002 272.676 242.665 279.566 242.665 279.566L242.664 279.568Z" fill="#468FCE"/>
<path d="M362.992 262.92C364.451 263.034 365.676 263.605 366.912 264.345C370.396 255.531 373.948 245.641 375.34 235.361C372.313 239.783 367.123 245.832 365.418 246.054C362.643 246.412 371.136 231.518 371.136 231.518C365.763 230.981 352.072 237.798 352.072 237.798C352.072 237.798 352.94 255.381 350.165 255.023C347.393 254.664 350.165 239.413 350.165 239.413C344.966 241.029 340.113 247.308 340.113 247.308C334.048 257.537 347.045 265.072 347.045 265.072C347.045 265.072 347.218 271.172 343.579 278.169C343.579 278.169 339.004 285.363 340.471 294.667H336.445C337.218 287.971 333.988 282.891 333.988 282.891C331.227 277.582 331.36 272.955 331.36 272.955C331.36 272.955 341.219 267.237 336.617 259.48C336.617 259.48 332.937 254.715 328.991 253.491C328.991 253.491 331.096 265.06 328.991 265.331C326.887 265.604 327.545 252.265 327.545 252.265C327.545 252.265 317.16 247.093 313.084 247.5C313.084 247.5 319.527 258.798 317.424 258.527C315.319 258.254 308.087 246.82 308.087 246.82C308.087 246.82 297.438 244.779 295.728 251.312C294.018 257.845 296.781 261.113 298.358 261.521C299.935 261.93 310.059 261.794 309.795 263.154C309.533 264.516 302.697 266.693 298.882 265.467C298.882 265.467 303.09 276.221 308.612 275.676C314.135 275.132 315.845 271.593 319.261 271.32C322.679 271.047 325.179 272 323.469 272.953C321.759 273.906 315.974 273.265 313.213 275.696C310.453 278.126 308.216 279.624 313.344 280.711C318.472 281.799 327.675 281.119 329.515 277.034C330.461 277.607 331.884 280.337 332.869 282.43C333.008 282.784 333.228 283.272 333.556 283.934C333.689 284.239 333.798 284.487 333.871 284.661C335.006 287.603 335.05 291.885 334.926 294.665H320.308V295.473H321.158C321.368 302.683 324.273 310.616 328.991 315.247C335.913 310.625 343.031 302.699 349.445 294.665H345.508C346.136 293.242 346.902 291.846 347.8 290.83C347.902 290.719 348.043 290.571 348.208 290.397C348.654 289.971 348.964 289.653 349.173 289.414C350.539 288.054 352.43 286.323 353.34 286.153C353.34 286.153 353.294 285.981 353.301 285.68C353.313 285.831 353.326 285.988 353.34 286.153C353.401 286.877 353.707 287.584 354.197 288.257C358.655 281.783 362.689 274.505 366.015 266.534C362.599 265.816 358.898 265.881 357.442 265.069C355.189 263.813 358.481 262.557 362.988 262.915L362.992 262.92ZM329.524 277.031C329.602 276.856 329.677 276.691 329.749 276.529C329.65 276.825 329.548 276.994 329.524 277.031ZM349.469 270.452C349.45 270.425 349.306 270.198 349.168 269.781C349.265 269.996 349.362 270.218 349.469 270.452ZM348.164 289.444C348.164 289.444 345.779 291.274 344.113 294.668H342.39C342.177 291.105 342.094 284.746 343.73 280.504C343.829 280.277 343.969 279.953 344.146 279.553C344.579 278.671 344.872 278.023 345.058 277.554C346.356 274.797 348.225 271.208 349.471 270.454C349.782 271.141 350.248 271.752 350.842 272.296C348.474 276.865 353.03 282.372 353.03 282.372C353.03 282.372 351.836 286.072 348.163 289.442L348.164 289.444ZM356.921 275.113C357.495 275.248 358.085 275.365 358.687 275.463C358.082 276.591 357.496 277.293 357.042 277.05C356.629 276.83 356.656 276.089 356.921 275.111V275.113Z" fill="#2184A8"/>
<path d="M253.59 257.256C249.48 253.168 241.269 253.627 237.715 254.066C237.931 253.028 237.814 251.945 237.208 251.295C237.203 251.28 237.201 251.266 237.194 251.25C236.171 248.155 234.984 247.951 234.984 247.951C234.287 248.789 233.98 249.687 233.846 250.444C233.262 250.452 232.702 250.502 232.214 250.566C231.255 248.125 230.249 247.949 230.249 247.949C228.693 249.823 229.077 251.993 229.022 252.226C229.022 252.226 229.327 252.371 229.758 252.529C229.034 255.596 233.915 257.092 235.635 256.799C236.015 256.735 236.366 256.514 236.672 256.194L239.93 265.379H256.395C256.395 265.379 258.878 262.52 253.585 257.255L253.59 257.256Z" fill="#2184A8"/>
<path opacity="0.2" d="M310.1 65.3476V116.222C309.601 116.37 309.101 116.503 308.598 116.617C308.098 116.734 307.598 116.833 307.095 116.918C301.737 117.813 296.297 116.839 290.986 113.162C272.004 100.02 272.327 83.183 275.2 72.4678C286.811 66.6256 297.439 64.3996 307.095 65.0492C307.6 65.0831 308.1 65.1254 308.598 65.1762C309.103 65.2269 309.602 65.2841 310.1 65.3497V65.3476Z" fill="white"/>
<path opacity="0.2" d="M203.851 244.558C194.863 243.88 164.207 261.374 151.907 249.779C139.369 237.957 113.45 235.525 113.45 235.525C115.387 235.248 117.48 235.006 119.715 234.78C146.722 232.043 168.098 244.766 187.913 243.954C193.621 243.72 198.935 243.963 203.853 244.556L203.851 244.558Z" fill="white"/>
<path opacity="0.2" d="M249.521 266.171C235.571 273.088 212.104 246.465 203.853 245.045C234.414 248.873 249.521 266.171 249.521 266.171Z" fill="white"/>
<path d="M181.484 268.928C169.362 271.849 156.656 276.686 147.874 283.827C131.754 296.931 96.7144 302.174 96.7144 302.174C77.7461 284.077 84.8278 268.624 85.3345 265.846C85.36 265.703 85.4246 265.546 85.5181 265.379C85.5181 265.379 92.1611 274.991 107.841 275.864C119.42 276.509 155.908 272.215 181.485 268.929L181.484 268.928Z" fill="#61A0D7"/>
<path opacity="0.2" d="M295.201 88.3573C295.272 84.7941 293.024 81.8334 290.181 81.7444C287.338 81.6555 284.976 84.4719 284.905 88.0352C284.834 91.5985 287.081 94.5592 289.924 94.6481C292.767 94.7371 295.13 91.9206 295.201 88.3573Z" fill="white"/>
<path opacity="0.6" d="M307.305 165.676V208.249H219.697V121.131C219.993 120.793 220.288 120.454 220.583 120.112C221.176 119.431 221.768 118.744 222.364 118.058C222.96 117.368 223.556 116.675 224.156 115.98C224.335 115.773 224.514 115.566 224.692 115.356C225.052 114.938 225.416 114.515 225.778 114.094C225.838 114.025 225.897 113.957 225.957 113.887C226.261 113.534 226.563 113.181 226.867 112.826C226.985 112.689 227.106 112.549 227.226 112.412C227.976 111.539 228.732 110.662 229.49 109.783C229.497 109.776 229.504 109.768 229.511 109.761C231.141 107.994 232.76 106.289 234.365 104.64C239.713 120.391 248.618 138.661 263.141 151.102C264.171 151.984 265.23 152.838 266.317 153.658C276.968 161.696 290.399 166.635 307.303 165.676H307.305Z" fill="#3292CE"/>
<path d="M308.584 65.0686C308.081 65.0172 307.577 64.9744 307.067 64.9402V212.173H219.933V120.86C219.467 121.404 219.004 121.943 218.54 122.48L216.901 124.37V215.996H310.1V65.2462C309.598 65.1777 309.093 65.12 308.584 65.0707V65.0686Z" fill="#384987"/>
<path d="M318.487 215.995H207.581C207.581 211.718 210.053 208.249 213.102 208.249H312.968C316.016 208.249 318.488 211.718 318.488 215.995H318.487Z" fill="#384987"/>
<path d="M266.297 77.5278V208.249H263.501V79.5769C264.439 78.8656 265.371 78.1818 266.297 77.5278Z" fill="#384987"/>
<path d="M97.6059 243.106C97.6059 243.106 91.7419 240.296 89.5077 238.699C87.2735 237.102 83.626 238.356 83.626 238.356C87.7467 232.745 95.5471 240.331 97.189 242.552C97.3242 242.736 97.4642 242.92 97.6059 243.108V243.106Z" fill="#003263"/>
<path d="M241.163 283.981C240.966 283.831 241.748 280.139 243.082 279.913C244.416 279.684 245.793 283.981 245.793 283.981C245.793 283.981 243.416 285.701 241.165 283.981H241.163Z" fill="#5974C6"/>
<path d="M96.6382 302.174C96.6382 302.174 94.2694 303.156 93.8779 305.53C93.8779 305.53 94.8861 308.223 97.4635 307.967C97.4635 307.967 98.1124 306.13 96.6399 302.174H96.6382Z" fill="#5974C6"/>
<path d="M379.976 189.315C375.475 190.172 373.559 195.947 366.299 197.494C359.037 199.041 352.404 182.675 352.404 182.675C357.575 184.118 366.416 179.84 366.629 177.669C366.843 175.499 353.445 176.983 351.316 176.536C349.186 176.094 345.206 171.306 346.826 160.826C348.447 150.343 362.756 152.217 362.756 152.217C362.756 152.217 373.46 169.278 376.277 169.441C379.088 169.602 369.441 152.659 369.441 152.659C370.851 152.357 372.878 152.606 375.101 153.14C376.232 158.184 377.185 163.262 377.964 168.319C379.067 175.476 379.729 182.48 380 189.313C379.991 189.313 379.984 189.313 379.976 189.317V189.315Z" fill="#2184A8"/>
<path d="M219.697 135.626V208.249H218.765V136.489C219.076 136.202 219.386 135.916 219.697 135.626Z" fill="#465A9B"/>
<path d="M266.297 77.5278V208.249H265.365V78.0988C265.647 77.9247 265.927 77.7507 266.209 77.5809C266.239 77.5639 266.267 77.5448 266.297 77.5278Z" fill="#465A9B"/>
<path opacity="0.79" d="M147.425 127.205C132.421 124.038 116.803 118.06 105.482 113.306C55.101 92.152 12.9653 120.725 20.6706 61.8739C21.0382 59.0779 21.5367 56.3985 22.1616 53.8334C29.4694 23.722 53.6882 9.36537 77.1878 3.4779L77.3808 3.42788C88.6194 0.634189 99.6835 -0.22559 108.641 0.0483011C124.352 0.529397 140.673 8.56275 154.324 20.1734C166.153 30.2311 175.976 42.9778 181.649 55.815C213.095 126.955 181.874 134.481 147.423 127.203L147.425 127.205Z" fill="#468FCE"/>
<path opacity="0.1" d="M146.834 128.106C131.9 124.884 116.354 118.803 105.085 113.967C54.9375 92.4468 12.9967 121.514 20.6664 61.645C21.0322 58.8006 21.5285 56.0749 22.1504 53.4655C36.1384 50.1922 61.5233 47.3017 74.8778 64.5282C93.9285 89.1057 93.5352 103.728 118.351 105.324C138.076 106.596 145.583 119.072 146.834 128.104V128.106Z" fill="white"/>
<path d="M64.608 32.5313L66.5034 16.9937L68.7129 32.4476C68.8453 33.3708 69.4442 34.1386 70.2719 34.4472L76.3755 36.3439L70.2809 37.9441C69.323 38.2455 68.5671 39.03 68.2598 40.0418L66.5057 47.0595L64.9198 39.8576C64.6977 39.0252 64.0337 38.4105 63.2307 38.2933L49.9535 36.3439L63.1118 34.1673C63.8969 34.0381 64.507 33.3708 64.608 32.5313Z" fill="#ECF2F9"/>
<path d="M15.1256 113.448L16.4802 101.962L18.0589 113.386C18.1541 114.068 18.5822 114.636 19.1711 114.863L23.5314 116.266L19.1779 117.448C18.4938 117.67 17.9547 118.25 17.7328 118.998L16.4802 124.185L15.3476 118.863C15.189 118.248 14.7156 117.793 14.1403 117.705L4.65857 116.266L14.0565 114.656C14.616 114.561 15.0531 114.068 15.1256 113.446V113.448Z" fill="#E1954D"/>
<path d="M47.4555 141.608L51.1445 135.949L49.0351 142.489C48.9102 142.879 48.9912 143.315 49.2479 143.619L51.2115 145.721L48.5841 144.989C48.1609 144.893 47.7238 145.032 47.4138 145.359L45.4063 147.714L46.1764 144.543C46.2505 144.168 46.1163 143.781 45.8318 143.553L41.146 139.83L46.5743 141.912C46.8981 142.036 47.2566 141.912 47.4578 141.605L47.4555 141.608Z" fill="#ECF2F9"/>
<path d="M105.484 154.782L107.788 151.637L106.47 155.271C106.392 155.488 106.443 155.729 106.603 155.899L107.83 157.067L106.188 156.659C105.924 156.605 105.651 156.684 105.456 156.864L104.201 158.173L104.682 156.411C104.729 156.203 104.645 155.987 104.467 155.86L101.539 153.791L104.93 154.949C105.132 155.019 105.356 154.949 105.481 154.78L105.484 154.782Z" fill="#E1954D"/>
<path d="M210.547 33.7958L217.536 19.6079L214.68 35.1797C214.509 36.1103 214.856 37.058 215.583 37.6469L221.067 41.6362L214.447 40.9939C213.392 40.9406 212.377 41.4205 211.738 42.2784L207.684 48.3666L208.459 40.9139C208.509 40.039 208.048 39.215 207.282 38.8151L194.645 32.218L208.518 34.8258C209.345 34.9809 210.174 34.5616 210.552 33.7958H210.547Z" fill="#E1954D"/>
<path d="M158.412 103.121L160.397 87.583L162.712 103.037C162.851 103.96 163.478 104.728 164.345 105.037L170.74 106.933L164.355 108.533C163.351 108.835 162.559 109.619 162.237 110.631L160.4 117.649L158.738 110.447C158.506 109.615 157.81 109 156.969 108.883L143.059 106.933L156.844 104.757C157.667 104.628 158.306 103.96 158.412 103.121Z" fill="#ECF2F9"/>
<path d="M106.986 86.4067L107.526 82.354L108.158 86.385C108.196 86.6255 108.367 86.8269 108.603 86.907L110.347 87.4009L108.605 87.819C108.331 87.8969 108.116 88.1027 108.027 88.367L107.526 90.1973L107.072 88.3193C107.008 88.1027 106.819 87.9424 106.59 87.9121L102.797 87.4031L106.556 86.8356C106.781 86.8009 106.955 86.6276 106.983 86.4089L106.986 86.4067Z" fill="#ECF2F9"/>
<path d="M49.9535 78.4323C50.6484 78.4323 51.2117 77.847 51.2117 77.1251C51.2117 76.4031 50.6484 75.8179 49.9535 75.8179C49.2586 75.8179 48.6953 76.4031 48.6953 77.1251C48.6953 77.847 49.2586 78.4323 49.9535 78.4323Z" fill="#ECF2F9"/>
<path d="M164.541 74.7664C165.404 74.3949 165.813 73.3665 165.456 72.4696C165.099 71.5726 164.11 71.1466 163.247 71.5182C162.384 71.8897 161.974 72.9181 162.332 73.815C162.689 74.712 163.678 75.138 164.541 74.7664Z" fill="#ECF2F9"/>
<path d="M134.252 34.6407C134.252 34.2795 134.533 33.9875 134.881 33.9875C135.228 33.9875 135.509 34.2795 135.509 34.6407C135.509 35.0019 135.228 35.2938 134.881 35.2938C134.533 35.2938 134.252 35.0019 134.252 34.6407Z" fill="#ECF2F9"/>
<path d="M95.2483 22.8756C95.2483 22.5161 95.5309 22.2224 95.8769 22.2224C96.2229 22.2224 96.5056 22.5161 96.5056 22.8756C96.5056 23.235 96.2229 23.5287 95.8769 23.5287C95.5309 23.5287 95.2483 23.235 95.2483 22.8756Z" fill="#ECF2F9"/>
<path d="M88.9574 52.9415C88.9574 52.5809 89.2389 52.2883 89.586 52.2883C89.9331 52.2883 90.2147 52.5809 90.2147 52.9415C90.2147 53.3021 89.9331 53.5946 89.586 53.5946C89.2389 53.5946 88.9574 53.3021 88.9574 52.9415Z" fill="#ECF2F9"/>
<path d="M126.074 95.4254C126.421 95.4254 126.702 95.133 126.702 94.7723C126.702 94.4116 126.421 94.1191 126.074 94.1191C125.726 94.1191 125.445 94.4116 125.445 94.7723C125.445 95.133 125.726 95.4254 126.074 95.4254Z" fill="#ECF2F9"/>
<path d="M110.441 59.6513C100.032 63.599 93.3745 67.2808 91.7538 68.2126C91.5262 68.342 91.4215 68.6103 91.4989 68.8594C91.6195 69.2451 92.0862 69.4056 92.423 69.1756C94.417 67.8078 100.763 63.7212 110.585 59.9963C121.626 55.8115 139.41 50.4984 160.674 48.3665C138.532 50.5942 121.506 55.4593 110.439 59.6537L110.441 59.6513Z" fill="#ECF2F9"/>
<path opacity="0.1" d="M154.383 19.9225C132.333 20.2917 114.621 36.2786 97.6446 33.7078C75.7177 30.3891 76.3775 3.43464 76.3775 3.43464L76.5726 3.38525C87.938 0.626302 99.1268 -0.222785 108.185 0.0477003C124.074 0.522813 140.578 8.45625 154.383 19.9225Z" fill="white"/>
<path d="M221.067 95.0761L203.453 104.577L212.753 91.5046L214.349 94.0191L219.156 93.1959L221.067 95.0761Z" fill="#B15F16"/>
<path d="M203.453 104.577L215.564 91.1375L229.875 84.9685L203.453 104.577Z" fill="#DCA155"/>
<path d="M212.26 91.4087L203.453 104.577L208.017 87.583L212.26 91.4087Z" fill="#DCA155"/>
<path d="M47.4371 80.5022L65.0518 84.9684L53.8132 74.5107L53.03 77.4987L48.6484 78.0625L47.4371 80.5022Z" fill="#B15F16"/>
<path d="M65.0518 84.9685L50.6793 75.1819L36.1134 73.2036L65.0518 84.9685Z" fill="#DCA155"/>
<path d="M53.7279 75.3113L65.0516 84.9687L56.7356 70.5894L53.7279 75.3113Z" fill="#DCA155"/>
<path d="M137.588 183.01C137.282 183.01 137.015 182.774 136.973 182.452C136.964 182.388 136.769 180.828 136.769 178.289C136.769 178.066 136.769 177.832 136.773 177.594C136.778 177.239 137.063 176.968 137.404 176.961C137.746 176.965 138.02 177.258 138.015 177.613C138.013 177.846 138.011 178.07 138.011 178.289C138.011 180.735 138.202 182.269 138.204 182.283C138.248 182.636 138.008 182.957 137.67 183.005C137.643 183.01 137.615 183.01 137.588 183.01ZM137.728 173.112C137.703 173.112 137.677 173.112 137.652 173.107C137.311 173.064 137.07 172.745 137.111 172.393C137.314 170.649 137.608 168.923 137.983 167.26C138.061 166.915 138.395 166.701 138.728 166.782C139.062 166.863 139.269 167.208 139.191 167.553C138.825 169.17 138.54 170.852 138.342 172.547C138.305 172.874 138.036 173.112 137.728 173.112ZM140.005 163.124C139.934 163.124 139.862 163.112 139.791 163.083C139.469 162.962 139.303 162.592 139.423 162.259C140.01 160.602 140.7 158.996 141.47 157.489C141.631 157.174 142.006 157.055 142.307 157.222C142.611 157.389 142.726 157.777 142.565 158.089C141.82 159.546 141.153 161.099 140.585 162.702C140.493 162.962 140.256 163.124 140.003 163.124H140.005ZM246.669 156.141C246.331 156.141 246.053 155.857 246.048 155.507C246.044 155.152 246.317 154.862 246.66 154.857C248.33 154.836 249.965 154.705 251.518 154.464C251.856 154.412 252.171 154.655 252.222 155.005C252.272 155.355 252.038 155.681 251.7 155.734C250.092 155.981 248.401 156.117 246.674 156.138C246.672 156.138 246.669 156.138 246.667 156.138L246.669 156.141ZM241.717 155.91C241.697 155.91 241.676 155.91 241.655 155.907C240.07 155.745 238.401 155.498 236.694 155.169C236.358 155.105 236.135 154.769 236.197 154.421C236.259 154.074 236.583 153.843 236.919 153.907C238.591 154.228 240.224 154.471 241.775 154.629C242.115 154.664 242.366 154.976 242.331 155.331C242.299 155.662 242.03 155.91 241.715 155.91H241.717ZM256.442 154.598C256.178 154.598 255.934 154.421 255.851 154.147C255.748 153.809 255.929 153.45 256.256 153.342C257.802 152.84 259.313 152.199 260.746 151.442C261.052 151.28 261.424 151.406 261.581 151.723C261.737 152.04 261.615 152.426 261.312 152.588C259.817 153.378 258.241 154.045 256.629 154.571C256.567 154.593 256.505 154.6 256.442 154.6V154.598ZM144.651 154.086C144.522 154.086 144.396 154.045 144.283 153.962C144.007 153.752 143.947 153.35 144.152 153.064C145.15 151.659 146.259 150.327 147.446 149.103C147.687 148.853 148.081 148.853 148.322 149.103C148.564 149.356 148.564 149.761 148.322 150.011C147.179 151.187 146.114 152.471 145.152 153.821C145.031 153.993 144.842 154.083 144.653 154.083L144.651 154.086ZM231.965 154.069C231.914 154.069 231.864 154.062 231.811 154.05C230.29 153.65 228.673 153.178 227.006 152.647C226.679 152.542 226.495 152.185 226.594 151.844C226.695 151.506 227.04 151.313 227.369 151.418C229.018 151.942 230.615 152.409 232.117 152.804C232.448 152.892 232.65 153.242 232.565 153.585C232.494 153.876 232.241 154.069 231.965 154.069ZM222.47 151.078C222.403 151.078 222.334 151.066 222.268 151.042C220.828 150.527 219.296 149.961 217.582 149.306C217.26 149.182 217.097 148.813 217.214 148.482C217.332 148.148 217.69 147.979 218.01 148.101C219.715 148.753 221.24 149.318 222.67 149.827C222.994 149.944 223.167 150.308 223.054 150.644C222.967 150.911 222.725 151.078 222.468 151.078H222.47ZM265.203 149.899C265.022 149.899 264.84 149.815 264.718 149.656C264.504 149.377 264.55 148.975 264.819 148.753C266.059 147.736 267.225 146.565 268.283 145.271C268.504 145 268.897 144.969 269.157 145.198C269.417 145.426 269.449 145.831 269.229 146.103C268.115 147.46 266.892 148.689 265.59 149.758C265.475 149.851 265.339 149.896 265.206 149.896L265.203 149.899ZM213.148 147.536C213.074 147.536 213.001 147.522 212.927 147.493L211.02 146.738C210.107 146.376 209.196 146.017 208.29 145.662C207.97 145.536 207.809 145.164 207.931 144.833C208.053 144.502 208.412 144.335 208.732 144.462C209.638 144.819 210.549 145.178 211.464 145.54L213.371 146.293C213.691 146.419 213.852 146.791 213.73 147.122C213.635 147.379 213.401 147.536 213.15 147.536H213.148ZM151.646 146.869C151.455 146.869 151.266 146.779 151.144 146.607C150.942 146.322 151.002 145.919 151.278 145.71C152.609 144.702 154.045 143.769 155.547 142.94C155.848 142.773 156.225 142.89 156.386 143.204C156.547 143.516 156.432 143.907 156.131 144.073C154.682 144.876 153.295 145.774 152.011 146.748C151.901 146.831 151.772 146.872 151.646 146.872V146.869ZM203.86 143.909C203.789 143.909 203.717 143.897 203.648 143.871C201.935 143.226 200.408 142.671 198.979 142.178C198.655 142.066 198.478 141.701 198.586 141.366C198.694 141.03 199.046 140.849 199.37 140.958C200.808 141.454 202.347 142.013 204.072 142.664C204.394 142.785 204.559 143.154 204.442 143.488C204.35 143.747 204.113 143.909 203.86 143.909ZM271.616 142.14C271.51 142.14 271.402 142.111 271.303 142.051C271.009 141.873 270.91 141.478 271.082 141.173C271.878 139.77 272.601 138.248 273.228 136.65C273.357 136.321 273.718 136.164 274.036 136.298C274.353 136.431 274.505 136.805 274.376 137.134C273.725 138.789 272.978 140.368 272.152 141.823C272.037 142.025 271.83 142.14 271.616 142.14ZM160.347 142.03C160.096 142.03 159.862 141.873 159.767 141.618C159.645 141.287 159.806 140.915 160.126 140.789C161.644 140.189 163.252 139.658 164.906 139.208C165.237 139.117 165.575 139.322 165.662 139.665C165.75 140.008 165.552 140.358 165.221 140.449C163.611 140.887 162.044 141.404 160.57 141.987C160.496 142.016 160.423 142.03 160.349 142.03H160.347ZM194.437 140.689C194.381 140.689 194.324 140.682 194.266 140.665C192.564 140.168 191.003 139.768 189.494 139.444C189.158 139.372 188.944 139.032 189.013 138.684C189.082 138.336 189.411 138.115 189.747 138.186C191.285 138.517 192.875 138.924 194.604 139.432C194.933 139.529 195.127 139.884 195.032 140.225C194.954 140.508 194.706 140.692 194.437 140.692V140.689ZM169.906 139.406C169.607 139.406 169.345 139.182 169.294 138.867C169.239 138.517 169.467 138.186 169.805 138.129C171.399 137.855 173.069 137.641 174.766 137.488C175.109 137.46 175.408 137.719 175.438 138.072C175.468 138.424 175.215 138.736 174.874 138.767C173.207 138.915 171.569 139.127 170.007 139.396C169.973 139.401 169.938 139.406 169.906 139.406ZM184.721 138.662C184.7 138.662 184.68 138.662 184.659 138.66C183.539 138.546 182.446 138.489 181.411 138.489C180.864 138.489 180.316 138.493 179.778 138.505C179.431 138.515 179.152 138.231 179.146 137.877C179.139 137.522 179.41 137.229 179.753 137.222C180.298 137.21 180.855 137.205 181.409 137.205C182.483 137.205 183.617 137.265 184.778 137.384C185.119 137.419 185.37 137.731 185.335 138.086C185.303 138.417 185.034 138.665 184.719 138.665L184.721 138.662ZM275.374 132.666C275.322 132.666 275.266 132.659 275.213 132.644C274.882 132.551 274.687 132.199 274.776 131.858C275.188 130.272 275.531 128.603 275.791 126.9C275.844 126.55 276.161 126.312 276.502 126.366C276.84 126.421 277.07 126.752 277.017 127.102C276.75 128.848 276.398 130.56 275.975 132.192C275.901 132.478 275.65 132.668 275.377 132.668L275.374 132.666ZM276.948 122.537C276.934 122.537 276.92 122.537 276.906 122.537C276.564 122.513 276.306 122.208 276.327 121.856C276.405 120.589 276.446 119.288 276.446 117.99C276.446 117.586 276.442 117.181 276.435 116.773C276.428 116.419 276.699 116.126 277.042 116.119C277.389 116.107 277.668 116.395 277.675 116.747C277.681 117.162 277.686 117.576 277.686 117.988C277.686 119.315 277.645 120.644 277.564 121.937C277.543 122.277 277.27 122.537 276.945 122.537H276.948ZM276.761 112.272C276.446 112.272 276.177 112.025 276.145 111.694C275.986 110.017 275.759 108.321 275.473 106.652C275.414 106.302 275.639 105.968 275.977 105.909C276.318 105.847 276.637 106.08 276.695 106.43C276.985 108.133 277.215 109.862 277.378 111.57C277.412 111.922 277.162 112.237 276.821 112.272C276.801 112.272 276.78 112.275 276.759 112.275L276.761 112.272ZM275.034 102.16C274.758 102.16 274.505 101.967 274.434 101.679C274.024 100.031 273.55 98.3925 273.024 96.8088C272.913 96.473 273.084 96.1086 273.408 95.9919C273.732 95.8776 274.084 96.0538 274.197 96.3896C274.733 98.0043 275.218 99.6762 275.634 101.358C275.719 101.701 275.519 102.051 275.188 102.139C275.135 102.153 275.085 102.16 275.034 102.16ZM271.802 92.4624C271.563 92.4624 271.338 92.3195 271.234 92.079C270.563 90.5071 269.829 88.9806 269.047 87.5373C268.879 87.2277 268.987 86.8371 269.286 86.6633C269.585 86.4894 269.962 86.6014 270.13 86.911C270.931 88.3899 271.683 89.9546 272.371 91.5622C272.509 91.8861 272.368 92.2647 272.053 92.41C271.973 92.4481 271.888 92.4648 271.802 92.4648V92.4624ZM266.945 83.522C266.751 83.522 266.561 83.4291 266.439 83.2529C265.473 81.8454 264.442 80.5212 263.375 79.3185C263.143 79.0565 263.159 78.6517 263.412 78.4111C263.665 78.1706 264.056 78.1873 264.288 78.4492C265.39 79.69 266.452 81.0571 267.451 82.5074C267.648 82.7956 267.584 83.1981 267.303 83.4029C267.195 83.4839 267.069 83.522 266.945 83.522ZM221.056 81.3C220.945 81.3 220.835 81.269 220.734 81.2071C220.441 81.0237 220.347 80.6284 220.526 80.3259C220.57 80.2497 221.637 78.4469 223.749 76.2201C223.988 75.9676 224.381 75.9629 224.625 76.2106C224.869 76.4583 224.874 76.8655 224.634 77.1179C222.631 79.2304 221.598 80.9737 221.587 80.9904C221.47 81.188 221.265 81.2976 221.056 81.2976V81.3ZM260.224 76.0058C260.088 76.0058 259.95 75.9581 259.835 75.8629C258.547 74.7864 257.199 73.8409 255.821 73.0502C255.522 72.8788 255.414 72.4882 255.58 72.1786C255.745 71.869 256.123 71.757 256.424 71.9285C257.862 72.7525 259.272 73.7409 260.615 74.865C260.882 75.0889 260.923 75.4913 260.707 75.7676C260.585 75.9248 260.405 76.0058 260.224 76.0058ZM227.958 73.9743C227.765 73.9743 227.574 73.8814 227.452 73.7052C227.254 73.417 227.319 73.0145 227.597 72.8097C229 71.7785 230.479 70.8949 231.997 70.19C232.31 70.0447 232.676 70.19 232.818 70.5115C232.958 70.8354 232.818 71.214 232.508 71.3617C231.066 72.0333 229.656 72.874 228.319 73.8576C228.211 73.9386 228.085 73.9767 227.96 73.9767L227.958 73.9743ZM251.592 71.0616C251.523 71.0616 251.454 71.0497 251.385 71.0259C249.807 70.4495 248.227 70.009 246.692 69.716C246.357 69.6517 246.133 69.3159 246.196 68.9682C246.258 68.6205 246.582 68.3895 246.918 68.4538C248.516 68.7586 250.156 69.2183 251.796 69.8161C252.118 69.9328 252.288 70.2995 252.176 70.6353C252.086 70.8997 251.847 71.064 251.592 71.064V71.0616ZM236.954 69.8113C236.669 69.8113 236.411 69.6065 236.349 69.304C236.278 68.9563 236.489 68.6157 236.825 68.5395C238.465 68.1728 240.162 67.9822 241.874 67.9751H241.876C242.216 67.9751 242.495 68.2609 242.497 68.6134C242.497 68.9682 242.223 69.2564 241.881 69.2588C240.257 69.2659 238.644 69.4469 237.089 69.7946C237.046 69.8041 237.002 69.8089 236.958 69.8089L236.954 69.8113Z" fill="#E1954D"/>
</svg>
