<svg width="380" height="258" viewBox="0 0 380 258" fill="none" xmlns="http://www.w3.org/2000/svg">
<path opacity="0.79" d="M378.361 193.154C376.489 201.805 372.524 210.061 367.013 217.527C366.737 217.903 366.454 218.277 366.168 218.647C343.876 247.71 298.049 264.233 261.807 244.163C257.554 241.809 253.474 239.964 249.523 238.571C245.867 237.275 242.32 236.363 238.844 235.775C237.858 235.603 236.878 235.463 235.9 235.346C232.415 234.927 228.989 234.823 225.589 234.969C221.017 235.171 216.484 235.833 211.898 236.814C207.891 237.668 203.85 238.769 199.699 240.01C189.814 242.971 179.332 246.768 167.404 250.1C163.592 251.165 159.633 252.185 155.497 253.114C152.43 253.802 149.266 254.445 145.992 255.02C143.958 255.377 141.883 255.708 139.764 256.01C138.38 256.209 136.973 256.39 135.551 256.563C135.448 256.576 135.348 256.589 135.248 256.602L134.798 256.654C132.419 256.93 129.988 257.167 127.497 257.358C126.659 257.423 125.814 257.485 124.963 257.54C123.724 257.621 122.467 257.686 121.195 257.748C120.971 257.758 120.745 257.767 120.521 257.777C120.118 257.793 119.717 257.81 119.311 257.823C118.805 257.842 118.299 257.858 117.786 257.871C115.929 257.927 114.039 257.953 112.117 257.953C109.892 257.953 107.622 257.914 105.311 257.842C98.7145 257.628 91.7468 257.098 84.3701 256.183C77.9352 255.387 71.9214 254.241 66.3137 252.786C66.0606 252.721 65.8104 252.656 65.5572 252.588C64.1266 252.208 62.7195 251.805 61.3419 251.386C60.6531 251.175 59.9672 250.96 59.2902 250.74C59.0635 250.668 58.8398 250.594 58.6161 250.519C57.3356 250.093 56.0816 249.648 54.8453 249.191C49.2052 247.083 44.0539 244.624 39.3676 241.861C37.934 241.016 36.5446 240.143 35.1964 239.243C-11.6723 207.894 -6.76234 143.833 20.9845 108.72C64.7477 53.3359 58.8486 27.9269 89.4331 9.02605C110.804 -4.18183 135.878 -2.42489 162.421 11.2312C166.242 13.1959 170.08 14.9691 173.939 16.5507C206.39 29.8917 240.092 30.1937 274.974 24.832C287.311 22.9354 297.322 22.6918 305.5 23.835C307.796 24.1532 309.942 24.5819 311.958 25.1145C345.816 34.0518 342.078 72.0549 352.166 111.23C353.69 117.151 355.53 123.097 357.862 128.975C360.773 136.305 364.446 143.528 369.233 150.455C373.048 155.975 375.724 161.584 377.398 167.189C377.831 168.635 378.196 170.076 378.496 171.518C379.047 174.159 379.38 176.789 379.509 179.407C379.742 184.061 379.332 188.662 378.358 193.16L378.361 193.154Z" fill="#94C3EC"/>
<path d="M181.449 199.6L180.637 202.075L171.135 231.036L166.737 250.106C162.966 251.439 157.588 252.377 153.496 253.539L159.545 227.245L162.879 210.596L164.583 202.075L165.177 199.104L181.449 199.6Z" fill="#2E3B61"/>
<path d="M247.164 200.084L244.894 208.695L237.657 235.394C236.652 235.125 235.654 234.907 234.658 234.725C231.109 234.072 227.619 233.91 224.156 234.138L226.608 219.307L228.365 208.69L229.509 200.084H247.164Z" fill="#2E3B61"/>
<path d="M306.01 24.2654V196.115C306.01 198.838 303.781 201.066 301.057 201.066H122.65C120.536 201.066 118.723 199.728 118.016 197.853C117.809 197.311 117.697 196.725 117.697 196.115V22.6061C117.697 19.8829 119.926 17.6548 122.65 17.6548H174.253C206.753 29.7619 240.506 30.036 275.441 25.1702C287.796 23.449 297.823 23.228 306.012 24.2654H306.01Z" fill="#2E3B61"/>
<path d="M311.897 25.4241V169.719C311.897 172.393 309.957 174.584 307.584 174.584H127.895C126.707 174.584 125.628 174.036 124.844 173.15C124.64 172.917 124.458 172.667 124.298 172.393C123.844 171.624 123.582 170.705 123.582 169.719V22.5202C123.582 19.846 125.522 17.6548 127.895 17.6548H173.667C206.167 29.7535 239.92 30.0274 274.854 25.1649C287.21 23.4449 297.236 23.2241 305.426 24.2608C307.726 24.5494 309.875 24.9381 311.894 25.4211L311.897 25.4241Z" fill="#42599B"/>
<path d="M167.718 53.4546C167.718 51.5577 169.036 50.0217 170.661 50.0217C172.285 50.0217 173.603 51.5577 173.603 53.4546C173.603 55.3514 172.285 56.8874 170.661 56.8874C169.036 56.8874 167.718 55.3514 167.718 53.4546Z" fill="#2E3B61"/>
<path d="M276.588 53.4546C276.588 51.5577 277.686 50.0217 279.04 50.0217C280.394 50.0217 281.492 51.5577 281.492 53.4546C281.492 55.3514 280.394 56.8874 279.04 56.8874C277.686 56.8874 276.588 55.3514 276.588 53.4546Z" fill="#2E3B61"/>
<path d="M379.509 182.431C378.498 191.748 378.7 199.282 373.198 205.97C372.354 206.974 372.354 206.974 372.354 206.974L124.018 201.066C121.619 201.066 119.659 199.152 119.659 196.81V159.224C119.659 156.882 121.619 154.968 124.018 154.968H377.401C377.834 156.262 378.198 157.554 378.498 158.846C379.048 161.211 379.38 163.567 379.509 165.911C379.741 170.08 380.485 178.402 379.512 182.431H379.509Z" fill="#2E3B61"/>
<path d="M230.35 86.3115C230.35 86.3115 216.51 127.444 223.767 153.987H247.694C247.694 153.987 256.517 105.575 230.353 86.3115H230.35Z" fill="#ECF2FF"/>
<path d="M230.49 86.4172C230.49 86.4172 279.406 79.5574 306.355 86.4172L326.609 153.987H248.108C248.108 153.987 257.07 113.548 230.493 86.4172H230.49Z" fill="white"/>
<path d="M136.864 89.2537C136.864 89.2537 123.517 128.597 130.515 153.987H153.587C153.587 153.987 162.095 107.679 136.864 89.2537Z" fill="#ECF2FF"/>
<path d="M136.332 89.2333C136.332 89.2333 183.752 82.6593 209.876 89.2333L229.509 153.987H153.409C153.409 153.987 162.097 115.233 136.332 89.2333Z" fill="white"/>
<path d="M146.14 170.896V174.349C146.14 175.558 145.793 176.546 145.372 176.546H34.1153C33.6943 176.546 33.3474 175.558 33.3474 174.349V170.896C33.3474 169.69 33.6943 168.699 34.1153 168.699H145.372C145.793 168.699 146.14 169.69 146.14 170.896Z" fill="#334174"/>
<path d="M146.141 170.896V174.349C146.141 175.558 145.825 176.546 145.442 176.546H57.5889C57.2026 176.546 56.8871 175.558 56.8871 174.349V170.896C56.8871 169.69 57.2026 168.699 57.5889 168.699H145.442C145.828 168.699 146.141 169.69 146.141 170.896Z" fill="#5974C6"/>
<path d="M117.697 176.545V257.864C115.839 257.924 113.948 257.952 112.024 257.952C109.798 257.952 107.527 257.91 105.215 257.832C98.6142 257.597 91.6425 257.017 84.2614 256.014C77.8228 255.143 71.8054 253.888 66.1945 252.294C65.9412 252.223 65.6908 252.152 65.4375 252.078C64.0061 251.661 62.5982 251.22 61.2198 250.762C60.5306 250.531 59.8443 250.296 59.1669 250.054C58.9401 249.976 58.7162 249.894 58.4924 249.812C57.2111 249.346 54.6914 249.136 53.4543 248.635C47.811 246.327 43.4312 244.796 38.7422 241.769L39.2326 176.549H117.697V176.545Z" fill="#2E3B61"/>
<path d="M61.791 176.549V250.762C63.1694 251.224 64.5772 251.662 66.0086 252.078C66.259 252.149 66.5123 252.224 66.7656 252.295C72.3792 253.888 78.3964 255.14 84.8318 256.014C92.2126 257.014 99.184 257.597 105.784 257.832C108.099 257.913 110.367 257.952 112.594 257.952C114.517 257.952 116.405 257.924 118.266 257.864C118.776 257.849 119.285 257.832 119.792 257.81C120.198 257.796 120.599 257.778 121.003 257.76C121.226 257.75 121.453 257.739 121.677 257.728C122.949 257.664 124.207 257.59 125.447 257.501C126.298 257.44 127.143 257.376 127.983 257.302C130.474 257.092 132.907 256.832 135.287 256.53L135.738 256.473C135.838 256.459 135.941 256.445 136.041 256.43C137.467 256.242 138.871 256.043 140.256 255.826V176.545H61.791V176.549Z" fill="#334174"/>
<path d="M65.714 180.473V251.572C65.9629 251.642 66.2148 251.717 66.4667 251.787V181.376H134.602V255.991L135.05 255.935C135.149 255.921 135.252 255.907 135.351 255.892V180.469H65.714V180.473Z" fill="#5974C6"/>
<path d="M135.351 221.663H65.714V222.644H135.351V221.663Z" fill="#5974C6"/>
<path d="M107.767 188.315H95.2605C94.6531 188.315 94.1575 187.874 94.1575 187.334C94.1575 186.794 94.6531 186.353 95.2605 186.353H107.767C108.374 186.353 108.87 186.794 108.87 187.334C108.87 187.874 108.374 188.315 107.767 188.315Z" fill="#5974C6"/>
<path d="M107.767 229.509H95.2605C94.6531 229.509 94.1575 229.068 94.1575 228.528C94.1575 227.988 94.6531 227.547 95.2605 227.547H107.767C108.374 227.547 108.87 227.988 108.87 228.528C108.87 229.068 108.374 229.509 107.767 229.509Z" fill="#5974C6"/>
<path d="M197.706 140.046C198.738 137.999 220.395 105.521 238.71 106.955C254.349 108.179 279.549 127.47 287.719 127.799C295.885 128.132 320.716 111.617 332.478 118.219C344.24 124.822 337.359 154.277 337.359 154.277L202.2 154.968C202.2 154.968 195.133 145.155 197.706 140.043V140.046Z" fill="#5ABE8F"/>
<path d="M215.779 82.4542C214.541 81.8763 213.372 81.1612 212.255 80.3761C208.419 77.6791 199.036 72.3641 188.191 75.5047C173.978 79.6201 167.703 97.5207 168.051 101.47C168.398 105.419 150.763 100.194 146.856 110.845C142.949 121.495 157.365 129.031 157.365 135.429C157.365 141.827 137.929 151.821 144.587 154.27C148.853 155.84 198.9 154.27 198.9 154.27C203.54 151.993 207.435 144.696 203.661 138.158C199.887 131.62 209.159 127.917 215.269 122.286C221.164 116.852 230.424 89.3103 215.776 82.4571L215.779 82.4542Z" fill="#002A5D"/>
<path d="M217.365 128.056C220.302 126.336 223.37 121.618 225.279 117.523C226.474 114.966 227.012 111.803 226.128 112.098C223.938 112.706 217.945 110.024 212.054 102.003L211.439 102.668L201.066 113.86C201.066 113.86 203.759 116.927 206.055 120.003C207.967 122.566 209.744 125.302 209.305 126.119C208.286 128.426 211.981 131.203 217.365 128.053V128.056Z" fill="#F4AC75"/>
<path d="M201.069 114.383C201.069 114.383 203.77 117.504 206.063 120.639C212.608 115.267 212.195 107.11 211.456 102.985L201.066 114.386L201.069 114.383Z" fill="#DC8E53"/>
<path d="M185.901 117.697C185.901 117.697 174.76 142.632 174.592 147.459C174.426 152.286 176.92 156.037 180.246 155.946C183.573 155.856 184.984 153.409 189.017 148.262C193.051 143.115 193.219 119.853 193.219 119.853L185.901 117.697Z" fill="#DC8E53"/>
<path d="M192.769 119.659C192.769 119.659 194.461 110.418 191.289 108.713C188.117 107.011 183.302 104.776 183.15 103.541C182.998 102.31 179.239 96.6467 178.605 98.4233C177.971 100.197 180.601 109.539 181.453 110.746C182.304 111.953 185.407 113.933 185.863 114.538C186.322 115.14 185.792 117.45 185.792 117.45L192.769 119.659Z" fill="#DC8E53"/>
<path d="M202.916 117.295C202.916 117.295 218.523 104.893 210.584 95.3727C202.646 85.8522 199.313 77.8415 189.012 85.3578C178.712 92.8742 179.827 98.0744 181.7 101.891C183.57 105.708 198.651 120.279 202.916 117.298V117.295Z" fill="#F4AC75"/>
<path d="M181.516 91.0268C181.516 91.0268 194.938 98.836 202.718 95.1137C210.499 91.3913 211.855 87.3045 211.855 87.3045C211.855 87.3045 203.698 87.4747 197.024 81.4072C197.024 81.4072 180.269 82.9816 181.516 91.0268Z" fill="#002A5D"/>
<path d="M182.787 92.3889C182.787 92.3889 195.612 101.382 206.951 98.4874C206.951 98.4874 192.724 98.028 185.556 91.0595C178.384 84.0882 182.787 92.3918 182.787 92.3918V92.3889Z" fill="#002A5D"/>
<path d="M183.411 91.5394C183.411 91.5394 181.288 96.1321 181.234 97.947C181.176 99.762 178.437 101.703 176.872 100.789C175.307 99.8758 179.669 85.9839 183.411 91.5425V91.5394Z" fill="#2C3A64"/>
<path d="M184.893 145.721C185.678 145.671 206.756 134.371 206.756 134.371L206.95 153.84L180.469 155.949L184.89 145.721H184.893Z" fill="#DC8E53"/>
<path d="M209.538 126.524C209.538 126.524 194.191 137.974 194.2 137.971C194.206 137.968 195.19 151.368 202.526 154.967H211.855L209.535 126.524H209.538Z" fill="#5ABE8F"/>
<path d="M240.818 119.531C240.818 119.531 209.84 155.197 204.868 156.545C199.895 157.894 167.941 153.583 167.941 153.583L163.795 158.573C163.795 158.573 200.31 173.263 212.058 168.855C224.789 164.077 251.718 140.136 254.316 135.549C256.914 130.962 252.174 114.82 240.815 119.531H240.818Z" fill="#F4AC75"/>
<path d="M150.953 143.274C148.762 136.648 150.759 130.148 155.414 128.751C160.069 127.357 165.618 131.595 167.809 138.22C170.001 144.843 168.004 151.346 163.349 152.74C158.694 154.137 153.145 149.896 150.953 143.271V143.274Z" fill="#5ABE8F"/>
<path d="M146.622 144.953C144.562 138.23 149.441 130.657 154.963 128.869C160.483 127.082 164.553 131.756 166.613 138.483C168.673 145.21 168.129 151.376 162.609 153.164C154.329 155.845 148.682 151.68 146.622 144.956V144.953Z" fill="#5ABE8F"/>
<path d="M156.938 151.091L157.417 155.665C157.496 156.437 158.157 157.064 158.719 156.903L158.952 156.837C159.16 156.779 159.322 156.618 159.409 156.388L160.781 152.79C161.014 152.177 160.651 151.304 160.044 151.042L157.959 150.135C157.362 149.875 156.858 150.348 156.938 151.091Z" fill="#5ABE8F"/>
<path d="M166.883 143.62L170.196 147.135C170.755 147.727 170.823 148.616 170.329 148.893L170.125 149.006C169.942 149.107 169.711 149.107 169.473 149.006L165.724 147.447C165.084 147.179 164.633 146.322 164.818 145.721L165.458 143.653C165.64 143.061 166.345 143.043 166.886 143.614L166.883 143.62Z" fill="#5ABE8F"/>
<path d="M143.649 131.353C142.636 133.986 143.387 137.681 145.328 140.726C146.377 142.372 148.127 142.74 148.643 141.402L151.895 132.945C152.393 131.649 151.397 129.541 149.981 128.967C147.23 127.855 144.678 128.679 143.652 131.353H143.649Z" fill="#5ABE8F"/>
<path d="M164.146 126.693C162.056 125.128 159.801 125.207 158.352 126.655C157.57 127.439 157.865 129.204 158.928 129.998L165.633 135.022C166.66 135.79 167.773 135.153 167.716 133.779C167.61 131.108 166.264 128.28 164.146 126.693Z" fill="#5ABE8F"/>
<path d="M152.727 142.869C150.997 137.303 152.574 131.843 156.248 130.671C159.924 129.499 164.305 133.06 166.035 138.623C167.765 144.189 166.188 149.649 162.515 150.821C158.838 151.993 154.458 148.432 152.727 142.869Z" fill="white"/>
<path d="M165.303 143.22C165.575 143.301 165.776 143.575 165.756 143.835C165.736 144.092 165.499 144.236 165.23 144.156C164.958 144.075 164.757 143.8 164.778 143.54C164.798 143.283 165.034 143.139 165.303 143.22Z" fill="#B4D2FF"/>
<path d="M153.532 138.316C153.805 138.397 154.005 138.671 153.985 138.931C153.965 139.188 153.729 139.333 153.46 139.252C153.188 139.171 152.987 138.897 153.007 138.637C153.027 138.38 153.264 138.235 153.532 138.316Z" fill="#B4D2FF"/>
<path d="M159.875 132.731C159.907 132.477 160.152 132.347 160.42 132.439C160.689 132.532 160.881 132.815 160.849 133.069C160.817 133.323 160.573 133.453 160.304 133.361C160.035 133.268 159.843 132.985 159.875 132.731Z" fill="#B4D2FF"/>
<path d="M157.914 147.765C157.946 147.256 158.19 146.995 158.459 147.18C158.727 147.366 158.92 147.933 158.888 148.437C158.856 148.947 158.611 149.208 158.343 149.023C158.074 148.837 157.882 148.269 157.914 147.765Z" fill="#B4D2FF"/>
<path d="M156.038 145.281C156.195 145.102 156.503 145.122 156.723 145.327C156.943 145.53 156.995 145.842 156.839 146.018C156.683 146.197 156.375 146.177 156.155 145.972C155.934 145.769 155.882 145.457 156.038 145.281Z" fill="#B4D2FF"/>
<path d="M164.078 138.304C164.321 138.249 164.613 138.417 164.729 138.683C164.844 138.949 164.741 139.209 164.493 139.264C164.25 139.319 163.958 139.151 163.842 138.885C163.727 138.619 163.83 138.359 164.078 138.304Z" fill="#B4D2FF"/>
<path d="M154.27 142.227C154.513 142.173 154.805 142.34 154.92 142.606C155.036 142.872 154.932 143.132 154.685 143.187C154.441 143.242 154.15 143.075 154.034 142.809C153.918 142.543 154.022 142.282 154.27 142.227Z" fill="#B4D2FF"/>
<path d="M164.571 146.309C164.791 146.514 164.843 146.824 164.683 147.001C164.527 147.18 164.22 147.157 164 146.954C163.78 146.749 163.728 146.439 163.888 146.262C164.044 146.083 164.351 146.106 164.571 146.309Z" fill="#B4D2FF"/>
<path d="M154.763 134.539C154.983 134.744 155.035 135.054 154.875 135.231C154.719 135.41 154.411 135.387 154.192 135.184C153.972 134.979 153.92 134.669 154.08 134.492C154.236 134.313 154.543 134.336 154.763 134.539Z" fill="#B4D2FF"/>
<path d="M158.938 140.847C158.822 140.582 158.928 140.322 159.173 140.266C159.418 140.209 159.708 140.379 159.825 140.644C159.941 140.909 159.835 141.168 159.59 141.225C159.345 141.281 159.054 141.112 158.938 140.847Z" fill="#5ABE8F"/>
<path d="M162.748 139.275C161.771 139.578 159.872 140.165 159.872 140.165L160.109 141.237L162.788 139.45C162.841 139.412 162.806 139.26 162.748 139.279V139.275Z" fill="#5ABE8F"/>
<path d="M157.927 135.574C158.534 137.97 159.362 141.236 159.362 141.236L159.872 141.055L158.078 135.514C157.998 135.263 157.863 135.318 157.927 135.574Z" fill="#5ABE8F"/>
<path d="M167.715 159.872C167.715 159.872 156.158 158.216 152.864 157.858C149.57 157.5 143.238 142.217 145.725 142.217C147.266 142.217 155.395 151.953 157.288 152.045C161.873 152.264 155.201 146.603 156.554 144C157.288 142.587 160.197 147.843 163.899 149.644C164.918 150.138 167.718 153.84 167.718 153.84V159.872H167.715Z" fill="#F4AC75"/>
<path d="M236.194 114.754L226.567 133.413C226.567 133.413 244.5 147.825 258.495 143.299C272.487 138.775 254.711 122.99 253.479 120.964C252.243 118.938 236.197 114.754 236.197 114.754H236.194Z" fill="#5ABE8F"/>
<path d="M378.362 178.029C370.525 176.091 362.155 174.247 353.472 174.086C340.583 173.846 322.256 187.714 306.01 201.012C298.862 206.861 292.116 212.599 286.41 216.979C282.224 220.191 276.822 221.394 271.655 220.27C270.853 220.094 270.054 219.936 269.262 219.79C265.274 219.055 261.713 216.868 259.276 213.647C256.493 209.973 253.634 205.634 250.905 201.012C245.856 192.457 241.255 182.93 238.405 174.812C236.743 170.081 235.676 165.83 235.461 162.53C235.296 160.009 235.443 157.348 235.826 154.616C235.835 154.561 235.844 154.502 235.85 154.447C235.873 154.277 235.9 154.107 235.924 153.937C236.003 153.422 236.089 152.901 236.183 152.38C236.837 148.782 237.851 145.107 239.048 141.536C240.539 137.08 242.316 132.779 244.038 128.967C244.132 128.759 244.223 128.551 244.318 128.349C245.444 125.878 246.537 123.624 247.501 121.689C247.645 121.402 247.787 121.121 247.925 120.846C248.037 120.623 248.143 120.406 248.253 120.196C248.394 119.915 248.53 119.645 248.662 119.382C249.464 117.801 250.106 116.548 250.51 115.705C250.997 114.683 252.379 113.62 254.46 112.557C261.984 108.707 278.681 104.805 295.567 102.574C298.862 102.138 302.163 101.766 305.405 101.467C306.319 101.382 307.23 101.306 308.135 101.233C308.907 101.172 309.718 101.125 310.563 101.093C310.991 101.075 311.427 101.06 311.872 101.052C322.217 100.8 337.329 102.258 352.131 104.17C353.657 109.507 355.499 114.867 357.834 120.166C360.749 126.774 364.427 133.285 369.22 139.53C373.039 144.507 375.719 149.563 377.396 154.616C377.829 155.919 378.194 157.219 378.495 158.519C379.046 160.899 379.379 163.271 379.509 165.63C379.742 169.826 379.332 173.974 378.357 178.029H378.362Z" fill="#468FCE"/>
</svg>
