<svg width="32" height="32" viewBox="0 0 32 32" fill="none" xmlns="http://www.w3.org/2000/svg">
<path d="M5.33325 24.4706C5.33325 22.9729 5.89515 21.5365 6.89535 20.4775C7.89554 19.4185 9.2521 18.8235 10.6666 18.8235H21.3333C22.7477 18.8235 24.1043 19.4185 25.1045 20.4775C26.1047 21.5365 26.6666 22.9729 26.6666 24.4706C26.6666 25.2194 26.3856 25.9376 25.8855 26.4671C25.3854 26.9966 24.7072 27.2941 23.9999 27.2941H7.99992C7.29267 27.2941 6.6144 26.9966 6.1143 26.4671C5.6142 25.9376 5.33325 25.2194 5.33325 24.4706Z" stroke="#9FA9BA" stroke-width="2.5" stroke-linejoin="round"/>
<path d="M16 13.1765C18.2091 13.1765 20 11.2803 20 8.94117C20 6.60208 18.2091 4.70587 16 4.70587C13.7909 4.70587 12 6.60208 12 8.94117C12 11.2803 13.7909 13.1765 16 13.1765Z" stroke="#9FA9BA" stroke-width="2"/>
</svg>
