<svg width="142" height="128" viewBox="0 0 142 128" fill="none" xmlns="http://www.w3.org/2000/svg">
<path d="M34.513 98.4976L34.0731 99.8374L28.9291 115.516L26.5485 125.84C24.5069 126.561 21.5953 127.069 19.3804 127.698L22.6547 113.463L24.4598 104.451L25.382 99.8374L25.7036 98.2292L34.513 98.4976Z" fill="#2E3B61"/>
<path d="M70.0878 98.7602L68.8592 103.422L64.9411 117.875C64.3973 117.73 63.8568 117.612 63.318 117.513C61.3963 117.16 59.507 117.072 57.6323 117.195L58.96 109.167L59.9111 103.419L60.5304 98.7602H70.0878Z" fill="#2E3B61"/>
<path d="M101.944 3.57871V96.6107C101.944 98.085 100.738 99.2912 99.2632 99.2912H2.68123C1.53692 99.2912 0.555397 98.5668 0.172363 97.5521C0.0606449 97.2585 0 96.941 0 96.6107V2.68044C0 1.2062 1.20655 0 2.68123 0H30.6172C48.2112 6.55432 66.4835 6.7027 85.3958 4.06853C92.0845 3.13675 97.5124 3.01709 101.946 3.57871H101.944Z" fill="#2E3B61"/>
<path d="M105.132 4.20598V82.3211C105.132 83.7688 104.082 84.955 102.797 84.955H5.5207C4.87752 84.955 4.2934 84.6585 3.86887 84.1786C3.75875 84.0526 3.6598 83.9171 3.57362 83.7688C3.32784 83.3527 3.18579 82.8552 3.18579 82.3211V2.63392C3.18579 1.18622 4.23594 0 5.5207 0H30.2998C47.8938 6.54972 66.1661 6.698 85.0784 4.06567C91.7671 3.13455 97.195 3.01498 101.629 3.5762C102.874 3.73245 104.037 3.94291 105.13 4.20438L105.132 4.20598Z" fill="#42599B"/>
<path d="M27.0793 19.3804C27.0793 18.3535 27.7929 17.522 28.6723 17.522C29.5516 17.522 30.2652 18.3535 30.2652 19.3804C30.2652 20.4072 29.5516 21.2388 28.6723 21.2388C27.7929 21.2388 27.0793 20.4072 27.0793 19.3804Z" fill="#2E3B61"/>
<path d="M86.0168 19.3804C86.0168 18.3535 86.6114 17.522 87.3443 17.522C88.0771 17.522 88.6717 18.3535 88.6717 19.3804C88.6717 20.4072 88.0771 21.2388 87.3443 21.2388C86.6114 21.2388 86.0168 20.4072 86.0168 19.3804Z" fill="#2E3B61"/>
<path d="M141.734 89.2028C141.187 94.247 141.297 98.3256 138.317 101.946C137.861 102.489 137.861 102.489 137.861 102.489L3.42202 99.2912C2.12346 99.2912 1.06201 98.255 1.06201 96.9873V76.6395C1.06201 75.3718 2.12346 74.3356 3.42202 74.3356H140.593C140.827 75.0364 141.025 75.7356 141.187 76.4348C141.485 77.7151 141.664 78.9907 141.734 80.26C141.86 82.5166 142.263 87.0217 141.736 89.2028H141.734Z" fill="#2E3B61"/>
<path d="M60.9856 37.1678C60.9856 37.1678 53.4935 59.4353 57.422 73.8047H70.3749C70.3749 73.8047 75.1514 47.5961 60.9872 37.1678H60.9856Z" fill="#ECF2FF"/>
<path d="M61.0615 37.2254C61.0615 37.2254 87.543 33.5118 102.132 37.2254L113.096 73.8047H70.5991C70.5991 73.8047 75.4511 51.9128 61.0631 37.2254H61.0615Z" fill="white"/>
<path d="M10.3761 38.7607C10.3761 38.7607 3.15053 60.0595 6.93938 73.8047H19.4296C19.4296 73.8047 24.0354 48.7354 10.3761 38.7607Z" fill="#ECF2FF"/>
<path d="M10.0884 38.7495C10.0884 38.7495 35.7592 35.1907 49.9019 38.7495L60.5304 73.8047H19.333C19.333 73.8047 24.036 52.8246 10.0884 38.7495Z" fill="white"/>
<path d="M43.3139 66.2574C43.8721 65.1492 55.5965 47.5671 65.5118 48.3431C73.978 49.0058 87.6201 59.4495 92.0428 59.6277C96.4638 59.8075 109.906 50.8674 116.274 54.4415C122.641 58.0156 118.916 73.9614 118.916 73.9614L45.7467 74.3357C45.7467 74.3357 41.9207 69.0231 43.3139 66.2558V66.2574Z" fill="#5ABE8F"/>
<path d="M53.0974 35.0798C52.4276 34.767 51.7944 34.3798 51.1899 33.9548C49.1133 32.4948 44.0334 29.6175 38.1624 31.3176C30.4684 33.5455 27.0712 43.2362 27.2594 45.3741C27.4476 47.5119 17.9003 44.6836 15.7854 50.4493C13.6705 56.215 21.4746 60.2948 21.4746 63.7584C21.4746 67.2219 10.9528 72.6321 14.5573 73.9578C16.8668 74.8079 43.96 73.9578 43.96 73.9578C46.4721 72.7254 48.5806 68.7751 46.5375 65.2358C44.4943 61.6964 49.5136 59.6912 52.8215 56.6432C56.013 53.7011 61.0259 38.7914 53.0959 35.0814L53.0974 35.0798Z" fill="#002A5D"/>
<path d="M53.9561 59.7672C55.5459 58.8362 57.207 56.2819 58.2404 54.065C58.8871 52.6806 59.1788 50.9686 58.7001 51.1283C57.5145 51.4575 54.27 50.0053 51.0809 45.6633L50.748 46.0231L45.1323 52.0819C45.1323 52.0819 46.5905 53.7423 47.8332 55.4074C48.8682 56.795 49.8303 58.2763 49.5926 58.7184C49.041 59.9672 51.0413 61.471 53.9561 59.7655V59.7672Z" fill="#F4AC75"/>
<path d="M45.1339 52.3649C45.1339 52.3649 46.596 54.0542 47.8375 55.7517C51.3809 52.8431 51.157 48.4275 50.757 46.1943L45.1323 52.3665L45.1339 52.3649Z" fill="#DC8E53"/>
<path d="M36.9229 54.1588C36.9229 54.1588 30.8915 67.6579 30.8004 70.271C30.7108 72.8842 32.0607 74.9146 33.8616 74.8658C35.6625 74.8169 36.4262 73.4922 38.6098 70.7058C40.7934 67.9193 40.8846 55.326 40.8846 55.326L36.9229 54.1588Z" fill="#DC8E53"/>
<path d="M40.6406 55.2208C40.6406 55.2208 41.5566 50.2182 39.8396 49.2952C38.1225 48.3737 35.5159 47.1634 35.4336 46.4954C35.3514 45.8289 33.3161 42.7628 32.973 43.7246C32.6299 44.6848 34.0535 49.7422 34.5146 50.3957C34.9757 51.0493 36.6554 52.1208 36.9023 52.4484C37.1507 52.7744 36.8635 54.025 36.8635 54.025L40.6406 55.2208Z" fill="#DC8E53"/>
<path d="M46.1338 53.9411C46.1338 53.9411 54.5827 47.2274 50.2852 42.0734C45.9876 36.9194 44.1835 32.5827 38.6071 36.6517C33.0307 40.7207 33.6348 43.5359 34.6485 45.6023C35.6606 47.6687 43.8252 55.5566 46.1338 53.9427V53.9411Z" fill="#F4AC75"/>
<path d="M34.5488 39.7206C34.5488 39.7206 41.815 43.9482 46.0269 41.9331C50.2389 39.9179 50.973 37.7055 50.973 37.7055C50.973 37.7055 46.5572 37.7977 42.944 34.513C42.944 34.513 33.8737 35.3653 34.5488 39.7206Z" fill="#002A5D"/>
<path d="M35.2368 40.4582C35.2368 40.4582 42.1801 45.3265 48.3181 43.7597C48.3181 43.7597 40.6165 43.511 36.7358 39.7386C32.8536 35.9646 35.2368 40.4598 35.2368 40.4598V40.4582Z" fill="#002A5D"/>
<path d="M35.5749 39.9984C35.5749 39.9984 34.4257 42.4847 34.3961 43.4673C34.3649 44.4498 32.8823 45.5006 32.0351 45.006C31.188 44.5114 33.5489 36.9909 35.5749 40.0001V39.9984Z" fill="#2C3A64"/>
<path d="M36.3769 69.3298C36.8023 69.3026 48.2129 63.1853 48.2129 63.1853L48.3181 73.7249L33.9819 74.8666L36.3753 69.3298H36.3769Z" fill="#DC8E53"/>
<path d="M49.7187 58.9375C49.7187 58.9375 41.4106 65.1365 41.4155 65.1349C41.4188 65.1333 41.9516 72.3871 45.9229 74.3356H50.973L49.7171 58.9375H49.7187Z" fill="#5ABE8F"/>
<path d="M66.6524 55.1512C66.6524 55.1512 49.8823 74.4593 47.1905 75.1895C44.4987 75.9197 27.1998 73.5859 27.1998 73.5859L24.9556 76.2872C24.9556 76.2872 44.7233 84.2398 51.0832 81.8535C57.9751 79.2668 72.5536 66.3062 73.96 63.8229C75.3664 61.3396 72.8005 52.6011 66.6509 55.1512H66.6524Z" fill="#F4AC75"/>
<path d="M18.0036 68.0049C16.817 64.4179 17.8984 60.8992 20.4184 60.1431C22.9383 59.3885 25.9422 61.6824 27.1288 65.2694C28.3153 68.8548 27.2339 72.3751 24.714 73.1296C22.194 73.8858 19.1901 71.5903 18.0036 68.0033V68.0049Z" fill="#5ABE8F"/>
<path d="M15.6589 68.9143C14.5438 65.2743 17.1851 61.1747 20.1746 60.207C23.1625 59.2394 25.3662 61.7698 26.4814 65.4114C27.5966 69.053 27.3017 72.3914 24.3138 73.3591C19.8311 74.8105 16.7741 72.5559 15.6589 68.9159V68.9143Z" fill="#5ABE8F"/>
<path d="M21.2433 72.2373L21.5025 74.7133C21.5457 75.1312 21.9035 75.4711 22.2077 75.3838L22.3338 75.3479C22.4462 75.3167 22.5343 75.2294 22.581 75.1047L23.3241 73.1572C23.4503 72.8251 23.2533 72.3527 22.9249 72.2108L21.7963 71.7196C21.4731 71.5793 21.2001 71.835 21.2433 72.2373Z" fill="#5ABE8F"/>
<path d="M26.627 68.1931L28.4205 70.0955C28.7234 70.4161 28.7602 70.8977 28.4925 71.0475L28.382 71.1088C28.2833 71.1635 28.1578 71.1635 28.029 71.1088L25.9995 70.2647C25.6532 70.1197 25.4089 69.6558 25.5093 69.3304L25.8557 68.2108C25.9544 67.8903 26.3358 67.8806 26.6286 68.1899L26.627 68.1931Z" fill="#5ABE8F"/>
<path d="M14.0495 61.5515C13.5008 62.9772 13.9075 64.9775 14.9581 66.6257C15.5262 67.517 16.4736 67.7163 16.7528 66.9918L18.5135 62.4134C18.7831 61.7121 18.244 60.5706 17.4774 60.2601C15.9878 59.6577 14.6063 60.1041 14.0511 61.5515H14.0495Z" fill="#5ABE8F"/>
<path d="M25.1452 59.0287C24.0141 58.1813 22.7935 58.2242 22.009 59.008C21.5857 59.4324 21.7454 60.3877 22.3206 60.8181L25.9504 63.5377C26.5064 63.9532 27.1087 63.6087 27.0784 62.8648C27.0208 61.4185 26.2923 59.8879 25.1452 59.0287Z" fill="#5ABE8F"/>
<path d="M18.9641 67.7857C18.0275 64.7724 18.8813 61.8168 20.8699 61.1822C22.8601 60.5477 25.2317 62.4759 26.1684 65.4875C27.105 68.5007 26.2512 71.4564 24.2626 72.091C22.2724 72.7255 19.9008 70.7972 18.9641 67.7857Z" fill="white"/>
<path d="M25.7716 67.9762C25.9191 68.02 26.0276 68.1685 26.0168 68.3093C26.0059 68.4484 25.8779 68.5266 25.7325 68.4828C25.585 68.439 25.4765 68.2905 25.4873 68.1498C25.4982 68.0106 25.6262 67.9324 25.7716 67.9762Z" fill="#B4D2FF"/>
<path d="M19.4 65.3213C19.5476 65.3651 19.6561 65.5137 19.6452 65.6544C19.6344 65.7936 19.5063 65.8718 19.3609 65.828C19.2134 65.7842 19.1049 65.6356 19.1157 65.4949C19.1266 65.3557 19.2546 65.2776 19.4 65.3213Z" fill="#B4D2FF"/>
<path d="M22.8334 62.2974C22.8508 62.1598 22.9831 62.0894 23.1285 62.1395C23.2738 62.1895 23.378 62.3427 23.3606 62.4803C23.3433 62.6179 23.2109 62.6882 23.0656 62.6382C22.9202 62.5882 22.8161 62.435 22.8334 62.2974Z" fill="#B4D2FF"/>
<path d="M21.7717 70.437C21.789 70.161 21.9214 70.0198 22.0667 70.1202C22.2121 70.2206 22.3162 70.5279 22.2989 70.8008C22.2815 71.0767 22.1492 71.2179 22.0038 71.1175C21.8584 71.0172 21.7543 70.7098 21.7717 70.437Z" fill="#B4D2FF"/>
<path d="M20.7565 69.092C20.841 68.9951 21.0079 69.006 21.1271 69.1171C21.2463 69.2265 21.2745 69.3954 21.19 69.4908C21.1055 69.5878 20.9386 69.5769 20.8194 69.4658C20.7002 69.3563 20.672 69.1874 20.7565 69.092Z" fill="#B4D2FF"/>
<path d="M25.1087 65.3148C25.2405 65.2851 25.3983 65.3759 25.4609 65.5199C25.5236 65.6639 25.4674 65.8048 25.3334 65.8345C25.2016 65.8642 25.0438 65.7735 24.9812 65.6294C24.9185 65.4854 24.9747 65.3446 25.1087 65.3148Z" fill="#B4D2FF"/>
<path d="M19.7989 67.4387C19.9307 67.4089 20.0885 67.4997 20.1511 67.6437C20.2138 67.7878 20.1576 67.9286 20.0236 67.9584C19.8918 67.9881 19.734 67.8973 19.6713 67.7533C19.6087 67.6093 19.6649 67.4684 19.7989 67.4387Z" fill="#B4D2FF"/>
<path d="M25.3757 69.6477C25.4946 69.7589 25.5227 69.9266 25.4362 70.0222C25.3519 70.1194 25.1854 70.1068 25.0664 69.9971C24.9475 69.8859 24.9194 69.7182 25.0059 69.6226C25.0902 69.5254 25.2567 69.538 25.3757 69.6477Z" fill="#B4D2FF"/>
<path d="M20.0659 63.2761C20.1848 63.3873 20.2129 63.555 20.1264 63.6506C20.0421 63.7478 19.8756 63.7352 19.7566 63.6255C19.6377 63.5143 19.6096 63.3466 19.6961 63.251C19.7804 63.1538 19.9469 63.1664 20.0659 63.2761Z" fill="#B4D2FF"/>
<path d="M22.3263 66.6915C22.2634 66.5481 22.3208 66.4077 22.4535 66.377C22.5861 66.3463 22.7433 66.4383 22.8062 66.5817C22.8691 66.7251 22.8117 66.8655 22.6791 66.8962C22.5464 66.9268 22.3892 66.8349 22.3263 66.6915Z" fill="#5ABE8F"/>
<path d="M24.3885 65.8401C23.8599 66.0042 22.8315 66.3219 22.8315 66.3219L22.9601 66.9021L24.4101 65.9345C24.439 65.9139 24.4203 65.8319 24.3885 65.8422V65.8401Z" fill="#5ABE8F"/>
<path d="M21.779 63.8368C22.1075 65.1342 22.5558 66.9021 22.5558 66.9021L22.8317 66.804L21.8608 63.8042C21.817 63.6686 21.744 63.698 21.779 63.8368Z" fill="#5ABE8F"/>
<path d="M27.0779 76.9905C27.0779 76.9905 20.8211 76.0944 19.038 75.9004C17.2549 75.7064 13.8269 67.433 15.173 67.433C16.0074 67.433 20.4079 72.7039 21.433 72.7536C23.9153 72.8722 20.303 69.8072 21.0357 68.3981C21.433 67.6334 23.0079 70.4789 25.0119 71.4535C25.5634 71.7212 27.0795 73.7251 27.0795 73.7251V76.9905H27.0779Z" fill="#F4AC75"/>
<path d="M64.1495 52.5659L58.9375 62.6669C58.9375 62.6669 68.646 70.4692 76.2224 68.0187C83.7971 65.5698 74.174 57.0241 73.5067 55.9276C72.8379 54.831 64.1512 52.5659 64.1512 52.5659H64.1495Z" fill="#5ABE8F"/>
<path d="M141.114 86.8202C136.871 85.771 132.339 84.7725 127.639 84.6853C120.661 84.5554 110.74 92.0632 101.945 99.2619C98.0755 102.429 94.4231 105.535 91.334 107.906C89.0683 109.645 86.1436 110.296 83.3465 109.688C82.9125 109.592 82.4801 109.507 82.0508 109.428C79.892 109.03 77.9645 107.846 76.645 106.102C75.1387 104.113 73.591 101.765 72.1134 99.2619C69.3802 94.6308 66.8895 89.4734 65.3465 85.0784C64.4466 82.5171 63.869 80.2158 63.7525 78.4296C63.6632 77.065 63.7429 75.6243 63.9504 74.1456C63.9552 74.1154 63.9599 74.0837 63.9631 74.0536C63.9759 73.9617 63.9903 73.8698 64.003 73.7778C64.0461 73.4989 64.0924 73.2168 64.1434 72.9347C64.4977 70.9868 65.0465 68.9977 65.6944 67.0641C66.5017 64.6518 67.4639 62.3236 68.3957 60.26C68.4468 60.1475 68.4962 60.0349 68.5473 59.9256C69.1568 58.5879 69.7488 57.3675 70.2705 56.3199C70.3487 56.1645 70.4253 56.0124 70.5003 55.8634C70.5609 55.7429 70.6184 55.6257 70.6774 55.5115C70.754 55.3594 70.8274 55.2136 70.8992 55.0709C71.3332 54.2151 71.681 53.5367 71.8996 53.0803C72.1629 52.5271 72.9113 51.9518 74.0378 51.3765C78.1113 49.2923 87.1504 47.1796 96.2916 45.9719C98.0754 45.7357 99.8625 45.5344 101.618 45.3727C102.112 45.3268 102.605 45.2856 103.095 45.246C103.513 45.2127 103.952 45.1873 104.41 45.1699C104.641 45.1604 104.877 45.1524 105.118 45.1477C110.719 45.0114 118.9 45.8007 126.913 46.8356C127.739 49.725 128.736 52.627 130 55.4957C131.578 59.0729 133.57 62.5978 136.164 65.9784C138.232 68.6728 139.682 71.41 140.59 74.1456C140.825 74.8508 141.023 75.5546 141.185 76.2583C141.484 77.5468 141.664 78.8306 141.734 80.1081C141.86 82.3793 141.638 84.6251 141.11 86.8202H141.114Z" fill="#468FCE"/>
</svg>
