<?xml version="1.0" encoding="utf-8"?>
<!-- Generator: Adobe Illustrator 27.5.0, SVG Export Plug-In . SVG Version: 6.00 Build 0)  -->
<svg version="1.1" xmlns="http://www.w3.org/2000/svg" xmlns:xlink="http://www.w3.org/1999/xlink" x="0px" y="0px"
	 viewBox="0 0 750 500" style="enable-background:new 0 0 750 500;" xml:space="preserve">
<g id="BACKGROUND">
	<g id="XMLID_2_">
		<rect id="XMLID_465_" style="fill:#E3FBFC;" width="750" height="500"/>
		
			<linearGradient id="XMLID_00000103983068050066213160000006786592683641223601_" gradientUnits="userSpaceOnUse" x1="375" y1="500" x2="375" y2="-9.094947e-13">
			<stop  offset="0" style="stop-color:#5982BD"/>
			<stop  offset="1" style="stop-color:#5982BD;stop-opacity:0"/>
		</linearGradient>
		<rect id="XMLID_88_" style="fill:url(#XMLID_00000103983068050066213160000006786592683641223601_);" width="750" height="500"/>
	</g>
</g>
<g id="OBJECTS">
	<g id="XMLID_100_">
		<defs>
			<rect id="XMLID_43_" width="750" height="500"/>
		</defs>
		<clipPath id="XMLID_00000005970905506270112610000018433392359227345083_">
			<use xlink:href="#XMLID_43_"  style="overflow:visible;"/>
		</clipPath>
		
			<circle id="XMLID_65_" style="clip-path:url(#XMLID_00000005970905506270112610000018433392359227345083_);fill:#FFED9F;" cx="356.403" cy="277.714" r="95.823"/>
		
			<path id="XMLID_68_" style="opacity:0.66;clip-path:url(#XMLID_00000005970905506270112610000018433392359227345083_);fill:#FFFFFF;" d="
			M305.613,327.432c0,0,21.268-56.203,70.082-48.21c48.813,7.993,36.563-89.082,90.823-87.429
			c54.261,1.653,79.25,26.77,98.012-35.799c18.762-62.569,65.888-53.842,87.959-25.074c22.072,28.768,99.544,5.039,99.566-37.483
			v223.276L305.613,327.432z"/>
		
			<path id="XMLID_70_" style="opacity:0.66;clip-path:url(#XMLID_00000005970905506270112610000018433392359227345083_);fill:#FFFFFF;" d="
			M336.56,327.432c0,0-21.268-56.203-70.082-48.21c-48.813,7.993-36.563-89.082-90.823-87.429s-79.25,26.77-98.012-35.799
			c-18.762-62.569-65.887-53.842-87.959-25.074c-22.072,28.768-99.544,5.039-99.566-37.483v223.276L336.56,327.432z"/>
		<g id="XMLID_276_" style="clip-path:url(#XMLID_00000005970905506270112610000018433392359227345083_);">
			<g>
				<path id="XMLID_143_" style="fill:#237C73;" d="M600.232,253.213c0,0,16.607-30.368,49.385-22.806
					c32.778,7.562,33.992-15.389,53.32-0.821c19.328,14.568,38.335-11.229,53.355,2.708c15.02,13.937,14.19,18.637,14.19,18.637
					l-42.385,12.311l-69.853,5.858L600.232,253.213z"/>
				<path id="XMLID_142_" style="fill:#237C73;" d="M544.065,269.449c0,0,11.079-32.791,44.672-31.039s30.802-21.061,52.367-10.071
					c21.565,10.989,35.801-17.717,53.014-6.602c17.213,11.116,17.212,15.888,17.212,15.888l-39.602,19.487l-67.773,17.904
					L544.065,269.449z"/>
			</g>
		</g>
		<path id="XMLID_3_" style="clip-path:url(#XMLID_00000005970905506270112610000018433392359227345083_);fill:#57AA69;" d="
			M298.082,352.413c0,0,227.976-163.693,470.852-96.642v184.765L298.082,352.413z"/>
		<g id="XMLID_275_" style="clip-path:url(#XMLID_00000005970905506270112610000018433392359227345083_);">
			<g>
				<path id="XMLID_140_" style="fill:#237C73;" d="M25.408,229.286c0,0,24.263-24.684,53.733-8.466
					c29.471,16.218,36.901-5.531,51.521,13.759s39.944-0.343,50.591,17.163s8.566,21.801,8.566,21.801l-44.136,0.279l-68.801-13.424
					L25.408,229.286z"/>
				<path id="XMLID_139_" style="fill:#237C73;" d="M-33.057,229.582c0,0,19.605-28.524,51.445-17.673
					c31.84,10.852,35.38-11.857,53.128,4.599s39.277-7.277,52.804,8.113s12.224,19.981,12.224,19.981l-43.416,7.943l-70.087-1.267
					L-33.057,229.582z"/>
			</g>
		</g>
		
			<path id="XMLID_25_" style="clip-path:url(#XMLID_00000005970905506270112610000018433392359227345083_);fill:none;stroke:#0F7052;stroke-linecap:round;stroke-linejoin:round;stroke-miterlimit:10;" d="
			M450.232,276.229c0,0-65.839,51.317-65.839,184.738"/>
		
			<path id="XMLID_53_" style="opacity:0.34;clip-path:url(#XMLID_00000005970905506270112610000018433392359227345083_);fill:#4EA05A;" d="
			M368.768,324.307c0,0,80.118-10.775,124.459,6.279c44.341,17.054,90.495,12.676,113.607,27.006
			c23.112,14.33,57.529,39.735,57.529,39.735l-124.635,12.279c0,0-38.582-36.947-43.861-40.219
			C490.588,366.116,368.768,324.307,368.768,324.307z"/>
		
			<path id="XMLID_26_" style="clip-path:url(#XMLID_00000005970905506270112610000018433392359227345083_);fill:none;stroke:#0F7052;stroke-linecap:round;stroke-linejoin:round;stroke-miterlimit:10;" d="
			M516.07,255.798c0,0-65.839,51.317-65.839,184.738"/>
		
			<path id="XMLID_27_" style="clip-path:url(#XMLID_00000005970905506270112610000018433392359227345083_);fill:none;stroke:#0F7052;stroke-linecap:round;stroke-linejoin:round;stroke-miterlimit:10;" d="
			M574.958,244.79c0,0-65.839,51.317-65.839,184.738"/>
		
			<path id="XMLID_28_" style="clip-path:url(#XMLID_00000005970905506270112610000018433392359227345083_);fill:none;stroke:#0F7052;stroke-linecap:round;stroke-linejoin:round;stroke-miterlimit:10;" d="
			M629.418,241.634c0,0-65.839,51.317-65.839,184.738"/>
		
			<path id="XMLID_29_" style="clip-path:url(#XMLID_00000005970905506270112610000018433392359227345083_);fill:none;stroke:#0F7052;stroke-linecap:round;stroke-linejoin:round;stroke-miterlimit:10;" d="
			M688.35,241.634c0,0-65.839,51.317-65.839,184.738"/>
		
			<path id="XMLID_30_" style="clip-path:url(#XMLID_00000005970905506270112610000018433392359227345083_);fill:none;stroke:#0F7052;stroke-linecap:round;stroke-linejoin:round;stroke-miterlimit:10;" d="
			M736.449,247.721c0,0-65.838,51.317-65.838,184.738"/>
		
			<path id="XMLID_31_" style="clip-path:url(#XMLID_00000005970905506270112610000018433392359227345083_);fill:none;stroke:#0F7052;stroke-linecap:round;stroke-linejoin:round;stroke-miterlimit:10;" d="
			M796.485,267.822c0,0-65.839,51.317-65.839,184.738"/>
		<path id="XMLID_4_" style="clip-path:url(#XMLID_00000005970905506270112610000018433392359227345083_);fill:#5DBA6A;" d="
			M-12.26,231.392c0,0,160.918-13.136,281.334,56.923c120.415,70.06,209.687,12.611,339.352,115.415l-284.618,27.988
			l-199.232,42.693L-12.26,444.855V231.392z"/>
		
			<path id="XMLID_6_" style="clip-path:url(#XMLID_00000005970905506270112610000018433392359227345083_);fill:none;stroke:#0F7052;stroke-linecap:round;stroke-linejoin:round;stroke-miterlimit:10;" d="
			M9.28,230.505c2.478-0.039,70.855,29.502,68.384,187.631"/>
		
			<path id="XMLID_7_" style="clip-path:url(#XMLID_00000005970905506270112610000018433392359227345083_);fill:none;stroke:#0F7052;stroke-linecap:round;stroke-linejoin:round;stroke-miterlimit:10;" d="
			M65.451,230.505c2.478-0.039,70.855,29.502,68.384,187.631"/>
		
			<path id="XMLID_10_" style="clip-path:url(#XMLID_00000005970905506270112610000018433392359227345083_);fill:none;stroke:#0F7052;stroke-linecap:round;stroke-linejoin:round;stroke-miterlimit:10;" d="
			M138.658,241.634c0,0,65.838,51.317,65.838,184.738"/>
		
			<path id="XMLID_11_" style="clip-path:url(#XMLID_00000005970905506270112610000018433392359227345083_);fill:none;stroke:#0F7052;stroke-linecap:round;stroke-linejoin:round;stroke-miterlimit:10;" d="
			M216.816,263.95c0,0,65.838,51.317,65.838,184.738"/>
		
			<path id="XMLID_21_" style="clip-path:url(#XMLID_00000005970905506270112610000018433392359227345083_);fill:none;stroke:#0F7052;stroke-linecap:round;stroke-linejoin:round;stroke-miterlimit:10;" d="
			M309.567,308.522c0,0,65.839,51.317,65.839,184.738"/>
		
			<path id="XMLID_22_" style="clip-path:url(#XMLID_00000005970905506270112610000018433392359227345083_);fill:none;stroke:#0F7052;stroke-linecap:round;stroke-linejoin:round;stroke-miterlimit:10;" d="
			M381.635,325.767c0,0,65.838,51.317,65.838,184.738"/>
		
			<path id="XMLID_23_" style="clip-path:url(#XMLID_00000005970905506270112610000018433392359227345083_);fill:none;stroke:#0F7052;stroke-linecap:round;stroke-linejoin:round;stroke-miterlimit:10;" d="
			M443.281,334.003c0,0,65.838,51.317,65.838,184.738"/>
		
			<path id="XMLID_24_" style="clip-path:url(#XMLID_00000005970905506270112610000018433392359227345083_);fill:none;stroke:#0F7052;stroke-linecap:round;stroke-linejoin:round;stroke-miterlimit:10;" d="
			M509.119,348.167c0,0,65.839,51.317,65.839,184.738"/>
		<path id="XMLID_1_" style="clip-path:url(#XMLID_00000005970905506270112610000018433392359227345083_);fill:#237C4F;" d="
			M-12.26,418.258c0,0,73.165-22.458,186.819-1.007c166.757,31.474,274.319-34.962,391.362-37.213
			c117.043-2.251,209.609,47.342,209.609,47.342v90.033H-12.26V418.258z"/>
		
			<path id="XMLID_5_" style="opacity:0.68;clip-path:url(#XMLID_00000005970905506270112610000018433392359227345083_);fill:#4EA05A;" d="
			M511.719,385.14c0,0-101.155-31.737-193.319-5.177c-92.163,26.561-247.877-66.355-330.66-55.643v124.367l54.583,10.076
			c61.515,11.356,124.592,11.318,186.093-0.112l53.618-9.964c45.653,0,90.895-8.626,133.345-25.425L511.719,385.14z"/>
		
			<path id="XMLID_13_" style="opacity:0.12;clip-path:url(#XMLID_00000005970905506270112610000018433392359227345083_);fill:#FFFFFF;" d="
			M-12.26,299.718c0,0,53.825-43.547,146.161,8.804c92.336,52.351,161.644,32.13,135.173-20.207c0,0-71.218-40.583-159.958-51.628
			c-88.739-11.045-121.376-5.295-121.376-5.295V299.718z"/>
		
			<path id="XMLID_32_" style="opacity:0.12;clip-path:url(#XMLID_00000005970905506270112610000018433392359227345083_);fill:#FFFFFF;" d="
			M525.228,254.007c0,0-7.922,52.047,54.756,54.515c62.678,2.468,92.453-24.668,132.447,0
			c39.994,24.668,56.503,21.978,56.503,21.978v-74.728C768.934,255.771,664.167,221.153,525.228,254.007z"/>
		<g id="XMLID_34_" style="clip-path:url(#XMLID_00000005970905506270112610000018433392359227345083_);">
			<path id="XMLID_17_" style="fill:#5DBA6A;" d="M70.519,456.025c0,0,4.264-64.326,10.514-74.553
				c5.257-8.602-5.257,29.391-3.584,74.553H70.519z"/>
			<path id="XMLID_33_" style="fill:#5DBA6A;" d="M75.537,451.007c0,0,8.452-26.042,20.072-32.871
				c6.343-3.728-11.47,8.02-18.16,37.889L75.537,451.007z"/>
			<path id="XMLID_35_" style="fill:#5DBA6A;" d="M62.006,420.949c0,0,5.986,12.711,9.091,27.212l-0.578,7.864
				c0,0-3.034-20.583-9.397-33.662C54.759,409.283,62.006,420.949,62.006,420.949z"/>
		</g>
		<g id="XMLID_44_" style="clip-path:url(#XMLID_00000005970905506270112610000018433392359227345083_);">
			<path id="XMLID_61_" style="fill:#5DBA6A;" d="M210.567,483.299c0,0,3.695-55.747,9.112-64.61
				c4.556-7.455-4.556,25.471-3.106,64.61H210.567z"/>
			<path id="XMLID_57_" style="fill:#5DBA6A;" d="M214.916,478.95c0,0,7.325-22.569,17.395-28.487
				c5.497-3.23-9.94,6.95-15.738,32.835L214.916,478.95z"/>
			<path id="XMLID_45_" style="fill:#5DBA6A;" d="M203.19,452.901c0,0,5.188,11.015,7.879,23.583l-0.501,6.815
				c0,0-2.629-17.837-8.143-29.173C196.909,442.791,203.19,452.901,203.19,452.901z"/>
		</g>
		<g id="XMLID_62_" style="clip-path:url(#XMLID_00000005970905506270112610000018433392359227345083_);">
			<path id="XMLID_77_" style="fill:#5DBA6A;" d="M616.631,425.862c0,0,3.477-52.46,8.574-60.8c4.287-7.016-4.287,23.969-2.923,60.8
				H616.631z"/>
			<path id="XMLID_73_" style="fill:#5DBA6A;" d="M620.723,421.769c0,0,6.893-21.238,16.369-26.807
				c5.173-3.04-9.354,6.54-14.81,30.899L620.723,421.769z"/>
			<path id="XMLID_63_" style="fill:#5DBA6A;" d="M609.688,397.256c0,0,4.882,10.366,7.414,22.192l-0.471,6.414
				c0,0-2.474-16.786-7.663-27.453C603.778,387.742,609.688,397.256,609.688,397.256z"/>
		</g>
		<g id="XMLID_51_" style="clip-path:url(#XMLID_00000005970905506270112610000018433392359227345083_);">
			<path id="XMLID_64_" style="fill:#5DBA6A;" d="M711.765,492.333c0,0-10.583-38.299-25.933-39.268
				c-4.224-0.267,13.772-0.461,22.07,39.268H711.765z"/>
			<path id="XMLID_60_" style="fill:#5DBA6A;" d="M711.765,492.333c0,0,7.695-27.849,18.857-28.554
				c3.071-0.194-10.015-0.335-16.048,28.554H711.765z"/>
			<path id="XMLID_59_" style="fill:#5DBA6A;" d="M708.249,485.973c0,0-9.117-26.144,4.328-47.515
				c1.124-1.787,2.666-3.301,4.522-4.307c0.504-0.273,1.008-0.497,1.456-0.609c1.793-0.448-4.395,4.362-6.791,16.521
				s1.352,37.981,1.352,37.981l-1.352,4.289L708.249,485.973z"/>
			<path id="XMLID_54_" style="fill:#5DBA6A;" d="M709.412,466.48c0,0,3.399-17.481,12.012-21.017
				c8.612-3.536-14.098,9.639-8.93,37.719L709.412,466.48z"/>
		</g>
		<g id="XMLID_14_" style="clip-path:url(#XMLID_00000005970905506270112610000018433392359227345083_);">
			<g id="XMLID_134_">
				<defs>
					<path id="XMLID_141_" d="M645.218,525.968c0,0-5.774-50.334,6.81-73.154c12.584-22.82-6.067-51.711-11.602-78.679
						c-5.535-26.967-11.654-61.837-8.594-71.938c3.06-10.101,1.863,35.069,14.187,67.152c11.808,30.738,9.08,36.431,15.18,42.691
						c6.1,6.26,1.832-49.575,0-71.757c-1.832-22.181,12.001-23.813,11.204-66.595c-0.798-42.782-15.198-68.788,0.033-87.91
						c15.232-19.122-3.758,4.589,0,32.125c3.758,27.536,13.835,75.723,6.502,102.493s3.508,83.039,0,100.798
						c-3.508,17.758-23.451,51.005-22.658,64.977c0.793,13.971,9.207,39.796,9.207,39.796H645.218z"/>
				</defs>
				<clipPath id="XMLID_00000080905012248228511130000003139982924745613465_">
					<use xlink:href="#XMLID_141_"  style="overflow:visible;"/>
				</clipPath>
				<path id="XMLID_8_" style="clip-path:url(#XMLID_00000080905012248228511130000003139982924745613465_);fill:#957266;" d="
					M645.313,525.968c0,0-5.774-50.334,6.81-73.154c12.584-22.82-6.067-51.711-11.602-78.679
					c-5.535-26.967-11.654-61.837-8.594-71.938c3.059-10.101,1.862,35.069,14.187,67.152c11.808,30.738,9.08,36.431,15.18,42.691
					c6.1,6.26,1.832-49.575,0-71.757c-1.832-22.181,12.001-23.813,11.204-66.595c-0.798-42.782-15.198-68.788,0.033-87.91
					s-3.758,4.589,0,32.125c3.758,27.536,13.835,75.723,6.502,102.493s3.508,83.039,0,100.798
					c-3.508,17.758-23.451,51.005-22.658,64.977c0.793,13.971,9.207,39.796,9.207,39.796H645.313z"/>
				<g id="XMLID_16_" style="clip-path:url(#XMLID_00000080905012248228511130000003139982924745613465_);">
					<g>
						<path style="fill:#ADA182;" d="M670.606,190.398c-4.137,3.792-3.988,9.034-2.755,14.142
							c2.007,8.313,3.583,16.163,3.422,24.786c-0.128,6.851-2.286,14.607-0.629,21.323c1.651,6.691,6.5,12.007,7.668,18.896
							c0.134,0.792,1.339,0.456,1.205-0.332c-0.893-5.268-3.746-9.528-5.948-14.301c-3.327-7.214-1.553-14.244-1.175-21.857
							c0.309-6.234,0.18-12.527-0.86-18.693c-1.22-7.23-6.618-17.052-0.044-23.079C672.084,190.737,671.198,189.855,670.606,190.398
							L670.606,190.398z"/>
					</g>
				</g>
				<g id="XMLID_18_" style="clip-path:url(#XMLID_00000080905012248228511130000003139982924745613465_);">
					<g>
						<path style="fill:#ADA182;" d="M679.709,282.323c-0.316,7.299-6.015,12.218-8.24,18.838
							c-1.234,3.672-0.888,7.575-1.444,11.371c-0.488,3.339-1.327,6.62-1.401,10.01c-0.153,7.034,3.186,13.357,4.245,20.192
							c1.423,9.187-3.069,18.642-7.855,26.225c-0.431,0.682,0.651,1.31,1.079,0.631c3.816-6.046,7.322-13.186,8.173-20.383
							c0.934-7.889-3.033-14.969-4.109-22.611c-0.749-5.318,0.726-10.286,1.328-15.525c0.482-4.189,0.334-8.086,2.218-12
							c2.707-5.625,6.972-10.232,7.255-16.749C680.994,281.518,679.744,281.52,679.709,282.323L679.709,282.323z"/>
					</g>
				</g>
				<g id="XMLID_19_" style="clip-path:url(#XMLID_00000080905012248228511130000003139982924745613465_);">
					<g>
						<path style="fill:#ADA182;" d="M675.605,367.171c0.063,13.071-6.548,25.923-11.77,37.6c-0.326,0.728,0.751,1.365,1.079,0.631
							c5.344-11.951,12.005-24.866,11.94-38.231C676.851,366.366,675.601,366.365,675.605,367.171L675.605,367.171z"/>
					</g>
				</g>
				<g id="XMLID_20_" style="clip-path:url(#XMLID_00000080905012248228511130000003139982924745613465_);">
					<g>
						<path style="fill:#ADA182;" d="M677.88,414.697c-0.437,5.632-6.538,7.866-9.884,11.612c-2.342,2.622-4.046,5.756-5.245,9.046
							c-3.207,8.802-2.339,18.334-1.286,27.448c0.091,0.79,1.342,0.799,1.25,0c-1.205-10.44-2.185-21.713,3.13-31.265
							c2.472-4.443,6.161-6.777,9.773-10.093c2.066-1.897,3.295-3.938,3.513-6.747C679.192,413.895,677.941,413.899,677.88,414.697
							L677.88,414.697z"/>
					</g>
				</g>
				<g id="XMLID_104_" style="clip-path:url(#XMLID_00000080905012248228511130000003139982924745613465_);">
					<g>
						<path style="fill:#ADA182;" d="M665.259,454.093c0.305-8.117-0.521-18.223,9.872-19.89c0.792-0.127,0.456-1.332-0.332-1.205
							c-3.781,0.607-7.059,2.693-8.938,6.092c-2.396,4.335-1.673,10.241-1.852,15.003
							C663.979,454.897,665.229,454.896,665.259,454.093L665.259,454.093z"/>
					</g>
				</g>
				<g id="XMLID_106_" style="clip-path:url(#XMLID_00000080905012248228511130000003139982924745613465_);">
					<g>
						<path style="fill:#ADA182;" d="M646.235,474.532c0.582,3.504,3.204,6.477,4.18,10.011c1.341,4.856,2.93,9.684,3.716,14.673
							c0.947,6.004,0.664,12.069-2.146,17.559c-1.626,3.178-3.609,5.934-4.529,9.426c-0.205,0.778,1,1.111,1.205,0.332
							c1.168-4.431,4.229-7.906,5.772-12.173c1.569-4.338,1.715-9.081,1.169-13.62c-0.565-4.7-1.926-9.253-3.211-13.794
							c-0.684-2.416-1.108-5.181-2.228-7.455c-0.945-1.92-2.351-3.051-2.723-5.291C647.309,473.408,646.104,473.744,646.235,474.532
							L646.235,474.532z"/>
					</g>
				</g>
				<g id="XMLID_113_" style="clip-path:url(#XMLID_00000080905012248228511130000003139982924745613465_);">
					<g>
						<path style="fill:#ADA182;" d="M644.544,521.214c1.214-2.862,2.452-5.732,3.169-8.768c0.897-3.798,0.739-7.728,1.389-11.57
							c0.367-2.171,0.982-4.36,0.378-6.56c-0.802-2.918-3.227-4.972-4.092-7.899c-0.227-0.77-1.434-0.442-1.205,0.332
							c0.524,1.772,1.436,3.07,2.387,4.654c2.208,3.676,1.643,6.7,1.032,10.705c-0.38,2.493-0.339,5.021-0.681,7.518
							c-0.531,3.886-1.93,7.356-3.457,10.957C643.154,521.316,644.231,521.953,644.544,521.214L644.544,521.214z"/>
					</g>
				</g>
				<g id="XMLID_127_" style="clip-path:url(#XMLID_00000080905012248228511130000003139982924745613465_);">
					<g>
						<path style="fill:#ADA182;" d="M631.228,327.056c6.919,8.79,4.303,22.089,8.634,32.198c1.894,4.421,4.995,8.05,7.148,12.309
							c3.38,6.686,2.047,15.088,1.857,22.323c-0.13,4.904-0.83,10.317,0.928,15.027c1.265,3.388,3.808,5.887,6.245,8.462
							c4.906,5.183,7.39,10.208,3.159,16.932c-3.238,5.145-7.294,9.877-10.953,14.727c-0.485,0.642,0.6,1.266,1.079,0.631
							c3.924-5.2,8.649-10.342,11.759-16.082c1.849-3.413,2.503-7.028,0.833-10.655c-1.781-3.87-5.395-6.522-8.058-9.726
							c-5.068-6.099-3.886-13.886-3.69-21.282c0.162-6.135,1.105-12.882-1.096-18.763c-2.109-5.637-6.438-10.102-8.627-15.759
							c-3.889-10.049-1.414-22.434-8.333-31.225C631.615,325.54,630.736,326.43,631.228,327.056L631.228,327.056z"/>
					</g>
				</g>
			</g>
			<path id="XMLID_206_" style="fill:#4EA05A;" d="M669.801,199.553c0,0,0.611-13.884,8.476-16.21
				C678.277,183.343,681.193,198.122,669.801,199.553z"/>
			<path id="XMLID_225_" style="fill:#4EA05A;" d="M677.496,210.435c0,0,0.611-13.884,8.476-16.21
				C685.972,194.225,688.888,209.004,677.496,210.435z"/>
			<path id="XMLID_221_" style="fill:#4EA05A;" d="M673.091,233.288c0,0,0.611-13.884,8.476-16.21
				C681.567,217.078,684.483,231.856,673.091,233.288z"/>
			<path id="XMLID_218_" style="fill:#4EA05A;" d="M674.206,162.337c0,0,0.611-13.884,8.476-16.21
				C682.682,146.127,685.598,160.906,674.206,162.337z"/>
			<g id="XMLID_9_">
				<path id="XMLID_155_" style="fill:#4EA05A;" d="M634.183,318.174c0,0,2.573-13.657,10.688-14.845
					C644.871,303.329,645.663,318.372,634.183,318.174z"/>
				<path id="XMLID_195_" style="fill:#4EA05A;" d="M638.024,360.275c0,0-13.009-4.889-12.78-13.087
					C625.244,347.187,640.198,349,638.024,360.275z"/>
				<path id="XMLID_192_" style="fill:#4EA05A;" d="M636.764,344.823c0,0-2.883-13.595,4.15-17.816
					C640.914,327.008,647.436,340.587,636.764,344.823z"/>
				<path id="XMLID_162_" style="fill:#4EA05A;" d="M633.448,304.725c0,0-9.034-10.561-4.877-17.631
					C628.571,287.094,640.793,295.9,633.448,304.725z"/>
				<path id="XMLID_169_" style="fill:#4EA05A;" d="M633.418,328.139c0,0-13.138-4.532-13.133-12.734
					C620.285,315.405,635.284,316.81,633.418,328.139z"/>
				<path id="XMLID_176_" style="fill:#4EA05A;" d="M640.478,295.199c0,0,0.611-13.884,8.476-16.21
					C648.954,278.989,651.87,293.768,640.478,295.199z"/>
				<path id="XMLID_177_" style="fill:#4EA05A;" d="M617.933,299.293c0,0-9.03-10.565-4.869-17.633
					C613.064,281.66,625.282,290.471,617.933,299.293z"/>
				<path id="XMLID_183_" style="fill:#4EA05A;" d="M629.284,276.638c0,0-9.03-10.564-4.869-17.632
					C624.414,259.006,636.633,267.816,629.284,276.638z"/>
			</g>
			<g id="XMLID_15_">
				<path id="XMLID_236_" style="fill:#4EA05A;" d="M683.912,290.694c0,0,6.801-12.12,14.87-10.653
					C698.783,280.041,694.728,294.548,683.912,290.694z"/>
				<path id="XMLID_148_" style="fill:#4EA05A;" d="M674.105,331.816c0,0-10.766-8.788-7.931-16.484
					C666.174,315.332,679.766,321.827,674.105,331.816z"/>
				<path id="XMLID_124_" style="fill:#4EA05A;" d="M677.846,316.772c0,0,1.611-13.804,9.623-15.557
					C687.469,301.215,689.312,316.165,677.846,316.772z"/>
				<path id="XMLID_119_" style="fill:#4EA05A;" d="M687.511,277.714c0,0-5.188-12.893,1.01-18.265
					C688.522,259.45,697.291,271.698,687.511,277.714z"/>
				<path id="XMLID_116_" style="fill:#4EA05A;" d="M680.004,299.893c0,0-11.002-8.491-8.377-16.262
					C671.627,283.631,685.391,289.753,680.004,299.893z"/>
				<path id="XMLID_111_" style="fill:#4EA05A;" d="M697.216,270.934c0,0,5.014-12.962,13.21-12.654
					C710.426,258.28,708.469,273.216,697.216,270.934z"/>
				<path id="XMLID_108_" style="fill:#4EA05A;" d="M674.545,267.612c0,0-5.182-12.895,1.018-18.264
					C675.563,249.347,684.327,261.599,674.545,267.612z"/>
				<path id="XMLID_39_" style="fill:#4EA05A;" d="M692.537,249.769c0,0-5.182-12.895,1.018-18.264
					C693.554,231.505,702.318,243.757,692.537,249.769z"/>
			</g>
			<g id="XMLID_105_">
				<path id="XMLID_267_" style="fill:#57AA69;" d="M661.492,446.055c0,0,6.801-12.12,14.87-10.653
					C676.363,435.401,672.308,449.909,661.492,446.055z"/>
				<path id="XMLID_264_" style="fill:#57AA69;" d="M651.685,487.176c0,0-10.766-8.788-7.931-16.484
					C643.754,470.692,657.346,477.187,651.685,487.176z"/>
				<path id="XMLID_261_" style="fill:#57AA69;" d="M655.426,472.132c0,0,1.611-13.804,9.623-15.557
					C665.049,456.575,666.892,471.526,655.426,472.132z"/>
				<path id="XMLID_258_" style="fill:#57AA69;" d="M665.091,433.075c0,0-5.188-12.893,1.01-18.265
					C666.102,414.81,674.871,427.058,665.091,433.075z"/>
				<path id="XMLID_255_" style="fill:#57AA69;" d="M657.584,455.253c0,0-11.002-8.491-8.377-16.262
					C649.207,438.992,662.971,445.113,657.584,455.253z"/>
				<path id="XMLID_237_" style="fill:#57AA69;" d="M674.796,426.294c0,0,5.014-12.962,13.21-12.654
					C688.006,413.64,686.048,428.576,674.796,426.294z"/>
				<path id="XMLID_112_" style="fill:#57AA69;" d="M652.125,422.972c0,0-5.182-12.895,1.018-18.264
					C653.142,404.708,661.907,416.96,652.125,422.972z"/>
				<path id="XMLID_107_" style="fill:#57AA69;" d="M670.117,405.129c0,0-5.182-12.895,1.018-18.264
					C671.134,386.865,679.898,399.117,670.117,405.129z"/>
			</g>
			<path id="XMLID_198_" style="fill:#4EA05A;" d="M667.448,225.183c0,0-9.03-10.564-4.869-17.632
				C662.579,207.55,674.797,216.361,667.448,225.183z"/>
			<path id="XMLID_210_" style="fill:#4EA05A;" d="M667.448,194.225c0,0-9.03-10.564-4.869-17.632
				C662.579,176.592,674.797,185.403,667.448,194.225z"/>
			<path id="XMLID_216_" style="fill:#4EA05A;" d="M670.152,178.934c0,0-7.207-11.883-1.961-18.187
				C668.191,160.747,678.828,171.414,670.152,178.934z"/>
			<path id="XMLID_217_" style="fill:#4EA05A;" d="M677.497,177.438c0,0-0.231-13.896,7.479-16.694
				C684.975,160.745,688.781,175.32,677.497,177.438z"/>
			<path id="XMLID_231_" style="fill:#4EA05A;" d="M660.075,202.404c0,0-10.912-8.607-8.205-16.349
				C651.87,186.055,665.569,192.322,660.075,202.404z"/>
			<path id="XMLID_233_" style="fill:#4EA05A;" d="M664.293,150.555c0,0-4.606-13.112,1.826-18.201
				C666.119,132.354,674.332,144.982,664.293,150.555z"/>
			<path id="XMLID_232_" style="fill:#4EA05A;" d="M656.2,171.474c0,0-6.378-12.347-0.714-18.279
				C655.487,153.196,665.37,164.564,656.2,171.474z"/>
		</g>
		<g id="XMLID_285_" style="clip-path:url(#XMLID_00000005970905506270112610000018433392359227345083_);">
			<g>
				<g id="XMLID_541_">
					<g id="XMLID_698_">
						<path id="XMLID_699_" style="fill:#80DD96;" d="M76.95,538.255l-0.997-0.082c0.031-0.381,3.542-38.475,41.275-64.727
							c37.33-25.973,40.449-65.171,40.476-65.564l0.998,0.068c-0.027,0.397-3.166,40.059-40.902,66.315
							C80.449,500.252,76.981,537.877,76.95,538.255z"/>
					</g>
					<g id="XMLID_696_">
						<path id="XMLID_697_" style="fill:#80DD96;" d="M157.204,414.411c0,0,9.864-14.112,28.16-3.004
							C185.363,411.408,176.416,431.594,157.204,414.411z"/>
					</g>
					<g id="XMLID_694_">
						<path id="XMLID_695_" style="fill:#80DD96;" d="M157.752,410.551c0,0-11.374-12.926,3.752-28.07
							C161.504,382.481,178.997,395.956,157.752,410.551z"/>
					</g>
					<g id="XMLID_692_">
						<path id="XMLID_693_" style="fill:#80DD96;" d="M153.52,429.204c0,0-16.557-4.726-12.017-25.643
							C141.503,403.561,163.503,405.44,153.52,429.204z"/>
					</g>
					<g id="XMLID_690_">
						<path id="XMLID_691_" style="fill:#80DD96;" d="M145.032,445.348c0,0-16.557-4.726-12.017-25.643
							C133.015,419.705,155.015,421.585,145.032,445.348z"/>
					</g>
					<g id="XMLID_688_">
						<path id="XMLID_689_" style="fill:#80DD96;" d="M128.194,465.16c0,0-12.324-12.024,1.607-28.274
							C129.801,436.886,148.267,448.991,128.194,465.16z"/>
					</g>
					<g id="XMLID_686_">
						<path id="XMLID_687_" style="fill:#80DD96;" d="M88.084,504.985c0,0-13.18-11.08-0.488-28.315
							C87.596,476.67,106.907,487.376,88.084,504.985z"/>
					</g>
					<g id="XMLID_674_">
						<path id="XMLID_685_" style="fill:#80DD96;" d="M107.522,482.47c0,0-12.324-12.024,1.607-28.274
							C109.129,454.196,127.596,466.301,107.522,482.47z"/>
					</g>
					<g id="XMLID_671_">
						<path id="XMLID_672_" style="fill:#80DD96;" d="M152.514,431.104c0,0,9.864-14.112,28.16-3.004
							C180.674,428.101,171.727,448.287,152.514,431.104z"/>
					</g>
					<g id="XMLID_669_">
						<path id="XMLID_670_" style="fill:#80DD96;" d="M144.211,446.897c0,0,13.147-11.119,27.991,4.301
							C172.202,451.198,158.388,468.424,144.211,446.897z"/>
					</g>
					<g id="XMLID_662_">
						<path id="XMLID_668_" style="fill:#80DD96;" d="M130.46,463.663c0,0,11.286-13.003,28.319-0.042
							C158.78,463.621,147.77,482.761,130.46,463.663z"/>
					</g>
					<g id="XMLID_659_">
						<path id="XMLID_661_" style="fill:#80DD96;" d="M82.136,517.612c0,0,4.204-16.697,25.253-12.816
							C107.39,504.795,106.202,526.844,82.136,517.612z"/>
					</g>
					<g id="XMLID_656_">
						<path id="XMLID_657_" style="fill:#80DD96;" d="M116.857,474.687c0,0,11.286-13.003,28.319-0.042
							C145.177,474.645,134.167,493.785,116.857,474.687z"/>
					</g>
					<g id="XMLID_542_">
						<path id="XMLID_655_" style="fill:#80DD96;" d="M98.346,491.082c0,0,11.286-13.003,28.319-0.042
							C126.666,491.041,115.656,510.181,98.346,491.082z"/>
					</g>
				</g>
			</g>
		</g>
		<g id="XMLID_496_" style="clip-path:url(#XMLID_00000005970905506270112610000018433392359227345083_);">
			<path id="XMLID_534_" style="fill:none;stroke:#216D64;stroke-linecap:round;stroke-linejoin:round;stroke-miterlimit:10;" d="
				M819.429,137.303c0,0-16.499-52.479-70.188-59.679c-53.689-7.2-74.555-59.988-79.232-99.619"/>
			<g id="XMLID_527_">
				<path id="XMLID_531_" style="fill:#237C73;" d="M680.609,19.91c-0.574-1.71,51.396-46.172-19.796-100.354
					c0,0-55.317,55.446,19.222,98.644"/>
				<path id="XMLID_530_" style="fill:none;stroke:#216D64;stroke-linecap:round;stroke-linejoin:round;stroke-miterlimit:10;" d="
					M660.813-80.444c0,0,14.959,22.856,9.698,53.916c-3.034,17.913,8.108,40.695,8.108,40.695"/>
				
					<polyline id="XMLID_529_" style="fill:none;stroke:#216D64;stroke-linecap:round;stroke-linejoin:round;stroke-miterlimit:10;" points="
					694.098,-24.443 672.766,-1.755 652.925,-19.833 				"/>
				
					<polyline id="XMLID_528_" style="fill:none;stroke:#216D64;stroke-linecap:round;stroke-linejoin:round;stroke-miterlimit:10;" points="
					688.004,-49.188 671.152,-31.264 655.477,-45.547 				"/>
			</g>
			<g id="XMLID_520_">
				<path id="XMLID_524_" style="fill:#237C73;" d="M703.959,54.245c-1.797-0.161-21.652-65.609-99.859-22.161
					c0,0,28.571,72.924,98.062,22"/>
				<path id="XMLID_523_" style="fill:none;stroke:#216D64;stroke-linecap:round;stroke-linejoin:round;stroke-miterlimit:10;" d="
					M604.101,32.084c0,0,26.939-4.524,53.273,12.764c15.188,9.97,40.527,8.913,40.527,8.913"/>
				
					<polyline id="XMLID_522_" style="fill:none;stroke:#216D64;stroke-linecap:round;stroke-linejoin:round;stroke-miterlimit:10;" points="
					668.753,24.083 680.968,52.73 656.444,63.643 				"/>
				
					<polyline id="XMLID_521_" style="fill:none;stroke:#216D64;stroke-linecap:round;stroke-linejoin:round;stroke-miterlimit:10;" points="
					643.644,19.729 653.293,42.36 633.92,50.982 				"/>
			</g>
			<g id="XMLID_513_">
				<path id="XMLID_517_" style="fill:#237C73;" d="M727.395,72.384c-0.145-1.798,61.004-32.433,4.959-102.168
					c0,0-67.043,40.49-5.104,100.37"/>
				<path id="XMLID_516_" style="fill:none;stroke:#216D64;stroke-linecap:round;stroke-linejoin:round;stroke-miterlimit:10;" d="
					M732.353-29.783c0,0,9.013,25.786-3.573,54.664c-7.259,16.655-1.933,41.45-1.933,41.45"/>
				
					<polyline id="XMLID_515_" style="fill:none;stroke:#216D64;stroke-linecap:round;stroke-linejoin:round;stroke-miterlimit:10;" points="
					751.17,32.586 725.001,49.468 710.099,27.142 				"/>
				
					<polyline id="XMLID_514_" style="fill:none;stroke:#216D64;stroke-linecap:round;stroke-linejoin:round;stroke-miterlimit:10;" points="
					751.216,7.102 730.542,20.438 718.769,2.801 				"/>
			</g>
			<path id="XMLID_512_" style="fill:none;stroke:#216D64;stroke-linecap:round;stroke-linejoin:round;stroke-miterlimit:10;" d="
				M803.193,108.552c0,0-39.691-42.371-80.592-24.71c-35.057,15.138-37.884,43.81-37.884,43.81"/>
			<path id="XMLID_505_" style="fill:#FFFFFF;" d="M691.693,102.595c0,0,6.272-0.201,7.829,4.048
				c1.557,4.249-8.033,24.962-13.839,30.416c-5.806,5.454-6.387-9.1-5.231-14.198C681.608,117.764,680.659,104.551,691.693,102.595z
				"/>
			<path id="XMLID_501_" style="fill:none;stroke:#216D64;stroke-linecap:round;stroke-linejoin:round;stroke-miterlimit:10;" d="
				M745.4,79.572c0,0-39.943-4.589-63.751,3.411"/>
			<path id="XMLID_497_" style="fill:#FFFFFF;" d="M692.047,77.829c0,0,3.711,5.06,1.087,8.746
				c-2.625,3.686-25.132,7.484-32.913,5.777c-7.781-1.706,3.896-10.413,8.755-12.34C673.834,78.085,684.196,69.833,692.047,77.829z"
				/>
		</g>
		<g id="XMLID_563_" style="clip-path:url(#XMLID_00000005970905506270112610000018433392359227345083_);">
			<path id="XMLID_569_" style="fill:#FFF0A4;" d="M696.553,420.914c0.052,0.324-2.702-5.532,1.912-6.755
				c4.614-1.223,2.019-3.242,5.767-4.491c3.749-1.25,3.364,2.595,7.401,1.442c4.037-1.153,3.537-4.032,8.171-3.364
				c3.252,0.469,2.211,3.576,4.998,3.855s4.904-0.17,4.732,2.559c-0.173,2.729-0.287,7.716-8.325,8.005
				C713.172,422.453,696.553,420.914,696.553,420.914z"/>
			<path id="XMLID_568_" style="fill:none;stroke:#FFFFFF;stroke-linecap:round;stroke-linejoin:round;stroke-miterlimit:10;" d="
				M713.076,418.509c0,0-2.438-12.22,4.873-19.01"/>
			<path id="XMLID_567_" style="fill:none;stroke:#FFFFFF;stroke-linecap:round;stroke-linejoin:round;stroke-miterlimit:10;" d="
				M703.953,405.139c0,0,6.267,3.969,7.729,15.458"/>
			<path id="XMLID_566_" style="fill:#FFFFFF;" d="M698.289,423.134c0,0,4.74,7.11,16.243,5.074
				c11.503-2.036,15.067-9.93,15.067-12.856c0-2.926-0.509-2.043-4.836-0.703c-4.327,1.341-5.091-4.198-7.637-2.829
				c-2.545,1.369-3.309,6.694-6.364,4.159c-3.055-2.535-4.836-4.158-6.109-1.819c-1.273,2.339-2.8,5.444-4.837,5.928
				C697.779,420.571,694.512,419.852,698.289,423.134z"/>
			<path id="XMLID_565_" style="fill:#FFF0A4;" d="M705.208,405.028c0,0.913-0.74,1.653-1.653,1.653
				c-0.913,0-1.653-0.74-1.653-1.653c0-0.913,0.74-1.653,1.653-1.653C704.468,403.375,705.208,404.115,705.208,405.028z"/>
			<path id="XMLID_564_" style="fill:#FFF0A4;" d="M719.602,399.175c0,0.913-0.74,1.653-1.653,1.653
				c-0.913,0-1.653-0.74-1.653-1.653c0-0.913,0.74-1.653,1.653-1.653C718.862,397.522,719.602,398.262,719.602,399.175z"/>
		</g>
		<g id="XMLID_549_" style="clip-path:url(#XMLID_00000005970905506270112610000018433392359227345083_);">
			<path id="XMLID_555_" style="fill:#FFF0A4;" d="M531.659,494.887c-0.022,0.479,2.996-8.485-3.908-9.488
				c-6.905-1.003-3.474-4.369-9.127-5.555c-5.653-1.186-4.45,4.332-10.505,3.334c-6.055-0.998-5.811-5.262-12.427-3.516
				c-4.643,1.226-2.611,5.563-6.612,6.435c-4.001,0.872-7.15,0.575-6.442,4.509c0.708,3.933,1.71,11.156,13.43,10.228
				C507.786,499.905,531.659,494.887,531.659,494.887z"/>
			<path id="XMLID_554_" style="fill:none;stroke:#FFFFFF;stroke-linecap:round;stroke-linejoin:round;stroke-miterlimit:10;" d="
				M511.812,501.957c0,0,1.492-18.153-10.262-26.786"/>
			<path id="XMLID_553_" style="fill:none;stroke:#FFFFFF;stroke-linecap:round;stroke-linejoin:round;stroke-miterlimit:10;" d="
				M518.271,473.221c0,0-8.434,6.814-8.632,23.741"/>
			<path id="XMLID_552_" style="fill:#FFFFFF;" d="M529.512,498.4c0,0-5.69,11.118-22.735,10.089
				c-17.044-1.029-23.542-11.894-24.032-16.142c-0.49-4.248,0.397-3.052,6.905-1.831c6.508,1.221,6.689-6.948,10.614-5.387
				s5.927,9.165,9.937,4.972c4.01-4.193,6.326-6.848,8.566-3.665c2.24,3.182,4.978,7.436,8.016,7.797
				C529.821,494.593,534.445,493.002,529.512,498.4z"/>
			<path id="XMLID_551_" style="fill:#FFF0A4;" d="M516.43,473.27c0.153,1.326,1.352,2.277,2.678,2.124
				c1.326-0.153,2.276-1.352,2.123-2.678s-1.352-2.276-2.678-2.124C517.228,470.746,516.277,471.944,516.43,473.27z"/>
			<path id="XMLID_550_" style="fill:#FFF0A4;" d="M499.095,474.977c0.153,1.326,1.352,2.277,2.678,2.123
				c1.326-0.153,2.276-1.352,2.123-2.678c-0.153-1.326-1.352-2.276-2.678-2.123C499.893,472.453,498.942,473.652,499.095,474.977z"
				/>
		</g>
		<g id="XMLID_302_" style="clip-path:url(#XMLID_00000005970905506270112610000018433392359227345083_);">
			<g>
				<g id="XMLID_448_">
					<g id="XMLID_504_">
						<path id="XMLID_506_" style="fill:#80DD96;" d="M616.219,542.18l-0.92-0.393c0.156-0.366,15.334-37.117-6.709-79.573
							c-22.271-42.895-5.787-81.336-5.617-81.72l0.914,0.404c-0.167,0.379-16.451,38.4,5.59,80.854
							C631.746,504.644,616.377,541.809,616.219,542.18z"/>
					</g>
					<g id="XMLID_502_">
						<path id="XMLID_503_" style="fill:#80DD96;" d="M601.18,387.23c0,0-2.275-17.963-24.741-16.576
							C576.44,370.654,574.889,393.822,601.18,387.23z"/>
					</g>
					<g id="XMLID_495_">
						<path id="XMLID_500_" style="fill:#80DD96;" d="M602.56,383.369c0,0,16.913-6.466,10.244-27.963
							C612.803,355.405,589.927,359.387,602.56,383.369z"/>
					</g>
					<g id="XMLID_484_">
						<path id="XMLID_493_" style="fill:#80DD96;" d="M597.37,402.802c0,0,17.724,3.703,23.735-17.988
							C621.105,384.814,599.707,375.797,597.37,402.802z"/>
					</g>
					<g id="XMLID_473_">
						<path id="XMLID_482_" style="fill:#80DD96;" d="M597.37,421.983c0,0,17.724,3.703,23.735-17.988
							C621.105,403.995,599.707,394.978,597.37,421.983z"/>
					</g>
					<g id="XMLID_466_">
						<path id="XMLID_471_" style="fill:#80DD96;" d="M603.348,448.663c0,0,17.355-5.161,12.341-27.103
							C615.689,421.56,592.576,423.79,603.348,448.663z"/>
					</g>
					<g id="XMLID_463_">
						<path id="XMLID_464_" style="fill:#80DD96;" d="M621.193,505.361c0,0,17.69-3.864,14.311-26.117
							C635.504,479.245,612.29,479.76,621.193,505.361z"/>
					</g>
					<g id="XMLID_461_">
						<path id="XMLID_462_" style="fill:#80DD96;" d="M614.118,474.891c0,0,17.355-5.161,12.34-27.103
							C626.459,447.788,603.346,450.018,614.118,474.891z"/>
					</g>
					<g id="XMLID_459_">
						<path id="XMLID_460_" style="fill:#80DD96;" d="M597.377,405.063c0,0-2.276-17.963-24.741-16.576
							C572.636,388.487,571.085,411.655,597.377,405.063z"/>
					</g>
					<g id="XMLID_457_">
						<path id="XMLID_458_" style="fill:#80DD96;" d="M597.377,423.827c0,0-6.796-16.783-28.159-9.695
							C569.218,414.132,573.646,436.926,597.377,423.827z"/>
					</g>
					<g id="XMLID_455_">
						<path id="XMLID_456_" style="fill:#80DD96;" d="M601.971,446.161c0,0-4.142-17.626-26.339-13.898
							C575.632,432.263,576.513,455.466,601.971,446.161z"/>
					</g>
					<g id="XMLID_453_">
						<path id="XMLID_454_" style="fill:#80DD96;" d="M620.55,520.024c0,0,4.258-17.599-17.234-24.288
							C603.316,495.737,593.632,516.841,620.55,520.024z"/>
					</g>
					<g id="XMLID_451_">
						<path id="XMLID_452_" style="fill:#80DD96;" d="M609.238,463.079c0,0-4.142-17.626-26.339-13.897
							C582.898,449.181,583.779,472.384,609.238,463.079z"/>
					</g>
					<g id="XMLID_449_">
						<path id="XMLID_450_" style="fill:#80DD96;" d="M618.444,487.398c0,0-4.142-17.626-26.339-13.898
							C592.105,473.501,592.986,496.704,618.444,487.398z"/>
					</g>
				</g>
			</g>
		</g>
		<g id="XMLID_570_" style="clip-path:url(#XMLID_00000005970905506270112610000018433392359227345083_);">
			<path id="XMLID_518_" style="fill:#FFA4A4;" d="M329.529,493.956c0,0.829-0.896,1.501-2.002,1.501
				c-1.106,0-2.002-0.672-2.002-1.501c0-0.829,0.896-1.501,2.002-1.501C328.632,492.455,329.529,493.127,329.529,493.956z"/>
			<path id="XMLID_575_" style="fill:#FFA4A4;" d="M355.552,476.161c0,0.829-0.896,1.501-2.002,1.501
				c-1.106,0-2.002-0.672-2.002-1.501s0.896-1.501,2.002-1.501C354.656,474.66,355.552,475.332,355.552,476.161z"/>
			<path id="XMLID_577_" style="fill:#FFA4A4;" d="M355.552,484.422c0,0.829-0.896,1.501-2.002,1.501
				c-1.106,0-2.002-0.672-2.002-1.501c0-0.829,0.896-1.501,2.002-1.501C354.656,482.92,355.552,483.592,355.552,484.422z"/>
			<path id="XMLID_573_" style="fill:#FFA4A4;" d="M347.211,484.422c0,0.829-0.896,1.501-2.002,1.501
				c-1.106,0-2.002-0.672-2.002-1.501c0-0.829,0.896-1.501,2.002-1.501C346.315,482.92,347.211,483.592,347.211,484.422z"/>
			<path id="XMLID_578_" style="fill:#FFA4A4;" d="M345.209,490.953c0,0.829-0.896,1.501-2.002,1.501
				c-1.106,0-2.002-0.672-2.002-1.501c0-0.829,0.896-1.501,2.002-1.501C344.313,489.452,345.209,490.124,345.209,490.953z"/>
			<path id="XMLID_572_" style="fill:#FFA4A4;" d="M355.552,493.956c0,0.829-0.896,1.501-2.002,1.501
				c-1.106,0-2.002-0.672-2.002-1.501c0-0.829,0.896-1.501,2.002-1.501C354.656,492.455,355.552,493.127,355.552,493.956z"/>
			<ellipse id="XMLID_579_" style="fill:#FFA4A4;" cx="335.867" cy="482.92" rx="4.004" ry="3.003"/>
			<ellipse id="XMLID_580_" style="fill:#FFA4A4;" cx="362.558" cy="473.712" rx="4.004" ry="3.003"/>
			<ellipse id="XMLID_581_" style="fill:#FFA4A4;" cx="364.56" cy="492.932" rx="4.004" ry="3.003"/>
			<ellipse id="XMLID_582_" style="fill:#FFA4A4;" cx="370.996" cy="485.244" rx="4.004" ry="3.003"/>
			<path id="XMLID_583_" style="fill:#FFA4A4;" d="M329.529,474.58c0,1.244-1.344,2.252-3.003,2.252
				c-1.658,0-3.003-1.008-3.003-2.252c0-1.244,1.344-2.252,3.003-2.252C328.184,472.328,329.529,473.337,329.529,474.58z"/>
			<path id="XMLID_576_" style="fill:#FFA4A4;" d="M364.56,484.422c0,0.829-0.896,1.501-2.002,1.501
				c-1.106,0-2.002-0.672-2.002-1.501c0-0.829,0.896-1.501,2.002-1.501C363.664,482.92,364.56,483.592,364.56,484.422z"/>
			<path id="XMLID_571_" style="fill:#FFA4A4;" d="M341.873,474.66c0,0.829-0.896,1.501-2.002,1.501
				c-1.105,0-2.002-0.672-2.002-1.501c0-0.829,0.896-1.501,2.002-1.501C340.977,473.158,341.873,473.831,341.873,474.66z"/>
			<path id="XMLID_574_" style="fill:#FFA4A4;" d="M329.529,482.92c0,0.829-0.896,1.501-2.002,1.501
				c-1.106,0-2.002-0.672-2.002-1.501c0-0.829,0.896-1.501,2.002-1.501C328.632,481.419,329.529,482.091,329.529,482.92z"/>
		</g>
		<g id="XMLID_584_" style="clip-path:url(#XMLID_00000005970905506270112610000018433392359227345083_);">
			<path id="XMLID_643_" style="fill:#FFA4A4;" d="M233.378,446.828c0,0.484-0.523,0.876-1.168,0.876
				c-0.645,0-1.168-0.392-1.168-0.876c0-0.484,0.523-0.876,1.168-0.876C232.855,445.953,233.378,446.345,233.378,446.828z"/>
			<path id="XMLID_642_" style="fill:#FFA4A4;" d="M248.557,436.449c0,0.484-0.523,0.876-1.168,0.876
				c-0.645,0-1.168-0.392-1.168-0.876c0-0.484,0.523-0.876,1.168-0.876C248.035,435.573,248.557,435.965,248.557,436.449z"/>
			<path id="XMLID_641_" style="fill:#FFA4A4;" d="M248.557,441.267c0,0.484-0.523,0.876-1.168,0.876
				c-0.645,0-1.168-0.392-1.168-0.876c0-0.484,0.523-0.876,1.168-0.876C248.035,440.391,248.557,440.783,248.557,441.267z"/>
			<path id="XMLID_640_" style="fill:#FFA4A4;" d="M243.692,441.267c0,0.484-0.523,0.876-1.168,0.876
				c-0.645,0-1.168-0.392-1.168-0.876c0-0.484,0.523-0.876,1.168-0.876C243.169,440.391,243.692,440.783,243.692,441.267z"/>
			<path id="XMLID_639_" style="fill:#FFA4A4;" d="M242.524,445.077c0,0.484-0.523,0.876-1.168,0.876s-1.168-0.392-1.168-0.876
				c0-0.484,0.523-0.876,1.168-0.876S242.524,444.593,242.524,445.077z"/>
			<path id="XMLID_638_" style="fill:#FFA4A4;" d="M248.557,446.828c0,0.484-0.523,0.876-1.168,0.876
				c-0.645,0-1.168-0.392-1.168-0.876c0-0.484,0.523-0.876,1.168-0.876C248.035,445.953,248.557,446.345,248.557,446.828z"/>
			<path id="XMLID_637_" style="fill:#FFA4A4;" d="M239.411,440.391c0,0.967-1.046,1.751-2.335,1.751
				c-1.29,0-2.335-0.784-2.335-1.751c0-0.967,1.046-1.751,2.335-1.751C238.365,438.64,239.411,439.424,239.411,440.391z"/>
			<path id="XMLID_636_" style="fill:#FFA4A4;" d="M254.979,435.02c0,0.967-1.046,1.751-2.335,1.751
				c-1.29,0-2.335-0.784-2.335-1.751c0-0.967,1.046-1.751,2.335-1.751C253.934,433.269,254.979,434.053,254.979,435.02z"/>
			<path id="XMLID_635_" style="fill:#FFA4A4;" d="M256.147,446.231c0,0.967-1.046,1.751-2.335,1.751
				c-1.29,0-2.335-0.784-2.335-1.751c0-0.967,1.046-1.752,2.335-1.752C255.102,444.48,256.147,445.264,256.147,446.231z"/>
			<path id="XMLID_634_" style="fill:#FFA4A4;" d="M259.902,441.747c0,0.967-1.046,1.751-2.335,1.751
				c-1.29,0-2.335-0.784-2.335-1.751c0-0.967,1.046-1.751,2.335-1.751C258.856,439.996,259.902,440.78,259.902,441.747z"/>
			<path id="XMLID_633_" style="fill:#FFA4A4;" d="M233.378,435.526c0,0.726-0.784,1.314-1.751,1.314s-1.752-0.588-1.752-1.314
				c0-0.725,0.784-1.314,1.752-1.314S233.378,434.801,233.378,435.526z"/>
			<path id="XMLID_632_" style="fill:#FFA4A4;" d="M253.812,441.267c0,0.484-0.523,0.876-1.168,0.876s-1.168-0.392-1.168-0.876
				c0-0.484,0.523-0.876,1.168-0.876S253.812,440.783,253.812,441.267z"/>
			<path id="XMLID_631_" style="fill:#FFA4A4;" d="M240.578,435.573c0,0.484-0.523,0.876-1.168,0.876s-1.168-0.392-1.168-0.876
				c0-0.484,0.523-0.876,1.168-0.876S240.578,435.089,240.578,435.573z"/>
			<path id="XMLID_630_" style="fill:#FFA4A4;" d="M233.378,440.391c0,0.484-0.523,0.876-1.168,0.876
				c-0.645,0-1.168-0.392-1.168-0.876c0-0.484,0.523-0.876,1.168-0.876C232.855,439.516,233.378,439.908,233.378,440.391z"/>
		</g>
		<g id="XMLID_600_" style="clip-path:url(#XMLID_00000005970905506270112610000018433392359227345083_);">
			<path id="XMLID_614_" style="fill:#FFA4A4;" d="M666.573,487.002c0,0.629-0.68,1.139-1.519,1.139s-1.519-0.51-1.519-1.139
				c0-0.629,0.68-1.139,1.519-1.139S666.573,486.373,666.573,487.002z"/>
			<path id="XMLID_613_" style="fill:#FFA4A4;" d="M686.317,473.501c0,0.629-0.68,1.139-1.519,1.139s-1.519-0.51-1.519-1.139
				c0-0.629,0.68-1.139,1.519-1.139S686.317,472.872,686.317,473.501z"/>
			<path id="XMLID_612_" style="fill:#FFA4A4;" d="M686.317,479.768c0,0.629-0.68,1.139-1.519,1.139s-1.519-0.51-1.519-1.139
				c0-0.629,0.68-1.139,1.519-1.139S686.317,479.139,686.317,479.768z"/>
			<path id="XMLID_611_" style="fill:#FFA4A4;" d="M679.989,479.768c0,0.629-0.68,1.139-1.519,1.139
				c-0.839,0-1.519-0.51-1.519-1.139c0-0.629,0.68-1.139,1.519-1.139C679.309,478.629,679.989,479.139,679.989,479.768z"/>
			<path id="XMLID_610_" style="fill:#FFA4A4;" d="M678.47,484.724c0,0.629-0.68,1.139-1.519,1.139c-0.839,0-1.519-0.51-1.519-1.139
				c0-0.629,0.68-1.139,1.519-1.139C677.79,483.585,678.47,484.095,678.47,484.724z"/>
			<path id="XMLID_609_" style="fill:#FFA4A4;" d="M686.317,487.002c0,0.629-0.68,1.139-1.519,1.139s-1.519-0.51-1.519-1.139
				c0-0.629,0.68-1.139,1.519-1.139S686.317,486.373,686.317,487.002z"/>
			<path id="XMLID_608_" style="fill:#FFA4A4;" d="M674.42,478.629c0,1.258-1.36,2.278-3.038,2.278c-1.677,0-3.037-1.02-3.037-2.278
				c0-1.258,1.36-2.278,3.037-2.278C673.06,476.351,674.42,477.371,674.42,478.629z"/>
			<path id="XMLID_607_" style="fill:#FFA4A4;" d="M694.67,471.643c0,1.258-1.36,2.278-3.037,2.278c-1.677,0-3.037-1.02-3.037-2.278
				s1.36-2.278,3.037-2.278C693.31,469.365,694.67,470.385,694.67,471.643z"/>
			<path id="XMLID_606_" style="fill:#FFA4A4;" d="M696.189,486.225c0,1.258-1.36,2.278-3.037,2.278s-3.037-1.02-3.037-2.278
				s1.36-2.278,3.037-2.278S696.189,484.967,696.189,486.225z"/>
			<path id="XMLID_605_" style="fill:#FFA4A4;" d="M701.072,480.393c0,1.258-1.36,2.278-3.038,2.278
				c-1.678,0-3.038-1.02-3.038-2.278c0-1.258,1.36-2.278,3.038-2.278C699.712,478.115,701.072,479.134,701.072,480.393z"/>
			<ellipse id="XMLID_604_" style="fill:#FFA4A4;" cx="664.295" cy="472.302" rx="2.278" ry="1.709"/>
			<path id="XMLID_603_" style="fill:#FFA4A4;" d="M693.151,479.768c0,0.629-0.68,1.139-1.519,1.139s-1.519-0.51-1.519-1.139
				c0-0.629,0.68-1.139,1.519-1.139S693.151,479.139,693.151,479.768z"/>
			<path id="XMLID_602_" style="fill:#FFA4A4;" d="M675.939,472.362c0,0.629-0.68,1.139-1.519,1.139
				c-0.839,0-1.519-0.51-1.519-1.139c0-0.629,0.68-1.139,1.519-1.139C675.259,471.223,675.939,471.733,675.939,472.362z"/>
			<path id="XMLID_601_" style="fill:#FFA4A4;" d="M666.573,478.629c0,0.629-0.68,1.139-1.519,1.139s-1.519-0.51-1.519-1.139
				c0-0.629,0.68-1.139,1.519-1.139S666.573,478,666.573,478.629z"/>
		</g>
		<g id="XMLID_585_" style="clip-path:url(#XMLID_00000005970905506270112610000018433392359227345083_);">
			<path id="XMLID_599_" style="fill:#FFA4A4;" d="M437.281,425.585c0.096,0.429-0.29,0.881-0.863,1.009
				c-0.572,0.128-1.114-0.117-1.21-0.546c-0.096-0.429,0.29-0.881,0.863-1.009C436.644,424.911,437.185,425.155,437.281,425.585z"/>
			<path id="XMLID_598_" style="fill:#FFA4A4;" d="M448.695,413.363c0.096,0.429-0.29,0.881-0.863,1.009
				c-0.572,0.128-1.114-0.116-1.21-0.546c-0.096-0.429,0.29-0.881,0.863-1.009C448.057,412.689,448.599,412.934,448.695,413.363z"/>
			<path id="XMLID_597_" style="fill:#FFA4A4;" d="M449.65,417.639c0.096,0.429-0.29,0.881-0.863,1.009
				c-0.572,0.128-1.114-0.116-1.21-0.546c-0.096-0.429,0.29-0.881,0.863-1.009C449.012,416.965,449.554,417.21,449.65,417.639z"/>
			<path id="XMLID_596_" style="fill:#FFA4A4;" d="M445.332,418.604c0.096,0.429-0.29,0.881-0.863,1.009
				c-0.572,0.128-1.114-0.116-1.21-0.546c-0.096-0.429,0.29-0.881,0.863-1.009S445.236,418.174,445.332,418.604z"/>
			<path id="XMLID_595_" style="fill:#FFA4A4;" d="M445.051,422.216c0.096,0.429-0.29,0.881-0.863,1.009
				c-0.572,0.128-1.114-0.116-1.21-0.546c-0.096-0.429,0.29-0.881,0.863-1.009C444.414,421.543,444.956,421.787,445.051,422.216z"/>
			<path id="XMLID_594_" style="fill:#FFA4A4;" d="M450.753,422.575c0.096,0.429-0.29,0.881-0.863,1.009s-1.114-0.116-1.21-0.546
				c-0.096-0.429,0.29-0.881,0.863-1.009C450.115,421.901,450.657,422.145,450.753,422.575z"/>
			<path id="XMLID_593_" style="fill:#FFA4A4;" d="M441.359,418.675c0.192,0.858-0.581,1.762-1.725,2.018
				c-1.145,0.256-2.228-0.233-2.42-1.091c-0.192-0.858,0.581-1.762,1.725-2.017C440.084,417.328,441.167,417.817,441.359,418.675z"
				/>
			<path id="XMLID_592_" style="fill:#FFA4A4;" d="M454.111,410.822c0.192,0.859-0.581,1.762-1.725,2.018
				c-1.145,0.256-2.228-0.233-2.42-1.091s0.581-1.762,1.725-2.018C452.836,409.474,453.919,409.963,454.111,410.822z"/>
			<path id="XMLID_591_" style="fill:#FFA4A4;" d="M457.37,420.54c0.192,0.858-0.581,1.762-1.725,2.017
				c-1.145,0.256-2.228-0.233-2.42-1.091c-0.192-0.859,0.581-1.762,1.725-2.018C456.095,419.193,457.178,419.681,457.37,420.54z"/>
			<path id="XMLID_590_" style="fill:#FFA4A4;" d="M459.813,415.815c0.192,0.858-0.581,1.762-1.725,2.017
				c-1.145,0.256-2.228-0.233-2.42-1.091c-0.192-0.858,0.581-1.762,1.725-2.017C458.538,414.468,459.621,414.957,459.813,415.815z"
				/>
			<path id="XMLID_589_" style="fill:#FFA4A4;" d="M435.04,415.555c0.144,0.644-0.435,1.321-1.294,1.513s-1.671-0.175-1.815-0.818
				c-0.144-0.644,0.435-1.321,1.294-1.513S434.896,414.911,435.04,415.555z"/>
			<path id="XMLID_588_" style="fill:#FFA4A4;" d="M454.313,416.597c0.096,0.429-0.29,0.881-0.863,1.009
				c-0.572,0.128-1.114-0.116-1.21-0.546c-0.096-0.429,0.29-0.881,0.863-1.009C453.676,415.923,454.217,416.168,454.313,416.597z"/>
			<path id="XMLID_587_" style="fill:#FFA4A4;" d="M441.44,414.168c0.096,0.429-0.29,0.881-0.863,1.009s-1.114-0.117-1.21-0.546
				c-0.096-0.429,0.29-0.881,0.863-1.009C440.802,413.494,441.344,413.738,441.44,414.168z"/>
			<path id="XMLID_586_" style="fill:#FFA4A4;" d="M436.005,419.872c0.096,0.429-0.29,0.881-0.863,1.009
				c-0.572,0.128-1.114-0.116-1.21-0.546c-0.096-0.429,0.29-0.881,0.863-1.009C435.367,419.198,435.909,419.443,436.005,419.872z"/>
		</g>
		<g id="XMLID_48_" style="clip-path:url(#XMLID_00000005970905506270112610000018433392359227345083_);">
			<g id="XMLID_663_">
				<path id="XMLID_664_" style="fill:#216D64;" d="M657.173,458.217l-18.872,0c-1.568,0-2.963-1.022-3.43-2.518
					c-1.472-4.715-2.311-8.579-2.776-11.177c-0.355-1.984,1-3.874,2.995-4.16c15.649-2.241,29.877-3.169,42.823-3.054
					c1.408,0.012,2.671,0.859,3.239,2.147l7.998,18.161c1.021,2.319,4.058,2.879,5.84,1.078l16.614-16.797
					c0.845-0.854,2.067-1.237,3.246-1.004c9.076,1.793,17.264,4.179,24.637,6.991c2.031,0.774,2.897,3.173,1.853,5.079l0,0
					c-2.031,3.707,2.896,7.266,5.777,4.173l2.069-2.221c1.093-1.174,2.841-1.496,4.261-0.751
					c6.293,3.301,11.834,6.904,16.706,10.638c1.175,0.9,1.696,2.414,1.297,3.839l-4.796,17.108c-0.98,3.497,3.256,6.073,5.91,3.593
					l9.3-8.691c1.499-1.4,3.879-1.272,5.194,0.302c10.218,12.224,14.57,23.233,15.88,27.067c0.308,0.9,0.241,1.879-0.178,2.732
					l-14.981,30.538c-0.607,1.237-1.873,2.024-3.251,2.014c-9.879-0.073-19.115-0.622-27.763-1.573
					c-1.563-0.172-2.824-1.356-3.117-2.901l-5.099-26.923c-0.494-2.608-3.549-3.797-5.676-2.21l-28.461,21.239
					c-0.968,0.722-2.242,0.917-3.376,0.503c-9.07-3.31-17.107-7.172-24.234-11.4c-1.702-1.01-2.263-3.207-1.26-4.913l1.004-1.709
					c2.178-3.705-2.811-7.413-5.731-4.259l-1.8,1.944c-1.264,1.365-3.365,1.536-4.84,0.402c-1.554-1.196-3.053-2.409-4.497-3.635
					c-1.253-1.064-1.635-2.835-0.92-4.314l12.223-25.289c0.3-0.621-0.359-1.268-0.974-0.956l-23.992,12.165
					c-1.574,0.798-3.491,0.327-4.537-1.095c-4.487-6.1-7.979-12.128-10.689-17.738c-0.89-1.843-0.032-4.054,1.856-4.844
					c4.067-1.702,10.796-4.519,14.807-6.198C658.179,459.297,657.96,458.217,657.173,458.217z"/>
			</g>
			<g id="XMLID_652_">
				<path id="XMLID_654_" style="fill:#237C73;" d="M694.844,373.596l-17.467-7.146c-1.451-0.594-2.355-2.067-2.221-3.629
					c0.423-4.921,1.109-8.816,1.663-11.396c0.423-1.971,2.393-3.207,4.348-2.716c15.332,3.852,28.852,8.381,40.79,13.389
					c1.298,0.545,2.147,1.806,2.184,3.214l0.525,19.837c0.067,2.533,2.665,4.202,4.997,3.209l21.738-9.255
					c1.105-0.471,2.382-0.362,3.384,0.3c7.721,5.097,14.396,10.405,20.155,15.799c1.586,1.486,1.48,4.034-0.208,5.403h0
					c-3.283,2.662-0.07,7.822,3.767,6.05l2.756-1.272c1.456-0.672,3.195-0.309,4.228,0.919c4.574,5.438,8.339,10.871,11.434,16.172
					c0.746,1.278,0.656,2.877-0.254,4.045l-10.917,14.019c-2.231,2.865,0.714,6.854,4.109,5.563l11.898-4.523
					c1.917-0.729,4.072,0.291,4.693,2.246c4.828,15.183,4.687,27.02,4.448,31.064c-0.056,0.949-0.489,1.83-1.2,2.461l-25.429,22.591
					c-1.03,0.915-2.5,1.164-3.771,0.633c-9.116-3.808-17.456-7.814-25.1-11.969c-1.382-0.751-2.1-2.324-1.786-3.866l5.476-26.849
					c0.53-2.601-1.847-4.858-4.417-4.194l-34.384,8.881c-1.169,0.302-2.422,0-3.315-0.813c-7.141-6.498-13.118-13.115-18.112-19.727
					c-1.193-1.579-0.88-3.825,0.694-5.025l1.577-1.201c3.419-2.605,0.206-7.926-3.691-6.112l-2.401,1.117
					c-1.687,0.785-3.696,0.148-4.631-1.461c-0.986-1.696-1.913-3.385-2.786-5.067c-0.757-1.459-0.44-3.243,0.782-4.341
					l20.889-18.777c0.513-0.461,0.147-1.309-0.54-1.254l-26.812,2.174c-1.759,0.143-3.355-1.02-3.784-2.731
					c-1.843-7.345-2.793-14.247-3.176-20.465c-0.126-2.043,1.505-3.764,3.552-3.781c4.409-0.036,11.703-0.095,16.051-0.13
					C695.365,374.977,695.572,373.894,694.844,373.596z"/>
			</g>
			<path id="XMLID_650_" style="fill:none;stroke:#216D64;stroke-linecap:round;stroke-linejoin:round;stroke-miterlimit:10;" d="
				M692.524,363.744c0,0,72.705,66.667,122.476,159.42"/>
			<path id="XMLID_49_" style="fill:none;stroke:#237C73;stroke-linecap:round;stroke-linejoin:round;stroke-miterlimit:10;" d="
				M651.421,451.346c0,0,93.899,31.461,173.533,82.09"/>
		</g>
		<g id="XMLID_69_" style="clip-path:url(#XMLID_00000005970905506270112610000018433392359227345083_);">
			<path id="XMLID_71_" style="fill:#FFFFFF;" d="M357.568,219.511h1.411c1.537,0,3.038-0.466,4.304-1.337l1.073-0.737
				l-6.788-11.031l-15.839-4.808c0,0,19.044,0.094,23.664,2.168c4.62,2.074,3.3,8.014,5.563,10.277c0,0,8.957-9.617,17.348-8.768
				c0,0-0.377,0.66-1.32,1.226c-0.943,0.566-5.185-0.471-10.936,6.882c0,0,2.168,0.188,2.451,0.943
				c0.283,0.754-2.263,4.337-4.997,5.657c-1.367,0.66-3.63,0.66-5.551,0.495c-2.117-0.182-4.207,0.483-5.836,1.848
				c-0.642,0.538-1.282,0.956-1.718,0.956C359.171,223.283,356.059,219.511,357.568,219.511z"/>
			<path id="XMLID_78_" style="fill:#FFFFFF;" d="M407.937,154.185h1.75c1.905,0,3.765-0.578,5.335-1.657l1.329-0.914l-8.414-13.674
				l-19.634-5.96c0,0,23.607,0.117,29.334,2.688c5.727,2.571,4.09,9.934,6.895,12.739c0,0,11.103-11.921,21.504-10.869
				c0,0-0.467,0.818-1.636,1.519c-1.169,0.701-6.428-0.584-13.557,8.531c0,0,2.688,0.234,3.039,1.169
				c0.351,0.935-2.805,5.376-6.194,7.012c-1.695,0.818-4.5,0.818-6.881,0.614c-2.625-0.225-5.215,0.599-7.234,2.291
				c-0.797,0.668-1.589,1.186-2.13,1.186C409.924,158.86,406.067,154.185,407.937,154.185z"/>
			<path id="XMLID_76_" style="fill:#FFFFFF;" d="M336.71,174.926c0,0,6.799-1.333,6.799-2.799c0-1.466-2-9.598-2.533-12.131
				c-0.533-2.533-3.599-7.198-5.999-9.465s-13.064-9.331-13.464-10.931c-0.4-1.6,18.129,8.798,19.862,9.731
				c1.733,0.933,4.799,2.633,6.399,7.848c1.6,5.216,4.133,9.481,4.799,8.948c0.667-0.533,2.666-1.067,4.399,0.533
				c1.733,1.6,11.598-2.666,14.53-1.6c2.933,1.067,16.53,8.265,16.796,9.198c0.267,0.933-13.73-2.799-16.396-3.866
				c-2.666-1.066-13.997,0.8-13.997,0.8S345.775,184.257,336.71,174.926z"/>
			<path id="XMLID_79_" style="fill:#FFFFFF;" d="M420.513,199.189c0,0,4.873-0.956,4.873-2.007c0-1.051-1.433-6.88-1.816-8.696
				c-0.382-1.816-2.58-5.16-4.3-6.784c-1.72-1.624-9.364-6.689-9.651-7.836c-0.287-1.147,12.996,6.307,14.238,6.976
				c1.242,0.669,3.44,1.887,4.587,5.626c1.147,3.739,2.962,6.796,3.44,6.414c0.478-0.382,1.911-0.764,3.153,0.382
				c1.242,1.147,8.313-1.911,10.416-1.147c2.102,0.764,11.849,5.924,12.04,6.593s-9.842-2.007-11.753-2.771
				c-1.911-0.765-10.033,0.573-10.033,0.573S427.011,205.878,420.513,199.189z"/>
			<path id="XMLID_85_" style="fill:#FFFFFF;" d="M396.573,94.413c0,0,4.873-0.956,4.873-2.007c0-1.051-1.433-6.88-1.816-8.696
				c-0.382-1.816-2.58-5.16-4.3-6.785c-1.72-1.624-9.364-6.689-9.651-7.836c-0.287-1.147,12.996,6.307,14.238,6.976
				c1.242,0.669,3.44,1.887,4.587,5.626c1.147,3.739,2.962,6.797,3.44,6.414c0.478-0.382,1.911-0.764,3.153,0.382
				c1.242,1.147,8.313-1.911,10.415-1.147c2.102,0.764,11.849,5.924,12.04,6.593c0.191,0.669-9.842-2.007-11.753-2.771
				c-1.911-0.764-10.033,0.573-10.033,0.573S403.071,101.102,396.573,94.413z"/>
			<path id="XMLID_82_" style="fill:#FFFFFF;" d="M468.14,142.059c0,0,6.799-1.333,6.799-2.799c0-1.466-2-9.598-2.533-12.131
				c-0.533-2.533-3.599-7.199-5.999-9.465c-2.399-2.266-13.064-9.331-13.464-10.931c-0.4-1.6,18.129,8.798,19.862,9.731
				c1.733,0.933,4.799,2.632,6.399,7.848c1.6,5.216,4.133,9.481,4.799,8.948c0.667-0.533,2.666-1.066,4.399,0.533
				c1.733,1.6,11.598-2.666,14.53-1.6c2.933,1.066,16.53,8.265,16.796,9.198s-13.73-2.799-16.397-3.866
				c-2.666-1.066-13.997,0.8-13.997,0.8S477.205,151.391,468.14,142.059z"/>
		</g>
		<g id="XMLID_89_" style="clip-path:url(#XMLID_00000005970905506270112610000018433392359227345083_);">
			<path id="XMLID_86_" style="fill:#FFFFFF;" d="M217.775,303.251c-0.112,0.684-1.52,1.023-3.145,0.758
				c-1.625-0.266-2.852-1.036-2.74-1.72c0.112-0.684,1.52-1.023,3.145-0.758C216.66,301.797,217.886,302.567,217.775,303.251z"/>
			<path id="XMLID_90_" style="fill:#FFFFFF;" d="M216.383,293.279c-0.112,0.684-1.52,1.023-3.145,0.758
				c-1.625-0.266-2.852-1.036-2.74-1.72c0.112-0.684,1.52-1.023,3.145-0.758C215.268,291.825,216.495,292.595,216.383,293.279z"/>
			<path id="XMLID_103_" style="fill:#FFFFFF;" d="M238.336,298.139c-0.112,0.684-1.52,1.023-3.145,0.758
				c-1.625-0.266-2.852-1.036-2.74-1.72c0.112-0.684,1.52-1.023,3.145-0.758C237.221,296.685,238.447,297.455,238.336,298.139z"/>
			<path id="XMLID_193_" style="fill:#FFFFFF;" d="M273.914,338.3c-0.112,0.684-1.52,1.023-3.145,0.758
				c-1.625-0.266-2.852-1.035-2.74-1.72c0.112-0.684,1.52-1.023,3.145-0.758C272.799,336.846,274.026,337.616,273.914,338.3z"/>
			<path id="XMLID_196_" style="fill:#FFFFFF;" d="M285.479,332.05c-0.112,0.684-1.52,1.023-3.145,0.758
				c-1.625-0.266-2.852-1.035-2.74-1.72c0.112-0.684,1.52-1.023,3.145-0.758C284.364,330.596,285.591,331.366,285.479,332.05z"/>
			<path id="XMLID_197_" style="fill:#FFFFFF;" d="M195.625,325.096c-0.112,0.684-1.52,1.023-3.145,0.758
				c-1.625-0.266-2.852-1.035-2.74-1.72c0.112-0.684,1.52-1.023,3.145-0.758C194.51,323.642,195.737,324.412,195.625,325.096z"/>
			<path id="XMLID_199_" style="fill:#FFFFFF;" d="M306.448,333.876c-0.112,0.684-1.52,1.023-3.145,0.758
				c-1.625-0.266-2.852-1.036-2.74-1.72c0.112-0.684,1.52-1.023,3.145-0.758C305.333,332.422,306.56,333.192,306.448,333.876z"/>
			<path id="XMLID_200_" style="fill:#FFFFFF;" d="M328.136,336.149c-0.112,0.684-1.52,1.023-3.145,0.758
				c-1.625-0.266-2.852-1.036-2.74-1.72c0.112-0.684,1.52-1.023,3.145-0.758C327.021,334.695,328.248,335.465,328.136,336.149z"/>
			<path id="XMLID_201_" style="fill:#FFFFFF;" d="M320.663,321.643c-0.112,0.684-1.52,1.023-3.145,0.758
				c-1.625-0.266-2.852-1.035-2.74-1.72s1.52-1.023,3.145-0.758C319.548,320.189,320.775,320.959,320.663,321.643z"/>
			<path id="XMLID_202_" style="fill:#FFFFFF;" d="M318.548,334.582c-0.112,0.684-1.52,1.023-3.145,0.758
				c-1.625-0.266-2.852-1.036-2.74-1.72c0.112-0.684,1.52-1.023,3.145-0.758C317.433,333.128,318.66,333.898,318.548,334.582z"/>
			<path id="XMLID_203_" style="fill:#FFFFFF;" d="M323.914,343.494c-0.112,0.684-1.52,1.023-3.145,0.758
				c-1.625-0.266-2.852-1.036-2.74-1.72c0.112-0.684,1.52-1.023,3.145-0.758C322.799,342.04,324.026,342.81,323.914,343.494z"/>
			<path id="XMLID_204_" style="fill:#FFFFFF;" d="M184.572,302.002c-0.112,0.684-1.52,1.023-3.145,0.758
				c-1.625-0.266-2.852-1.036-2.74-1.72c0.112-0.684,1.52-1.023,3.145-0.758C183.457,300.548,184.684,301.318,184.572,302.002z"/>
			<path id="XMLID_205_" style="fill:#FFFFFF;" d="M211.92,283.618c-0.112,0.684-1.52,1.023-3.145,0.758
				c-1.625-0.266-2.852-1.036-2.74-1.72c0.112-0.684,1.52-1.023,3.145-0.758C210.805,282.164,212.032,282.934,211.92,283.618z"/>
			<path id="XMLID_207_" style="fill:#FFFFFF;" d="M189.292,273.127c-0.112,0.684-1.52,1.023-3.145,0.758
				c-1.625-0.266-2.852-1.035-2.74-1.72c0.112-0.684,1.52-1.023,3.145-0.758C188.177,271.673,189.403,272.443,189.292,273.127z"/>
			<path id="XMLID_91_" style="fill:#FFFFFF;" d="M194.432,295.426c-0.112,0.684-1.52,1.023-3.145,0.758
				c-1.625-0.266-2.852-1.035-2.74-1.72c0.112-0.684,1.52-1.023,3.145-0.758C193.317,293.972,194.544,294.742,194.432,295.426z"/>
			<path id="XMLID_92_" style="fill:#FFFFFF;" d="M237.057,305.96c-0.112,0.684-1.52,1.023-3.145,0.758
				c-1.625-0.266-2.852-1.036-2.74-1.72c0.112-0.684,1.52-1.023,3.145-0.758C235.942,304.506,237.169,305.276,237.057,305.96z"/>
			<path id="XMLID_93_" style="fill:#FFFFFF;" d="M223.364,315.074c-0.112,0.684-1.52,1.023-3.145,0.758
				c-1.625-0.266-2.852-1.035-2.74-1.72c0.112-0.684,1.52-1.023,3.145-0.758C222.249,313.62,223.476,314.39,223.364,315.074z"/>
			<path id="XMLID_99_" style="fill:#FFFFFF;" d="M188.546,312.951c-0.112,0.684-1.52,1.023-3.145,0.758
				c-1.625-0.266-2.852-1.035-2.74-1.72c0.112-0.684,1.52-1.023,3.145-0.758C187.431,311.497,188.658,312.267,188.546,312.951z"/>
			<path id="XMLID_94_" style="fill:#FFFFFF;" d="M198.811,305.602c-0.112,0.684-1.52,1.023-3.145,0.758
				c-1.625-0.266-2.852-1.036-2.74-1.72c0.112-0.684,1.52-1.023,3.145-0.758C197.696,304.148,198.923,304.918,198.811,305.602z"/>
			<path id="XMLID_101_" style="fill:#FFFFFF;" d="M199.305,284.1c-0.112,0.684-1.52,1.023-3.145,0.758
				c-1.625-0.266-2.852-1.035-2.74-1.72c0.112-0.684,1.52-1.023,3.145-0.758C198.19,282.646,199.417,283.416,199.305,284.1z"/>
			<path id="XMLID_95_" style="fill:#FFFFFF;" d="M209.382,317.629c-0.112,0.684-1.52,1.023-3.145,0.758
				c-1.625-0.266-2.852-1.036-2.74-1.72c0.112-0.684,1.52-1.023,3.145-0.758C208.267,316.175,209.494,316.945,209.382,317.629z"/>
			<path id="XMLID_194_" style="fill:#FFFFFF;" d="M298.607,344.879c-0.112,0.684-1.52,1.023-3.145,0.758
				c-1.625-0.266-2.852-1.036-2.74-1.72c0.112-0.684,1.52-1.023,3.145-0.758C297.492,343.425,298.719,344.195,298.607,344.879z"/>
			<path id="XMLID_96_" style="fill:#FFFFFF;" d="M311.906,323.78c-0.112,0.684-1.52,1.023-3.145,0.758
				c-1.625-0.266-2.852-1.036-2.74-1.72c0.112-0.684,1.52-1.023,3.145-0.758C310.791,322.326,312.018,323.096,311.906,323.78z"/>
			<path id="XMLID_97_" style="fill:#FFFFFF;" d="M241.338,316.74c-0.112,0.684-1.52,1.023-3.145,0.758
				c-1.625-0.266-2.852-1.036-2.74-1.72c0.112-0.684,1.52-1.023,3.145-0.758C240.223,315.286,241.45,316.056,241.338,316.74z"/>
			<path id="XMLID_229_" style="fill:#FFFFFF;" d="M102.826,268.472c-0.112,0.684-1.52,1.023-3.145,0.758
				c-1.625-0.266-2.852-1.036-2.74-1.72c0.112-0.684,1.52-1.023,3.145-0.758C101.711,267.018,102.938,267.788,102.826,268.472z"/>
			<path id="XMLID_228_" style="fill:#FFFFFF;" d="M101.434,258.5c-0.112,0.684-1.52,1.023-3.145,0.758
				c-1.625-0.266-2.852-1.036-2.74-1.72c0.112-0.684,1.52-1.023,3.145-0.758C100.319,257.046,101.546,257.816,101.434,258.5z"/>
			<path id="XMLID_227_" style="fill:#FFFFFF;" d="M123.387,263.36c-0.112,0.684-1.52,1.023-3.145,0.758
				c-1.625-0.266-2.852-1.035-2.74-1.72c0.112-0.684,1.52-1.023,3.145-0.758C122.272,261.906,123.498,262.676,123.387,263.36z"/>
			<path id="XMLID_226_" style="fill:#FFFFFF;" d="M158.965,303.521c-0.112,0.684-1.52,1.023-3.145,0.758
				c-1.625-0.266-2.852-1.036-2.74-1.72c0.112-0.684,1.52-1.023,3.145-0.758C157.85,302.066,159.077,302.836,158.965,303.521z"/>
			<path id="XMLID_224_" style="fill:#FFFFFF;" d="M80.676,290.317c-0.112,0.684-1.52,1.023-3.145,0.758
				c-1.625-0.266-2.852-1.035-2.74-1.72c0.112-0.684,1.52-1.023,3.145-0.758C79.561,288.863,80.788,289.633,80.676,290.317z"/>
			<path id="XMLID_223_" style="fill:#FFFFFF;" d="M96.971,248.839c-0.112,0.684-1.52,1.023-3.145,0.758
				c-1.625-0.266-2.852-1.036-2.74-1.72c0.112-0.684,1.52-1.023,3.145-0.758C95.856,247.385,97.083,248.155,96.971,248.839z"/>
			<path id="XMLID_222_" style="fill:#FFFFFF;" d="M74.343,238.348c-0.112,0.684-1.52,1.023-3.145,0.758
				c-1.625-0.266-2.852-1.036-2.74-1.72c0.112-0.684,1.52-1.023,3.145-0.758C73.228,236.894,74.454,237.664,74.343,238.348z"/>
			<path id="XMLID_220_" style="fill:#FFFFFF;" d="M79.483,260.647c-0.112,0.684-1.52,1.023-3.145,0.758
				c-1.625-0.266-2.852-1.036-2.74-1.72c0.112-0.684,1.52-1.023,3.145-0.758C78.368,259.193,79.595,259.963,79.483,260.647z"/>
			<path id="XMLID_219_" style="fill:#FFFFFF;" d="M122.108,271.18c-0.112,0.684-1.52,1.023-3.145,0.758
				c-1.625-0.266-2.852-1.036-2.74-1.72c0.112-0.684,1.52-1.023,3.145-0.758C120.993,269.727,122.22,270.496,122.108,271.18z"/>
			<path id="XMLID_215_" style="fill:#FFFFFF;" d="M108.415,280.295c-0.112,0.684-1.52,1.023-3.145,0.758
				c-1.625-0.266-2.852-1.036-2.74-1.72c0.112-0.684,1.52-1.023,3.145-0.758C107.3,278.841,108.527,279.611,108.415,280.295z"/>
			<path id="XMLID_214_" style="fill:#FFFFFF;" d="M73.597,278.172c-0.112,0.684-1.52,1.023-3.145,0.758
				c-1.625-0.266-2.852-1.036-2.74-1.72c0.112-0.684,1.52-1.023,3.145-0.758C72.482,276.718,73.709,277.488,73.597,278.172z"/>
			<path id="XMLID_213_" style="fill:#FFFFFF;" d="M83.863,270.823c-0.112,0.684-1.52,1.023-3.145,0.758
				c-1.625-0.266-2.852-1.036-2.74-1.72c0.112-0.684,1.52-1.023,3.145-0.758C82.747,269.369,83.974,270.138,83.863,270.823z"/>
			<path id="XMLID_212_" style="fill:#FFFFFF;" d="M84.356,249.321c-0.112,0.684-1.52,1.023-3.145,0.758s-2.852-1.036-2.74-1.72
				c0.112-0.684,1.52-1.023,3.145-0.758C83.241,247.867,84.468,248.637,84.356,249.321z"/>
			<path id="XMLID_211_" style="fill:#FFFFFF;" d="M94.433,282.849c-0.112,0.684-1.52,1.023-3.145,0.758
				c-1.625-0.266-2.852-1.035-2.74-1.72c0.112-0.684,1.52-1.023,3.145-0.758C93.318,281.396,94.545,282.165,94.433,282.849z"/>
			<path id="XMLID_209_" style="fill:#FFFFFF;" d="M126.389,281.961c-0.112,0.684-1.52,1.023-3.145,0.758
				c-1.625-0.266-2.852-1.036-2.74-1.72c0.112-0.684,1.52-1.023,3.145-0.758C125.274,280.507,126.501,281.277,126.389,281.961z"/>
			<path id="XMLID_98_" style="fill:#FFFFFF;" d="M292.29,324.25c-0.112,0.684-1.52,1.023-3.145,0.758
				c-1.625-0.266-2.852-1.035-2.74-1.72c0.112-0.684,1.52-1.023,3.145-0.758C291.175,322.796,292.402,323.566,292.29,324.25z"/>
		</g>
		<g id="XMLID_234_" style="clip-path:url(#XMLID_00000005970905506270112610000018433392359227345083_);">
			<path id="XMLID_355_" style="fill:#FFFFFF;" d="M594.626,263.915c0.187,0.525-0.672,1.311-1.919,1.756
				c-1.247,0.445-2.41,0.38-2.597-0.145s0.672-1.311,1.919-1.756C593.276,263.326,594.439,263.391,594.626,263.915z"/>
			<path id="XMLID_354_" style="fill:#FFFFFF;" d="M589.771,257.438c0.187,0.525-0.672,1.311-1.919,1.756
				c-1.247,0.445-2.41,0.38-2.597-0.145c-0.187-0.525,0.672-1.311,1.919-1.756S589.584,256.913,589.771,257.438z"/>
			<path id="XMLID_353_" style="fill:#FFFFFF;" d="M607.11,252.326c0.187,0.525-0.672,1.311-1.919,1.756
				c-1.247,0.445-2.41,0.38-2.597-0.145c-0.187-0.525,0.672-1.311,1.919-1.756C605.76,251.736,606.923,251.801,607.11,252.326z"/>
			<path id="XMLID_334_" style="fill:#FFFFFF;" d="M587.528,287.9c0.187,0.525-0.672,1.311-1.919,1.756
				c-1.247,0.445-2.41,0.38-2.597-0.145s0.672-1.311,1.919-1.756C586.178,287.31,587.341,287.375,587.528,287.9z"/>
			<path id="XMLID_274_" style="fill:#FFFFFF;" d="M570.772,275.943c0.187,0.525-0.672,1.311-1.919,1.756
				c-1.247,0.445-2.41,0.38-2.597-0.145c-0.187-0.525,0.672-1.311,1.919-1.756C569.422,275.353,570.585,275.418,570.772,275.943z"/>
			<path id="XMLID_273_" style="fill:#FFFFFF;" d="M582.874,252.374c0.187,0.525-0.672,1.311-1.919,1.756
				c-1.247,0.445-2.41,0.38-2.597-0.145c-0.187-0.525,0.672-1.311,1.919-1.756C581.524,251.784,582.687,251.849,582.874,252.374z"/>
			<path id="XMLID_272_" style="fill:#FFFFFF;" d="M562.87,253.785c0.187,0.525-0.672,1.311-1.919,1.756
				c-1.247,0.445-2.41,0.38-2.597-0.145s0.672-1.311,1.919-1.756C561.52,253.195,562.683,253.26,562.87,253.785z"/>
			<path id="XMLID_271_" style="fill:#FFFFFF;" d="M575.156,267.482c0.187,0.525-0.672,1.311-1.919,1.756
				c-1.247,0.445-2.41,0.38-2.597-0.145c-0.187-0.525,0.672-1.311,1.919-1.756C573.806,266.892,574.969,266.957,575.156,267.482z"/>
			<path id="XMLID_270_" style="fill:#FFFFFF;" d="M609.25,258.327c0.187,0.525-0.672,1.311-1.919,1.756
				c-1.247,0.445-2.41,0.38-2.597-0.145c-0.187-0.525,0.672-1.311,1.919-1.756C607.901,257.737,609.063,257.802,609.25,258.327z"/>
			<path id="XMLID_269_" style="fill:#FFFFFF;" d="M603.155,270.064c0.187,0.525-0.672,1.311-1.919,1.756
				c-1.247,0.445-2.41,0.38-2.597-0.145c-0.187-0.525,0.672-1.311,1.919-1.756C601.805,269.474,602.968,269.539,603.155,270.064z"/>
			<path id="XMLID_268_" style="fill:#FFFFFF;" d="M577.825,282.104c0.187,0.525-0.672,1.311-1.919,1.756
				c-1.247,0.445-2.41,0.38-2.597-0.145c-0.187-0.525,0.672-1.311,1.919-1.756C576.475,281.514,577.638,281.579,577.825,282.104z"/>
			<path id="XMLID_266_" style="fill:#FFFFFF;" d="M582.193,272.941c0.187,0.525-0.672,1.311-1.919,1.756
				c-1.247,0.445-2.41,0.38-2.597-0.145s0.672-1.311,1.919-1.756C580.843,272.351,582.006,272.416,582.193,272.941z"/>
			<path id="XMLID_265_" style="fill:#FFFFFF;" d="M574.183,257.616c0.187,0.525-0.672,1.311-1.919,1.756
				c-1.247,0.445-2.41,0.38-2.597-0.145c-0.187-0.525,0.672-1.311,1.919-1.756C572.833,257.026,573.996,257.091,574.183,257.616z"/>
			<path id="XMLID_263_" style="fill:#FFFFFF;" d="M594.308,277.297c0.187,0.525-0.672,1.311-1.919,1.756
				c-1.247,0.445-2.41,0.38-2.597-0.145c-0.187-0.525,0.672-1.311,1.919-1.756C592.958,276.707,594.121,276.772,594.308,277.297z"/>
			<path id="XMLID_259_" style="fill:#FFFFFF;" d="M616.453,264.25c0.187,0.525-0.672,1.311-1.919,1.756
				c-1.247,0.445-2.41,0.38-2.597-0.145c-0.187-0.525,0.672-1.311,1.919-1.756C615.103,263.66,616.266,263.725,616.453,264.25z"/>
			<path id="XMLID_252_" style="fill:#FFFFFF;" d="M500.205,284.118c0.187,0.525-0.672,1.311-1.919,1.756
				c-1.247,0.445-2.41,0.38-2.597-0.145c-0.187-0.525,0.672-1.311,1.919-1.756C498.855,283.528,500.018,283.593,500.205,284.118z"/>
			<path id="XMLID_251_" style="fill:#FFFFFF;" d="M495.35,277.641c0.187,0.525-0.672,1.311-1.919,1.756
				c-1.247,0.445-2.41,0.38-2.597-0.145s0.672-1.311,1.919-1.756C494,277.051,495.162,277.116,495.35,277.641z"/>
			<path id="XMLID_250_" style="fill:#FFFFFF;" d="M512.689,272.529c0.187,0.525-0.672,1.311-1.919,1.756
				c-1.247,0.445-2.41,0.38-2.597-0.145c-0.187-0.525,0.672-1.311,1.919-1.756C511.339,271.939,512.502,272.004,512.689,272.529z"/>
			<path id="XMLID_249_" style="fill:#FFFFFF;" d="M553.34,286.965c0.187,0.525-0.672,1.311-1.919,1.756
				c-1.247,0.445-2.41,0.38-2.597-0.145c-0.187-0.525,0.672-1.311,1.919-1.756C551.99,286.375,553.153,286.44,553.34,286.965z"/>
			<path id="XMLID_248_" style="fill:#FFFFFF;" d="M493.107,308.103c0.187,0.525-0.672,1.311-1.919,1.756
				c-1.247,0.445-2.41,0.38-2.597-0.145c-0.187-0.525,0.672-1.311,1.919-1.756C491.757,307.513,492.92,307.578,493.107,308.103z"/>
			<path id="XMLID_247_" style="fill:#FFFFFF;" d="M488.453,272.576c0.187,0.525-0.672,1.311-1.919,1.756
				c-1.247,0.445-2.41,0.38-2.597-0.145c-0.187-0.525,0.672-1.311,1.919-1.756C487.103,271.986,488.266,272.051,488.453,272.576z"/>
			<path id="XMLID_246_" style="fill:#FFFFFF;" d="M468.449,273.988c0.187,0.525-0.672,1.311-1.919,1.756
				c-1.247,0.445-2.41,0.38-2.597-0.145c-0.187-0.525,0.672-1.311,1.919-1.756C467.099,273.398,468.262,273.463,468.449,273.988z"/>
			<path id="XMLID_245_" style="fill:#FFFFFF;" d="M480.735,287.684c0.187,0.525-0.672,1.311-1.919,1.756
				c-1.247,0.445-2.41,0.38-2.597-0.145s0.672-1.311,1.919-1.756C479.385,287.094,480.547,287.159,480.735,287.684z"/>
			<path id="XMLID_244_" style="fill:#FFFFFF;" d="M514.829,278.529c0.187,0.525-0.672,1.311-1.919,1.756
				c-1.247,0.445-2.41,0.38-2.597-0.145s0.672-1.311,1.919-1.756C513.479,277.939,514.642,278.004,514.829,278.529z"/>
			<path id="XMLID_243_" style="fill:#FFFFFF;" d="M508.734,290.267c0.187,0.525-0.672,1.311-1.919,1.756
				c-1.247,0.445-2.41,0.38-2.597-0.145s0.672-1.311,1.919-1.756C507.384,289.677,508.547,289.742,508.734,290.267z"/>
			<path id="XMLID_242_" style="fill:#FFFFFF;" d="M483.404,302.306c0.187,0.525-0.672,1.311-1.919,1.756s-2.41,0.38-2.597-0.145
				c-0.187-0.525,0.672-1.311,1.919-1.756C482.054,301.716,483.217,301.781,483.404,302.306z"/>
			<path id="XMLID_241_" style="fill:#FFFFFF;" d="M487.772,293.144c0.187,0.525-0.672,1.311-1.919,1.756
				c-1.247,0.445-2.41,0.38-2.597-0.145c-0.187-0.525,0.672-1.311,1.919-1.756C486.422,292.554,487.585,292.619,487.772,293.144z"/>
			<path id="XMLID_240_" style="fill:#FFFFFF;" d="M479.761,277.819c0.187,0.525-0.672,1.311-1.919,1.756
				c-1.247,0.445-2.41,0.38-2.597-0.145c-0.187-0.525,0.672-1.311,1.919-1.756C478.412,277.228,479.574,277.293,479.761,277.819z"/>
			<path id="XMLID_239_" style="fill:#FFFFFF;" d="M499.886,297.5c0.187,0.525-0.672,1.311-1.919,1.756
				c-1.247,0.445-2.41,0.38-2.597-0.145s0.672-1.311,1.919-1.756C498.537,296.91,499.699,296.975,499.886,297.5z"/>
			<path id="XMLID_238_" style="fill:#FFFFFF;" d="M522.032,284.453c0.187,0.525-0.672,1.311-1.919,1.756
				c-1.247,0.445-2.41,0.38-2.597-0.145c-0.187-0.525,0.672-1.311,1.919-1.756C520.682,283.863,521.845,283.928,522.032,284.453z"/>
		</g>
		<g id="XMLID_535_" style="clip-path:url(#XMLID_00000005970905506270112610000018433392359227345083_);">
			<g id="XMLID_81_">
				<path id="XMLID_653_" style="fill:#216D64;" d="M100.802,291.372l18.872,0c1.568,0,2.963-1.022,3.43-2.518
					c1.472-4.715,2.311-8.579,2.776-11.177c0.355-1.984-1-3.874-2.995-4.16c-15.649-2.241-29.877-3.169-42.823-3.054
					c-1.408,0.012-2.671,0.859-3.239,2.147l-7.998,18.161c-1.021,2.319-4.058,2.88-5.84,1.078l-16.614-16.797
					c-0.845-0.854-2.067-1.237-3.246-1.004c-9.076,1.793-17.264,4.179-24.637,6.991c-2.03,0.774-2.897,3.173-1.853,5.079l0,0
					c2.031,3.707-2.897,7.266-5.777,4.173l-2.069-2.221c-1.093-1.174-2.841-1.496-4.261-0.751
					c-6.293,3.301-11.834,6.904-16.706,10.638c-1.175,0.9-1.696,2.414-1.297,3.839l4.796,17.108c0.98,3.497-3.256,6.073-5.91,3.593
					l-9.3-8.691c-1.499-1.401-3.879-1.272-5.194,0.302c-10.218,12.224-14.57,23.233-15.88,27.067
					c-0.307,0.9-0.241,1.879,0.178,2.732l14.981,30.538c0.607,1.237,1.873,2.024,3.251,2.014c9.879-0.073,19.115-0.622,27.763-1.573
					c1.563-0.172,2.824-1.356,3.117-2.901l5.099-26.923c0.494-2.608,3.549-3.797,5.676-2.21l28.461,21.239
					c0.968,0.722,2.242,0.917,3.376,0.503c9.07-3.31,17.107-7.172,24.234-11.4c1.702-1.01,2.263-3.207,1.26-4.913l-1.004-1.709
					c-2.178-3.705,2.811-7.413,5.731-4.259l1.8,1.944c1.264,1.365,3.365,1.536,4.84,0.402c1.554-1.196,3.053-2.409,4.497-3.635
					c1.253-1.064,1.635-2.835,0.92-4.315l-12.223-25.289c-0.3-0.621,0.359-1.268,0.974-0.956l23.993,12.165
					c1.574,0.798,3.491,0.327,4.537-1.095c4.488-6.1,7.979-12.128,10.689-17.738c0.89-1.843,0.032-4.054-1.856-4.844
					c-4.067-1.702-10.796-4.519-14.807-6.198C99.797,292.453,100.015,291.372,100.802,291.372z"/>
			</g>
			<g id="XMLID_544_">
				<path id="XMLID_644_" style="fill:#237C73;" d="M63.132,206.751l17.467-7.146c1.451-0.594,2.355-2.067,2.221-3.629
					c-0.423-4.921-1.109-8.816-1.663-11.396c-0.423-1.971-2.393-3.207-4.347-2.716c-15.332,3.852-28.852,8.381-40.791,13.389
					c-1.298,0.545-2.147,1.807-2.184,3.214l-0.525,19.837c-0.067,2.533-2.665,4.202-4.997,3.209l-21.738-9.255
					c-1.105-0.47-2.382-0.362-3.384,0.3c-7.721,5.097-14.396,10.405-20.155,15.799c-1.586,1.485-1.479,4.034,0.208,5.403l0,0
					c3.283,2.662,0.071,7.822-3.767,6.05l-2.756-1.272c-1.456-0.673-3.196-0.309-4.228,0.919
					c-4.574,5.438-8.339,10.871-11.434,16.172c-0.746,1.278-0.656,2.877,0.254,4.044l10.917,14.019
					c2.232,2.865-0.714,6.854-4.109,5.563l-11.898-4.523c-1.917-0.729-4.072,0.291-4.693,2.246
					c-4.828,15.183-4.687,27.02-4.448,31.064c0.056,0.949,0.489,1.83,1.2,2.462l25.429,22.591c1.03,0.915,2.5,1.164,3.771,0.633
					c9.116-3.808,17.456-7.814,25.1-11.968c1.382-0.751,2.1-2.324,1.786-3.865l-5.475-26.849c-0.53-2.601,1.847-4.858,4.417-4.195
					l34.384,8.881c1.169,0.302,2.422,0,3.315-0.813c7.141-6.498,13.118-13.116,18.112-19.727c1.193-1.579,0.881-3.825-0.694-5.025
					l-1.577-1.201c-3.419-2.605-0.206-7.926,3.691-6.112l2.402,1.117c1.687,0.785,3.696,0.148,4.631-1.461
					c0.986-1.696,1.913-3.385,2.785-5.067c0.757-1.459,0.44-3.243-0.782-4.341l-20.889-18.777c-0.513-0.461-0.147-1.309,0.54-1.254
					l26.812,2.174c1.759,0.143,3.355-1.02,3.784-2.731c1.843-7.345,2.793-14.247,3.176-20.465c0.126-2.043-1.506-3.764-3.553-3.781
					c-4.409-0.036-11.703-0.095-16.051-0.13C62.61,208.132,62.404,207.049,63.132,206.751z"/>
			</g>
			<path id="XMLID_645_" style="fill:none;stroke:#216D64;stroke-linecap:round;stroke-linejoin:round;stroke-miterlimit:10;" d="
				M65.451,196.899c0,0-72.705,66.667-122.476,159.42"/>
			<path id="XMLID_646_" style="fill:none;stroke:#237C73;stroke-linecap:round;stroke-linejoin:round;stroke-miterlimit:10;" d="
				M106.554,284.501c0,0-93.899,31.461-173.533,82.09"/>
		</g>
		<g id="XMLID_477_" style="clip-path:url(#XMLID_00000005970905506270112610000018433392359227345083_);">
			<path id="XMLID_58_" style="fill:none;stroke:#216D64;stroke-linecap:round;stroke-linejoin:round;stroke-miterlimit:10;" d="
				M-31.975-27.086c0,0,54.947-2.661,80.264,45.229c25.316,47.889,82.064,49.22,120.868,39.908"/>
			<g id="XMLID_470_">
				<path id="XMLID_468_" style="fill:#237C73;" d="M126.171,62.591c1.803-0.053,25.557-64.189,101.01-16.118
					c0,0-32.904,71.074-99.207,16.065"/>
				<path id="XMLID_467_" style="fill:none;stroke:#216D64;stroke-linecap:round;stroke-linejoin:round;stroke-miterlimit:10;" d="
					M227.181,46.473c0,0-26.618-6.135-53.944,9.539c-15.76,9.039-40.989,6.46-40.989,6.46"/>
				
					<polyline id="XMLID_469_" style="fill:none;stroke:#216D64;stroke-linecap:round;stroke-linejoin:round;stroke-miterlimit:10;" points="
					163.126,34.6 149.212,62.461 173.035,74.829 				"/>
				
					<polyline id="XMLID_475_" style="fill:none;stroke:#216D64;stroke-linecap:round;stroke-linejoin:round;stroke-miterlimit:10;" points="
					188.452,31.764 177.46,53.773 196.28,63.544 				"/>
			</g>
			<g id="XMLID_478_">
				<path id="XMLID_485_" style="fill:#237C73;" d="M85.88,52.551c0.772,1.63,69.049-2.365,55.317,86.04
					c0,0-78.305-1.599-54.545-84.41"/>
				<path id="XMLID_483_" style="fill:none;stroke:#216D64;stroke-linecap:round;stroke-linejoin:round;stroke-miterlimit:10;" d="
					M141.197,138.591c0,0-5.068-26.841-30.394-45.576C96.197,82.211,88.429,58.069,88.429,58.069"/>
				
					<polyline id="XMLID_481_" style="fill:none;stroke:#216D64;stroke-linecap:round;stroke-linejoin:round;stroke-miterlimit:10;" points="
					126.354,75.158 95.251,73.6 93.488,100.385 				"/>
				
					<polyline id="XMLID_480_" style="fill:none;stroke:#216D64;stroke-linecap:round;stroke-linejoin:round;stroke-miterlimit:10;" points="
					139.12,97.215 114.548,95.984 113.156,117.143 				"/>
			</g>
			<g id="XMLID_486_">
				<path id="XMLID_490_" style="fill:#237C73;" d="M60.758,36.831c1.737-0.485,9.343-68.455,94.154-39.973
					c0,0-14.816,76.907-92.417,39.488"/>
				<path id="XMLID_489_" style="fill:none;stroke:#216D64;stroke-linecap:round;stroke-linejoin:round;stroke-miterlimit:10;" d="
					M154.912-3.142c0,0-27.312,0.457-50.058,22.251C91.735,31.678,66.627,35.252,66.627,35.252"/>
				
					<polyline id="XMLID_488_" style="fill:none;stroke:#216D64;stroke-linecap:round;stroke-linejoin:round;stroke-miterlimit:10;" points="
					89.883,0.762 83.089,31.154 109.19,37.42 				"/>
				
					<polyline id="XMLID_487_" style="fill:none;stroke:#216D64;stroke-linecap:round;stroke-linejoin:round;stroke-miterlimit:10;" points="
					113.78,-8.091 108.413,15.919 129.032,20.869 				"/>
			</g>
			<path id="XMLID_476_" style="fill:none;stroke:#216D64;stroke-linecap:round;stroke-linejoin:round;stroke-miterlimit:10;" d="
				M0.616-21.79c0,0,53.481,22.596,51.048,67.081C49.578,83.42,23.652,95.984,23.652,95.984"/>
			<path id="XMLID_491_" style="fill:#FFFFFF;" d="M44.752,80.776c0,0-1.98-5.955-6.505-5.947
				c-4.525,0.008-20.645,16.167-23.756,23.501c-3.111,7.334,10.747,2.848,15.131,0C34.006,95.482,46.732,91.805,44.752,80.776z"/>
			<path id="XMLID_479_" style="fill:none;stroke:#216D64;stroke-linecap:round;stroke-linejoin:round;stroke-miterlimit:10;" d="
				M47.789,22.421c0,0,18.115,35.894,18.839,60.999"/>
			<path id="XMLID_494_" style="fill:#FFFFFF;" d="M67.869,71.882c0,0-6.031-1.733-8.583,2.004
				c-2.551,3.737,1.666,26.169,5.957,32.881c4.291,6.712,8.424-7.256,8.553-12.481C73.925,89.06,78.086,76.483,67.869,71.882z"/>
		</g>
		
			<path style="clip-path:url(#XMLID_00000005970905506270112610000018433392359227345083_);fill:none;stroke:#0F7052;stroke-linecap:round;stroke-linejoin:round;stroke-miterlimit:10;" d="
			M496.457,435.536c0.772,0.585,1.802,12.296,1.297,21.761"/>
		
			<path style="clip-path:url(#XMLID_00000005970905506270112610000018433392359227345083_);fill:none;stroke:#0F7052;stroke-linecap:round;stroke-linejoin:round;stroke-miterlimit:10;" d="
			M23.782,428.864c0.772,0.585,1.802,12.296,1.297,21.761"/>
		
			<path style="clip-path:url(#XMLID_00000005970905506270112610000018433392359227345083_);fill:none;stroke:#0F7052;stroke-linecap:round;stroke-linejoin:round;stroke-miterlimit:10;" d="
			M269.101,481.213c0.772,0.585,1.802,12.296,1.297,21.761"/>
		<g id="XMLID_519_" style="clip-path:url(#XMLID_00000005970905506270112610000018433392359227345083_);">
			<path id="XMLID_548_" style="fill:#FFF0A4;" d="M511.351,428.082c-0.013,0.298,1.868-5.289-2.436-5.914
				c-4.303-0.625-2.165-2.723-5.689-3.462c-3.523-0.739-2.774,2.7-6.548,2.078c-3.774-0.622-3.622-3.28-7.746-2.191
				c-2.894,0.764-1.627,3.467-4.121,4.011c-2.494,0.543-4.456,0.359-4.015,2.81c0.441,2.452,1.066,6.953,8.37,6.375
				C496.471,431.21,511.351,428.082,511.351,428.082z"/>
			<path id="XMLID_547_" style="fill:none;stroke:#FFFFFF;stroke-linecap:round;stroke-linejoin:round;stroke-miterlimit:10;" d="
				M496.917,434.334c0,0,0.93-11.314-6.396-16.695"/>
			<path id="XMLID_546_" style="fill:none;stroke:#FFFFFF;stroke-linecap:round;stroke-linejoin:round;stroke-miterlimit:10;" d="
				M503.006,414.579c0,0-5.257,4.247-5.38,14.797"/>
			<path id="XMLID_545_" style="fill:#FFFFFF;" d="M510.012,430.272c0,0-3.547,6.93-14.17,6.288
				c-10.623-0.641-14.673-7.413-14.979-10.061c-0.306-2.648,0.247-1.902,4.304-1.141c4.056,0.761,4.169-4.331,6.616-3.358
				c2.447,0.973,3.694,5.712,6.194,3.099c2.5-2.613,3.943-4.268,5.339-2.284c1.396,1.984,3.103,4.634,4.996,4.859
				C510.205,427.9,513.087,426.908,510.012,430.272z"/>
			<path id="XMLID_543_" style="fill:#FFF0A4;" d="M501.859,414.609c0.095,0.826,0.843,1.419,1.669,1.323
				c0.826-0.095,1.419-0.842,1.323-1.669c-0.095-0.826-0.842-1.419-1.669-1.323C502.356,413.036,501.763,413.783,501.859,414.609z"
				/>
			<path id="XMLID_525_" style="fill:#FFF0A4;" d="M488.99,417.519c0.095,0.826,0.843,1.419,1.669,1.323
				c0.826-0.095,1.419-0.843,1.324-1.669c-0.095-0.826-0.843-1.419-1.669-1.324C489.488,415.945,488.895,416.692,488.99,417.519z"/>
		</g>
		<g id="XMLID_510_" style="clip-path:url(#XMLID_00000005970905506270112610000018433392359227345083_);">
			<path id="XMLID_498_" style="fill:#FFF0A4;" d="M245.479,473.888c0.07,0.434-3.623-7.416,2.563-9.056
				c6.186-1.64,2.706-4.346,7.732-6.021c5.026-1.675,4.51,3.479,9.923,1.933c5.412-1.546,4.742-5.406,10.954-4.51
				c4.36,0.628,2.964,4.795,6.701,5.168c3.737,0.373,6.575-0.228,6.344,3.431c-0.231,3.658-0.385,10.345-11.161,10.731
				C267.759,475.949,245.479,473.888,245.479,473.888z"/>
			<path id="XMLID_474_" style="fill:none;stroke:#FFFFFF;stroke-linecap:round;stroke-linejoin:round;stroke-miterlimit:10;" d="
				M267.63,470.663c0,0-3.269-16.383,6.533-25.485"/>
			<path id="XMLID_499_" style="fill:none;stroke:#FFFFFF;stroke-linecap:round;stroke-linejoin:round;stroke-miterlimit:10;" d="
				M255.399,452.739c0,0,8.402,5.321,10.362,20.724"/>
			<path id="XMLID_492_" style="fill:#FFFFFF;" d="M247.805,476.863c0,0,6.354,9.532,21.776,6.802
				c15.421-2.73,20.199-13.313,20.199-17.236c0-3.922-0.682-2.739-6.484-0.942c-5.801,1.797-6.825-5.628-10.238-3.792
				c-3.413,1.835-4.436,8.974-8.531,5.575s-6.484-5.574-8.19-2.439c-1.706,3.135-3.754,7.299-6.484,7.947
				C247.123,473.427,242.742,472.463,247.805,476.863z"/>
			<path id="XMLID_472_" style="fill:#FFF0A4;" d="M257.082,452.59c0,1.224-0.992,2.216-2.216,2.216
				c-1.224,0-2.217-0.992-2.217-2.216s0.992-2.216,2.217-2.216C256.089,450.373,257.082,451.366,257.082,452.59z"/>
			<circle id="XMLID_511_" style="fill:#FFF0A4;" cx="274.163" cy="444.742" r="2.216"/>
		</g>
		<g id="XMLID_556_" style="clip-path:url(#XMLID_00000005970905506270112610000018433392359227345083_);">
			<path id="XMLID_562_" style="fill:#FFF0A4;" d="M6.72,426.126c0.052,0.324-2.702-5.532,1.912-6.755
				c4.614-1.223,2.019-3.242,5.767-4.491s3.364,2.595,7.402,1.442c4.037-1.153,3.537-4.032,8.17-3.364
				c3.252,0.469,2.211,3.576,4.998,3.855c2.788,0.279,4.904-0.17,4.732,2.559c-0.173,2.729-0.287,7.716-8.325,8.005
				C23.339,427.664,6.72,426.126,6.72,426.126z"/>
			<path id="XMLID_561_" style="fill:none;stroke:#FFFFFF;stroke-linecap:round;stroke-linejoin:round;stroke-miterlimit:10;" d="
				M23.243,423.721c0,0-2.438-12.22,4.873-19.01"/>
			<path id="XMLID_560_" style="fill:none;stroke:#FFFFFF;stroke-linecap:round;stroke-linejoin:round;stroke-miterlimit:10;" d="
				M14.12,410.351c0,0,6.267,3.969,7.729,15.458"/>
			<path id="XMLID_559_" style="fill:#FFFFFF;" d="M8.455,428.345c0,0,4.74,7.11,16.243,5.074
				c11.503-2.036,15.067-9.93,15.067-12.856c0-2.926-0.509-2.043-4.836-0.703c-4.327,1.341-5.091-4.198-7.637-2.829
				c-2.545,1.369-3.309,6.694-6.364,4.159s-4.837-4.158-6.109-1.819c-1.273,2.339-2.8,5.444-4.837,5.928
				C7.946,425.783,4.678,425.064,8.455,428.345z"/>
			<circle id="XMLID_558_" style="fill:#FFF0A4;" cx="13.721" cy="410.24" r="1.653"/>
			<path id="XMLID_557_" style="fill:#FFF0A4;" d="M29.769,404.387c0,0.913-0.74,1.653-1.653,1.653s-1.653-0.74-1.653-1.653
				c0-0.913,0.74-1.653,1.653-1.653S29.769,403.474,29.769,404.387z"/>
		</g>
		<g id="XMLID_615_" style="clip-path:url(#XMLID_00000005970905506270112610000018433392359227345083_);">
			<path id="XMLID_629_" style="fill:#FFA4A4;" d="M-8.394,471.261c0,0.829-0.896,1.501-2.002,1.501
				c-1.106,0-2.002-0.672-2.002-1.501c0-0.829,0.896-1.501,2.002-1.501C-9.291,469.759-8.394,470.432-8.394,471.261z"/>
			<path id="XMLID_628_" style="fill:#FFA4A4;" d="M17.629,453.466c0,0.829-0.896,1.501-2.002,1.501
				c-1.106,0-2.002-0.672-2.002-1.501c0-0.829,0.896-1.501,2.002-1.501C16.733,451.965,17.629,452.637,17.629,453.466z"/>
			<path id="XMLID_627_" style="fill:#FFA4A4;" d="M17.629,461.726c0,0.829-0.896,1.501-2.002,1.501
				c-1.106,0-2.002-0.672-2.002-1.501c0-0.829,0.896-1.501,2.002-1.501C16.733,460.225,17.629,460.897,17.629,461.726z"/>
			<path id="XMLID_626_" style="fill:#FFA4A4;" d="M9.288,461.726c0,0.829-0.896,1.501-2.002,1.501
				c-1.106,0-2.002-0.672-2.002-1.501c0-0.829,0.896-1.501,2.002-1.501C8.392,460.225,9.288,460.897,9.288,461.726z"/>
			<path id="XMLID_625_" style="fill:#FFA4A4;" d="M7.286,468.258c0,0.829-0.896,1.501-2.002,1.501
				c-1.106,0-2.002-0.672-2.002-1.501c0-0.829,0.896-1.501,2.002-1.501C6.39,466.757,7.286,467.429,7.286,468.258z"/>
			<path id="XMLID_624_" style="fill:#FFA4A4;" d="M17.629,471.261c0,0.829-0.896,1.501-2.002,1.501
				c-1.106,0-2.002-0.672-2.002-1.501c0-0.829,0.896-1.501,2.002-1.501C16.733,469.759,17.629,470.432,17.629,471.261z"/>
			<ellipse id="XMLID_623_" style="fill:#FFA4A4;" cx="-2.055" cy="460.225" rx="4.004" ry="3.003"/>
			<path id="XMLID_622_" style="fill:#FFA4A4;" d="M28.639,451.017c0,1.658-1.792,3.003-4.004,3.003
				c-2.211,0-4.003-1.344-4.003-3.003c0-1.658,1.792-3.003,4.003-3.003C26.846,448.015,28.639,449.359,28.639,451.017z"/>
			<path id="XMLID_621_" style="fill:#FFA4A4;" d="M30.641,470.237c0,1.658-1.792,3.003-4.004,3.003
				c-2.211,0-4.003-1.344-4.003-3.003c0-1.658,1.792-3.003,4.003-3.003C28.848,467.234,30.641,468.579,30.641,470.237z"/>
			<ellipse id="XMLID_620_" style="fill:#FFA4A4;" cx="33.074" cy="462.549" rx="4.004" ry="3.003"/>
			<path id="XMLID_619_" style="fill:#FFA4A4;" d="M-8.394,451.885c0,1.244-1.344,2.252-3.003,2.252
				c-1.658,0-3.003-1.008-3.003-2.252c0-1.244,1.344-2.252,3.003-2.252C-9.739,449.633-8.394,450.642-8.394,451.885z"/>
			<path id="XMLID_618_" style="fill:#FFA4A4;" d="M26.637,461.726c0,0.829-0.896,1.501-2.002,1.501
				c-1.106,0-2.002-0.672-2.002-1.501c0-0.829,0.896-1.501,2.002-1.501C25.741,460.225,26.637,460.897,26.637,461.726z"/>
			<path id="XMLID_617_" style="fill:#FFA4A4;" d="M3.95,451.965c0,0.829-0.896,1.501-2.002,1.501c-1.106,0-2.002-0.672-2.002-1.501
				c0-0.829,0.896-1.501,2.002-1.501C3.054,450.463,3.95,451.135,3.95,451.965z"/>
			<path id="XMLID_616_" style="fill:#FFA4A4;" d="M-8.394,460.225c0,0.829-0.896,1.501-2.002,1.501
				c-1.106,0-2.002-0.672-2.002-1.501c0-0.829,0.896-1.501,2.002-1.501C-9.291,458.724-8.394,459.396-8.394,460.225z"/>
		</g>
		<g id="XMLID_42_" style="clip-path:url(#XMLID_00000005970905506270112610000018433392359227345083_);">
			<path id="XMLID_36_" style="fill:#5DBA6A;" d="M34.256,491.368c0,0-9.13-33.04-22.372-33.876
				c-3.644-0.23,11.881-0.398,19.04,33.876H34.256z"/>
			<path id="XMLID_40_" style="fill:#5DBA6A;" d="M34.256,491.368c0,0,6.639-24.025,16.267-24.633
				c2.65-0.167-8.639-0.289-13.845,24.633H34.256z"/>
			<path id="XMLID_41_" style="fill:#5DBA6A;" d="M31.223,485.881c0,0-7.865-22.554,3.734-40.99c0.97-1.542,2.3-2.848,3.901-3.715
				c0.435-0.236,0.87-0.429,1.256-0.525c1.546-0.387-3.792,3.763-5.858,14.252c-2.067,10.489,1.166,32.765,1.166,32.765l-1.166,3.7
				L31.223,485.881z"/>
			<path id="XMLID_38_" style="fill:#5DBA6A;" d="M32.226,469.065c0,0,2.933-15.081,10.362-18.13
				c7.429-3.05-12.162,8.315-7.704,32.539L32.226,469.065z"/>
		</g>
	</g>
</g>
</svg>
