<svg width="32" height="32" viewBox="0 0 32 32" fill="none" xmlns="http://www.w3.org/2000/svg">
<path d="M9.05262 22.9474V20.421M15.3684 22.9474V19.1579M21.6842 22.9474V16.6316M3.36841 15.3684C3.36841 9.71199 3.36841 6.88251 5.12546 5.12546C6.88251 3.36841 9.71072 3.36841 15.3684 3.36841C21.0248 3.36841 23.8543 3.36841 25.6114 5.12546C27.3684 6.88251 27.3684 9.71072 27.3684 15.3684C27.3684 21.0248 27.3684 23.8543 25.6114 25.6114C23.8543 27.3684 21.0261 27.3684 15.3684 27.3684C9.71199 27.3684 6.88251 27.3684 5.12546 25.6114C3.36841 23.8543 3.36841 21.0261 3.36841 15.3684Z" stroke="#9FA9BA" stroke-width="2.5" stroke-linecap="round" stroke-linejoin="round"/>
<path d="M7.7793 14.7192C10.5014 14.8101 16.6745 14.3996 20.186 8.82652M17.8846 8.15326L20.2542 7.77178C20.5422 7.73515 20.9667 7.96378 21.0715 8.23536L21.6968 10.3044" stroke="#9FA9BA" stroke-width="1.5" stroke-linecap="round" stroke-linejoin="round"/>
</svg>
