<svg width="30" height="20" viewBox="0 0 30 20" fill="none" xmlns="http://www.w3.org/2000/svg">
<path d="M15 0C12.0333 0 9.13319 0.58649 6.66645 1.6853C4.19971 2.78412 2.27713 4.3459 1.14181 6.17316C0.00649927 8.00042 -0.290551 10.0111 0.288227 11.9509C0.867006 13.8907 2.29562 15.6725 4.3934 17.0711C6.49119 18.4696 9.16393 19.422 12.0736 19.8078C14.9834 20.1937 17.9994 19.9957 20.7403 19.2388C23.4811 18.4819 25.8238 17.2002 27.472 15.5557C29.1203 13.9112 30 11.9778 30 10C29.9958 7.34869 28.4141 4.80678 25.602 2.93202C22.7898 1.05727 18.977 0.00279983 15 0ZM15 18.4615C12.4897 18.4615 10.0358 17.9653 7.94854 17.0355C5.8613 16.1057 4.23449 14.7842 3.27384 13.2381C2.31319 11.6919 2.06184 9.99061 2.55158 8.34923C3.04131 6.70786 4.25014 5.20016 6.02519 4.01679C7.80024 2.83342 10.0618 2.02754 12.5239 1.70105C14.9859 1.37456 17.5379 1.54212 19.8571 2.18256C22.1764 2.82299 24.1586 3.90753 25.5533 5.29902C26.9479 6.69051 27.6923 8.32646 27.6923 10C27.6885 12.2434 26.35 14.3941 23.9706 15.9804C21.5912 17.5667 18.365 18.459 15 18.4615ZM18.6865 9.54423L13.8462 13.8462H18.4615C18.7676 13.8462 19.061 13.9272 19.2774 14.0715C19.4938 14.2157 19.6154 14.4114 19.6154 14.6154C19.6154 14.8194 19.4938 15.0151 19.2774 15.1593C19.061 15.3036 18.7676 15.3846 18.4615 15.3846H11.5385C11.3242 15.3846 11.1141 15.3448 10.9319 15.2697C10.7496 15.1946 10.6023 15.0872 10.5064 14.9594C10.4106 14.8316 10.37 14.6886 10.3893 14.5463C10.4085 14.404 10.4868 14.2681 10.6154 14.1538L16.8418 8.61923C17.0412 8.4421 17.1809 8.23837 17.2513 8.02195C17.3217 7.80553 17.3212 7.58153 17.2498 7.36526C17.1784 7.14898 17.0378 6.94553 16.8377 6.7688C16.6375 6.59207 16.3825 6.44623 16.09 6.34125C15.7975 6.23627 15.4745 6.17462 15.143 6.16052C14.8115 6.14641 14.4793 6.18018 14.1692 6.25952C13.8591 6.33886 13.5783 6.4619 13.3461 6.62023C13.1138 6.77856 12.9356 6.96845 12.8236 7.17692C12.7214 7.36933 12.5088 7.52681 12.2325 7.61472C11.9562 7.70263 11.6389 7.71376 11.3502 7.64567C11.0616 7.57758 10.8254 7.43585 10.6935 7.25165C10.5617 7.06745 10.545 6.85587 10.6471 6.66346C10.8697 6.24572 11.2251 5.86497 11.6889 5.54729C12.1527 5.2296 12.714 4.98249 13.3344 4.82286C13.9547 4.66323 14.6195 4.59485 15.2832 4.62241C15.9469 4.64997 16.5938 4.77282 17.1797 4.98254C17.7655 5.19226 18.2765 5.48391 18.6776 5.83751C19.0787 6.1911 19.3604 6.59831 19.5035 7.03124C19.6466 7.46417 19.6477 7.91261 19.5067 8.34584C19.3657 8.77908 19.0859 9.18689 18.6865 9.54134V9.54423Z" fill="black"/>
</svg>
