<svg width="29" height="20" viewBox="0 0 29 20" fill="none" xmlns="http://www.w3.org/2000/svg">
<path d="M14.5 0C11.6322 0 8.82875 0.567571 6.44424 1.63094C4.05972 2.69431 2.20122 4.20571 1.10375 5.97403C0.00628262 7.74235 -0.280866 9.68815 0.27862 11.5654C0.838106 13.4426 2.2191 15.167 4.24696 16.5204C6.27482 17.8738 8.85847 18.7955 11.6712 19.1689C14.4839 19.5423 17.3994 19.3506 20.0489 18.6182C22.6984 17.8857 24.963 16.6453 26.5563 15.0539C28.1496 13.4625 29 11.5914 29 9.67742C28.9959 7.11164 27.467 4.65172 24.7486 2.83744C22.0302 1.02316 18.3444 0.00270951 14.5 0ZM14.5 17.866C12.0734 17.866 9.70125 17.3857 7.68359 16.486C5.66592 15.5862 4.09334 14.3073 3.16471 12.8111C2.23609 11.3148 1.99311 9.66833 2.46652 8.0799C2.93994 6.49148 4.10847 5.03241 5.82435 3.88721C7.54023 2.74202 9.7264 1.96213 12.1064 1.64617C14.4864 1.33022 16.9533 1.49238 19.1952 2.11215C21.4371 2.73193 23.3533 3.78148 24.7015 5.12808C26.0497 6.47469 26.7692 8.05787 26.7692 9.67742C26.7655 11.8484 25.4717 13.9298 23.1716 15.4649C20.8715 17 17.7529 17.8635 14.5 17.866ZM18.9615 11.1663H17.8462V5.21092C17.8459 5.05592 17.7732 4.90483 17.6382 4.77873C17.5031 4.65263 17.3124 4.55782 17.0928 4.50751C16.8731 4.45721 16.6354 4.45392 16.4128 4.49812C16.1902 4.54231 15.9938 4.63177 15.851 4.75403L8.04332 11.4538C7.91523 11.5638 7.83593 11.6955 7.81446 11.8341C7.79298 11.9726 7.83018 12.1124 7.92183 12.2376C8.01348 12.3627 8.1559 12.4682 8.3329 12.542C8.5099 12.6158 8.71437 12.655 8.92308 12.6551H15.6154V14.1439C15.6154 14.3413 15.7329 14.5307 15.9421 14.6703C16.1513 14.8099 16.435 14.8883 16.7308 14.8883C17.0266 14.8883 17.3103 14.8099 17.5195 14.6703C17.7286 14.5307 17.8462 14.3413 17.8462 14.1439V12.6551H18.9615C19.2574 12.6551 19.5411 12.5767 19.7502 12.4371C19.9594 12.2974 20.0769 12.1081 20.0769 11.9107C20.0769 11.7132 19.9594 11.5239 19.7502 11.3843C19.5411 11.2447 19.2574 11.1663 18.9615 11.1663ZM15.6154 11.1663H11.204L15.6154 7.38089V11.1663Z" fill="black"/>
</svg>
