<svg width="21" height="22" viewBox="0 0 21 22" fill="none" xmlns="http://www.w3.org/2000/svg">
<g clip-path="url(#clip0_238_1370)">
<path d="M10.3906 0.574341C4.8767 0.574341 0.390625 5.06047 0.390625 10.5743C0.390625 16.0886 4.87676 20.5746 10.3906 20.5746C15.9049 20.5746 20.3906 16.0885 20.3906 10.5743C20.3906 5.06047 15.9045 0.574341 10.3906 0.574341ZM10.3906 18.7623C5.87612 18.7623 2.20328 15.0892 2.20328 10.5747C2.20328 6.06019 5.87607 2.38735 10.3906 2.38735C14.9052 2.38735 18.578 6.06019 18.578 10.5747C18.578 15.0895 14.9051 18.7623 10.3906 18.7623Z" fill="#F9F9F9"/>
<path d="M13.7408 10.7056H11.216V7.0445C11.216 6.52153 10.7921 6.09766 10.2691 6.09766C9.74614 6.09766 9.32227 6.52153 9.32227 7.0445V11.6525C9.32227 12.1754 9.74614 12.5993 10.2691 12.5993H13.7409C14.2639 12.5993 14.6877 12.1754 14.6877 11.6525C14.6877 11.1295 14.2638 10.7056 13.7408 10.7056Z" fill="#F9F9F9"/>
</g>
<defs>
<clipPath id="clip0_238_1370">
<rect width="21" height="21" fill="white" transform="translate(0 0.5)"/>
</clipPath>
</defs>
</svg>
