<svg width="20" height="20" viewBox="0 0 20 20" fill="none" xmlns="http://www.w3.org/2000/svg">
<path d="M1 3.231L4.15 1M19 3.231L15.85 1M18 11C18 13.1217 17.1571 15.1566 15.6569 16.6569C14.1566 18.1571 12.1217 19 10 19C7.87827 19 5.84344 18.1571 4.34315 16.6569C2.84285 15.1566 2 13.1217 2 11C2 8.87827 2.84285 6.84344 4.34315 5.34315C5.84344 3.84285 7.87827 3 10 3C12.1217 3 14.1566 3.84285 15.6569 5.34315C17.1571 6.84344 18 8.87827 18 11Z" stroke="black" stroke-width="1.5" stroke-linecap="round" stroke-linejoin="round"/>
<path d="M10 6.5V11.5L13 13.5" stroke="black" stroke-width="1.5" stroke-linecap="round" stroke-linejoin="round"/>
</svg>
