<svg width="22" height="21" viewBox="0 0 22 21" fill="none" xmlns="http://www.w3.org/2000/svg">
<path d="M6 16.5V14.5M11 16.5V13.5M16 16.5V11.5M1.5 10.5C1.5 6.022 1.5 3.782 2.891 2.391C4.282 1 6.521 1 11 1C15.478 1 17.718 1 19.109 2.391C20.5 3.782 20.5 6.021 20.5 10.5C20.5 14.978 20.5 17.218 19.109 18.609C17.718 20 15.479 20 11 20C6.522 20 4.282 20 2.891 18.609C1.5 17.218 1.5 14.979 1.5 10.5Z" stroke="black" stroke-width="1.5" stroke-linecap="round" stroke-linejoin="round"/>
<path d="M4.99219 9.98597C7.14719 10.058 12.0342 9.73297 14.8142 5.32097M12.9922 4.78797L14.8682 4.48597C15.0962 4.45697 15.4322 4.63797 15.5152 4.85297L16.0102 6.49097" stroke="black" stroke-width="1.5" stroke-linecap="round" stroke-linejoin="round"/>
</svg>
