<svg width="20" height="18" viewBox="0 0 20 18" fill="none" xmlns="http://www.w3.org/2000/svg">
<mask id="path-1-outside-1_244_1186" maskUnits="userSpaceOnUse" x="0.0581055" y="-0.0770264" width="20" height="18" fill="black">
<rect fill="white" x="0.0581055" y="-0.0770264" width="20" height="18"/>
<path d="M10.0031 17.02C9.84244 17.02 9.68211 16.988 9.52211 16.924C9.36211 16.8606 9.22544 16.7653 9.11211 16.638L3.38211 10.884H4.78511L9.81711 15.925C9.85177 15.9583 9.88177 15.9793 9.9071 15.988C9.93244 15.9966 9.96244 16.0006 9.9971 16C10.0304 16 10.0598 15.996 10.0851 15.988C10.1111 15.9793 10.1411 15.9583 10.1751 15.925L16.4651 9.62897C16.9638 9.13031 17.3484 8.57031 17.6191 7.94897C17.8898 7.32764 18.0188 6.69731 18.0061 6.05797C17.9854 4.90797 17.6211 3.93331 16.9131 3.13397C16.2058 2.33397 15.3404 1.93397 14.3171 1.93397C13.7751 1.93397 13.2478 2.04397 12.7351 2.26397C12.2231 2.48397 11.7781 2.80431 11.4001 3.22497L10.4941 4.19997C10.4241 4.28664 10.3481 4.34664 10.2661 4.37997C10.1841 4.41331 10.0964 4.42964 10.0031 4.42897C9.90977 4.42831 9.81711 4.40764 9.72511 4.36697C9.63311 4.32631 9.55177 4.27064 9.48111 4.19997L8.57511 3.22497C8.19977 2.80297 7.75644 2.48064 7.24511 2.25797C6.73311 2.03464 6.20411 1.92297 5.65811 1.92297C4.78344 1.92297 4.02011 2.22631 3.36811 2.83297C2.71677 3.44031 2.29344 4.20131 2.09811 5.11597H1.08711C1.29377 3.91664 1.81844 2.91797 2.66111 2.11997C3.50377 1.32197 4.50277 0.922974 5.65811 0.922974C6.34277 0.922974 7.00077 1.06231 7.63211 1.34097C8.26344 1.61897 8.82844 2.02197 9.3271 2.54997L10.0001 3.26197L10.6351 2.58897C11.1424 2.04764 11.7151 1.63464 12.3531 1.34997C12.9911 1.06531 13.6458 0.922974 14.3171 0.922974C15.6251 0.922974 16.7328 1.42431 17.6401 2.42697C18.5474 3.42964 19.0008 4.63964 19.0001 6.05697C19.0001 6.83564 18.8458 7.59031 18.5371 8.32097C18.2278 9.05164 17.7834 9.70864 17.2041 10.292L10.8641 16.639C10.7368 16.7656 10.6014 16.8606 10.4581 16.924C10.3148 16.9873 10.1631 17.019 10.0031 17.019M9.89411 8.49997H1.05811V7.49997H13.8751C14.2864 7.49997 14.6394 7.35297 14.9341 7.05897C15.2281 6.76431 15.3751 6.41131 15.3751 5.99997C15.3751 5.58864 15.2281 5.23564 14.9341 4.94097C14.6394 4.64697 14.2864 4.49997 13.8751 4.49997C13.6284 4.49997 13.3978 4.55597 13.1831 4.66797C12.9678 4.78064 12.7901 4.94064 12.6501 5.14797L11.6481 4.87297C11.8701 4.45364 12.1771 4.11997 12.5691 3.87197C12.9611 3.62397 13.3964 3.49997 13.8751 3.49997C14.5698 3.49997 15.1598 3.74297 15.6451 4.22897C16.1318 4.71431 16.3751 5.30397 16.3751 5.99797C16.3751 6.69197 16.1318 7.28231 15.6451 7.76897C15.1584 8.25564 14.5684 8.49931 13.8751 8.49997H11.8151C11.9938 8.70531 12.1318 8.93197 12.2291 9.17997C12.3264 9.42797 12.3751 9.70131 12.3751 9.99997C12.3751 10.6946 12.1318 11.2846 11.6451 11.77C11.1598 12.2566 10.5698 12.5 9.8751 12.5C9.39711 12.5 8.96177 12.376 8.56911 12.128C8.17711 11.88 7.87011 11.5463 7.64811 11.127L8.6501 10.852C8.7901 11.06 8.96777 11.22 9.18311 11.332C9.39844 11.444 9.6291 11.5 9.8751 11.5C10.2864 11.5 10.6394 11.353 10.9341 11.059C11.2281 10.7643 11.3751 10.4113 11.3751 9.99997C11.3751 9.58864 11.2311 9.23564 10.9431 8.94097C10.6551 8.64631 10.3054 8.49931 9.89411 8.49997Z"/>
</mask>
<path d="M10.0031 17.02C9.84244 17.02 9.68211 16.988 9.52211 16.924C9.36211 16.8606 9.22544 16.7653 9.11211 16.638L3.38211 10.884H4.78511L9.81711 15.925C9.85177 15.9583 9.88177 15.9793 9.9071 15.988C9.93244 15.9966 9.96244 16.0006 9.9971 16C10.0304 16 10.0598 15.996 10.0851 15.988C10.1111 15.9793 10.1411 15.9583 10.1751 15.925L16.4651 9.62897C16.9638 9.13031 17.3484 8.57031 17.6191 7.94897C17.8898 7.32764 18.0188 6.69731 18.0061 6.05797C17.9854 4.90797 17.6211 3.93331 16.9131 3.13397C16.2058 2.33397 15.3404 1.93397 14.3171 1.93397C13.7751 1.93397 13.2478 2.04397 12.7351 2.26397C12.2231 2.48397 11.7781 2.80431 11.4001 3.22497L10.4941 4.19997C10.4241 4.28664 10.3481 4.34664 10.2661 4.37997C10.1841 4.41331 10.0964 4.42964 10.0031 4.42897C9.90977 4.42831 9.81711 4.40764 9.72511 4.36697C9.63311 4.32631 9.55177 4.27064 9.48111 4.19997L8.57511 3.22497C8.19977 2.80297 7.75644 2.48064 7.24511 2.25797C6.73311 2.03464 6.20411 1.92297 5.65811 1.92297C4.78344 1.92297 4.02011 2.22631 3.36811 2.83297C2.71677 3.44031 2.29344 4.20131 2.09811 5.11597H1.08711C1.29377 3.91664 1.81844 2.91797 2.66111 2.11997C3.50377 1.32197 4.50277 0.922974 5.65811 0.922974C6.34277 0.922974 7.00077 1.06231 7.63211 1.34097C8.26344 1.61897 8.82844 2.02197 9.3271 2.54997L10.0001 3.26197L10.6351 2.58897C11.1424 2.04764 11.7151 1.63464 12.3531 1.34997C12.9911 1.06531 13.6458 0.922974 14.3171 0.922974C15.6251 0.922974 16.7328 1.42431 17.6401 2.42697C18.5474 3.42964 19.0008 4.63964 19.0001 6.05697C19.0001 6.83564 18.8458 7.59031 18.5371 8.32097C18.2278 9.05164 17.7834 9.70864 17.2041 10.292L10.8641 16.639C10.7368 16.7656 10.6014 16.8606 10.4581 16.924C10.3148 16.9873 10.1631 17.019 10.0031 17.019M9.89411 8.49997H1.05811V7.49997H13.8751C14.2864 7.49997 14.6394 7.35297 14.9341 7.05897C15.2281 6.76431 15.3751 6.41131 15.3751 5.99997C15.3751 5.58864 15.2281 5.23564 14.9341 4.94097C14.6394 4.64697 14.2864 4.49997 13.8751 4.49997C13.6284 4.49997 13.3978 4.55597 13.1831 4.66797C12.9678 4.78064 12.7901 4.94064 12.6501 5.14797L11.6481 4.87297C11.8701 4.45364 12.1771 4.11997 12.5691 3.87197C12.9611 3.62397 13.3964 3.49997 13.8751 3.49997C14.5698 3.49997 15.1598 3.74297 15.6451 4.22897C16.1318 4.71431 16.3751 5.30397 16.3751 5.99797C16.3751 6.69197 16.1318 7.28231 15.6451 7.76897C15.1584 8.25564 14.5684 8.49931 13.8751 8.49997H11.8151C11.9938 8.70531 12.1318 8.93197 12.2291 9.17997C12.3264 9.42797 12.3751 9.70131 12.3751 9.99997C12.3751 10.6946 12.1318 11.2846 11.6451 11.77C11.1598 12.2566 10.5698 12.5 9.8751 12.5C9.39711 12.5 8.96177 12.376 8.56911 12.128C8.17711 11.88 7.87011 11.5463 7.64811 11.127L8.6501 10.852C8.7901 11.06 8.96777 11.22 9.18311 11.332C9.39844 11.444 9.6291 11.5 9.8751 11.5C10.2864 11.5 10.6394 11.353 10.9341 11.059C11.2281 10.7643 11.3751 10.4113 11.3751 9.99997C11.3751 9.58864 11.2311 9.23564 10.9431 8.94097C10.6551 8.64631 10.3054 8.49931 9.89411 8.49997Z" fill="black"/>
<path d="M9.52211 16.924L9.63352 16.6454L9.63252 16.645L9.52211 16.924ZM9.11211 16.638L9.3362 16.4385L9.33061 16.4322L9.32468 16.4263L9.11211 16.638ZM3.38211 10.884V10.584H2.65998L3.16953 11.0957L3.38211 10.884ZM4.78511 10.884L4.99743 10.672L4.90953 10.584H4.78511V10.884ZM9.81711 15.925L9.60474 16.137L9.60917 16.1412L9.81711 15.925ZM9.9971 16V15.6999L9.99134 15.7L9.9971 16ZM10.0851 15.988L10.1755 16.2741L10.18 16.2726L10.0851 15.988ZM10.1751 15.925L10.3851 16.1392L10.3873 16.137L10.1751 15.925ZM16.4651 9.62897L16.253 9.41684L16.2529 9.41694L16.4651 9.62897ZM18.0061 6.05797L17.7062 6.06336L17.7062 6.06392L18.0061 6.05797ZM16.9131 3.13397L16.6884 3.33269L16.6885 3.33289L16.9131 3.13397ZM12.7351 2.26397L12.6168 1.98829L12.6167 1.98834L12.7351 2.26397ZM11.4001 3.22497L11.6199 3.42921L11.6233 3.42549L11.4001 3.22497ZM10.4941 4.19997L10.2743 3.99576L10.2673 4.00338L10.2607 4.01147L10.4941 4.19997ZM9.48111 4.19997L9.26119 4.40432L9.26897 4.41211L9.48111 4.19997ZM8.57511 3.22497L8.35089 3.4244L8.35534 3.42919L8.57511 3.22497ZM7.24511 2.25797L7.12516 2.53295L7.12533 2.53303L7.24511 2.25797ZM3.36811 2.83297L3.16375 2.61334L3.16351 2.61356L3.36811 2.83297ZM2.09811 5.11597V5.41597H2.3408L2.39149 5.17863L2.09811 5.11597ZM1.08711 5.11597L0.791462 5.06503L0.730988 5.41597H1.08711V5.11597ZM5.65811 0.922974V1.22297V0.922974ZM7.63211 1.34097L7.51096 1.61543L7.51121 1.61553L7.63211 1.34097ZM9.3271 2.54997L9.109 2.75596L9.10909 2.75605L9.3271 2.54997ZM10.0001 3.26197L9.78209 3.46805L10.0003 3.69891L10.2183 3.46786L10.0001 3.26197ZM10.6351 2.58897L10.8533 2.79486L10.854 2.79412L10.6351 2.58897ZM19.0001 6.05697L18.7001 6.05683V6.05697H19.0001ZM18.5371 8.32097L18.8134 8.43793L18.8135 8.43772L18.5371 8.32097ZM17.2041 10.292L17.4164 10.504L17.417 10.5034L17.2041 10.292ZM10.8641 16.639L11.0757 16.8517L11.0764 16.851L10.8641 16.639ZM9.89411 8.49997V8.79997L9.89459 8.79997L9.89411 8.49997ZM1.05811 8.49997H0.758105V8.79997H1.05811V8.49997ZM1.05811 7.49997V7.19997H0.758105V7.49997H1.05811ZM14.9341 7.05897L15.146 7.27135L15.1465 7.27086L14.9341 7.05897ZM14.9341 4.94097L15.1465 4.72908L15.146 4.7286L14.9341 4.94097ZM13.1831 4.66797L13.0443 4.402L13.044 4.40216L13.1831 4.66797ZM12.6501 5.14797L12.5707 5.43728L12.7783 5.49424L12.8987 5.31586L12.6501 5.14797ZM11.6481 4.87297L11.383 4.73261L11.2079 5.06326L11.5687 5.16228L11.6481 4.87297ZM15.6451 4.22897L15.4328 4.44096L15.4333 4.4414L15.6451 4.22897ZM13.8751 8.49997V8.79997L13.8754 8.79997L13.8751 8.49997ZM11.8151 8.49997V8.19997H11.1564L11.5888 8.6969L11.8151 8.49997ZM12.3751 9.99997H12.6751H12.3751ZM11.6451 11.77L11.4333 11.5576L11.4327 11.5581L11.6451 11.77ZM8.56911 12.128L8.40871 12.3815L8.40891 12.3816L8.56911 12.128ZM7.64811 11.127L7.56871 10.8377L7.20792 10.9367L7.38297 11.2673L7.64811 11.127ZM8.6501 10.852L8.89898 10.6845L8.7786 10.5056L8.57071 10.5627L8.6501 10.852ZM9.8751 11.5V11.2V11.5ZM10.9341 11.059L11.146 11.2713L11.1465 11.2709L10.9341 11.059ZM10.0031 16.72C9.8833 16.72 9.76068 16.6963 9.63352 16.6454L9.41069 17.2025C9.60353 17.2797 9.80157 17.32 10.0031 17.32V16.72ZM9.63252 16.645C9.51567 16.5988 9.41806 16.5305 9.3362 16.4385L8.88801 16.8374C9.03281 17.0001 9.20854 17.1225 9.41169 17.2029L9.63252 16.645ZM9.32468 16.4263L3.59468 10.6723L3.16953 11.0957L8.89953 16.8497L9.32468 16.4263ZM3.38211 11.184H4.78511V10.584H3.38211V11.184ZM4.57278 11.0959L9.60478 16.1369L10.0294 15.713L4.99743 10.672L4.57278 11.0959ZM9.60917 16.1412C9.65415 16.1845 9.72228 16.2418 9.81 16.2718L10.0042 15.7041C10.0156 15.708 10.024 15.7121 10.029 15.7148C10.0341 15.7175 10.037 15.7195 10.0377 15.72C10.0386 15.7206 10.0344 15.7178 10.025 15.7087L9.60917 16.1412ZM9.81 16.2718C9.87657 16.2946 9.94303 16.3011 10.0029 16.2999L9.99134 15.7C9.98704 15.7001 9.98622 15.6998 9.98825 15.7001C9.99032 15.7004 9.99598 15.7013 10.0042 15.7041L9.81 16.2718ZM9.9971 16.3C10.0536 16.3 10.1145 16.2933 10.1754 16.274L9.99477 15.7019C10.005 15.6987 10.0072 15.7 9.9971 15.7V16.3ZM10.18 16.2726C10.2701 16.2425 10.3392 16.1842 10.3851 16.1392L9.96509 15.7108C9.95656 15.7191 9.95325 15.7212 9.95506 15.72C9.95617 15.7192 9.95947 15.717 9.96491 15.7141C9.97033 15.7112 9.97883 15.7072 9.99024 15.7034L10.18 16.2726ZM10.3873 16.137L16.6773 9.841L16.2529 9.41694L9.96287 15.7129L10.3873 16.137ZM16.6772 9.84111C17.2014 9.31697 17.6079 8.72595 17.8941 8.06879L17.3441 7.82916C17.089 8.41466 16.7262 8.94364 16.253 9.41684L16.6772 9.84111ZM17.8941 8.06879C18.181 7.41024 18.3196 6.73715 18.306 6.05203L17.7062 6.06392C17.7179 6.65746 17.5985 7.24504 17.3441 7.82916L17.8941 8.06879ZM18.3061 6.05258C18.2842 4.83711 17.8968 3.79216 17.1377 2.93506L16.6885 3.33289C17.3454 4.07445 17.6867 4.97884 17.7062 6.06336L18.3061 6.05258ZM17.1379 2.93526C16.3764 2.07404 15.4306 1.63397 14.3171 1.63397V2.23397C15.2503 2.23397 16.0351 2.59391 16.6884 3.33269L17.1379 2.93526ZM14.3171 1.63397C13.7332 1.63397 13.1657 1.75273 12.6168 1.98829L12.8534 2.53966C13.3298 2.33522 13.817 2.23397 14.3171 2.23397V1.63397ZM12.6167 1.98834C12.0641 2.22576 11.5836 2.57196 11.177 3.02446L11.6233 3.42549C11.9726 3.03665 12.3821 2.74219 12.8535 2.53961L12.6167 1.98834ZM11.1803 3.02076L10.2743 3.99576L10.7139 4.40419L11.6199 3.42919L11.1803 3.02076ZM10.2607 4.01147C10.2145 4.06866 10.1774 4.09219 10.1531 4.10206L10.3791 4.65789C10.5188 4.60109 10.6337 4.50462 10.7275 4.38847L10.2607 4.01147ZM10.1531 4.10206C10.1096 4.11973 10.0613 4.12938 10.0052 4.12898L10.001 4.72897C10.1316 4.7299 10.2586 4.70688 10.3791 4.65789L10.1531 4.10206ZM10.0052 4.12898C9.95607 4.12863 9.9038 4.11796 9.84639 4.09258L9.60382 4.64136C9.73041 4.69732 9.86347 4.72798 10.001 4.72897L10.0052 4.12898ZM9.84639 4.09258C9.78803 4.06679 9.73755 4.03215 9.69324 3.98784L9.26897 4.41211C9.36599 4.50913 9.47818 4.58583 9.60382 4.64136L9.84639 4.09258ZM9.70087 3.99576L8.79487 3.02076L8.35534 3.42919L9.26134 4.40419L9.70087 3.99576ZM8.79927 3.0256C8.39541 2.57153 7.9166 2.22317 7.36488 1.98292L7.12533 2.53303C7.59628 2.73811 8.00413 3.03442 8.35094 3.42435L8.79927 3.0256ZM7.36505 1.98299C6.81611 1.74355 6.24635 1.62297 5.65811 1.62297V2.22297C6.16186 2.22297 6.6501 2.32573 7.12516 2.53295L7.36505 1.98299ZM5.65811 1.62297C4.70609 1.62297 3.87014 1.95607 3.16375 2.61334L3.57246 3.0526C4.17007 2.49655 4.86079 2.22297 5.65811 2.22297V1.62297ZM3.16351 2.61356C2.46488 3.26499 2.01221 4.08174 1.80472 5.05332L2.39149 5.17863C2.57467 4.32088 2.96866 3.61562 3.5727 3.05239L3.16351 2.61356ZM2.09811 4.81597H1.08711V5.41597H2.09811V4.81597ZM1.38275 5.16692C1.57899 4.02808 2.07412 3.08901 2.86739 2.3378L2.45482 1.90215C1.56275 2.74693 1.00855 3.8052 0.791462 5.06503L1.38275 5.16692ZM2.86739 2.3378C3.65461 1.5923 4.5799 1.22297 5.65811 1.22297V0.622974C4.42565 0.622974 3.35293 1.05165 2.45482 1.90215L2.86739 2.3378ZM5.65811 1.22297C6.30071 1.22297 6.91748 1.35347 7.51096 1.61543L7.75325 1.06652C7.08406 0.771146 6.38483 0.622974 5.65811 0.622974V1.22297ZM7.51121 1.61553C8.10397 1.87655 8.63636 2.25551 9.109 2.75596L9.54521 2.34399C9.02052 1.78843 8.42291 1.3614 7.753 1.06641L7.51121 1.61553ZM9.10909 2.75605L9.78209 3.46805L10.2181 3.0559L9.54512 2.3439L9.10909 2.75605ZM10.2183 3.46786L10.8533 2.79486L10.4169 2.38309L9.7819 3.05609L10.2183 3.46786ZM10.854 2.79412C11.3357 2.2801 11.876 1.89134 12.4753 1.62394L12.2309 1.07601C11.5542 1.37794 10.9491 1.81518 10.4162 2.38383L10.854 2.79412ZM12.4753 1.62394C13.0765 1.35572 13.6896 1.22297 14.3171 1.22297V0.622974C13.6019 0.622974 12.9057 0.774891 12.2309 1.07601L12.4753 1.62394ZM14.3171 1.22297C15.5371 1.22297 16.565 1.68603 17.4177 2.62827L17.8625 2.22568C16.9005 1.16258 15.7131 0.622974 14.3171 0.622974V1.22297ZM17.4177 2.62827C18.2725 3.57289 18.7007 4.71001 18.7001 6.05683L19.3001 6.05711C19.3008 4.56927 18.8224 3.28639 17.8625 2.22568L17.4177 2.62827ZM18.7001 6.05697C18.7001 6.79478 18.5541 7.5098 18.2608 8.20423L18.8135 8.43772C19.1374 7.67081 19.3001 6.8765 19.3001 6.05697H18.7001ZM18.2608 8.20402C17.967 8.89817 17.5446 9.52339 16.9912 10.0806L17.417 10.5034C18.0223 9.89389 18.4886 9.20511 18.8134 8.43793L18.2608 8.20402ZM16.9919 10.08L10.6519 16.427L11.0764 16.851L17.4164 10.504L16.9919 10.08ZM10.6525 16.4263C10.5475 16.5308 10.442 16.6031 10.3369 16.6496L10.5794 17.1984C10.7609 17.1182 10.926 17.0005 11.0757 16.8517L10.6525 16.4263ZM10.3369 16.6496C10.2325 16.6957 10.1223 16.719 10.0031 16.719V17.319C10.204 17.319 10.397 17.279 10.5794 17.1984L10.3369 16.6496ZM9.89411 8.19997H1.05811V8.79997H9.89411V8.19997ZM1.35811 8.49997V7.49997H0.758105V8.49997H1.35811ZM1.05811 7.79997H13.8751V7.19997H1.05811V7.79997ZM13.8751 7.79997C14.3669 7.79997 14.7958 7.62071 15.146 7.27135L14.7222 6.8466C14.483 7.08524 14.2059 7.19997 13.8751 7.19997V7.79997ZM15.1465 7.27086C15.4958 6.92071 15.6751 6.49181 15.6751 5.99997H15.0751C15.0751 6.3308 14.9604 6.6079 14.7217 6.84708L15.1465 7.27086ZM15.6751 5.99997C15.6751 5.50813 15.4958 5.07923 15.1465 4.72908L14.7217 5.15286C14.9604 5.39205 15.0751 5.66915 15.0751 5.99997H15.6751ZM15.146 4.7286C14.7958 4.37924 14.3669 4.19997 13.8751 4.19997V4.79997C14.2059 4.79997 14.483 4.91471 14.7222 5.15335L15.146 4.7286ZM13.8751 4.19997C13.5811 4.19997 13.3027 4.26721 13.0443 4.402L13.3219 4.93395C13.4929 4.84473 13.6758 4.79997 13.8751 4.79997V4.19997ZM13.044 4.40216C12.7833 4.53858 12.5685 4.7328 12.4015 4.98009L12.8987 5.31586C13.0117 5.14848 13.1522 5.0227 13.3222 4.93379L13.044 4.40216ZM12.7295 4.85867L11.7275 4.58367L11.5687 5.16228L12.5707 5.43728L12.7295 4.85867ZM11.9132 5.01334C12.1114 4.6391 12.3827 4.34489 12.7295 4.1255L12.4087 3.61845C11.9715 3.89506 11.6288 4.26818 11.383 4.73261L11.9132 5.01334ZM12.7295 4.1255C13.0719 3.90886 13.4513 3.79997 13.8751 3.79997V3.19997C13.3416 3.19997 12.8503 3.33908 12.4087 3.61845L12.7295 4.1255ZM13.8751 3.79997C14.4912 3.79997 15.0045 4.01203 15.4328 4.44096L15.8574 4.01699C15.3151 3.47392 14.6484 3.19997 13.8751 3.19997V3.79997ZM15.4333 4.4414C15.8629 4.86983 16.0751 5.38281 16.0751 5.99797H16.6751C16.6751 5.22514 16.4007 4.55878 15.8569 4.01655L15.4333 4.4414ZM16.0751 5.99797C16.0751 6.61316 15.8629 7.12696 15.433 7.55684L15.8572 7.98111C16.4007 7.43765 16.6751 6.77079 16.6751 5.99797H16.0751ZM15.433 7.55684C15.003 7.98685 14.4893 8.19938 13.8748 8.19997L13.8754 8.79997C14.6475 8.79923 15.3139 8.52443 15.8572 7.98111L15.433 7.55684ZM13.8751 8.19997H11.8151V8.79997H13.8751V8.19997ZM11.5888 8.6969C11.7454 8.87693 11.8653 9.07419 11.9498 9.28958L12.5084 9.07037C12.3982 8.78976 12.2421 8.53368 12.0414 8.30305L11.5888 8.6969ZM11.9498 9.28958C12.0319 9.49868 12.0751 9.73429 12.0751 9.99997H12.6751C12.6751 9.66832 12.621 9.35726 12.5084 9.07037L11.9498 9.28958ZM12.0751 9.99997C12.0751 10.6159 11.8628 11.1292 11.4333 11.5576L11.8569 11.9824C12.4007 11.4401 12.6751 10.7734 12.6751 9.99997H12.0751ZM11.4327 11.5581C11.0043 11.9877 10.491 12.2 9.8751 12.2V12.8C10.6485 12.8 11.3152 12.5256 11.8575 11.9818L11.4327 11.5581ZM9.8751 12.2C9.45206 12.2 9.07257 12.0911 8.7293 11.8743L8.40891 12.3816C8.85098 12.6608 9.34215 12.8 9.8751 12.8V12.2ZM8.7295 11.8744C8.38272 11.6551 8.11137 11.3608 7.91324 10.9866L7.38297 11.2673C7.62884 11.7318 7.97149 12.1049 8.40871 12.3815L8.7295 11.8744ZM7.7275 11.4163L8.7295 11.1413L8.57071 10.5627L7.56871 10.8377L7.7275 11.4163ZM8.40123 11.0195C8.56826 11.2677 8.78336 11.4622 9.04467 11.5981L9.32154 11.0658C9.15218 10.9777 9.01195 10.8523 8.89898 10.6845L8.40123 11.0195ZM9.04467 11.5981C9.30336 11.7327 9.58159 11.8 9.8751 11.8V11.2C9.67662 11.2 9.49352 11.1553 9.32154 11.0658L9.04467 11.5981ZM9.8751 11.8C10.3669 11.8 10.7958 11.6207 11.146 11.2713L10.7222 10.8466C10.483 11.0852 10.2059 11.2 9.8751 11.2V11.8ZM11.1465 11.2709C11.4958 10.9207 11.6751 10.4918 11.6751 9.99997H11.0751C11.0751 10.3308 10.9604 10.6079 10.7217 10.8471L11.1465 11.2709ZM11.6751 9.99997C11.6751 9.51011 11.5003 9.08189 11.1577 8.73128L10.7286 9.15066C10.9619 9.38939 11.0751 9.66717 11.0751 9.99997H11.6751ZM11.1577 8.73128C10.8132 8.37885 10.386 8.19918 9.89362 8.19997L9.89459 8.79997C10.2248 8.79944 10.497 8.91376 10.7286 9.15066L11.1577 8.73128Z" fill="black" mask="url(#path-1-outside-1_244_1186)"/>
</svg>
