<svg width="20" height="16" viewBox="0 0 20 16" fill="none" xmlns="http://www.w3.org/2000/svg">
<mask id="path-1-outside-1_244_1187" maskUnits="userSpaceOnUse" x="0.0581055" y="-0.179565" width="20" height="16" fill="black">
<rect fill="white" x="0.0581055" y="-0.179565" width="20" height="16"/>
<path d="M10.0031 15.1289C9.84244 15.1289 9.68211 15.1004 9.52211 15.0435C9.36211 14.9872 9.22544 14.9025 9.11211 14.7893L3.38211 9.67466H4.78511L9.81711 14.1555C9.85177 14.1852 9.88177 14.2038 9.9071 14.2115C9.93244 14.2192 9.96244 14.2228 9.9971 14.2222C10.0304 14.2222 10.0598 14.2187 10.0851 14.2115C10.1111 14.2038 10.1411 14.1852 10.1751 14.1555L16.4651 8.5591C16.9638 8.11584 17.3484 7.61806 17.6191 7.06577C17.8898 6.51347 18.0188 5.95317 18.0061 5.38488C17.9854 4.36266 17.6211 3.49629 16.9131 2.78577C16.2058 2.07466 15.3404 1.7191 14.3171 1.7191C13.7751 1.7191 13.2478 1.81688 12.7351 2.01243C12.2231 2.20799 11.7781 2.49273 11.4001 2.86666L10.4941 3.73332C10.4241 3.81036 10.3481 3.86369 10.2661 3.89332C10.1841 3.92295 10.0964 3.93747 10.0031 3.93688C9.90977 3.93629 9.81711 3.91792 9.72511 3.88177C9.63311 3.84562 9.55177 3.79614 9.48111 3.73332L8.57511 2.86666C8.19977 2.49155 7.75644 2.20503 7.24511 2.0071C6.73311 1.80858 6.20411 1.70932 5.65811 1.70932C4.78344 1.70932 4.02011 1.97895 3.36811 2.51821C2.71677 3.05806 2.29344 3.73451 2.09811 4.54755H1.08711C1.29377 3.48147 1.81844 2.59377 2.66111 1.88443C3.50377 1.1751 4.50277 0.820435 5.65811 0.820435C6.34277 0.820435 7.00077 0.944286 7.63211 1.19199C8.26344 1.4391 8.82844 1.79732 9.3271 2.26666L10.0001 2.89955L10.6351 2.30132C11.1424 1.82014 11.7151 1.45303 12.3531 1.19999C12.9911 0.946953 13.6458 0.820435 14.3171 0.820435C15.6251 0.820435 16.7328 1.26606 17.6401 2.15732C18.5474 3.04858 19.0008 4.12414 19.0001 5.38399C19.0001 6.07614 18.8458 6.74695 18.5371 7.39643C18.2278 8.04592 17.7834 8.62992 17.2041 9.14843L10.8641 14.7902C10.7368 14.9028 10.6014 14.9872 10.4581 15.0435C10.3148 15.0998 10.1631 15.128 10.0031 15.128M9.89411 7.55555H1.05811V6.66666H13.8751C14.2864 6.66666 14.6394 6.53599 14.9341 6.27466C15.2281 6.01273 15.3751 5.69895 15.3751 5.33332C15.3751 4.96769 15.2281 4.65392 14.9341 4.39199C14.6394 4.13066 14.2864 3.99999 13.8751 3.99999C13.6284 3.99999 13.3978 4.04977 13.1831 4.14932C12.9678 4.24947 12.7901 4.39169 12.6501 4.57599L11.6481 4.33155C11.8701 3.95881 12.1771 3.66221 12.5691 3.44177C12.9611 3.22132 13.3964 3.1111 13.8751 3.1111C14.5698 3.1111 15.1598 3.3271 15.6451 3.7591C16.1318 4.19051 16.3751 4.71466 16.3751 5.33155C16.3751 5.94843 16.1318 6.47318 15.6451 6.90577C15.1584 7.33836 14.5684 7.55495 13.8751 7.55555H11.8151C11.9938 7.73806 12.1318 7.93955 12.2291 8.15999C12.3264 8.38043 12.3751 8.6234 12.3751 8.88888C12.3751 9.50636 12.1318 10.0308 11.6451 10.4622C11.1598 10.8948 10.5698 11.1111 9.8751 11.1111C9.39711 11.1111 8.96177 11.0009 8.56911 10.7804C8.17711 10.56 7.87011 10.2634 7.64811 9.89066L8.6501 9.64621C8.7901 9.8311 8.96777 9.97332 9.18311 10.0729C9.39844 10.1724 9.6291 10.2222 9.8751 10.2222C10.2864 10.2222 10.6394 10.0915 10.9341 9.83021C11.2281 9.56829 11.3751 9.25451 11.3751 8.88888C11.3751 8.52325 11.2311 8.20947 10.9431 7.94755C10.6551 7.68562 10.3054 7.55495 9.89411 7.55555Z"/>
</mask>
<path d="M10.0031 15.1289C9.84244 15.1289 9.68211 15.1004 9.52211 15.0435C9.36211 14.9872 9.22544 14.9025 9.11211 14.7893L3.38211 9.67466H4.78511L9.81711 14.1555C9.85177 14.1852 9.88177 14.2038 9.9071 14.2115C9.93244 14.2192 9.96244 14.2228 9.9971 14.2222C10.0304 14.2222 10.0598 14.2187 10.0851 14.2115C10.1111 14.2038 10.1411 14.1852 10.1751 14.1555L16.4651 8.5591C16.9638 8.11584 17.3484 7.61806 17.6191 7.06577C17.8898 6.51347 18.0188 5.95317 18.0061 5.38488C17.9854 4.36266 17.6211 3.49629 16.9131 2.78577C16.2058 2.07466 15.3404 1.7191 14.3171 1.7191C13.7751 1.7191 13.2478 1.81688 12.7351 2.01243C12.2231 2.20799 11.7781 2.49273 11.4001 2.86666L10.4941 3.73332C10.4241 3.81036 10.3481 3.86369 10.2661 3.89332C10.1841 3.92295 10.0964 3.93747 10.0031 3.93688C9.90977 3.93629 9.81711 3.91792 9.72511 3.88177C9.63311 3.84562 9.55177 3.79614 9.48111 3.73332L8.57511 2.86666C8.19977 2.49155 7.75644 2.20503 7.24511 2.0071C6.73311 1.80858 6.20411 1.70932 5.65811 1.70932C4.78344 1.70932 4.02011 1.97895 3.36811 2.51821C2.71677 3.05806 2.29344 3.73451 2.09811 4.54755H1.08711C1.29377 3.48147 1.81844 2.59377 2.66111 1.88443C3.50377 1.1751 4.50277 0.820435 5.65811 0.820435C6.34277 0.820435 7.00077 0.944286 7.63211 1.19199C8.26344 1.4391 8.82844 1.79732 9.3271 2.26666L10.0001 2.89955L10.6351 2.30132C11.1424 1.82014 11.7151 1.45303 12.3531 1.19999C12.9911 0.946953 13.6458 0.820435 14.3171 0.820435C15.6251 0.820435 16.7328 1.26606 17.6401 2.15732C18.5474 3.04858 19.0008 4.12414 19.0001 5.38399C19.0001 6.07614 18.8458 6.74695 18.5371 7.39643C18.2278 8.04592 17.7834 8.62992 17.2041 9.14843L10.8641 14.7902C10.7368 14.9028 10.6014 14.9872 10.4581 15.0435C10.3148 15.0998 10.1631 15.128 10.0031 15.128M9.89411 7.55555H1.05811V6.66666H13.8751C14.2864 6.66666 14.6394 6.53599 14.9341 6.27466C15.2281 6.01273 15.3751 5.69895 15.3751 5.33332C15.3751 4.96769 15.2281 4.65392 14.9341 4.39199C14.6394 4.13066 14.2864 3.99999 13.8751 3.99999C13.6284 3.99999 13.3978 4.04977 13.1831 4.14932C12.9678 4.24947 12.7901 4.39169 12.6501 4.57599L11.6481 4.33155C11.8701 3.95881 12.1771 3.66221 12.5691 3.44177C12.9611 3.22132 13.3964 3.1111 13.8751 3.1111C14.5698 3.1111 15.1598 3.3271 15.6451 3.7591C16.1318 4.19051 16.3751 4.71466 16.3751 5.33155C16.3751 5.94843 16.1318 6.47318 15.6451 6.90577C15.1584 7.33836 14.5684 7.55495 13.8751 7.55555H11.8151C11.9938 7.73806 12.1318 7.93955 12.2291 8.15999C12.3264 8.38043 12.3751 8.6234 12.3751 8.88888C12.3751 9.50636 12.1318 10.0308 11.6451 10.4622C11.1598 10.8948 10.5698 11.1111 9.8751 11.1111C9.39711 11.1111 8.96177 11.0009 8.56911 10.7804C8.17711 10.56 7.87011 10.2634 7.64811 9.89066L8.6501 9.64621C8.7901 9.8311 8.96777 9.97332 9.18311 10.0729C9.39844 10.1724 9.6291 10.2222 9.8751 10.2222C10.2864 10.2222 10.6394 10.0915 10.9341 9.83021C11.2281 9.56829 11.3751 9.25451 11.3751 8.88888C11.3751 8.52325 11.2311 8.20947 10.9431 7.94755C10.6551 7.68562 10.3054 7.55495 9.89411 7.55555Z" fill="black"/>
<path d="M9.52211 15.0435L9.62261 14.7609L9.62168 14.7606L9.52211 15.0435ZM9.11211 14.7893L9.3241 14.5771L9.31815 14.5711L9.31188 14.5655L9.11211 14.7893ZM3.38211 9.67466V9.37466H2.5955L3.18233 9.89847L3.38211 9.67466ZM4.78511 9.67466L4.98461 9.45061L4.89932 9.37466H4.78511V9.67466ZM9.81711 14.1555L9.61756 14.3796L9.62219 14.3836L9.81711 14.1555ZM9.9971 14.2222V13.9222L9.99198 13.9223L9.9971 14.2222ZM10.0851 14.2115L10.1662 14.5004L10.1703 14.4992L10.0851 14.2115ZM10.1751 14.1555L10.3722 14.3817L10.3745 14.3797L10.1751 14.1555ZM16.4651 8.5591L16.2658 8.33488L16.2657 8.33497L16.4651 8.5591ZM18.0061 5.38488L17.7062 5.39094L17.7062 5.39156L18.0061 5.38488ZM16.9131 2.78577L16.7004 2.99733L16.7006 2.99752L16.9131 2.78577ZM12.7351 2.01243L12.6282 1.73213L12.6281 1.73218L12.7351 2.01243ZM11.4001 2.86666L11.6075 3.08347L11.6111 3.07993L11.4001 2.86666ZM10.4941 3.73332L10.2867 3.51654L10.2791 3.5238L10.2721 3.53157L10.4941 3.73332ZM9.48111 3.73332L9.27359 3.95025L9.2818 3.95755L9.48111 3.73332ZM8.57511 2.86666L8.36299 3.0789L8.36773 3.08344L8.57511 2.86666ZM7.24511 2.0071L7.13665 2.28681L7.13681 2.28687L7.24511 2.0071ZM3.36811 2.51821L3.1769 2.28704L3.17666 2.28724L3.36811 2.51821ZM2.09811 4.54755V4.84755H2.33457L2.3898 4.61763L2.09811 4.54755ZM1.08711 4.54755L0.792588 4.49045L0.723363 4.84755H1.08711V4.54755ZM5.65811 0.820435V1.12043V0.820435ZM7.63211 1.19199L7.52253 1.47126L7.52276 1.47135L7.63211 1.19199ZM9.3271 2.26666L9.1215 2.48512L9.12158 2.4852L9.3271 2.26666ZM10.0001 2.89955L9.79459 3.11809L10.0003 3.31153L10.2058 3.11791L10.0001 2.89955ZM10.6351 2.30132L10.8408 2.51969L10.8416 2.51899L10.6351 2.30132ZM19.0001 5.38399L18.7001 5.38383V5.38399H19.0001ZM18.5371 7.39643L18.808 7.52543L18.8081 7.52521L18.5371 7.39643ZM17.2041 9.14843L17.4035 9.37255L17.4042 9.37197L17.2041 9.14843ZM10.8641 14.7902L11.0628 15.015L11.0635 15.0143L10.8641 14.7902ZM9.89411 7.55555V7.85555L9.89454 7.85555L9.89411 7.55555ZM1.05811 7.55555H0.758105V7.85555H1.05811V7.55555ZM1.05811 6.66666V6.36666H0.758105V6.66666H1.05811ZM14.9341 6.27466L15.1332 6.4991L15.1337 6.49865L14.9341 6.27466ZM14.9341 4.39199L15.1337 4.16799L15.1332 4.16754L14.9341 4.39199ZM13.1831 4.14932L13.0569 3.87717L13.0566 3.8773L13.1831 4.14932ZM12.6501 4.57599L12.579 4.86744L12.77 4.91405L12.889 4.75746L12.6501 4.57599ZM11.6481 4.33155L11.3904 4.17803L11.1826 4.52679L11.577 4.623L11.6481 4.33155ZM15.6451 3.7591L15.4456 3.98319L15.4461 3.9836L15.6451 3.7591ZM13.8751 7.55555V7.85555H13.8754L13.8751 7.55555ZM11.8151 7.55555V7.25555H11.1016L11.6007 7.7654L11.8151 7.55555ZM12.3751 8.88888H12.6751H12.3751ZM11.6451 10.4622L11.4461 10.2377L11.4455 10.2383L11.6451 10.4622ZM8.56911 10.7804L8.42206 11.0419L8.42225 11.042L8.56911 10.7804ZM7.64811 9.89066L7.577 9.5992L7.18264 9.69541L7.39036 10.0442L7.64811 9.89066ZM8.6501 9.64621L8.88927 9.46511L8.77037 9.30808L8.579 9.35476L8.6501 9.64621ZM9.8751 10.2222V9.92221V10.2222ZM10.9341 9.83021L11.1332 10.0547L11.1337 10.0542L10.9341 9.83021ZM10.0031 14.8289C9.8786 14.8289 9.7522 14.807 9.62261 14.7609L9.4216 15.3262C9.61202 15.3939 9.80628 15.4289 10.0031 15.4289V14.8289ZM9.62168 14.7606C9.50141 14.7182 9.40385 14.6567 9.3241 14.5771L8.90011 15.0016C9.04703 15.1483 9.2228 15.2563 9.42253 15.3265L9.62168 14.7606ZM9.31188 14.5655L3.58188 9.45085L3.18233 9.89847L8.91233 15.0131L9.31188 14.5655ZM3.38211 9.97466H4.78511V9.37466H3.38211V9.97466ZM4.5856 9.8987L9.6176 14.3796L10.0166 13.9315L4.98461 9.45061L4.5856 9.8987ZM9.62219 14.3836C9.6688 14.4234 9.73615 14.4731 9.81982 14.4986L9.99439 13.9245C10.0044 13.9276 10.0118 13.9307 10.0163 13.9329C10.0209 13.9351 10.0235 13.9367 10.0241 13.9371C10.025 13.9376 10.021 13.9352 10.012 13.9275L9.62219 14.3836ZM9.81982 14.4986C9.88272 14.5177 9.94539 14.5231 10.0022 14.5222L9.99198 13.9223C9.98622 13.9224 9.9837 13.9221 9.98391 13.9221C9.98411 13.9221 9.98791 13.9226 9.99439 13.9245L9.81982 14.4986ZM9.9971 14.5222C10.0509 14.5222 10.1085 14.5166 10.1662 14.5004L10.004 13.9227C10.011 13.9207 10.01 13.9222 9.9971 13.9222V14.5222ZM10.1703 14.4992C10.2562 14.4737 10.3245 14.4232 10.3722 14.3817L9.97801 13.9294C9.96996 13.9364 9.96688 13.9381 9.96861 13.9371C9.96965 13.9364 9.97265 13.9346 9.97754 13.9323C9.98242 13.93 9.98992 13.9269 9.99988 13.9239L10.1703 14.4992ZM10.3745 14.3797L16.6645 8.78323L16.2657 8.33497L9.97569 13.9314L10.3745 14.3797ZM16.6644 8.78332C17.1897 8.31638 17.5993 7.78795 17.8885 7.19779L17.3497 6.93375C17.0976 7.44818 16.7378 7.9153 16.2658 8.33488L16.6644 8.78332ZM17.8885 7.19779C18.1785 6.60599 18.3199 5.99837 18.306 5.37819L17.7062 5.39156C17.7177 5.90797 17.601 6.42096 17.3497 6.93375L17.8885 7.19779ZM18.306 5.37881C18.2838 4.28099 17.8893 3.34044 17.1256 2.57401L16.7006 2.99752C17.3529 3.65213 17.687 4.44432 17.7062 5.39094L18.306 5.37881ZM17.1258 2.5742C16.3609 1.80521 15.4185 1.4191 14.3171 1.4191V2.0191C15.2624 2.0191 16.0506 2.34411 16.7004 2.99733L17.1258 2.5742ZM14.3171 1.4191C13.7381 1.4191 13.1746 1.52372 12.6282 1.73213L12.842 2.29273C13.321 2.11004 13.8121 2.0191 14.3171 2.0191V1.4191ZM12.6281 1.73218C12.0784 1.94213 11.5977 2.24924 11.1891 2.65338L11.6111 3.07993C11.9585 2.73622 12.3678 2.47385 12.8421 2.29269L12.6281 1.73218ZM11.1927 2.64987L10.2867 3.51654L10.7015 3.95011L11.6075 3.08344L11.1927 2.64987ZM10.2721 3.53157C10.2286 3.57941 10.1921 3.6011 10.1642 3.61118L10.3681 4.17547C10.5042 4.12629 10.6196 4.04131 10.7161 3.93507L10.2721 3.53157ZM10.1642 3.61118C10.1177 3.62795 10.0655 3.63727 10.005 3.63688L10.0012 4.23687C10.1274 4.23767 10.2505 4.21795 10.3681 4.17547L10.1642 3.61118ZM10.005 3.63688C9.95072 3.63654 9.89451 3.626 9.83482 3.60255L9.6154 4.16099C9.7397 4.20983 9.86882 4.23603 10.0012 4.23687L10.005 3.63688ZM9.83482 3.60255C9.77417 3.57872 9.7235 3.5474 9.68042 3.5091L9.2818 3.95755C9.38005 4.04488 9.49204 4.11252 9.6154 4.16099L9.83482 3.60255ZM9.68848 3.51654L8.78248 2.64987L8.36773 3.08344L9.27373 3.95011L9.68848 3.51654ZM8.78717 2.65446C8.38134 2.24886 7.90232 1.9398 7.3534 1.72733L7.13681 2.28687C7.61056 2.47025 8.01821 2.73423 8.36304 3.07885L8.78717 2.65446ZM7.35356 1.72739C6.80718 1.51554 6.24142 1.40932 5.65811 1.40932V2.00932C6.16679 2.00932 6.65903 2.10162 7.13665 2.28681L7.35356 1.72739ZM5.65811 1.40932C4.7162 1.40932 3.88463 1.70169 3.1769 2.28704L3.55931 2.74939C4.15558 2.25622 4.85068 2.00932 5.65811 2.00932V1.40932ZM3.17666 2.28724C2.47603 2.86795 2.01708 3.60058 1.80641 4.47746L2.3898 4.61763C2.5698 3.86844 2.95751 3.24818 3.55955 2.74919L3.17666 2.28724ZM2.09811 4.24755H1.08711V4.84755H2.09811V4.24755ZM1.38162 4.60464C1.57503 3.60698 2.06332 2.77978 2.8543 2.11395L2.46791 1.65492C1.57356 2.40776 1.01252 3.35597 0.792588 4.49045L1.38162 4.60464ZM2.8543 2.11395C3.64008 1.4525 4.56971 1.12043 5.65811 1.12043V0.520435C4.43583 0.520435 3.36746 0.897706 2.46791 1.65492L2.8543 2.11395ZM5.65811 1.12043C6.30564 1.12043 6.92645 1.23739 7.52253 1.47126L7.74168 0.912716C7.0751 0.651183 6.3799 0.520435 5.65811 0.520435V1.12043ZM7.52276 1.47135C8.11804 1.70435 8.65044 2.04177 9.1215 2.48512L9.53271 2.0482C9.00643 1.55287 8.40883 1.17385 7.74145 0.912627L7.52276 1.47135ZM9.12158 2.4852L9.79459 3.11809L10.2056 2.681L9.53262 2.04811L9.12158 2.4852ZM10.2058 3.11791L10.8408 2.51968L10.4294 2.08296L9.79439 2.68118L10.2058 3.11791ZM10.8416 2.51899C11.3217 2.06362 11.8619 1.71752 12.4637 1.47886L12.2425 0.921122C11.5683 1.18853 10.9632 1.57665 10.4287 2.08366L10.8416 2.51899ZM12.4637 1.47886C13.0673 1.23946 13.6845 1.12043 14.3171 1.12043V0.520435C13.607 0.520435 12.9149 0.654442 12.2425 0.921122L12.4637 1.47886ZM14.3171 1.12043C15.549 1.12043 16.5804 1.53691 17.4299 2.37134L17.8503 1.9433C16.8851 0.995216 15.7012 0.520435 14.3171 0.520435V1.12043ZM17.4299 2.37134C18.2804 3.20676 18.7007 4.20539 18.7001 5.38383L19.3001 5.38415C19.3008 4.04289 18.8145 2.8904 17.8503 1.9433L17.4299 2.37134ZM18.7001 5.38399C18.7001 6.02984 18.5565 6.65681 18.2661 7.26766L18.8081 7.52521C19.1351 6.8371 19.3001 6.12244 19.3001 5.38399H18.7001ZM18.2663 7.26744C17.9754 7.87821 17.5562 8.43073 17.004 8.92489L17.4042 9.37197C18.0107 8.8291 18.4802 8.21362 18.808 7.52543L18.2663 7.26744ZM17.0047 8.92432L10.6647 14.5661L11.0635 15.0143L17.4035 9.37255L17.0047 8.92432ZM10.6654 14.5655C10.5616 14.6572 10.4559 14.7221 10.3484 14.7643L10.5678 15.3228C10.747 15.2524 10.9119 15.1484 11.0628 15.015L10.6654 14.5655ZM10.3484 14.7643C10.2414 14.8064 10.1271 14.828 10.0031 14.828V15.428C10.1992 15.428 10.3881 15.3933 10.5678 15.3228L10.3484 14.7643ZM9.89411 7.25555H1.05811V7.85555H9.89411V7.25555ZM1.35811 7.55555V6.66666H0.758105V7.55555H1.35811ZM1.05811 6.96666H13.8751V6.36666H1.05811V6.96666ZM13.8751 6.96666C14.3562 6.96666 14.781 6.81142 15.1332 6.4991L14.735 6.05021C14.4979 6.26056 14.2166 6.36666 13.8751 6.36666V6.96666ZM15.1337 6.49865C15.486 6.18474 15.6751 5.79167 15.6751 5.33332H15.0751C15.0751 5.60624 14.9702 5.84072 14.7345 6.05066L15.1337 6.49865ZM15.6751 5.33332C15.6751 4.87498 15.486 4.48191 15.1337 4.16799L14.7345 4.61599C14.9702 4.82592 15.0751 5.06041 15.0751 5.33332H15.6751ZM15.1332 4.16754C14.781 3.85522 14.3562 3.69999 13.8751 3.69999V4.29999C14.2166 4.29999 14.4979 4.40609 14.735 4.61644L15.1332 4.16754ZM13.8751 3.69999C13.5867 3.69999 13.3128 3.75849 13.0569 3.87717L13.3093 4.42148C13.4828 4.34105 13.6701 4.29999 13.8751 4.29999V3.69999ZM13.0566 3.8773C12.7982 3.99748 12.5815 4.1703 12.4112 4.39452L12.889 4.75746C12.9987 4.61308 13.1374 4.50146 13.3096 4.42134L13.0566 3.8773ZM12.7212 4.28454L11.7192 4.04009L11.577 4.623L12.579 4.86744L12.7212 4.28454ZM11.9059 4.48506C12.1 4.15905 12.3681 3.89898 12.7162 3.70326L12.4221 3.18028C11.9861 3.42544 11.6402 3.75856 11.3904 4.17803L11.9059 4.48506ZM12.7162 3.70326C13.0604 3.50969 13.4445 3.4111 13.8751 3.4111V2.8111C13.3484 2.8111 12.8618 2.93296 12.4221 3.18028L12.7162 3.70326ZM13.8751 3.4111C14.5018 3.4111 15.0192 3.60364 15.4456 3.98319L15.8446 3.53501C15.3003 3.05056 14.6378 2.8111 13.8751 2.8111V3.4111ZM15.4461 3.9836C15.8725 4.36157 16.0751 4.80563 16.0751 5.33155H16.6751C16.6751 4.62368 16.3911 4.01945 15.8441 3.53461L15.4461 3.9836ZM16.0751 5.33155C16.0751 5.8575 15.8724 6.3023 15.4458 6.68154L15.8444 7.12999C16.3911 6.64405 16.6751 6.03937 16.6751 5.33155H16.0751ZM15.4458 6.68154C15.0177 7.06205 14.5 7.25501 13.8748 7.25555L13.8754 7.85555C14.6369 7.85489 15.2991 7.61467 15.8444 7.12999L15.4458 6.68154ZM13.8751 7.25555H11.8151V7.85555H13.8751V7.25555ZM11.6007 7.7654C11.7557 7.92376 11.8727 8.09558 11.9547 8.28116L12.5035 8.03882C12.3908 7.78351 12.2318 7.55237 12.0295 7.34569L11.6007 7.7654ZM11.9547 8.28116C12.0335 8.45971 12.0751 8.66085 12.0751 8.88888H12.6751C12.6751 8.58594 12.6194 8.30116 12.5035 8.03882L11.9547 8.28116ZM12.0751 8.88888C12.0751 9.41548 11.8724 9.85981 11.4461 10.2377L11.8441 10.6867C12.3911 10.2018 12.6751 9.59724 12.6751 8.88888H12.0751ZM11.4455 10.2383C11.0191 10.6183 10.5016 10.8111 9.8751 10.8111V11.4111C10.6379 11.4111 11.3005 11.1713 11.8447 10.6862L11.4455 10.2383ZM9.8751 10.8111C9.44527 10.8111 9.06101 10.7125 8.71597 10.5188L8.42225 11.042C8.86253 11.2892 9.34894 11.4111 9.8751 11.4111V10.8111ZM8.71616 10.5189C8.36811 10.3232 8.10002 10.0631 7.90585 9.73714L7.39036 10.0442C7.64019 10.4636 7.9861 10.7968 8.42206 11.0419L8.71616 10.5189ZM7.71921 10.1821L8.72121 9.93766L8.579 9.35476L7.577 9.5992L7.71921 10.1821ZM8.41094 9.82731C8.58134 10.0524 8.79828 10.2255 9.05721 10.3452L9.309 9.80057C9.13727 9.72118 8.99887 9.60984 8.88927 9.46511L8.41094 9.82731ZM9.05721 10.3452C9.31348 10.4637 9.58728 10.5222 9.8751 10.5222V9.92221C9.67093 9.92221 9.4834 9.8812 9.309 9.80057L9.05721 10.3452ZM9.8751 10.5222C10.3562 10.5222 10.781 10.367 11.1332 10.0547L10.735 9.60577C10.4979 9.81611 10.2166 9.92221 9.8751 9.92221V10.5222ZM11.1337 10.0542C11.486 9.74029 11.6751 9.34723 11.6751 8.88888H11.0751C11.0751 9.16179 10.9702 9.39628 10.7345 9.60621L11.1337 10.0542ZM11.6751 8.88888C11.6751 8.43278 11.4909 8.04024 11.145 7.7256L10.7413 8.16949C10.9713 8.3787 11.0751 8.61372 11.0751 8.88888H11.6751ZM11.145 7.7256C10.7983 7.41031 10.3752 7.25485 9.89367 7.25555L9.89454 7.85555C10.2357 7.85505 10.5119 7.96092 10.7413 8.16949L11.145 7.7256Z" fill="black" mask="url(#path-1-outside-1_244_1187)"/>
</svg>
