<svg width="14" height="14" viewBox="0 0 14 14" fill="none" xmlns="http://www.w3.org/2000/svg">
<path d="M4.5 10.5C4.36739 10.5 4.24021 10.4473 4.14645 10.3535C4.05268 10.2598 4 10.1326 4 9.99998V3.99998C4.00005 3.91478 4.02186 3.83101 4.06337 3.75661C4.10488 3.68222 4.16472 3.61966 4.2372 3.57488C4.30968 3.5301 4.39239 3.50458 4.4775 3.50075C4.56261 3.49692 4.64729 3.51489 4.7235 3.55298L10.7235 6.55298C10.8064 6.59455 10.8762 6.65837 10.9249 6.73731C10.9737 6.81626 10.9995 6.9072 10.9995 6.99998C10.9995 7.09275 10.9737 7.1837 10.9249 7.26264C10.8762 7.34158 10.8064 7.40541 10.7235 7.44698L4.7235 10.447C4.65412 10.4817 4.5776 10.4999 4.5 10.5ZM5 4.80898V9.19098L9.382 6.99998L5 4.80898Z" fill="black"/>
<path d="M7 1C8.18669 1 9.34673 1.35189 10.3334 2.01118C11.3201 2.67047 12.0892 3.60754 12.5433 4.7039C12.9974 5.80026 13.1162 7.00666 12.8847 8.17054C12.6532 9.33443 12.0818 10.4035 11.2426 11.2426C10.4035 12.0818 9.33443 12.6532 8.17054 12.8847C7.00666 13.1162 5.80026 12.9974 4.7039 12.5433C3.60755 12.0892 2.67047 11.3201 2.01119 10.3334C1.3519 9.34673 1 8.18669 1 7C1 5.4087 1.63214 3.88258 2.75736 2.75736C3.88258 1.63214 5.4087 1 7 1ZM7 0C5.61553 0 4.26216 0.410543 3.11101 1.17971C1.95987 1.94888 1.06266 3.04213 0.532846 4.32122C0.00303298 5.6003 -0.13559 7.00776 0.134506 8.36563C0.404603 9.7235 1.07129 10.9708 2.05026 11.9497C3.02922 12.9287 4.2765 13.5954 5.63437 13.8655C6.99224 14.1356 8.3997 13.997 9.67879 13.4672C10.9579 12.9373 12.0511 12.0401 12.8203 10.889C13.5895 9.73785 14 8.38447 14 7C14 5.14348 13.2625 3.36301 11.9497 2.05025C10.637 0.737498 8.85652 0 7 0Z" fill="black"/>
</svg>
