<svg width="20" height="22" viewBox="0 0 20 22" fill="none" xmlns="http://www.w3.org/2000/svg">
<path d="M2 13H4.28095C4.56095 13 4.83714 13.066 5.08762 13.194L7.03238 14.182C7.28286 14.309 7.55905 14.375 7.84 14.375H8.83238C9.79238 14.375 10.5714 15.166 10.5714 16.142C10.5714 16.182 10.5457 16.216 10.5086 16.227L8.08857 16.93C7.65434 17.0559 7.1913 17.0119 6.78571 16.806L4.70667 15.75M5.80952 6.83899C5.80952 4.74699 7.61524 2.67899 8.8819 1.48599C9.21549 1.17241 9.6475 0.999023 10.0952 0.999023C10.543 0.999023 10.975 1.17241 11.3086 1.48599C12.5752 2.67999 14.381 4.74599 14.381 6.83999C14.381 8.88999 12.7581 11 10.0952 11C7.43238 11 5.80952 8.88999 5.80952 6.83899Z" stroke="black" stroke-width="1.5" stroke-linecap="round" stroke-linejoin="round"/>
<path d="M10.5714 15.5L14.9457 14.089C15.3265 13.9663 15.7345 13.9731 16.1115 14.1083C16.4884 14.2435 16.8151 14.5003 17.0448 14.842C17.3962 15.352 17.2533 16.084 16.741 16.394L9.58381 20.731C9.36001 20.867 9.1122 20.9537 8.85546 20.9858C8.59873 21.018 8.33845 20.9949 8.09048 20.918L2 19.02" stroke="black" stroke-width="1.5" stroke-linecap="round" stroke-linejoin="round"/>
</svg>
