<svg width="25" height="24" viewBox="0 0 25 24" fill="none" xmlns="http://www.w3.org/2000/svg">
<path fill-rule="evenodd" clip-rule="evenodd" d="M12.5021 1.00001C15.1899 0.999601 17.7863 2.01309 19.8076 3.85173C21.8289 5.69036 23.1374 8.22878 23.4893 10.9942C23.511 11.1671 23.4997 11.3427 23.456 11.511C23.4123 11.6793 23.3371 11.8371 23.2347 11.9752C23.1323 12.1134 23.0046 12.2293 22.8591 12.3162C22.7135 12.4032 22.5528 12.4596 22.3863 12.4821C22.2197 12.5046 22.0505 12.4929 21.8883 12.4476C21.7261 12.4022 21.5741 12.3242 21.441 12.2179C21.3079 12.1116 21.1962 11.9792 21.1124 11.8281C21.0286 11.677 20.9743 11.5103 20.9526 11.3374C20.742 9.69438 20.0909 8.14577 19.0734 6.86807C18.056 5.59036 16.7133 4.63494 15.1981 4.11067C13.6829 3.58641 12.0563 3.51438 10.5037 3.9028C8.95098 4.29123 7.53466 5.12447 6.41608 6.3076H8.66637C9.00547 6.3076 9.33068 6.4474 9.57045 6.69624C9.81023 6.94508 9.94494 7.28258 9.94494 7.6345C9.94494 7.98641 9.81023 8.32392 9.57045 8.57276C9.33068 8.8216 9.00547 8.9614 8.66637 8.9614H3.55208C3.21298 8.9614 2.88777 8.8216 2.648 8.57276C2.40822 8.32392 2.27351 7.98641 2.27351 7.6345V2.32691C2.27351 2.15266 2.30658 1.98011 2.37084 1.81912C2.43509 1.65814 2.52927 1.51186 2.648 1.38865C2.76672 1.26543 2.90767 1.16769 3.06279 1.10101C3.21792 1.03433 3.38418 1.00001 3.55208 1.00001C3.71999 1.00001 3.88625 1.03433 4.04137 1.10101C4.19649 1.16769 4.33744 1.26543 4.45617 1.38865C4.5749 1.51186 4.66907 1.65814 4.73333 1.81912C4.79758 1.98011 4.83065 2.15266 4.83065 2.32691V4.20226C6.89192 2.14444 9.64191 0.996521 12.5021 1.00001ZM21.4521 23.9996C21.7912 23.9996 22.1164 23.8598 22.3562 23.6109C22.5959 23.3621 22.7306 23.0246 22.7306 22.6727V17.3651C22.7306 17.0132 22.5959 16.6757 22.3562 16.4268C22.1164 16.178 21.7912 16.0382 21.4521 16.0382H16.3378C15.9987 16.0382 15.6735 16.178 15.4337 16.4268C15.1939 16.6757 15.0592 17.0132 15.0592 17.3651C15.0592 17.717 15.1939 18.0545 15.4337 18.3033C15.6735 18.5522 15.9987 18.692 16.3378 18.692H18.5881C17.4696 19.8756 16.0531 20.7093 14.5002 21.0981C12.9472 21.4868 11.3203 21.4149 9.80485 20.8906C8.28937 20.3663 6.94633 19.4106 5.92881 18.1326C4.9113 16.8546 4.26025 15.3056 4.04987 13.6622C4.03173 13.4863 3.97991 13.3161 3.89745 13.1613C3.815 13.0066 3.70357 12.8705 3.56973 12.7611C3.43588 12.6517 3.28231 12.5711 3.11804 12.5242C2.95377 12.4772 2.78212 12.4648 2.61317 12.4877C2.44421 12.5106 2.28137 12.5683 2.13421 12.6574C1.98704 12.7465 1.85852 12.8652 1.75621 13.0066C1.65389 13.148 1.57983 13.3092 1.53839 13.4807C1.49695 13.6522 1.48896 13.8306 1.51489 14.0054C1.78328 16.1129 2.60924 18.102 3.90108 19.7518C5.19291 21.4017 6.90006 22.6476 8.83298 23.3514C10.7659 24.0552 12.849 24.1893 14.8509 23.7387C16.8527 23.2882 18.6952 22.2706 20.1735 20.7991V22.6727C20.1735 23.4051 20.7463 23.9996 21.4521 23.9996Z" fill="black"/>
</svg>
