<svg width="17" height="16" viewBox="0 0 17 16" fill="none" xmlns="http://www.w3.org/2000/svg">
<path d="M16.3444 6.4332H15.7V6.4H8.5V9.6H13.0212C12.3616 11.4628 10.5892 12.8 8.5 12.8C5.8492 12.8 3.7 10.6508 3.7 8C3.7 5.3492 5.8492 3.2 8.5 3.2C9.7236 3.2 10.8368 3.6616 11.6844 4.4156L13.9472 2.1528C12.5184 0.8212 10.6072 0 8.5 0C4.082 0 0.5 3.582 0.5 8C0.5 12.418 4.082 16 8.5 16C12.918 16 16.5 12.418 16.5 8C16.5 7.4636 16.4448 6.94 16.3444 6.4332Z" fill="#FFC107"/>
<path d="M1.42236 4.2764L4.05076 6.204C4.76196 4.4432 6.48436 3.2 8.49996 3.2C9.72356 3.2 10.8368 3.6616 11.6844 4.4156L13.9472 2.1528C12.5184 0.8212 10.6072 0 8.49996 0C5.42716 0 2.76236 1.7348 1.42236 4.2764Z" fill="#FF3D00"/>
<path d="M8.49993 16C10.5663 16 12.4439 15.2092 13.8635 13.9232L11.3875 11.828C10.5575 12.4596 9.54296 12.8011 8.49993 12.8C6.41913 12.8 4.65233 11.4732 3.98673 9.62158L1.37793 11.6316C2.70193 14.2224 5.39073 16 8.49993 16Z" fill="#4CAF50"/>
<path d="M16.3444 6.43322H15.7V6.40002H8.5V9.60002H13.0212C12.7057 10.4866 12.1373 11.2613 11.3864 11.8284L11.3876 11.8276L13.8636 13.9228C13.6884 14.082 16.5 12 16.5 8.00002C16.5 7.46362 16.4448 6.94002 16.3444 6.43322Z" fill="#1976D2"/>
</svg>
