<svg width="24" height="24" viewBox="0 0 24 24" fill="none" xmlns="http://www.w3.org/2000/svg">
<path d="M4.3738 11.4401C4.2935 12.9757 4.3859 14.6103 3.0142 15.6388C2.69884 15.8748 2.44293 16.1812 2.26685 16.5335C2.09078 16.8858 1.9994 17.2744 2 17.6683C2 18.765 2.8602 19.7 3.98 19.7H19.82C20.9398 19.7 21.8 18.765 21.8 17.6683C21.8 16.8697 21.4238 16.1173 20.7858 15.6388C19.4141 14.6103 19.5065 12.9757 19.4262 11.4401C19.3272 9.5108 18.4911 7.69318 17.0905 6.36261C15.6899 5.03205 13.8318 4.29016 11.9 4.29016C9.96816 4.29016 8.11008 5.03205 6.7095 6.36261C5.30891 7.69318 4.47279 9.5108 4.3738 11.4401Z" stroke="black" stroke-width="1.5" stroke-linecap="round" stroke-linejoin="round"/>
<path d="M15.2001 19.7C15.2001 20.5752 14.8524 21.4146 14.2336 22.0335C13.6147 22.6523 12.7753 23 11.9001 23C11.0249 23 10.1855 22.6523 9.56664 22.0335C8.94777 21.4146 8.6001 20.5752 8.6001 19.7M10.2501 2.2375C10.2501 3.1483 10.9893 4.3 11.9001 4.3C12.8109 4.3 13.5501 3.1483 13.5501 2.2375C13.5501 1.3267 12.8109 1 11.9001 1C10.9893 1 10.2501 1.3267 10.2501 2.2375Z" stroke="black" stroke-width="1.5" stroke-linecap="round" stroke-linejoin="round"/>
</svg>
