<svg width="25" height="24" viewBox="0 0 25 24" fill="none" xmlns="http://www.w3.org/2000/svg">
<path opacity="0.16" d="M9.5 12C9.50013 12.5933 9.67614 13.1732 10.0058 13.6664C10.3354 14.1596 10.8039 14.544 11.352 14.7711C11.9001 14.9981 12.5032 15.0575 13.0851 14.9418C13.667 14.8261 14.2014 14.5404 14.621 14.121L17.981 17.481C16.3298 18.4849 14.4324 19.0107 12.5 19C7.836 19 4.1 16.097 2.5 12C3.401 9.69302 4.98 7.76402 7.02 6.52002L10.379 9.87902C9.81635 10.4415 9.50017 11.2044 9.5 12Z" fill="black"/>
<path d="M11.23 5.073C11.6516 5.02419 12.0756 4.99982 12.5 5C17.164 5 20.9 7.903 22.5 12C22.1126 12.9966 21.5893 13.9348 20.945 14.788M7.02 6.519C4.98 7.764 3.4 9.693 2.5 12C4.1 16.097 7.836 19 12.5 19C14.4321 19.0102 16.3292 18.484 17.98 17.48M10.38 9.88C10.1014 10.1586 9.8804 10.4893 9.72963 10.8534C9.57885 11.2174 9.50125 11.6075 9.50125 12.0015C9.50125 12.3955 9.57885 12.7856 9.72963 13.1496C9.8804 13.5137 10.1014 13.8444 10.38 14.123C10.6586 14.4016 10.9893 14.6226 11.3534 14.7734C11.7174 14.9242 12.1075 15.0018 12.5015 15.0018C12.8955 15.0018 13.2856 14.9242 13.6496 14.7734C14.0137 14.6226 14.3444 14.4016 14.623 14.123" stroke="black" stroke-width="2" stroke-linecap="round" stroke-linejoin="round"/>
<path d="M4.5 4L20.5 20" stroke="black" stroke-width="2" stroke-linecap="round"/>
</svg>
