<svg width="16" height="18" viewBox="0 0 16 18" fill="none" xmlns="http://www.w3.org/2000/svg">
<path d="M2.906 1.53702C2.81491 1.48301 2.71114 1.45407 2.60524 1.45315C2.49934 1.45222 2.39508 1.47934 2.30306 1.53175C2.21104 1.58417 2.13452 1.66 2.0813 1.75155C2.02807 1.84311 2.00002 1.94712 2 2.05302V15.947C2.00002 16.0529 2.02807 16.1569 2.0813 16.2485C2.13452 16.34 2.21104 16.4159 2.30306 16.4683C2.39508 16.5207 2.49934 16.5478 2.60524 16.5469C2.71114 16.546 2.81491 16.517 2.906 16.463L14.629 9.51602C14.7185 9.46289 14.7927 9.38739 14.8442 9.29692C14.8957 9.20645 14.9228 9.10413 14.9228 9.00002C14.9228 8.89591 14.8957 8.79359 14.8442 8.70312C14.7927 8.61265 14.7185 8.53715 14.629 8.48402L2.906 1.53702Z" fill="black" stroke="black" stroke-width="1.5" stroke-linecap="round" stroke-linejoin="round"/>
</svg>
