<svg width="21" height="20" viewBox="0 0 21 20" fill="none" xmlns="http://www.w3.org/2000/svg">
<path d="M10.5 2C8.37827 2 6.34344 2.84285 4.84315 4.34315C3.34285 5.84344 2.5 7.87827 2.5 10C2.5 12.1217 3.34285 14.1566 4.84315 15.6569C6.34344 17.1571 8.37827 18 10.5 18C12.6217 18 14.6566 17.1571 16.1569 15.6569C17.6571 14.1566 18.5 12.1217 18.5 10C18.5 7.87827 17.6571 5.84344 16.1569 4.34315C14.6566 2.84285 12.6217 2 10.5 2ZM0.5 10C0.5 4.477 4.977 0 10.5 0C16.023 0 20.5 4.477 20.5 10C20.5 15.523 16.023 20 10.5 20C4.977 20 0.5 15.523 0.5 10Z" fill="black"/>
<path d="M10.5 8C10.7652 8 11.0196 8.10536 11.2071 8.29289C11.3946 8.48043 11.5 8.73478 11.5 9V15C11.5 15.2652 11.3946 15.5196 11.2071 15.7071C11.0196 15.8946 10.7652 16 10.5 16C10.2348 16 9.98043 15.8946 9.79289 15.7071C9.60536 15.5196 9.5 15.2652 9.5 15V9C9.5 8.73478 9.60536 8.48043 9.79289 8.29289C9.98043 8.10536 10.2348 8 10.5 8ZM12 5.5C12 5.89782 11.842 6.27936 11.5607 6.56066C11.2794 6.84196 10.8978 7 10.5 7C10.1022 7 9.72064 6.84196 9.43934 6.56066C9.15804 6.27936 9 5.89782 9 5.5C9 5.10218 9.15804 4.72064 9.43934 4.43934C9.72064 4.15804 10.1022 4 10.5 4C10.8978 4 11.2794 4.15804 11.5607 4.43934C11.842 4.72064 12 5.10218 12 5.5Z" fill="black"/>
</svg>
