<svg width="25" height="24" viewBox="0 0 25 24" fill="none" xmlns="http://www.w3.org/2000/svg">
<path d="M9.61752 23C8.527 22.7515 7.4795 22.3422 6.5094 21.7856M14.6306 1C17.1223 1.56908 19.347 2.96726 20.9404 4.96562C22.5338 6.96399 23.4016 9.44413 23.4016 12C23.4016 14.5559 22.5338 17.036 20.9404 19.0344C19.347 21.0327 17.1223 22.4309 14.6306 23M2.82352 18.3829C2.1406 17.3893 1.62142 16.2925 1.28575 15.1344M1 10.1201C1.20052 8.92947 1.58653 7.80153 2.12795 6.76757L2.33975 6.38532M5.74114 2.69944C6.91446 1.89343 8.22974 1.3168 9.61752 1" stroke="black" stroke-width="2" stroke-linecap="round" stroke-linejoin="round"/>
<path d="M8.36426 12L10.8708 14.5065L15.8839 9.49341" stroke="black" stroke-width="2" stroke-linecap="round" stroke-linejoin="round"/>
</svg>
