<svg width="20" height="20" viewBox="0 0 20 20" fill="none" xmlns="http://www.w3.org/2000/svg">
<path d="M19.1822 12.86C18.6592 14.3795 17.7583 15.741 16.5642 16.8165C15.37 17.892 13.922 18.646 12.3562 19.0077C10.7904 19.3693 9.15829 19.3267 7.61347 18.8839C6.06866 18.4411 4.66186 17.6126 3.52543 16.4764C2.38899 15.3401 1.56026 13.9335 1.11719 12.3887C0.674125 10.844 0.631281 9.21193 0.992691 7.64606C1.3541 6.0802 2.10789 4.632 3.18314 3.43769C4.2584 2.24338 5.61979 1.34222 7.13924 0.818966C7.32364 0.748938 7.52399 0.732108 7.71748 0.770393C7.91098 0.808678 8.08982 0.900539 8.23365 1.03551C8.37749 1.17048 8.48052 1.34314 8.53101 1.53381C8.5815 1.72448 8.57742 1.9255 8.51924 2.11397C8.01399 3.6157 7.9843 5.23674 8.43424 6.75597C8.76077 7.90071 9.37384 8.94326 10.2155 9.78509C11.0571 10.6269 12.0996 11.2402 13.2442 11.567C14.7642 12.017 16.3842 11.987 17.8872 11.483C18.0756 11.4249 18.2765 11.4209 18.467 11.4713C18.6575 11.5218 18.8301 11.6247 18.965 11.7684C19.0999 11.9121 19.1918 12.0908 19.2302 12.2841C19.2686 12.4774 19.252 12.6776 19.1822 12.862" stroke="black" stroke-width="1.5" stroke-linecap="round" stroke-linejoin="round"/>
</svg>
