<svg width="21" height="20" viewBox="0 0 21 20" fill="none" xmlns="http://www.w3.org/2000/svg">
<path d="M19.2419 11.045C18.5644 11.226 17.8661 11.3171 17.1649 11.316C15.0299 11.316 13.0249 10.486 11.5189 8.98001C10.5304 7.98508 9.81966 6.74858 9.45754 5.39361C9.09542 4.03864 9.0945 2.61245 9.45488 1.25701C9.49995 1.08755 9.49967 0.909206 9.45405 0.739884C9.40844 0.570562 9.3191 0.416212 9.195 0.292316C9.0709 0.16842 8.91641 0.0793356 8.74701 0.0339989C8.57762 -0.0113379 8.39928 -0.0113329 8.22988 0.0340134C6.53279 0.485583 4.98454 1.37611 3.74088 2.61601C-0.157117 6.51401 -0.157117 12.859 3.74088 16.759C4.66751 17.6906 5.76964 18.4292 6.98352 18.9321C8.1974 19.435 9.49895 19.6923 10.8129 19.689C12.1265 19.6927 13.4278 19.4357 14.6414 18.9329C15.855 18.4302 16.9567 17.6916 17.8829 16.76C19.1234 15.5159 20.0143 13.9669 20.4659 12.269C20.5111 12.0996 20.5109 11.9212 20.4655 11.7519C20.42 11.5825 20.3308 11.4281 20.2068 11.3041C20.0828 11.1801 19.9284 11.0909 19.759 11.0454C19.5897 10.9999 19.4113 10.9998 19.2419 11.045ZM16.4699 15.346C15.7288 16.091 14.8473 16.6816 13.8765 17.0838C12.9056 17.486 11.8647 17.6917 10.8139 17.689C9.76265 17.6918 8.7213 17.4861 7.75011 17.0837C6.77892 16.6814 5.89717 16.0904 5.15588 15.345C2.03788 12.226 2.03788 7.15001 5.15588 4.03101C5.75925 3.4302 6.45467 2.92957 7.21588 2.54801C7.10456 3.98705 7.30513 5.43317 7.80389 6.7876C8.30265 8.14202 9.08786 9.37285 10.1059 10.396C11.1266 11.4175 12.357 12.2051 13.7121 12.7042C15.0671 13.2034 16.5144 13.4022 17.9539 13.287C17.5719 14.0479 17.071 14.743 16.4699 15.346Z" fill="black"/>
</svg>
