<svg width="25" height="24" viewBox="0 0 25 24" fill="none" xmlns="http://www.w3.org/2000/svg">
<path d="M12.388 14.4C12.7308 14.4 13.0183 14.2848 13.2506 14.0544C13.4828 13.824 13.5986 13.5392 13.5978 13.2V7.2C13.5978 6.86 13.4816 6.5752 13.2494 6.3456C13.0171 6.116 12.73 6.0008 12.388 6C12.046 5.9992 11.7589 6.1144 11.5266 6.3456C11.2944 6.5768 11.1782 6.8616 11.1782 7.2V13.2C11.1782 13.54 11.2944 13.8252 11.5266 14.0556C11.7589 14.286 12.046 14.4008 12.388 14.4ZM16.0173 12.6C16.3601 12.6 16.6476 12.4848 16.8799 12.2544C17.1122 12.024 17.2279 11.7392 17.2271 11.4V8.4C17.2271 8.06 17.111 7.7752 16.8787 7.5456C16.6464 7.316 16.3593 7.2008 16.0173 7.2C15.6754 7.1992 15.3882 7.3144 15.156 7.5456C14.9237 7.7768 14.8075 8.0616 14.8075 8.4V11.4C14.8075 11.74 14.9237 12.0252 15.156 12.2556C15.3882 12.486 15.6754 12.6008 16.0173 12.6ZM8.75866 12C9.10143 12 9.38896 11.8848 9.62123 11.6544C9.85351 11.424 9.96925 11.1392 9.96844 10.8V8.4C9.96844 8.06 9.8523 7.7752 9.62002 7.5456C9.38775 7.316 9.10063 7.2008 8.75866 7.2C8.4167 7.1992 8.12958 7.3144 7.8973 7.5456C7.66502 7.7768 7.54889 8.0616 7.54889 8.4V10.8C7.54889 11.14 7.66502 11.4252 7.8973 11.6556C8.12958 11.886 8.4167 12.0008 8.75866 12ZM5.12933 18.84C3.98004 17.8 3.08803 16.5852 2.4533 15.1956C1.81857 13.806 1.50081 12.3408 1.5 10.8C1.5 7.8 2.55856 5.25 4.67567 3.15C6.79278 1.05 9.36355 0 12.388 0C14.9084 0 17.1416 0.7352 19.0877 2.2056C21.0339 3.676 22.2989 5.5908 22.8828 7.95L24.4555 14.1C24.5563 14.48 24.4858 14.8252 24.2438 15.1356C24.0019 15.446 23.6792 15.6008 23.276 15.6H20.8564V19.2C20.8564 19.86 20.6197 20.4252 20.1463 20.8956C19.6729 21.366 19.1031 21.6008 18.4369 21.6H16.0173V22.8C16.0173 23.14 15.9012 23.4252 15.6689 23.6556C15.4366 23.886 15.1495 24.0008 14.8075 24C14.4656 23.9992 14.1785 23.884 13.9462 23.6544C13.7139 23.4248 13.5978 23.14 13.5978 22.8V20.4C13.5978 20.06 13.7139 19.7752 13.9462 19.5456C14.1785 19.316 14.4656 19.2008 14.8075 19.2H18.4369V14.4C18.4369 14.06 18.553 13.7752 18.7853 13.5456C19.0176 13.316 19.3047 13.2008 19.6467 13.2H21.7033L20.554 8.55C20.0902 6.73 19.1023 5.25 17.59 4.11C16.0778 2.97 14.3438 2.4 12.388 2.4C10.0491 2.4 8.05296 3.21 6.3996 4.83C4.74624 6.45 3.91955 8.42 3.91955 10.74C3.91955 11.94 4.16675 13.08 4.66115 14.16C5.15554 15.24 5.856 16.2 6.76253 17.04L7.54889 17.76V22.8C7.54889 23.14 7.43275 23.4252 7.20047 23.6556C6.96819 23.886 6.68107 24.0008 6.33911 24C5.99715 23.9992 5.71002 23.884 5.47775 23.6544C5.24547 23.4248 5.12933 23.14 5.12933 22.8V18.84Z" fill="black"/>
</svg>
